<svg width="90" height="28" viewBox="0 0 90 28" fill="none" xmlns="http://www.w3.org/2000/svg">
<path d="M53.423 22.1284H46.6051L45.2614 25.3875H42.6506L48.7756 11.312H51.2678L57.4272 25.3875H54.7858L53.423 22.1284ZM52.5846 20.0781L50.0159 13.9272L47.4626 20.0781H52.5846Z" fill="#00A872"/>
<path d="M58.7822 11.312H64.7388C66.0797 11.2869 67.4077 11.5859 68.6167 12.1851C69.706 12.7306 70.6192 13.5894 71.2466 14.6581C71.8589 15.7852 72.1805 17.0557 72.1805 18.3478C72.1805 19.6399 71.8589 20.9104 71.2466 22.0375C70.6203 23.1071 69.7067 23.9661 68.6167 24.5105C67.4087 25.1129 66.0802 25.4133 64.7388 25.3875H58.7822V11.312ZM64.6278 23.1634C65.5412 23.1831 66.4461 22.98 67.2692 22.5708C68.0031 22.1991 68.6134 21.6106 69.0225 20.88C69.4247 20.0963 69.635 19.2228 69.635 18.3359C69.635 17.449 69.4247 16.5756 69.0225 15.7918C68.6132 15.0625 68.0029 14.4753 67.2692 14.105C66.4461 13.6958 65.5412 13.4928 64.6278 13.5124H61.3164V23.1634H64.6278Z" fill="white"/>
<path d="M72.9311 25.0556C72.6945 24.8248 72.5315 24.5253 72.4635 24.1968C72.3954 23.8682 72.4257 23.5261 72.5501 23.2157C72.6746 22.9053 72.8875 22.6412 73.1606 22.4583C73.4336 22.2754 73.7541 22.1824 74.0795 22.1915C74.3983 22.198 74.7082 22.3007 74.971 22.487C75.2338 22.6734 75.4379 22.9351 75.558 23.2398C75.6782 23.5446 75.7092 23.879 75.6471 24.2017C75.585 24.5245 75.4326 24.8213 75.2088 25.0556C74.9065 25.3592 74.5013 25.5291 74.0795 25.5291C73.6577 25.5291 73.2525 25.3592 72.9502 25.0556H72.9311Z" fill="white"/>
<path d="M89.3345 19.3433C89.7908 19.9871 90.024 20.7704 89.9968 21.5674C90.021 22.119 89.9086 22.6678 89.6702 23.162C89.4317 23.6563 89.0751 24.0796 88.634 24.392C87.7267 25.0557 86.3983 25.3875 84.6604 25.3875H77.877V11.312H84.2623C85.8752 11.312 87.1155 11.6373 87.9832 12.2878C88.401 12.5864 88.7394 12.9885 88.9675 13.4571C89.1956 13.9258 89.306 14.446 89.2886 14.9701C89.3009 15.619 89.1392 16.2588 88.8215 16.819C88.5154 17.3519 88.0695 17.7846 87.5353 18.0673C88.2486 18.2901 88.8773 18.736 89.3345 19.3433V19.3433ZM80.4112 13.3623V17.2417H83.9981C84.7087 17.2863 85.4164 17.116 86.0347 16.7518C86.254 16.5843 86.4322 16.366 86.5549 16.1146C86.6777 15.8632 86.7417 15.5855 86.7417 15.304C86.7417 15.0224 86.6777 14.7448 86.5549 14.4933C86.4322 14.2419 86.254 14.0236 86.0347 13.8561C85.4169 13.4903 84.7091 13.3187 83.9981 13.3623H80.4112ZM87.4473 21.3067C87.4473 19.953 86.466 19.2748 84.5034 19.2722H80.4112V23.3372H84.5034C86.4634 23.3372 87.4447 22.6604 87.4473 21.3067V21.3067Z" fill="white"/>
<path d="M33.0343 0.799805C25.9064 0.799805 18.6865 2.77504 18.6865 6.57539V21.8203C18.6865 25.6088 25.9064 27.5998 33.0343 27.5998C34.0832 27.5998 35.1436 27.5524 36.1734 27.4576L37.1457 25.2335C35.7812 25.3984 34.4082 25.4775 33.0343 25.4705C25.5427 25.4705 20.7461 23.3096 20.7461 21.8203V20.5364C23.4028 22.2746 28.2262 23.1832 33.0343 23.1832C34.7641 23.1834 36.492 23.0633 38.2061 22.8237L39.2244 20.5087C37.1808 20.8795 35.1093 21.0619 33.0343 21.0539C25.5427 21.0539 20.7461 18.893 20.7461 17.4076V16.1237C23.4028 17.8619 28.2262 18.7705 33.0343 18.7705C35.4778 18.7842 37.9158 18.5313 40.3078 18.016L41.3873 15.5588C38.6622 16.316 35.8486 16.6803 33.0267 16.6412C25.535 16.6412 20.7384 14.4803 20.7384 12.991V11.6952C23.3951 13.4453 28.2185 14.3539 33.0267 14.3539C36.4414 14.3539 39.8522 13.8996 42.5089 13.0068L43.7378 10.1901C43.2056 10.474 42.6527 10.7144 42.084 10.9091C42.0741 10.9054 42.0633 10.9054 42.0534 10.9091C41.9922 10.9091 41.885 10.9723 41.7204 11.0197C41.5557 11.0671 41.3873 11.1303 41.1576 11.1935C39.7047 11.6133 38.2166 11.8911 36.7132 12.0231C36.0011 12.1021 35.2278 12.1614 34.3933 12.1772C33.9531 12.1772 33.4975 12.2088 33.0267 12.2088C31.6485 12.2088 30.4197 12.1337 29.3096 12.0231C27.9193 11.868 26.5407 11.6173 25.1828 11.2725L24.6852 11.1303C24.0306 10.9407 23.6975 10.8024 23.6975 10.8024C22.4228 10.3323 21.527 9.79898 21.0753 9.28147C21.0371 9.2473 21.0059 9.20568 20.9834 9.15901C20.9183 9.08471 20.8665 8.99912 20.8303 8.90618C20.8145 8.853 20.794 8.80142 20.769 8.75211C20.6463 8.36995 20.5855 7.96953 20.5891 7.56697C20.576 7.14936 20.6477 6.73356 20.7996 6.34627C20.8537 6.19016 20.9369 6.04653 21.0446 5.92357C21.0655 5.88942 21.0913 5.85879 21.1212 5.83271C21.7839 5.21086 22.5667 4.74096 23.4181 4.45399L25.4049 8.99309L25.5733 9.38814C25.8145 9.84244 26.3772 10.4864 27.6635 10.0163L27.985 9.87404C28.9995 9.43554 30.6647 9.06024 32.931 9.04444H33.0496C33.8611 9.04319 34.6718 9.09598 35.4767 9.20247C35.6604 9.20247 35.8595 9.26172 36.0241 9.29332C36.7251 9.40223 37.412 9.59172 38.0722 9.85825C38.0987 9.86591 38.1244 9.8765 38.1487 9.88985C38.2521 9.93725 38.3439 9.96886 38.4358 10.0163C39.6646 10.4548 40.2274 9.92145 40.4992 9.46714C40.5775 9.31987 40.6478 9.1682 40.7097 9.01284L40.8322 8.71655L41.0313 8.27806L42.6851 4.47375C43.1248 4.63213 43.5501 4.83043 43.956 5.06632C44.0597 5.14046 44.167 5.20903 44.2775 5.27174C44.421 5.35989 44.5579 5.45893 44.6872 5.56803C44.7752 5.64704 44.8671 5.74185 44.9436 5.82086C45.028 5.89599 45.0992 5.98551 45.1542 6.08554C45.211 6.16724 45.2574 6.25621 45.292 6.35023C45.3311 6.42946 45.357 6.51493 45.3686 6.60305H47.4013C47.386 2.78689 40.1661 0.799805 33.0343 0.799805ZM32.1998 7.32204C30.2589 7.40105 28.3181 7.76054 26.9668 8.43212L24.9953 3.92463C27.3496 3.29859 29.7687 2.96831 32.1998 2.94097V7.32204ZM39.0904 8.43212C37.7429 7.76054 35.7983 7.40105 33.8574 7.32204V2.94097C36.2881 2.96332 38.7073 3.28963 41.0619 3.91278L39.0904 8.43212Z" fill="#00A872"/>
</svg>
