<svg width="137" height="33" viewBox="0 0 137 33" fill="none" xmlns="http://www.w3.org/2000/svg">
<g clip-path="url(#clip0_1042:11011)">
<path d="M33.1611 19.5317H26.662L25.3826 22.5128H22.8921L28.7431 9.63062H31.1198L36.9878 22.5128H34.4632L33.1611 19.5317ZM32.3651 17.6552L29.9144 12.0256L27.4807 17.6552H32.3651Z" fill="#00A872"/>
<path d="M46.7736 22.5128L44.1182 18.7372C44.0044 18.7484 43.8396 18.7541 43.6178 18.7541H40.6838V22.5072H38.2672V9.63062H43.6178C44.7436 9.63062 45.7273 9.81658 46.5632 10.1829C47.399 10.5492 48.0415 11.0789 48.4851 11.7664C48.9286 12.4539 49.156 13.271 49.156 14.2121C49.156 15.1813 48.9172 16.0153 48.4396 16.7141C47.9619 17.4129 47.2796 17.937 46.3869 18.2807L49.3778 22.5128H46.7736ZM45.9036 12.3186C45.3577 11.8791 44.5617 11.6537 43.5098 11.6537H40.6895V16.7874H43.5098C44.5617 16.7874 45.3577 16.562 45.9036 16.1168C46.4495 15.6716 46.7224 15.0348 46.7224 14.2121C46.7167 13.395 46.4438 12.7582 45.9036 12.3186Z" fill="#00A872"/>
<path d="M60.477 20.5066V22.5128H50.7311V9.63062H60.2211V11.6368H53.142V14.9841H59.4194V16.9508H53.142V20.501H60.477V20.5066Z" fill="#00A872"/>
<path d="M73.6061 9.63062V22.5128H71.6216L64.4515 13.7894V22.5128H62.0577V9.63062H64.0478L71.2179 18.354V9.63062H73.6061Z" fill="#00A872"/>
<path d="M84.7849 19.5317H78.2857L77.0007 22.5128H74.5102L80.3612 9.63062H82.7379L88.6059 22.5128H86.0813L84.7849 19.5317ZM83.9889 17.6552L81.5382 12.0256L79.1045 17.6552H83.9889Z" fill="#00A872"/>
<path d="M89.891 9.63062H95.5714C96.9588 9.63062 98.1926 9.89547 99.2673 10.4308C100.342 10.9662 101.178 11.7213 101.775 12.6962C102.366 13.6711 102.668 14.7981 102.668 16.0717C102.668 17.3453 102.372 18.4723 101.775 19.4472C101.178 20.4221 100.342 21.1772 99.2673 21.7126C98.1926 22.2479 96.9588 22.5128 95.5714 22.5128H89.891V9.63062ZM95.4633 20.4897C96.4186 20.4897 97.2545 20.3094 97.9823 19.9488C98.7044 19.5881 99.2616 19.0697 99.654 18.4047C100.046 17.7341 100.24 16.9621 100.24 16.0773C100.24 15.1926 100.046 14.4149 99.654 13.75C99.2616 13.0794 98.7044 12.5666 97.9823 12.2059C97.2601 11.8453 96.4186 11.6649 95.4633 11.6649H92.3076V20.501H95.4633V20.4897Z" fill="white"/>
<path d="M112.362 19.5317H105.863L104.578 22.5128H102.093L107.944 9.63062H110.321L116.189 22.5128H113.664L112.362 19.5317ZM111.566 17.6552L109.116 12.0256L106.682 17.6552H111.566Z" fill="white"/>
<path d="M118.338 11.6537H114.028V9.63062H125.059V11.6537H120.749V22.5128H118.333V11.6537H118.338Z" fill="white"/>
<path d="M133.179 19.5317H126.68L125.4 22.5128H122.91L128.761 9.63062H131.138L137.006 22.5128H134.481L133.179 19.5317ZM132.377 17.6552L129.927 12.0256L127.493 17.6552H132.377Z" fill="white"/>
<path d="M13.6977 0C6.89151 0 0 1.82018 0 5.29713V19.2725C0 22.7439 6.89151 24.5697 13.6977 24.5697C14.6985 24.5697 15.7106 24.5246 16.6943 24.4401L17.6211 22.4001C16.4327 22.541 15.1136 22.6142 13.6977 22.6142C6.54466 22.6142 1.96738 20.6363 1.96738 19.2725V18.0948C4.50336 19.6895 9.10339 20.5179 13.6977 20.5179C15.3751 20.5179 17.0582 20.4052 18.6332 20.1854L19.6055 18.061C17.9282 18.3596 15.9437 18.5625 13.6977 18.5625C6.54466 18.5625 1.96738 16.5845 1.96738 15.2208V14.043C4.50336 15.6378 9.10339 16.4662 13.6977 16.4662C16.1143 16.4662 18.5309 16.2351 20.6461 15.7787L21.6753 13.5246C19.6795 14.0994 16.9558 14.5164 13.6977 14.5164C6.54466 14.5164 1.96738 12.5384 1.96738 11.1747V9.98565C4.50336 11.5917 9.10339 12.4257 13.6977 12.4257C16.9558 12.4257 20.214 12.0087 22.7443 11.1916L23.9156 8.61065C23.4834 8.8417 22.9603 9.05584 22.3349 9.26998C22.3349 9.26998 22.3178 9.26998 22.3064 9.28688C22.2496 9.30379 22.1472 9.34324 21.988 9.38832C21.8572 9.4334 21.6696 9.48975 21.4535 9.54611C20.629 9.78842 19.1961 10.1209 17.2117 10.3069C16.5294 10.3801 15.7902 10.4365 14.9941 10.4477C14.5734 10.4647 14.1412 10.4759 13.692 10.4759C12.3729 10.4759 11.2015 10.4027 10.1439 10.3012C8.44949 10.1153 7.11895 9.84477 6.2035 9.61373C6.04429 9.56865 5.88508 9.5292 5.72587 9.48412C5.10608 9.30943 4.78767 9.18545 4.78767 9.18545C3.57085 8.75717 2.71794 8.2669 2.28011 7.79354V7.77664H2.27443C2.246 7.74846 2.21756 7.72029 2.18913 7.66393C2.13227 7.59068 2.07541 7.52305 2.04698 7.43289C2.02992 7.38781 2.01855 7.34836 1.99012 7.29201C1.89915 7.04406 1.80817 6.68904 1.80817 6.19877C1.80817 5.69723 1.89346 5.32531 2.01287 5.07736C2.08679 4.89139 2.17208 4.76178 2.246 4.68852C2.26305 4.66035 2.29148 4.63217 2.31991 4.604C2.72362 4.17572 3.46281 3.7418 4.50336 3.3417L6.40251 7.50051C6.41957 7.52869 6.56172 7.84426 6.56172 7.84426C6.79485 8.26127 7.32934 8.84733 8.55753 8.41906C8.65987 8.37397 8.76222 8.33453 8.85889 8.28945C9.8312 7.88934 11.4347 7.54559 13.5783 7.52869H13.692C14.5449 7.52869 15.341 7.58504 16.0063 7.66957C16.1825 7.68647 16.3531 7.72592 16.5294 7.7541C17.3425 7.88371 17.9907 8.06967 18.4854 8.27254C18.5024 8.27254 18.5593 8.30072 18.5593 8.30072C18.6617 8.3458 18.747 8.37397 18.8322 8.41342C20.0036 8.81352 20.5381 8.32889 20.7996 7.91188C20.9133 7.72592 20.9759 7.53996 21.0043 7.49488L21.118 7.22438L21.3057 6.82428L22.8864 3.33607C22.8864 3.33607 23.4948 3.53893 24.1032 3.88268C24.2056 3.95594 24.3079 4.01229 24.4046 4.06865C24.5467 4.15318 24.6775 4.24334 24.7969 4.33914C24.8822 4.4124 24.9732 4.49693 25.0414 4.57018C25.1267 4.65471 25.2006 4.72797 25.2461 4.8125C25.303 4.89703 25.3485 4.97029 25.3769 5.05482C25.4224 5.12807 25.4338 5.2126 25.4508 5.28586H27.3898C27.3955 1.82018 20.5039 0 13.6977 0ZM12.9017 5.96772C11.048 6.04098 9.19436 6.36783 7.90931 6.9877L6.02723 2.85707C7.82402 2.3668 10.1667 2.02305 12.9017 1.9667V5.96772ZM19.4861 6.9877C18.1954 6.36783 16.3417 6.04098 14.4938 5.96772V1.9667C17.2458 2.02305 19.5771 2.3668 21.3682 2.85707L19.4861 6.9877Z" fill="#00A872"/>
<path d="M23.2162 26.3955H26.0876C26.787 26.3955 27.4125 26.5308 27.9527 26.8012C28.4929 27.0717 28.9193 27.4493 29.2207 27.9452C29.522 28.4411 29.6699 29.0046 29.6699 29.6527C29.6699 30.3007 29.522 30.8643 29.2207 31.3602C28.9193 31.8561 28.4985 32.2336 27.9527 32.5041C27.4068 32.7746 26.787 32.9099 26.0876 32.9099H23.2162V26.3955ZM26.0308 31.8842C26.5141 31.8842 26.9349 31.7941 27.3045 31.6081C27.6684 31.4278 27.9527 31.1629 28.146 30.8248C28.345 30.4867 28.4417 30.0979 28.4417 29.647C28.4417 29.1962 28.345 28.8074 28.146 28.4693C27.947 28.1312 27.6684 27.8719 27.3045 27.686C26.9406 27.5057 26.5141 27.4099 26.0308 27.4099H24.4387V31.873H26.0308V31.8842Z" fill="#00D2A0"/>
<path d="M31.9386 32.5661C31.3984 32.2787 30.9776 31.8786 30.6706 31.3657C30.3635 30.8529 30.21 30.2838 30.21 29.6526C30.21 29.0215 30.3635 28.4467 30.6706 27.9395C30.9776 27.4267 31.3984 27.0266 31.9386 26.7392C32.4788 26.4518 33.0815 26.3053 33.7468 26.3053C34.4177 26.3053 35.0204 26.4518 35.5549 26.7392C36.0951 27.0266 36.5159 27.4267 36.8229 27.9339C37.13 28.4411 37.2835 29.0158 37.2835 29.6526C37.2835 30.2894 37.13 30.8642 36.8229 31.3714C36.5159 31.8786 36.0951 32.2787 35.5549 32.5661C35.0147 32.8534 34.412 33 33.7468 33C33.0815 33 32.4788 32.8534 31.9386 32.5661ZM34.9351 31.6475C35.2877 31.4503 35.5606 31.1798 35.7596 30.8304C35.9586 30.481 36.061 30.0865 36.061 29.6526C36.061 29.2187 35.9586 28.8243 35.7596 28.4749C35.5606 28.1255 35.282 27.8494 34.9351 27.6578C34.5826 27.4605 34.1903 27.3647 33.7524 27.3647C33.3146 27.3647 32.9223 27.4605 32.5697 27.6578C32.2172 27.855 31.9443 28.1255 31.7453 28.4749C31.5462 28.8243 31.4439 29.2187 31.4439 29.6526C31.4439 30.0865 31.5462 30.481 31.7453 30.8304C31.9443 31.1798 32.2229 31.4559 32.5697 31.6475C32.9223 31.8447 33.3146 31.9405 33.7524 31.9405C34.1903 31.9405 34.5826 31.8391 34.9351 31.6475Z" fill="#00D2A0"/>
<path d="M39.5465 32.5661C39.012 32.2787 38.5913 31.8786 38.2899 31.3714C37.9885 30.8642 37.835 30.2894 37.835 29.6526C37.835 29.0158 37.9885 28.4411 38.2956 27.9339C38.6026 27.4267 39.0234 27.0266 39.5579 26.7392C40.0924 26.4518 40.6894 26.3053 41.3547 26.3053C41.8949 26.3053 42.3839 26.4011 42.8274 26.5814C43.2709 26.7674 43.6462 27.0379 43.9532 27.3929L43.1629 28.1255C42.6852 27.6183 42.1053 27.3647 41.4116 27.3647C40.9624 27.3647 40.5586 27.4605 40.2004 27.6578C39.8422 27.855 39.5636 28.1255 39.3646 28.4692C39.1656 28.8186 39.0632 29.2074 39.0632 29.6526C39.0632 30.0978 39.1656 30.4866 39.3646 30.836C39.5636 31.1854 39.8422 31.4559 40.2004 31.6475C40.5586 31.8447 40.9624 31.9405 41.4116 31.9405C42.1053 31.9405 42.6909 31.6813 43.1629 31.1685L43.9532 31.9124C43.6462 32.2674 43.2709 32.5379 42.8217 32.7238C42.3725 32.9098 41.8835 33.0056 41.3433 33.0056C40.6781 33 40.081 32.8535 39.5465 32.5661Z" fill="#00D2A0"/>
<path d="M45.3691 32.7859C44.8972 32.645 44.5219 32.4534 44.249 32.2167L44.6697 31.2756C44.937 31.4841 45.2668 31.6588 45.6591 31.794C46.0514 31.9293 46.4438 31.9913 46.8361 31.9913C47.3251 31.9913 47.689 31.9124 47.9278 31.7602C48.1667 31.6081 48.2861 31.3996 48.2861 31.146C48.2861 30.96 48.2178 30.8079 48.0871 30.6839C47.9506 30.5656 47.78 30.4698 47.5753 30.4021C47.3706 30.3345 47.0863 30.2556 46.7338 30.1711C46.2334 30.0528 45.8297 29.9344 45.517 29.8161C45.2099 29.6977 44.9427 29.5118 44.7209 29.2638C44.4992 29.0102 44.3911 28.6721 44.3911 28.2438C44.3911 27.8832 44.4878 27.5563 44.6868 27.2633C44.8858 26.9703 45.1815 26.7336 45.5795 26.5589C45.9775 26.3842 46.4608 26.2997 47.0408 26.2997C47.4388 26.2997 47.8369 26.3504 48.2235 26.4462C48.6102 26.5476 48.9457 26.6885 49.23 26.8745L48.8433 27.8156C48.5533 27.6465 48.2576 27.5225 47.9449 27.4324C47.6322 27.3478 47.3308 27.3028 47.0351 27.3028C46.5518 27.3028 46.1936 27.3817 45.9605 27.5451C45.7273 27.7085 45.6079 27.9226 45.6079 28.1875C45.6079 28.3735 45.6762 28.5256 45.8069 28.6439C45.9434 28.7623 46.114 28.8525 46.3187 28.9257C46.5234 28.9933 46.8077 29.0722 47.1659 29.1568C47.6549 29.2695 48.0529 29.3822 48.3657 29.5061C48.6784 29.6245 48.9457 29.8104 49.1674 30.0584C49.3892 30.3063 49.5029 30.6388 49.5029 31.0615C49.5029 31.4221 49.4062 31.749 49.2072 32.0364C49.0082 32.3294 48.7125 32.5604 48.3088 32.7351C47.9108 32.9098 47.4218 32.9944 46.8475 32.9944C46.3301 33 45.8411 32.9267 45.3691 32.7859Z" fill="#00D2A0"/>
</g>
<defs>
<clipPath id="clip0_1042:11011">
<rect width="137" height="33" fill="white"/>
</clipPath>
</defs>
</svg>
