<svg width="90" height="28" viewBox="0 0 90 28" fill="none" xmlns="http://www.w3.org/2000/svg">
<g clip-path="url(#clip0_1184:9891)">
<path d="M52.9673 22.2881H45.9429L44.5556 25.6921H41.8804L48.1901 10.9961H50.7583L57.1024 25.7041H54.3737L52.9673 22.2881ZM52.1036 20.1441L49.4551 13.7161L46.8257 20.1441H52.1036Z" fill="#00A872"/>
<path d="M58.4858 10.9958H64.6274C66.0089 10.9683 67.3772 11.2822 68.6212 11.9118C69.7451 12.4807 70.6876 13.3782 71.3346 14.4958C71.966 15.6728 72.2976 17 72.2976 18.3498C72.2976 19.6996 71.966 21.0268 71.3346 22.2038C70.6876 23.3214 69.7451 24.2189 68.6212 24.7878C67.3772 25.4174 66.0089 25.7313 64.6274 25.7038H58.4858V10.9958ZM64.5089 23.3958C65.4487 23.4161 66.3798 23.2036 67.2262 22.7758C67.984 22.3906 68.6138 21.7761 69.0339 21.0118C69.4505 20.1937 69.6683 19.2809 69.6683 18.3538C69.6683 17.4268 69.4505 16.5139 69.0339 15.6958C68.6138 14.9315 67.984 14.317 67.2262 13.9318C66.3798 13.504 65.4487 13.2915 64.5089 13.3118H61.0961V23.3958H64.5089Z" fill="white"/>
<path d="M73.0582 25.3441C72.8164 25.1054 72.6489 24.796 72.5775 24.4563C72.5061 24.1165 72.534 23.7622 72.6577 23.4393C72.7815 23.1164 72.9952 22.8401 73.2711 22.6461C73.5471 22.4522 73.8724 22.3497 74.2048 22.3521C74.4246 22.3441 74.6436 22.3839 74.848 22.469C75.0524 22.5541 75.2377 22.6827 75.3921 22.8466C75.5466 23.0105 75.6669 23.2062 75.7454 23.4213C75.8238 23.6363 75.8589 23.8661 75.8482 24.0961C75.8528 24.3244 75.8136 24.5514 75.7329 24.7636C75.6522 24.9758 75.5317 25.1689 75.3785 25.3315C75.2253 25.4941 75.0425 25.6229 74.8409 25.7102C74.6393 25.7976 74.423 25.8417 74.2048 25.8401C73.9918 25.8407 73.7809 25.7972 73.5841 25.7121C73.3874 25.627 73.2086 25.5019 73.0582 25.3441Z" fill="white"/>
<path d="M87.3517 18.168H89.8206V24.032C89.0651 24.6512 88.2076 25.1203 87.2906 25.416C86.331 25.7388 85.329 25.9021 84.3211 25.9C82.9714 25.9219 81.6382 25.5862 80.4458 24.924C79.3233 24.3009 78.3859 23.3669 77.7362 22.224C77.0925 21.0396 76.7542 19.7005 76.7542 18.338C76.7542 16.9755 77.0925 15.6363 77.7362 14.452C78.3881 13.3067 79.3298 12.3723 80.4573 11.752C81.659 11.0888 83.0009 10.7531 84.3593 10.776C85.4567 10.7613 86.5466 10.9677 87.5696 11.384C88.5038 11.768 89.337 12.3796 90.0002 13.168L88.353 14.852C87.8517 14.3096 87.2496 13.8803 86.5838 13.5907C85.918 13.3011 85.2025 13.1572 84.4816 13.168C83.5631 13.1507 82.6551 13.3749 81.8408 13.82C81.0873 14.2412 80.4612 14.8743 80.033 15.648C79.59 16.4668 79.3656 17.3952 79.3834 18.336C79.3685 19.2637 79.5929 20.1785 80.033 20.984C80.4629 21.7614 81.0881 22.4005 81.8408 22.832C82.6427 23.2906 83.545 23.5222 84.4587 23.504C85.4702 23.527 86.4692 23.2659 87.3517 22.748V18.168Z" fill="white"/>
<path d="M31.9437 0C24.5983 0 17.1611 2.07599 17.1611 6.03599V21.964C17.1611 25.924 24.5983 28 31.9437 28C33.0214 28 34.1183 27.952 35.1807 27.852L36.1782 25.528C34.7728 25.6998 33.3587 25.7827 31.9437 25.776C24.2237 25.776 19.286 23.52 19.286 21.964V20.624C22.0224 22.44 26.9907 23.388 31.9437 23.388C33.7256 23.3882 35.5055 23.2626 37.2713 23.012L38.3184 20.612C36.2141 21.0012 34.0807 21.1926 31.9437 21.184C24.2237 21.184 19.286 18.928 19.286 17.372V16.032C22.0224 17.848 26.9907 18.796 31.9437 18.796C34.4643 18.8048 36.9788 18.5366 39.4458 17.996L40.5541 15.428C37.7471 16.2159 34.8497 16.5955 31.9437 16.556C24.2237 16.556 19.286 14.296 19.286 12.744V11.396C22.0224 13.228 26.9907 14.176 31.9437 14.176C35.4597 14.176 38.9758 13.7 41.7122 12.768L42.9772 9.824C42.4287 10.121 41.8587 10.3724 41.2726 10.576C41.2627 10.5723 41.2519 10.5723 41.2421 10.576C41.1809 10.576 41.0701 10.644 40.8981 10.692C40.7261 10.74 40.5542 10.808 40.321 10.872C38.822 11.3127 37.2864 11.6033 35.7349 11.74C35.0011 11.82 34.2062 11.884 33.3425 11.904C32.8915 11.904 32.4214 11.936 31.9361 11.936C30.5144 11.936 29.2608 11.852 28.1143 11.74C26.6817 11.5766 25.2617 11.3093 23.8645 10.94L23.3486 10.796C23.0055 10.6999 22.6674 10.5851 22.3358 10.452C21.0211 9.96 20.1001 9.404 19.63 8.852C19.5911 8.81507 19.5599 8.77013 19.5383 8.72C19.4705 8.64474 19.4173 8.55644 19.3816 8.45999C19.3655 8.40308 19.3437 8.34812 19.3166 8.296C19.188 7.89524 19.1247 7.47472 19.1293 7.052C19.1148 6.61494 19.1904 6.17973 19.351 5.776C19.4045 5.61325 19.489 5.46355 19.5994 5.33599C19.621 5.29962 19.6467 5.26605 19.6758 5.23599C20.3586 4.5899 21.1632 4.10074 22.0377 3.8L24.0518 8.552C24.0518 8.588 24.2238 8.952 24.2238 8.952C24.476 9.428 25.0531 10.1 26.3831 9.60801L26.7117 9.45999C27.7551 9.00399 29.4901 8.612 31.8061 8.596H31.9284C32.7639 8.59481 33.5987 8.64826 34.4279 8.75601C34.6151 8.75601 34.81 8.82401 34.9935 8.85601C35.7156 8.96832 36.4233 9.16556 37.1031 9.44399C37.1296 9.45175 37.1552 9.46249 37.1795 9.476C37.2904 9.528 37.3821 9.56001 37.4776 9.60801C38.7426 10.068 39.3197 9.50799 39.6025 9.03599C39.6832 8.88149 39.7559 8.72259 39.8204 8.55999L39.9465 8.252L40.149 7.79199L41.8536 3.82C42.3069 3.98648 42.7455 4.19392 43.1644 4.43999C43.2705 4.51641 43.3802 4.58718 43.4931 4.652C43.6423 4.74195 43.783 4.8464 43.9135 4.96399C44.009 5.04399 44.1007 5.144 44.181 5.224C44.3336 5.38362 44.4555 5.57236 44.5402 5.78C44.5796 5.86294 44.6054 5.95216 44.6167 6.04399H46.711C46.7263 2.07599 39.2891 0 31.9437 0ZM31.0838 6.8C29.085 6.88 27.0862 7.25599 25.6951 7.95999L23.6696 3.25601C26.0954 2.60578 28.5874 2.26463 31.0915 2.23999L31.0838 6.8ZM38.1961 7.95999C36.805 7.25599 34.8024 6.88 32.8036 6.8V2.23999C35.3077 2.26321 37.7999 2.60439 40.2255 3.25601L38.1961 7.95999Z" fill="#00A872"/>
</g>
<defs>
<clipPath id="clip0_1184:9891">
<rect width="90" height="28" fill="white"/>
</clipPath>
</defs>
</svg>
