<svg width="166" height="50" viewBox="0 0 166 50" fill="none" xmlns="http://www.w3.org/2000/svg">
<path d="M99.1796 39.4554H86.7199L84.2618 45.3192H79.4934L90.7065 19.981H95.2635L106.533 45.3192H101.652L99.1796 39.4554ZM97.6512 35.7609L92.9463 24.6849L88.2695 35.7609H97.6512Z" fill="#00A872"/>
<path d="M108.97 19.981H119.866C122.316 19.9374 124.743 20.4768 126.951 21.5561C128.941 22.5394 130.609 24.0858 131.755 26.0094C132.877 28.0369 133.466 30.3239 133.466 32.6501C133.466 34.9762 132.877 37.2632 131.755 39.2907C130.609 41.2143 128.941 42.7607 126.951 43.744C124.743 44.8233 122.316 45.3627 119.866 45.3192H108.97V19.981ZM119.647 41.3384C121.317 41.3748 122.971 41.0067 124.472 40.2644C125.828 39.6065 126.957 38.5486 127.712 37.2287C128.447 35.8182 128.832 34.2463 128.832 32.6501C128.832 31.0539 128.447 29.4819 127.712 28.0714C126.965 26.7564 125.849 25.6972 124.507 25.0286C123.004 24.2919 121.351 23.9264 119.683 23.9618H113.625V41.3384H119.647Z" fill="#FCFCFD"/>
<path d="M134.819 44.7178C134.536 44.4404 134.314 44.1061 134.166 43.7362C134.018 43.3663 133.948 42.969 133.96 42.5699C133.94 42.1679 134.001 41.7661 134.139 41.3888C134.277 41.0116 134.489 40.6667 134.762 40.3752C135.035 40.0837 135.364 39.8517 135.727 39.6931C136.091 39.5345 136.483 39.4528 136.879 39.4528C137.275 39.4528 137.667 39.5345 138.031 39.6931C138.395 39.8517 138.723 40.0837 138.996 40.3752C139.269 40.6667 139.481 41.0116 139.619 41.3888C139.757 41.7661 139.818 42.1679 139.799 42.5699C139.802 43.1579 139.635 43.7339 139.317 44.2253C138.999 44.7167 138.546 45.1015 138.013 45.3312C137.481 45.5609 136.893 45.6252 136.325 45.5161C135.756 45.4069 135.232 45.1291 134.819 44.7178Z" fill="#FCFCFD"/>
<path d="M166 19.981V45.3192H161.373V34.4579H148.49V45.3192H143.856V19.981H148.49V30.4413H161.373V19.981H166Z" fill="#0074BE"/>
<path d="M61.568 0.714233C48.4532 0.714233 35.1694 4.29408 35.1694 11.1817V38.8182C35.1694 45.6843 48.4532 49.2857 61.568 49.2857C63.4979 49.2857 65.4489 49.1997 67.3435 49.0279L69.1326 45.0041C66.6215 45.2968 64.0955 45.4379 61.568 45.4266C47.7841 45.4266 38.9588 41.5102 38.9588 38.8182V36.4913C43.8469 39.6415 52.7215 41.2811 61.568 41.2811C64.75 41.2968 67.9292 41.0911 71.0835 40.6654L72.9571 36.4698C69.1973 37.1444 65.3859 37.4775 61.568 37.465C47.7841 37.465 38.9588 33.5486 38.9588 30.8494V28.4939C43.8469 31.6441 52.7215 33.2909 61.568 33.2909C66.0635 33.318 70.5492 32.862 74.9504 31.9305L76.9366 27.4772C71.9215 28.8432 66.7454 29.5009 61.5539 29.4318C47.77 29.4318 38.9447 25.5154 38.9447 22.8234V20.4679C43.8328 23.6468 52.7074 25.2863 61.5539 25.2863C67.8366 25.2863 74.1122 24.4701 79.0003 22.852L81.2612 17.74C80.281 18.2542 79.2638 18.6922 78.2185 19.0502C78.2002 19.0437 78.1804 19.0437 78.1622 19.0502C78.0495 19.0502 77.8523 19.1576 77.5494 19.2435C77.2465 19.3294 76.9366 19.444 76.514 19.5586C73.8414 20.3228 71.1033 20.8263 68.3367 21.0621C67.0266 21.2053 65.6038 21.3198 64.0684 21.3485C63.2584 21.3485 62.4202 21.4058 61.5539 21.4058C59.0183 21.4058 56.7573 21.2626 54.7148 21.0621C52.1586 20.7855 49.6241 20.331 47.1291 19.7018L46.2064 19.444C45.5903 19.2803 44.9837 19.0819 44.3892 18.8498C42.0438 17.9977 40.4026 17.0312 39.5645 16.1004C39.4948 16.0352 39.4376 15.9575 39.3955 15.8713C39.2757 15.7367 39.1803 15.5815 39.1137 15.4131C39.0822 15.3176 39.0445 15.2244 39.001 15.1339C38.775 14.4413 38.6632 13.7156 38.67 12.986C38.6444 12.229 38.7764 11.4751 39.0574 10.7736C39.1532 10.489 39.3068 10.228 39.5082 10.0075C39.5465 9.94348 39.594 9.88558 39.649 9.83569C40.8693 8.71023 42.3093 7.85883 43.875 7.33696L47.5305 15.5634L47.8404 16.2436C48.2842 17.067 49.3196 18.234 51.6861 17.382L52.2778 17.1243C54.1443 16.3295 57.2081 15.6494 61.3778 15.6207H61.5962C63.0892 15.6185 64.5807 15.7141 66.0616 15.9071C66.3997 15.9071 66.766 16.0217 67.0689 16.0789C68.3589 16.271 69.6231 16.6121 70.837 17.0956C70.8859 17.1095 70.9331 17.1287 70.9779 17.1529C71.1681 17.2388 71.3371 17.2961 71.5062 17.382C73.7671 18.1767 74.8025 17.2102 75.3026 16.3868C75.4481 16.1206 75.5774 15.8457 75.6899 15.5634L75.9153 15.0265L76.2816 14.2317L79.3243 7.33696C80.1329 7.62838 80.9152 7.99007 81.6627 8.41806C81.8599 8.55409 82.0571 8.66866 82.2544 8.78321C82.5183 8.94297 82.7702 9.12246 83.008 9.32019C83.17 9.46338 83.339 9.6352 83.4799 9.7784C83.6355 9.91415 83.7666 10.0765 83.8673 10.2581C83.9734 10.4078 84.0587 10.5716 84.1208 10.745C84.194 10.8855 84.2418 11.0383 84.2617 11.196H88.0017C87.9735 4.31555 74.6898 0.714233 61.568 0.714233ZM60.0325 12.5134C56.4615 12.6566 52.8905 13.3081 50.4042 14.5325L46.7769 6.35606C51.1106 5.235 55.5609 4.6461 60.0325 4.60195V12.5134ZM72.7106 14.5325C70.2313 13.3081 66.6533 12.6566 63.0823 12.5134V4.60195C67.5541 4.64403 72.0046 5.23296 76.3379 6.35606L72.7106 14.5325Z" fill="#00A872"/>
</svg>
