<svg width="90" height="28" viewBox="0 0 90 28" fill="none" xmlns="http://www.w3.org/2000/svg">
<path d="M53.7721 22.0951H47.0169L45.6841 25.3788H43.0989L49.1783 11.1895H51.6489L57.7588 25.3788H55.1125L53.7721 22.0951ZM52.9435 20.0262L50.3926 13.8237L47.857 20.0262H52.9435Z" fill="#00A872"/>
<path d="M59.0801 11.1894H64.9876C66.3161 11.165 67.6316 11.467 68.8292 12.0714C69.9079 12.6221 70.8122 13.4881 71.4335 14.5653C72.0417 15.7007 72.3612 16.9814 72.3612 18.2841C72.3612 19.5867 72.0417 20.8674 71.4335 22.0028C70.8122 23.08 69.9079 23.946 68.8292 24.4967C67.6316 25.1011 66.3161 25.4031 64.9876 25.3788H59.0801V11.1894ZM64.8692 23.1495C65.7742 23.1699 66.6709 22.9638 67.485 22.5481C68.22 22.1797 68.8321 21.5872 69.2416 20.8481C69.6402 20.0582 69.8486 19.1779 69.8486 18.2841C69.8486 17.3902 69.6402 16.5099 69.2416 15.72C68.8363 14.9836 68.2315 14.3904 67.5041 14.016C66.6891 13.6035 65.7929 13.3988 64.8883 13.4186H61.6042V23.1495H64.8692Z" fill="white"/>
<path d="M73.0948 25.0417C72.9415 24.8864 72.8209 24.6991 72.7407 24.492C72.6604 24.2848 72.6224 24.0624 72.6289 23.8388C72.6183 23.6137 72.6515 23.3887 72.7263 23.1775C72.8011 22.9662 72.9159 22.7731 73.0639 22.6098C73.212 22.4466 73.39 22.3167 73.5873 22.2279C73.7846 22.1391 73.9971 22.0933 74.2117 22.0933C74.4264 22.0933 74.6388 22.1391 74.8361 22.2279C75.0334 22.3167 75.2114 22.4466 75.3595 22.6098C75.5075 22.7731 75.6224 22.9662 75.6972 23.1775C75.772 23.3887 75.8051 23.6137 75.7945 23.8388C75.7966 24.1681 75.7058 24.4907 75.5335 24.7659C75.3613 25.0411 75.1153 25.2566 74.8265 25.3852C74.5378 25.5138 74.2193 25.5498 73.9111 25.4887C73.6029 25.4276 73.3189 25.272 73.0948 25.0417V25.0417Z" fill="white"/>
<path d="M90.0001 11.1895V25.3788H87.4912V19.2965H80.5068V25.3788H77.9941V11.1895H80.5068V17.0472H87.4912V11.1895H90.0001Z" fill="white"/>
<path d="M33.3803 0.399902C26.2699 0.399902 19.0679 2.40462 19.0679 6.26169V21.7381C19.0679 25.5832 26.2699 27.5999 33.3803 27.5999C34.4267 27.5999 35.4844 27.5518 36.5117 27.4556L37.4816 25.2023C36.1202 25.3662 34.7507 25.4452 33.3803 25.4388C25.9072 25.4388 21.1223 23.2457 21.1223 21.7381V20.435C23.7725 22.1992 28.5841 23.1173 33.3803 23.1173C35.1055 23.1261 36.8292 23.0109 38.5394 22.7725L39.5552 20.423C37.5167 20.8008 35.4503 20.9873 33.3803 20.9803C25.9072 20.9803 21.1223 18.7872 21.1223 17.2756V15.9565C23.7725 17.7206 28.5841 18.6428 33.3803 18.6428C35.8177 18.658 38.2497 18.4026 40.6359 17.881L41.7127 15.3872C38.9937 16.1521 36.1874 16.5204 33.3727 16.4817C25.8995 16.4817 21.1147 14.2886 21.1147 12.781V11.4619C23.7649 13.2421 28.5764 14.1603 33.3727 14.1603C36.779 14.1603 40.1814 13.7032 42.8316 12.7971L44.0574 9.93433C43.5259 10.2223 42.9745 10.4676 42.4077 10.6681C42.3978 10.6644 42.3871 10.6644 42.3772 10.6681C42.3161 10.6681 42.2092 10.7282 42.045 10.7763C41.8808 10.8244 41.7127 10.8886 41.4836 10.9527C40.0346 11.3807 38.5501 11.6627 37.0501 11.7947C36.3398 11.8749 35.5684 11.939 34.736 11.9551C34.2968 11.9551 33.8424 11.9872 33.3727 11.9872C31.998 11.9872 30.7722 11.907 29.6647 11.7947C28.2789 11.6398 26.9047 11.3853 25.552 11.0329L25.0518 10.8886C24.7178 10.7969 24.3888 10.6858 24.0665 10.5558C22.7949 10.0787 21.9052 9.5374 21.4507 9.01617C21.413 8.97964 21.3819 8.93615 21.3591 8.88787C21.2942 8.81246 21.2425 8.72559 21.2064 8.63127C21.1892 8.57781 21.1688 8.52557 21.1452 8.47489C21.0227 8.08707 20.9621 7.68065 20.9658 7.27206C20.9519 6.84817 21.0235 6.42598 21.1758 6.03315C21.2277 5.87376 21.311 5.72759 21.4202 5.60414C21.441 5.56828 21.4667 5.53586 21.4966 5.50792C22.1582 4.87766 22.9389 4.40087 23.7878 4.10863L25.7697 8.71546L25.9377 9.09636C26.1783 9.55745 26.7396 10.211 28.0227 9.73386L28.3435 9.58952C29.3554 9.14447 31.0166 8.76357 33.2772 8.74753H33.3956C34.2051 8.74627 35.0138 8.79985 35.8166 8.90792C35.9999 8.90792 36.1985 8.97207 36.3627 9.00414C37.0622 9.11167 37.7476 9.30268 38.4057 9.57348C38.4322 9.58125 38.4578 9.59201 38.4821 9.60556C38.5852 9.65367 38.6769 9.68575 38.7685 9.73386C39.9943 10.1789 40.5557 9.63763 40.8268 9.17655C40.9057 9.02749 40.9758 8.87351 41.0368 8.71546L41.159 8.41476L41.3576 7.9697L43.0072 4.10863C43.4456 4.27182 43.8698 4.47437 44.2751 4.71404C44.382 4.79022 44.4889 4.85438 44.5958 4.91853C44.7389 5.008 44.8755 5.10851 45.0044 5.21924C45.0923 5.29943 45.1839 5.39565 45.2603 5.47583C45.3447 5.55185 45.4157 5.64277 45.4703 5.74447C45.5279 5.82828 45.5741 5.92002 45.6078 6.01711C45.6475 6.09581 45.6733 6.18138 45.6842 6.26971H47.7119C47.6966 2.41664 40.4946 0.399902 33.3803 0.399902ZM32.5478 7.00744C30.6118 7.08763 28.6757 7.45249 27.3277 8.1381L25.3611 3.55933C27.7107 2.93153 30.1235 2.60175 32.5478 2.57702V7.00744ZM39.4215 8.1381C38.0773 7.45249 36.1374 7.08763 34.2013 7.00744V2.57702C36.6258 2.60059 39.0387 2.93039 41.3881 3.55933L39.4215 8.1381Z" fill="#00A872"/>
</svg>
