<svg width="90" height="28" viewBox="0 0 90 28" fill="none" xmlns="http://www.w3.org/2000/svg">
<path d="M34.6946 21.584H27.8879L26.5579 24.8999H23.9514L30.0664 10.6479H32.5582L38.7 24.8999H36.0552L34.6946 21.584ZM33.8577 19.508L31.2894 13.276L28.7402 19.508H33.8577Z" fill="#00A872"/>
<path d="M40.0454 10.632H45.996C47.3361 10.6055 48.6634 10.9083 49.8714 11.516C50.9602 12.0698 51.8732 12.9406 52.5008 14.024C53.1121 15.1652 53.4332 16.4516 53.4332 17.76C53.4332 19.0683 53.1121 20.3547 52.5008 21.496C51.8719 22.5773 50.9592 23.4465 49.8714 24C48.6647 24.6132 47.3373 24.9215 45.996 24.9H40.0454V10.632ZM45.8814 22.632C46.7933 22.6519 47.6968 22.4463 48.5185 22.032C49.2512 21.6556 49.8605 21.0597 50.2689 20.32C50.6704 19.5264 50.8804 18.642 50.8804 17.744C50.8804 16.8459 50.6704 15.9616 50.2689 15.168C49.8592 14.4304 49.2502 13.8361 48.5185 13.46C47.6968 13.0457 46.7933 12.8401 45.8814 12.86H42.5717V22.632H45.8814Z" fill="white"/>
<path d="M54.167 24.5481C53.8981 24.2744 53.7282 23.9115 53.6864 23.5213C53.6446 23.1311 53.7334 22.7378 53.9377 22.4085C54.142 22.0792 54.4492 21.8343 54.8068 21.7156C55.1644 21.5969 55.5502 21.6117 55.8986 21.7575C56.2469 21.9034 56.536 22.1711 56.7168 22.5152C56.8975 22.8593 56.9586 23.2584 56.8895 23.6443C56.8205 24.0302 56.6257 24.3791 56.3383 24.6315C56.0509 24.8839 55.6887 25.0241 55.3136 25.0281C55.1013 25.0341 54.8901 24.9945 54.693 24.912C54.4958 24.8294 54.3168 24.7056 54.167 24.5481Z" fill="white"/>
<path d="M73.0969 26.3082C72.6648 26.848 72.1229 27.2799 71.5108 27.5722C70.8889 27.861 70.2152 28.0069 69.5349 28.0002C68.6391 28.0084 67.7557 27.7801 66.9666 27.3362C65.9716 26.7163 65.07 25.9452 64.2913 25.0482C63.09 24.9572 61.928 24.5618 60.9051 23.8962C59.9276 23.2604 59.1243 22.3701 58.5738 21.3122C58.0039 20.1817 57.7156 18.919 57.7356 17.6409C57.7556 16.3628 58.0834 15.1106 58.6885 14.0002C59.3156 12.8888 60.2243 11.9806 61.3141 11.3762C62.4762 10.7532 63.7633 10.4282 65.0691 10.4282C66.3748 10.4282 67.6619 10.7532 68.824 11.3762C69.9125 11.9788 70.8211 12.884 71.4496 13.9922C72.0177 15.0337 72.3422 16.201 72.3967 17.3989C72.4512 18.5967 72.234 19.791 71.763 20.8842C71.3455 21.8265 70.7348 22.6609 69.9744 23.3282C69.1921 24.0078 68.2799 24.5043 67.2991 24.7842C67.6146 25.155 67.9897 25.465 68.4074 25.7002C68.7696 25.8885 69.1687 25.9858 69.5731 25.9842C70.0182 25.9835 70.4577 25.8812 70.861 25.6843C71.2643 25.4874 71.6217 25.2007 71.9082 24.8442L73.0969 26.3082ZM60.9166 20.3322C61.3177 21.084 61.9105 21.7044 62.6288 22.1242C63.3829 22.5468 64.2251 22.768 65.0805 22.768C65.9359 22.768 66.7781 22.5468 67.5322 22.1242C68.2506 21.7044 68.8433 21.084 69.2444 20.3322C69.6532 19.541 69.8672 18.6557 69.8672 17.7562C69.8672 16.8568 69.6532 15.9715 69.2444 15.1802C68.8432 14.4295 68.2504 13.8105 67.5322 13.3922C66.7781 12.9696 65.9359 12.7485 65.0805 12.7485C64.2251 12.7485 63.3829 12.9696 62.6288 13.3922C61.9106 13.8105 61.3178 14.4295 60.9166 15.1802C60.5079 15.9715 60.2938 16.8568 60.2938 17.7562C60.2938 18.6557 60.5079 19.541 60.9166 20.3322Z" fill="white"/>
<path d="M87.2185 24.8998L87.1994 15.4518L82.7393 23.2558H81.5927L77.1211 15.5599V24.8998H74.7134V10.6318H76.7963L82.2004 20.0998L87.5128 10.6518H89.5919L89.6186 24.8998H87.2185Z" fill="white"/>
<path d="M14.3281 0C7.20801 0 0 2 0 5.848V21.3C0 25.136 7.20801 27.148 14.3281 27.148C15.3715 27.148 16.434 27.1 17.462 27.004L18.4328 24.752C17.0705 24.9188 15.6997 24.999 14.3281 24.992C6.84494 24.992 2.05998 22.804 2.05998 21.3V20C4.70853 21.76 9.52788 22.676 14.3281 22.676C16.0551 22.6779 17.7803 22.5563 19.4915 22.312L20.5081 19.968C18.4672 20.3367 16.3991 20.5147 14.3281 20.5C6.84494 20.5 2.05998 18.316 2.05998 16.808V15.508C4.70853 17.268 9.52788 18.188 14.3281 18.188C16.7674 18.2029 19.2015 17.9482 21.5896 17.428L22.6636 14.94C19.9464 15.7049 17.1417 16.075 14.3281 16.04C6.84494 16.04 2.05998 13.852 2.05998 12.348V11.032C4.70853 12.808 9.52788 13.724 14.3281 13.724C17.7334 13.724 21.1425 13.268 23.791 12.364L25.0178 9.508C24.4863 9.79602 23.9343 10.0407 23.3668 10.24C23.3626 10.2381 23.358 10.2372 23.3534 10.2372C23.3488 10.2372 23.3443 10.2381 23.3401 10.24C23.2789 10.24 23.1719 10.3 23.0037 10.348C22.8356 10.396 22.6712 10.46 22.4457 10.524C20.9951 10.9491 19.5095 11.2303 18.0086 11.364C17.2939 11.444 16.5219 11.508 15.6887 11.524C15.2492 11.524 14.7982 11.556 14.3281 11.556C12.9484 11.556 11.7216 11.476 10.6171 11.364C9.22908 11.2074 7.85268 10.9535 6.49715 10.604L5.99649 10.46C5.66352 10.3682 5.33562 10.2574 5.01427 10.128C3.74159 9.652 2.84728 9.112 2.39248 8.588C2.35469 8.55156 2.32361 8.50817 2.30076 8.46C2.23826 8.3836 2.18793 8.29716 2.15171 8.204C2.13457 8.15067 2.11413 8.09856 2.09054 8.048C1.96442 7.66188 1.90239 7.25602 1.9071 6.848C1.89217 6.42464 1.96519 6.00294 2.12112 5.612C2.17199 5.45332 2.254 5.30753 2.3619 5.184C2.38271 5.14822 2.40847 5.11587 2.43834 5.088C3.10052 4.45923 3.88187 3.98356 4.73146 3.692L6.71882 8.288L6.88316 8.66801C7.12776 9.12801 7.68574 9.78 8.9737 9.304L9.29092 9.16C10.8732 8.56325 12.5474 8.27845 14.2288 8.32H14.3281C15.1383 8.31886 15.9476 8.37232 16.7512 8.48001C16.9308 8.48001 17.1143 8.544 17.2939 8.576C17.994 8.68276 18.68 8.87333 19.3386 9.14399C19.3651 9.15175 19.3907 9.16249 19.415 9.176C19.522 9.224 19.6137 9.256 19.7016 9.304C20.9285 9.748 21.4903 9.208 21.7616 8.748C21.8412 8.59903 21.9127 8.44545 21.9757 8.288L22.098 7.988L22.2929 7.54399L23.9439 3.692C24.3837 3.85519 24.8095 4.05724 25.2166 4.296C25.3236 4.372 25.4268 4.436 25.5338 4.5C25.6776 4.58828 25.8144 4.68861 25.9427 4.8C26.0326 4.88027 26.1181 4.96574 26.1988 5.05601C26.2832 5.13293 26.3555 5.22338 26.4128 5.324C26.4704 5.40761 26.5167 5.49914 26.5504 5.596C26.5872 5.67543 26.6117 5.7605 26.623 5.848H28.6524C28.6562 2.012 21.4482 0 14.3281 0ZM13.495 6.592C11.5573 6.672 9.61579 7.036 8.2705 7.72L6.30223 3.152C8.65378 2.52568 11.0686 2.19666 13.495 2.172V6.592ZM20.3743 7.72C19.0252 7.036 17.0875 6.672 15.1498 6.592V2.172C17.5801 2.19454 19.999 2.52359 22.354 3.152L20.3743 7.72Z" fill="#00A872"/>
</svg>
