<svg width="90" height="28" viewBox="0 0 90 28" fill="none" xmlns="http://www.w3.org/2000/svg">
<path d="M55.6648 22.0428H48.8567L47.515 25.3506H44.908L51.0241 11.0649H53.5165L59.6632 25.3506H57.018L55.6648 22.0428ZM54.8315 19.9619L52.2627 13.7192L49.713 19.9619H54.8315Z" fill="#00A872"/>
<path d="M61.0164 11.065H66.972C68.311 11.0395 69.6371 11.343 70.8443 11.951C71.9311 12.5061 72.8427 13.3774 73.4704 14.4609C74.0818 15.6049 74.4029 16.8943 74.4029 18.2058C74.4029 19.5172 74.0818 20.8066 73.4704 21.9506C72.8442 23.0364 71.9322 23.9093 70.8443 24.4645C69.6371 25.0726 68.311 25.376 66.972 25.3506H61.0164V11.065ZM66.8535 23.0933C67.7655 23.1132 68.6692 22.9071 69.4911 22.4918C70.224 22.1146 70.8334 21.5172 71.2418 20.7758C71.6435 19.9803 71.8535 19.0939 71.8535 18.1937C71.8535 17.2936 71.6435 16.4071 71.2418 15.6117C70.8321 14.8723 70.2229 14.2766 69.4911 13.8996C68.6692 13.4843 67.7655 13.2783 66.8535 13.2982H63.5469V23.0933H66.8535Z" fill="white"/>
<path d="M75.1447 25.0016C74.8566 24.6819 74.6975 24.2577 74.7007 23.8177C74.704 23.3777 74.8694 22.9562 75.1623 22.6412C75.4551 22.3262 75.8528 22.1423 76.2721 22.1279C76.6913 22.1135 77.0996 22.2697 77.4115 22.5639C77.7072 22.894 77.8718 23.3298 77.8718 23.7827C77.8718 24.2356 77.7072 24.6715 77.4115 25.0016C77.1097 25.3097 76.7051 25.4821 76.2839 25.4821C75.8627 25.4821 75.4581 25.3097 75.1562 25.0016H75.1447Z" fill="white"/>
<path d="M81.456 25.0861C80.6072 24.844 79.8157 24.4194 79.1318 23.8392L80.0072 21.7783C80.625 22.2761 81.3192 22.6598 82.0599 22.913C82.8452 23.2005 83.6708 23.3482 84.5026 23.35C85.2888 23.4064 86.0742 23.23 86.7694 22.8408C86.9994 22.7077 87.1914 22.5127 87.3258 22.276C87.4602 22.0392 87.532 21.7692 87.5339 21.4937C87.5385 21.3032 87.5032 21.1141 87.4306 20.9395C87.3579 20.765 87.2497 20.6092 87.1134 20.4833C86.8059 20.2007 86.4451 19.9889 86.0546 19.8618C85.6264 19.7095 85.0416 19.5411 84.3038 19.3486C83.439 19.1531 82.5873 18.8987 81.7541 18.5868C81.1157 18.3364 80.5468 17.923 80.099 17.384C79.6131 16.7548 79.3666 15.9593 79.4071 15.1507C79.401 14.3845 79.6155 13.6341 80.0225 12.9977C80.483 12.307 81.1242 11.7709 81.8688 11.454C82.8296 11.0468 83.8605 10.853 84.8963 10.8847C85.7229 10.8842 86.5462 10.9934 87.3466 11.2095C88.086 11.4005 88.79 11.7189 89.4299 12.1517L88.6348 14.1764C88.0497 13.8119 87.4212 13.5301 86.7656 13.3385C86.153 13.1524 85.5188 13.0566 84.881 13.0538C83.8795 13.0538 83.1367 13.2302 82.6525 13.583C82.4259 13.7323 82.2398 13.9401 82.1119 14.1865C81.984 14.433 81.9187 14.7098 81.9223 14.9904C81.9168 15.1794 81.9513 15.3673 82.0234 15.5406C82.0954 15.7139 82.2032 15.8683 82.339 15.9927C82.6509 16.2681 83.0123 16.4753 83.4017 16.6021C83.8298 16.7545 84.4109 16.9229 85.1524 17.1154C85.9992 17.308 86.832 17.5625 87.6448 17.8772C88.2811 18.1361 88.8507 18.5481 89.3076 19.08C89.7913 19.6992 90.0367 20.4858 89.9957 21.2852C90.0037 22.0487 89.7904 22.7967 89.3841 23.4302C88.9175 24.116 88.2725 24.6463 87.5263 24.9578C86.5629 25.3657 85.5297 25.5609 84.4911 25.5312C83.464 25.5408 82.4412 25.3908 81.456 25.0861V25.0861Z" fill="white"/>
<path d="M35.3056 0.399902C28.184 0.399902 20.9746 2.40462 20.9746 6.26169V21.7341C20.9746 25.5791 28.184 27.5999 35.3056 27.5999C36.3491 27.5999 37.408 27.5518 38.4401 27.4556L39.411 25.1982C38.0485 25.3655 36.6774 25.4458 35.3056 25.4388C27.8209 25.4388 23.035 23.2457 23.035 21.7341V20.431C25.6841 22.1952 30.5005 23.1173 35.3056 23.1173C37.0329 23.1173 38.7582 22.9954 40.4699 22.7525L41.4829 20.3989C39.4439 20.7789 37.3764 20.9655 35.3056 20.9563C27.8209 20.9563 23.035 18.7631 23.035 17.2556V15.9525C25.6841 17.7166 30.5005 18.6388 35.3056 18.6388C37.7455 18.6523 40.18 18.3956 42.5685 17.873L43.6427 15.3791C40.9227 16.1474 38.1145 16.5171 35.2979 16.4777C27.8133 16.4777 23.0273 14.2846 23.0273 12.773V11.4539C25.6764 13.2341 30.4929 14.1563 35.2979 14.1563C38.7039 14.1563 42.1136 13.6952 44.7627 12.7891L45.9897 9.93032C45.4579 10.2175 44.9058 10.4615 44.3384 10.66C44.3285 10.6564 44.3177 10.6564 44.3078 10.66C44.2505 10.66 44.1434 10.7242 43.9752 10.7723C43.807 10.8204 43.6427 10.8846 43.4171 10.9487C41.9661 11.3744 40.4803 11.6563 38.9791 11.7907C38.2643 11.8709 37.4921 11.931 36.6588 11.9471C36.2192 11.9471 35.7643 11.9791 35.2979 11.9791C33.918 11.9791 32.6909 11.8989 31.5862 11.7907C30.2004 11.6397 28.8261 11.3892 27.473 11.0409L26.9723 10.9006C26.3224 10.7081 25.9899 10.5678 25.9899 10.5678C24.7169 10.0907 23.8225 9.54942 23.3676 9.02419C23.3306 8.98836 23.2996 8.94636 23.2758 8.8999C23.212 8.82433 23.1615 8.73744 23.1267 8.6433C23.111 8.58932 23.0905 8.53697 23.0656 8.48692C22.9399 8.09978 22.8778 7.69305 22.8821 7.28409C22.868 6.85981 22.941 6.4373 23.0962 6.04518C23.149 5.8871 23.2308 5.74137 23.337 5.61617C23.357 5.58085 23.3829 5.54961 23.4134 5.52396C24.0757 4.8937 24.8572 4.4169 25.707 4.12466L27.6909 8.73151L27.8591 9.11239C28.1 9.57348 28.6619 10.223 29.9501 9.74989L30.2674 9.60556C31.8498 9.00705 33.5244 8.72156 35.2062 8.76358H35.3285C36.1388 8.76259 36.9483 8.81615 37.752 8.92395C37.9344 8.94491 38.1155 8.9757 38.2948 9.01617C38.9953 9.12427 39.6815 9.31665 40.3399 9.58952C40.3664 9.59729 40.3921 9.60805 40.4164 9.6216C40.5234 9.66971 40.6152 9.70178 40.7031 9.74989C41.9301 10.1949 42.4921 9.65367 42.7635 9.19259C42.8423 9.04285 42.9138 8.88895 42.9775 8.73151L43.096 8.4308L43.2948 7.98574L44.9462 4.12466C45.3864 4.28579 45.8123 4.48703 46.2191 4.72607C46.3214 4.80128 46.4273 4.87088 46.5364 4.93457C46.6811 5.02167 46.818 5.12232 46.9454 5.23528C47.0353 5.31574 47.1208 5.4014 47.2015 5.49188C47.2868 5.56807 47.3592 5.65891 47.4156 5.76051C47.4724 5.84343 47.5186 5.93372 47.5532 6.02914C47.5895 6.11037 47.614 6.19688 47.6258 6.28575H49.6442C49.6442 2.41664 42.4233 0.399902 35.3056 0.399902ZM34.4722 7.00744C32.5303 7.08763 30.5923 7.45249 29.2467 8.13409L27.2743 3.55933C29.6271 2.92818 32.0438 2.59702 34.4722 2.57301V7.00744ZM41.3529 8.13409C40.0035 7.45249 38.0655 7.08763 36.1274 7.00744V2.57301C38.5546 2.59624 40.9702 2.92742 43.3216 3.55933L41.3529 8.13409Z" fill="#00A872"/>
</svg>
