<svg width="160" height="72" viewBox="0 0 160 72" fill="none" xmlns="http://www.w3.org/2000/svg">
<path d="M8.52495 24.643L7.44307 22.1952H2.23812L1.16368 24.643H0L4.2978 15.0708H5.43173L9.71838 24.643H8.52495ZM2.68054 21.1849H7.00809L4.82944 16.2594L2.68054 21.1849Z" fill="#FCFCFD"/>
<path d="M14.834 15.0745C16.0188 15.0745 16.9346 15.3568 17.5815 15.9214C17.9151 16.2151 18.1774 16.5807 18.3487 16.9906C18.52 17.4005 18.5959 17.844 18.5705 18.2875C18.5957 18.743 18.5202 19.1986 18.3493 19.6216C18.1784 20.0447 17.9162 20.425 17.5815 20.7353C16.9346 21.3198 16.0188 21.612 14.834 21.612H12.3282V24.643H11.2129V15.0745H14.834ZM14.7894 20.5979C15.5069 20.6438 16.2184 20.4418 16.8045 20.0259C17.0457 19.8142 17.2351 19.5501 17.3582 19.2539C17.4813 18.9577 17.5348 18.6373 17.5146 18.3172C17.5353 18.0047 17.4817 17.6917 17.3583 17.4038C17.2349 17.1159 17.0451 16.8612 16.8045 16.6605C16.2184 16.2446 15.5069 16.0426 14.7894 16.0885H12.3282V20.5979H14.7894Z" fill="#FCFCFD"/>
<path d="M26.9994 24.643L25.9175 22.1952H20.7125L19.6344 24.643H18.4707L22.7685 15.0708H23.9062L28.1891 24.643H26.9994ZM21.155 21.1886H25.4676L23.2927 16.2632L21.155 21.1886Z" fill="#FCFCFD"/>
<path d="M36.4034 17.214C36.026 16.839 35.5789 16.5413 35.0873 16.3374C34.6106 16.1223 34.0935 16.0109 33.5704 16.0105C32.8776 16.0039 32.1957 16.1835 31.5963 16.5306C31.157 16.783 30.772 17.1195 30.4633 17.521C30.1546 17.9224 29.9283 18.3808 29.7974 18.8699C29.6665 19.3589 29.6335 19.869 29.7004 20.3708C29.7673 20.8726 29.9327 21.3562 30.1872 21.794C30.53 22.3857 31.0237 22.8759 31.6181 23.2146C32.2125 23.5533 32.8862 23.7283 33.5704 23.7218C34.0908 23.7215 34.6062 23.6192 35.0873 23.421C35.5749 23.2162 36.0209 22.9241 36.4034 22.5592L37.0726 23.2835C36.59 23.7394 36.0297 24.1054 35.4182 24.3644C34.8149 24.6143 34.1676 24.7406 33.5146 24.7359C32.6488 24.7458 31.7955 24.5275 31.041 24.103C30.2865 23.6784 29.6573 23.0627 29.2169 22.3178C28.7792 21.5712 28.5518 20.7202 28.5588 19.855C28.5506 18.9971 28.7837 18.1541 29.2317 17.4221C29.6668 16.6843 30.2904 16.0753 31.0386 15.6577C31.8043 15.2192 32.673 14.9922 33.5556 15.0002C34.2032 15.0012 34.8445 15.1273 35.4442 15.3717C36.0433 15.6127 36.591 15.9657 37.0577 16.4117L36.4034 17.214Z" fill="#FCFCFD"/>
<path d="M39.0332 15.0745H40.13V19.4093H45.9149V15.0745H47.0117V24.643H45.9149V20.4085H40.13V24.643H39.0332V15.0745Z" fill="#FCFCFD"/>
<path d="M49.9168 15.0745H56.4193V16.0997H51.0099V19.3127H55.843V20.3082H51.0099V23.6512H56.5866V24.643H49.8945L49.9168 15.0745Z" fill="#FCFCFD"/>
<path d="M12.3728 35.5302H1.5911V32.5771H16.8639V35.0919L5.76249 48.6312V48.7129H17.0386V51.6845H1.23047V49.1958L12.3839 35.6045L12.3728 35.5302Z" fill="#FCFCFD"/>
<path d="M23.6793 47.8659C24.1131 48.2981 24.6307 48.6374 25.2003 48.8628C25.7698 49.0883 26.3795 49.1952 26.9919 49.1771C27.6006 49.1972 28.207 49.0911 28.7726 48.8654C29.3383 48.6397 29.851 48.2994 30.2784 47.8659C30.7179 47.409 31.0606 46.8682 31.2861 46.2759C31.5116 45.6837 31.6152 45.0521 31.5908 44.4189C31.6168 43.7894 31.5139 43.1612 31.2882 42.5729C31.0625 41.9847 30.7189 41.4487 30.2784 40.9978C29.855 40.5572 29.3437 40.2105 28.7775 39.9801C28.2113 39.7497 27.6029 39.6409 26.9919 39.6606C26.3773 39.6434 25.7658 39.7533 25.1958 39.9834C24.6257 40.2136 24.1094 40.5589 23.6793 40.9978C23.2469 41.4532 22.9103 41.9906 22.6893 42.5782C22.4684 43.1658 22.3676 43.7917 22.393 44.4189C22.3693 45.0498 22.4708 45.6792 22.6915 46.2707C22.9123 46.8623 23.248 47.4044 23.6793 47.8659ZM32.4682 49.7529C30.9834 51.14 29.0265 51.9116 26.9938 51.9116C24.961 51.9116 23.0041 51.14 21.5193 49.7529C20.8089 49.0604 20.2482 48.2298 19.8715 47.3124C19.4949 46.395 19.3104 45.4102 19.3295 44.4189C19.311 43.4342 19.496 42.4563 19.8727 41.5462C20.2495 40.6361 20.81 39.8134 21.5193 39.1294C22.9952 37.7248 24.9554 36.9414 26.9938 36.9414C29.0321 36.9414 30.9923 37.7248 32.4682 39.1294C33.1798 39.8155 33.7417 40.6413 34.1185 41.5547C34.4953 42.4682 34.679 43.4496 34.658 44.4374C34.6745 45.4257 34.4888 46.4069 34.1122 47.321C33.7357 48.235 33.1763 49.0625 32.4682 49.7529Z" fill="#FCFCFD"/>
<path d="M41.5405 47.8659C41.9739 48.2987 42.4913 48.6383 43.061 48.8638C43.6307 49.0893 44.2406 49.1959 44.853 49.1771C45.4612 49.1969 46.0669 49.0906 46.6319 48.865C47.1969 48.6393 47.709 48.2991 48.1359 47.8659C48.5758 47.4092 48.919 46.8685 49.1452 46.2763C49.3713 45.684 49.4756 45.0523 49.452 44.4189C49.4803 43.7881 49.3791 43.1582 49.1547 42.568C48.9303 41.9777 48.5873 41.4396 48.147 40.9867C47.7242 40.5464 47.2134 40.1998 46.6479 39.9694C46.0823 39.739 45.4746 39.63 44.8642 39.6494C44.2494 39.6309 43.6375 39.7402 43.0673 39.9704C42.4971 40.2006 41.9809 40.5467 41.5516 40.9867C41.1185 41.4415 40.7814 41.9788 40.5604 42.5666C40.3394 43.1543 40.239 43.7804 40.2652 44.4077C40.2378 45.0398 40.3364 45.6711 40.5553 46.2647C40.7742 46.8584 41.1091 47.4027 41.5405 47.8659ZM50.3256 49.7529C48.8408 51.14 46.884 51.9116 44.8512 51.9116C42.8184 51.9116 40.8615 51.14 39.3767 49.7529C38.6664 49.0604 38.1056 48.2298 37.729 47.3124C37.3523 46.395 37.1678 45.4102 37.1869 44.4189C37.1685 43.4342 37.3534 42.4563 37.7302 41.5462C38.1069 40.6361 38.6674 39.8134 39.3767 39.1294C40.8526 37.7248 42.8128 36.9414 44.8512 36.9414C46.8895 36.9414 48.8497 37.7248 50.3256 39.1294C51.0372 39.8155 51.5991 40.6413 51.9759 41.5547C52.3528 42.4682 52.5365 43.4496 52.5154 44.4374C52.5319 45.4257 52.3462 46.4069 51.9697 47.321C51.5931 48.235 51.0337 49.0625 50.3256 49.7529Z" fill="#FCFCFD"/>
<path d="M56.4395 32.5771H59.6702V41.9005L68.4294 32.5771H72.519L64.8268 40.9459L72.6343 51.6919H68.8124L62.4623 43.3232L59.6702 46.3319V51.6919H56.4395V32.5771Z" fill="#FCFCFD"/>
<path d="M88.7993 45.7597H77.3819C77.4124 46.2704 77.5592 46.7675 77.8111 47.2129C78.063 47.6583 78.4134 48.0405 78.8355 48.3301C79.7281 48.9677 80.8019 49.3023 81.899 49.2848C83.7232 49.2848 85.11 48.7115 86.0592 47.565L87.8141 49.4779C86.2427 51.1024 84.1979 51.9134 81.6797 51.9109C79.7403 51.955 77.862 51.2328 76.4524 49.9014C75.0272 48.5344 74.3159 46.7119 74.3184 44.4336C74.3208 42.1554 75.0508 40.3316 76.5082 38.9622C77.8931 37.6422 79.7397 36.9157 81.6536 36.9378C83.5078 36.8875 85.3138 37.5313 86.7173 38.743C88.1053 39.9292 88.7993 41.571 88.7993 43.6685V45.7597ZM77.3819 43.3527H85.7321C85.7321 42.1294 85.3491 41.1897 84.5833 40.5334C83.7867 39.8678 82.7733 39.5176 81.7354 39.5491C80.6422 39.5422 79.5795 39.9092 78.724 40.5891C78.2917 40.9056 77.9435 41.3228 77.7095 41.8045C77.4756 42.2861 77.3631 42.8177 77.3819 43.3527Z" fill="#FCFCFD"/>
<path d="M105.694 45.7597H94.2801C94.3088 46.2704 94.4545 46.7678 94.7059 47.2134C94.9572 47.659 95.3076 48.0411 95.73 48.3301C96.6238 48.9682 97.6989 49.3028 98.7972 49.2848C100.619 49.2848 102.006 48.7115 102.957 47.565L104.709 49.4779C103.14 51.1024 101.096 51.9134 98.5779 51.9109C96.6373 51.956 94.7574 51.2338 93.3469 49.9014C91.9242 48.5344 91.2129 46.7119 91.2129 44.4336C91.2129 42.1554 91.9428 40.3316 93.4027 38.9622C94.788 37.6429 96.6344 36.9165 98.5482 36.9378C100.402 36.8875 102.208 37.5313 103.612 38.743C104.997 39.9292 105.691 41.571 105.694 43.6685V45.7597ZM94.2801 43.3527H102.627C102.627 42.1294 102.244 41.1897 101.478 40.5334C100.682 39.8672 99.668 39.5169 98.6299 39.5491C97.5367 39.5422 96.4741 39.9092 95.6185 40.5891C95.1869 40.906 94.8394 41.3234 94.6061 41.805C94.3728 42.2867 94.2609 42.818 94.2801 43.3527Z" fill="#FCFCFD"/>
<path d="M116.84 36.923C117.769 36.908 118.691 37.0794 119.552 37.4272C120.413 37.7749 121.195 38.2919 121.852 38.9474C123.24 40.2946 123.933 42.0911 123.93 44.3372C123.928 46.5832 123.235 48.4058 121.852 49.8049C121.237 50.4726 120.49 51.0048 119.658 51.3675C118.825 51.7301 117.927 51.9153 117.019 51.911C115.192 51.911 113.549 51.1087 112.089 49.504V56.9999H109.025V37.1422H112.093V39.6866C113.305 37.8442 114.887 36.923 116.84 36.923ZM112.052 44.4449C112.007 45.7054 112.458 46.9333 113.308 47.8659C113.699 48.2876 114.174 48.6223 114.702 48.8482C115.231 49.0742 115.801 49.1862 116.376 49.1771C116.962 49.181 117.543 49.0669 118.084 48.8416C118.625 48.6164 119.115 48.2845 119.525 47.8659C119.97 47.4237 120.32 46.8941 120.55 46.3105C120.781 45.7268 120.889 45.1018 120.867 44.4746C120.888 43.8369 120.783 43.2014 120.557 42.6046C120.331 42.0079 119.989 41.4617 119.551 40.9978C119.155 40.5554 118.669 40.2024 118.126 39.9622C117.583 39.722 116.995 39.6002 116.402 39.6049C115.815 39.5969 115.235 39.7175 114.7 39.9582C114.166 40.1989 113.691 40.5538 113.308 40.9978C112.459 41.9415 112.009 43.1768 112.052 44.4449Z" fill="#FCFCFD"/>
<path d="M140.979 45.7597H129.565C129.596 46.27 129.742 46.7666 129.994 47.212C130.245 47.6573 130.594 48.0397 131.015 48.3301C131.909 48.9673 132.984 49.3018 134.082 49.2848C135.907 49.2848 137.293 48.7115 138.243 47.565L139.994 49.4779C138.425 51.1024 136.381 51.9134 133.863 51.9109C131.923 51.9566 130.044 51.2342 128.636 49.9014C127.211 48.5344 126.498 46.7119 126.498 44.4336C126.498 42.1554 127.228 40.3316 128.688 38.9622C130.075 37.6427 131.922 36.9163 133.837 36.9378C135.691 36.8875 137.497 37.5313 138.901 38.743C140.289 39.9292 140.981 41.571 140.979 43.6685V45.7597ZM129.565 43.3527H137.915C137.915 42.1294 137.531 41.1897 136.763 40.5334C135.968 39.8678 134.956 39.5174 133.919 39.5491C132.825 39.541 131.762 39.9081 130.907 40.5891C130.475 40.9051 130.126 41.3223 129.892 41.804C129.658 42.2858 129.546 42.8176 129.565 43.3527Z" fill="#FCFCFD"/>
<path d="M151.963 40.0136C150.448 40.0136 149.308 40.5089 148.542 41.4994C147.776 42.4899 147.4 43.8048 147.412 45.4442V51.6771H144.326V37.1423H147.412V40.0693C147.891 39.1787 148.575 38.4148 149.408 37.8406C150.203 37.2787 151.146 36.9646 152.119 36.938L152.148 40.0285L151.963 40.0136Z" fill="#FCFCFD"/>
<path d="M153.493 31.0395V34.4414H152.813V31.0395H151.59V30.4155H154.713V31.0395H153.493Z" fill="#FCFCFD"/>
<path d="M156.13 34.4414H155.449V30.4155H156.513L157.728 32.9447L158.944 30.4155H160V34.4414H159.308V31.2957L157.899 34.0922H157.527L156.126 31.2957L156.13 34.4414Z" fill="#FCFCFD"/>
</svg>
