<svg width="160" height="72" viewBox="0 0 160 72" fill="none" xmlns="http://www.w3.org/2000/svg">
<path d="M14.6791 60.9251L38.7742 36.3826C38.8522 36.3081 38.9005 36.2082 38.9102 36.1011C38.9198 35.9941 38.8903 35.8872 38.8269 35.8001C37.3615 33.7614 34.6591 33.4148 33.6568 32.0489C30.6878 28.0037 29.9345 25.7145 28.6742 25.8573C28.5851 25.868 28.5028 25.9104 28.4427 25.9767L19.7232 34.8594C14.7172 39.9589 13.9991 51.1861 13.8672 60.5931C13.8658 60.6872 13.893 60.7795 13.9451 60.858C13.9972 60.9366 14.0719 60.9978 14.1595 61.0336C14.247 61.0694 14.3434 61.0782 14.4361 61.0588C14.5288 61.0395 14.6134 60.9929 14.6791 60.9251Z" fill="#C4C4C4"/>
<path d="M63.9928 60.3192L39.294 36.3767C39.2198 36.2982 39.1193 36.2492 39.0114 36.239C38.9035 36.2289 38.7955 36.2581 38.7078 36.3213C36.6562 37.7775 36.3074 40.4656 34.9328 41.4617C30.8617 44.409 28.558 45.1575 28.7017 46.4127C28.7125 46.5013 28.7551 46.583 28.8218 46.6428L37.7465 55.2925C42.8785 60.2697 54.1801 60.9833 63.644 61.1172C63.7387 61.1213 63.8325 61.0967 63.9129 61.0467C63.9933 60.9968 64.0565 60.9237 64.0943 60.8373C64.1321 60.7509 64.1426 60.6551 64.1245 60.5626C64.1064 60.4701 64.0604 60.3853 63.9928 60.3192Z" fill="#7F7F7F"/>
<path fill-rule="evenodd" clip-rule="evenodd" d="M37.7604 55.3042C34.9555 52.587 33.6571 47.2108 39.0295 36.1205C30.2924 39.9998 27.2267 45.0993 28.7391 46.5613L37.7604 55.3042Z" fill="#FCFCFD"/>
<path d="M63.3794 11.316L39.2873 35.8614C39.2141 35.9354 39.1695 36.0326 39.1615 36.136C39.1534 36.2394 39.1824 36.3422 39.2433 36.4264C40.7087 38.4651 43.411 38.8117 44.4134 40.1776C47.3824 44.2229 48.1357 46.5149 49.4106 46.3722C49.4997 46.3592 49.5815 46.316 49.6422 46.2499L58.347 37.3846C63.3559 32.2821 64.074 21.0521 64.2088 11.6509C64.2133 11.5535 64.1874 11.457 64.1344 11.3748C64.0815 11.2926 64.0042 11.2288 63.9133 11.1921C63.8223 11.1553 63.7221 11.1475 63.6265 11.1697C63.5309 11.1919 63.4445 11.243 63.3794 11.316Z" fill="#C4C4C4"/>
<path fill-rule="evenodd" clip-rule="evenodd" d="M58.3352 37.3845C55.6007 40.1687 50.1873 41.4618 39.0293 36.1205C42.9333 44.8022 48.0653 47.8457 49.5337 46.3487L58.3352 37.3845Z" fill="#EFEFEF"/>
<path d="M14.0666 11.9245L38.7654 35.867C38.8395 35.9408 38.9372 35.9864 39.0416 35.996C39.146 36.0056 39.2505 35.9785 39.3369 35.9195C41.3886 34.4633 41.7373 31.7781 43.1119 30.782C47.183 27.8318 49.4867 27.0833 49.346 25.831C49.3316 25.7429 49.2883 25.662 49.2229 25.6009L40.3012 16.9366C35.1662 11.9623 23.8646 11.2488 14.4007 11.1177C14.306 11.1163 14.2131 11.1433 14.134 11.1951C14.055 11.2469 13.9934 11.3211 13.9574 11.4081C13.9213 11.4951 13.9125 11.5909 13.932 11.683C13.9514 11.7751 13.9983 11.8592 14.0666 11.9245Z" fill="#7F7F7F"/>
<path fill-rule="evenodd" clip-rule="evenodd" d="M40.3013 16.9368C43.1033 19.6569 44.4046 25.0331 39.0293 36.1205C47.7663 32.2558 50.8262 27.1417 49.3197 25.6826L40.3013 16.9368Z" fill="#FCFCFD"/>
<path fill-rule="evenodd" clip-rule="evenodd" d="M19.7227 34.8594C22.4601 32.0722 27.8706 30.782 39.0286 36.1204C35.1393 27.4416 29.9926 24.3923 28.5242 25.8951L19.7227 34.8594Z" fill="#EFEFEF"/>
<path d="M39.0337 37.1892C39.6293 37.1892 40.1122 36.7093 40.1122 36.1174C40.1122 35.5255 39.6293 35.0457 39.0337 35.0457C38.438 35.0457 37.9551 35.5255 37.9551 36.1174C37.9551 36.7093 38.438 37.1892 39.0337 37.1892Z" fill="#4A4848"/>
<path d="M70.8971 27.43C70.8719 27.4296 70.847 27.4243 70.8238 27.4143C70.8007 27.4043 70.7798 27.3898 70.7623 27.3717C70.7444 27.3549 70.7303 27.3345 70.7207 27.312C70.7111 27.2894 70.7063 27.2651 70.7066 27.2407C70.702 27.2059 70.702 27.1706 70.7066 27.1358L73.0719 21.0198C73.0901 20.9574 73.1289 20.9028 73.182 20.8648C73.2352 20.8268 73.2995 20.8076 73.3649 20.8102H74.0127C74.0781 20.8076 74.1425 20.8268 74.1956 20.8648C74.2487 20.9028 74.2875 20.9574 74.3058 21.0198L76.6505 27.1358L76.671 27.2407C76.6682 27.29 76.6472 27.3365 76.6121 27.3714C76.577 27.4063 76.5301 27.4272 76.4805 27.43H75.994C75.9365 27.4327 75.8798 27.4163 75.8328 27.3834C75.799 27.3506 75.773 27.3108 75.7566 27.2669L75.2935 25.9243H72.1545L71.6298 27.2669C71.6118 27.3122 71.5825 27.3522 71.5448 27.3834C71.5006 27.4151 71.447 27.4314 71.3924 27.43H70.8971ZM75.0004 25.1001L73.7137 21.7363L72.4271 25.1001H75.0004ZM77.8405 29.2211C77.8104 29.2213 77.7807 29.2155 77.753 29.2039C77.7253 29.1924 77.7002 29.1755 77.6792 29.1541C77.6599 29.134 77.645 29.1102 77.6354 29.0842C77.6259 29.0581 77.6218 29.0303 77.6236 29.0026V22.7207C77.6222 22.693 77.6264 22.6653 77.6359 22.6393C77.6455 22.6133 77.6602 22.5895 77.6792 22.5692C77.7003 22.5482 77.7255 22.5317 77.7532 22.5207C77.7809 22.5097 77.8106 22.5044 77.8405 22.5051H78.2801C78.3087 22.5038 78.3373 22.5088 78.3637 22.5199C78.39 22.531 78.4136 22.5478 78.4325 22.5692C78.4542 22.588 78.4715 22.6113 78.4832 22.6375C78.4948 22.6637 78.5005 22.6921 78.4999 22.7207V23.14C78.6848 22.9193 78.9146 22.7398 79.1742 22.6134C79.4338 22.487 79.7173 22.4165 80.0062 22.4066C80.2951 22.3967 80.5829 22.4476 80.8506 22.5559C81.1183 22.6643 81.36 22.8276 81.5598 23.0352C81.9126 23.4988 82.1031 24.0645 82.102 24.6457C82.102 24.7127 82.102 24.8205 82.102 24.9661C82.102 25.1117 82.102 25.2195 82.102 25.2894C82.1001 25.8702 81.91 26.4349 81.5598 26.8999C81.3765 27.1128 81.1455 27.28 80.8854 27.3883C80.6253 27.4965 80.3434 27.5427 80.0621 27.5232C79.7661 27.537 79.4711 27.4796 79.2022 27.3559C78.9332 27.2322 78.6984 27.0458 78.5175 26.8125V29.0114C78.5192 29.0391 78.5152 29.0668 78.5056 29.0929C78.496 29.119 78.4811 29.1428 78.4618 29.1628C78.4429 29.1844 78.4194 29.2016 78.3931 29.2132C78.3668 29.2248 78.3382 29.2304 78.3094 29.2298L77.8405 29.2211ZM79.8628 26.7485C80.0503 26.7682 80.2399 26.7412 80.4143 26.6701C80.5888 26.5989 80.7427 26.4857 80.8622 26.3407C81.0849 26.0173 81.2044 25.6347 81.2051 25.2428C81.2051 25.1787 81.2051 25.0855 81.2051 24.9515C81.2051 23.7575 80.7596 23.1633 79.8716 23.1633C79.683 23.1507 79.4942 23.1836 79.3212 23.2592C79.1482 23.3347 78.9961 23.4507 78.878 23.5973C78.6597 23.895 78.5371 24.2513 78.5263 24.6195V24.9807V25.3505C78.5332 25.7072 78.6613 26.051 78.8897 26.3262C79.0078 26.4681 79.1574 26.5809 79.3267 26.6557C79.4961 26.7305 79.6806 26.7652 79.8657 26.7572L79.8628 26.7485ZM84.6724 27.5232C84.3685 27.5284 84.0676 27.4636 83.7931 27.3339C83.5408 27.2195 83.3211 27.0443 83.1542 26.8242C83.0041 26.6097 82.9243 26.3544 82.9256 26.0932C82.9227 25.8942 82.9681 25.6974 83.0579 25.5195C83.1477 25.3416 83.2792 25.1877 83.4414 25.0709C83.8564 24.7743 84.3426 24.5915 84.8512 24.5409L86.2727 24.3429V24.0662C86.2727 23.4216 85.9005 23.1002 85.156 23.1022C84.9146 23.0917 84.6757 23.1536 84.4702 23.2798C84.3048 23.3811 84.167 23.5211 84.0686 23.6876C84.057 23.7347 84.0315 23.7772 83.9954 23.8099C83.9798 23.8234 83.9617 23.8338 83.9421 23.8403C83.9224 23.8468 83.9017 23.8493 83.8811 23.8478H83.5C83.444 23.849 83.3896 23.8292 83.3476 23.7924C83.3102 23.7507 83.2894 23.6969 83.289 23.641C83.3087 23.4536 83.3819 23.2758 83.5 23.1284C83.6667 22.9113 83.8853 22.7391 84.1361 22.6275C84.4673 22.4722 84.831 22.3973 85.197 22.409C85.9063 22.409 86.4192 22.578 86.7299 22.91C87.042 23.2441 87.2102 23.6862 87.1989 24.1419V27.2115C87.1992 27.2414 87.1935 27.271 87.1819 27.2986C87.1703 27.3261 87.1531 27.351 87.1314 27.3717C87.1112 27.391 87.0873 27.4061 87.0611 27.4161C87.035 27.4261 87.0071 27.4308 86.979 27.43H86.5394C86.5099 27.4327 86.4801 27.4288 86.4522 27.4188C86.4243 27.4088 86.399 27.3928 86.378 27.3719C86.357 27.3511 86.3409 27.3259 86.3308 27.2982C86.3207 27.2705 86.3169 27.2409 86.3196 27.2115V26.8038C86.1569 27.02 85.9423 27.1923 85.6953 27.3047C85.3768 27.4576 85.026 27.5325 84.6724 27.5232ZM84.8717 26.8125C85.0581 26.822 85.2444 26.793 85.419 26.7273C85.5935 26.6616 85.7525 26.5608 85.8858 26.431C86.0268 26.2728 86.1348 26.0884 86.2037 25.8884C86.2726 25.6885 86.3011 25.477 86.2873 25.2661V24.9748L85.1824 25.135C84.823 25.1686 84.475 25.2789 84.1624 25.4583C84.06 25.5119 83.9739 25.5917 83.9131 25.6895C83.8523 25.7874 83.819 25.8996 83.8166 26.0146C83.8138 26.1306 83.8415 26.2454 83.897 26.3476C83.9525 26.4497 84.0339 26.5357 84.1331 26.597C84.3536 26.7398 84.6115 26.8148 84.8746 26.8125H84.8717ZM90.5518 27.5232C90.2594 27.5378 89.967 27.4938 89.692 27.3937C89.4171 27.2936 89.1653 27.1396 88.9515 26.9407C88.5479 26.5012 88.3287 25.925 88.339 25.3301V24.9515V24.5729C88.3271 23.9804 88.5466 23.4063 88.9515 22.9711C89.1647 22.7714 89.4164 22.6168 89.6915 22.5167C89.9666 22.4166 90.2593 22.373 90.5518 22.3887C90.9571 22.3748 91.3596 22.4598 91.7242 22.6362C92.0092 22.7717 92.2521 22.9809 92.4276 23.242C92.5784 23.4537 92.6677 23.7026 92.6855 23.9613C92.69 23.9892 92.6872 24.0177 92.6774 24.0442C92.6677 24.0707 92.6513 24.0943 92.6298 24.1128C92.5842 24.1517 92.5258 24.1724 92.4657 24.171H91.9997C91.949 24.1734 91.8989 24.1602 91.8561 24.1332C91.8141 24.0889 91.7822 24.0363 91.7623 23.9788C91.6853 23.7201 91.5246 23.4939 91.3051 23.3352C91.0825 23.1965 90.8231 23.1275 90.5606 23.1371C90.3855 23.1309 90.2112 23.1617 90.049 23.2275C89.8868 23.2932 89.7405 23.3925 89.6198 23.5187C89.3653 23.8308 89.233 24.2239 89.2476 24.6254V24.9661V25.2894C89.2271 25.7023 89.3595 26.1084 89.6198 26.431C89.7431 26.5531 89.8908 26.648 90.0534 26.7097C90.216 26.7714 90.3898 26.7985 90.5636 26.7892C90.825 26.8003 91.084 26.7344 91.308 26.5999C91.5271 26.437 91.6874 26.2082 91.7652 25.9476C91.7858 25.8913 91.8177 25.8397 91.859 25.7961C91.8787 25.7793 91.9015 25.7666 91.9261 25.7586C91.9508 25.7506 91.9768 25.7475 92.0026 25.7495H92.4599C92.4902 25.7485 92.5203 25.7537 92.5486 25.7647C92.5768 25.7758 92.6025 25.7924 92.624 25.8136C92.6452 25.8322 92.6615 25.8558 92.6712 25.8823C92.6809 25.9087 92.6838 25.9372 92.6797 25.965C92.6601 26.2244 92.5711 26.4738 92.4217 26.6873C92.2449 26.9471 92.0023 27.1561 91.7183 27.2931C91.355 27.4623 90.9556 27.5413 90.5548 27.5232H90.5518ZM94.0513 27.43C93.9923 27.4306 93.935 27.4099 93.8901 27.3717C93.852 27.3272 93.8321 27.27 93.8345 27.2115V20.9237C93.8328 20.8956 93.8369 20.8674 93.8465 20.8409C93.856 20.8144 93.8709 20.7901 93.8901 20.7694C93.9112 20.7484 93.9364 20.7319 93.9641 20.7209C93.9918 20.7098 94.0215 20.7046 94.0513 20.7053H94.5291C94.5577 20.7039 94.5863 20.7089 94.6126 20.72C94.639 20.7311 94.6626 20.748 94.6815 20.7694C94.7036 20.7885 94.7211 20.8123 94.7328 20.839C94.7445 20.8657 94.75 20.8946 94.7489 20.9237V23.1284C94.9209 22.9045 95.1425 22.7231 95.3966 22.5983C95.6852 22.4642 96.0014 22.3993 96.3199 22.409C96.5857 22.3928 96.8518 22.4368 97.0981 22.5377C97.3443 22.6386 97.5643 22.7938 97.7414 22.9915C98.1014 23.4239 98.2854 23.9746 98.2572 24.5351V27.2057C98.2576 27.2356 98.2518 27.2652 98.2402 27.2927C98.2286 27.3203 98.2114 27.3452 98.1898 27.3659C98.1697 27.3855 98.1459 27.4007 98.1197 27.4107C98.0935 27.4208 98.0654 27.4253 98.0374 27.4241H97.5596C97.5006 27.4248 97.4433 27.4041 97.3984 27.3659C97.3595 27.3216 97.3386 27.2645 97.3398 27.2057V24.5846C97.3631 24.2083 97.2451 23.8368 97.0086 23.542C96.8882 23.4155 96.7412 23.3171 96.578 23.2536C96.4149 23.1902 96.2397 23.1634 96.0649 23.175C95.8864 23.1669 95.7081 23.1965 95.542 23.2617C95.3758 23.327 95.2253 23.4265 95.1006 23.5536C94.8517 23.8381 94.7254 24.2084 94.7489 24.5846V27.2057C94.7493 27.2356 94.7435 27.2652 94.7319 27.2927C94.7203 27.3203 94.7031 27.3452 94.6815 27.3659C94.6614 27.3855 94.6376 27.4007 94.6114 27.4107C94.5851 27.4208 94.5571 27.4253 94.5291 27.4241L94.0513 27.43ZM101.616 27.5232C101.327 27.5388 101.039 27.4952 100.768 27.395C100.497 27.2947 100.25 27.1401 100.042 26.9407C99.6345 26.4879 99.4073 25.9027 99.4032 25.2952V24.9719V24.6603C99.4151 24.057 99.645 23.4781 100.051 23.0294C100.489 22.6285 101.066 22.4117 101.662 22.4241C102.257 22.4366 102.825 22.6775 103.246 23.0964C103.657 23.6042 103.866 24.245 103.832 24.8962V25.0564C103.833 25.0867 103.827 25.1169 103.815 25.145C103.804 25.1731 103.786 25.1984 103.764 25.2195C103.744 25.2387 103.72 25.2535 103.694 25.263C103.668 25.2725 103.64 25.2765 103.612 25.2748H100.297V25.3593C100.306 25.74 100.436 26.1081 100.669 26.4106C100.779 26.5486 100.92 26.6592 101.08 26.7335C101.24 26.8078 101.416 26.8439 101.593 26.8388C101.842 26.8494 102.09 26.7899 102.308 26.6669C102.471 26.5729 102.614 26.4471 102.727 26.2971C102.755 26.2372 102.795 26.1837 102.844 26.1398C102.894 26.1161 102.95 26.106 103.005 26.1107H103.471C103.523 26.1081 103.574 26.1246 103.615 26.1573C103.634 26.1737 103.65 26.1943 103.66 26.2175C103.67 26.2407 103.675 26.2659 103.674 26.2912C103.646 26.4838 103.551 26.6608 103.407 26.7922C103.203 27.0112 102.955 27.1858 102.68 27.3047C102.341 27.4517 101.974 27.5261 101.604 27.5232H101.616ZM102.92 24.6108V24.5817C102.936 24.1938 102.804 23.8142 102.551 23.5187C102.43 23.3874 102.282 23.2826 102.118 23.2109C101.954 23.1393 101.776 23.1022 101.597 23.1022C101.418 23.1022 101.24 23.1393 101.076 23.2109C100.912 23.2826 100.764 23.3874 100.643 23.5187C100.404 23.8195 100.282 24.1959 100.3 24.5788V24.6079L102.92 24.6108Z" fill="#FCFCFD"/>
<path d="M70.7706 27.3716L70.7207 27.4241L70.7706 27.3716ZM70.7237 27.1357L70.6563 27.1095L70.7237 27.1357ZM73.0889 21.0198L73.1563 21.046L73.0889 21.0198ZM74.3463 21.0198L74.2789 21.0431L74.3463 21.0198ZM76.691 27.1357L76.7643 27.1212L76.691 27.1357ZM76.7115 27.2406H76.7848C76.7862 27.2358 76.7862 27.2308 76.7848 27.226L76.7115 27.2406ZM76.6529 27.3716L76.7057 27.4241L76.6529 27.3716ZM75.8733 27.3716L75.8205 27.4212L75.8733 27.3716ZM75.7971 27.2551L75.8645 27.2348L75.7971 27.2551ZM75.293 25.9242L75.3604 25.898C75.3556 25.8839 75.3466 25.8716 75.3345 25.8627C75.3225 25.8538 75.308 25.8489 75.293 25.8485V25.9242ZM72.1657 25.9242V25.8485C72.151 25.8482 72.1365 25.8526 72.1244 25.861C72.1123 25.8693 72.1032 25.8813 72.0983 25.8951L72.1657 25.9242ZM71.6411 27.2668L71.5736 27.2406L71.6411 27.2668ZM71.5561 27.3833L71.603 27.4386L71.5561 27.3833ZM74.9999 25.1087V25.1815C75.012 25.1817 75.024 25.1788 75.0347 25.1732C75.0455 25.1676 75.0546 25.1595 75.0614 25.1495C75.0671 25.1392 75.07 25.1277 75.07 25.116C75.07 25.1043 75.0671 25.0928 75.0614 25.0825L74.9999 25.1087ZM73.7132 21.7449L73.7836 21.7216C73.7782 21.7073 73.7687 21.6949 73.7561 21.6861C73.7436 21.6772 73.7286 21.6724 73.7132 21.6721C73.6983 21.6729 73.684 21.6781 73.672 21.6868C73.6601 21.6956 73.6509 21.7077 73.6458 21.7216L73.7132 21.7449ZM72.4265 25.1087L72.3591 25.0825C72.3535 25.0928 72.3505 25.1043 72.3505 25.116C72.3505 25.1277 72.3535 25.1392 72.3591 25.1495C72.3653 25.1594 72.3739 25.1676 72.3842 25.1733C72.3944 25.1789 72.406 25.1817 72.4177 25.1815L72.4265 25.1087ZM70.8966 27.3571C70.8657 27.3563 70.8364 27.3438 70.8145 27.3221L70.712 27.4241C70.736 27.4486 70.7647 27.4683 70.7964 27.4818C70.8281 27.4952 70.8621 27.5024 70.8966 27.5027V27.3571ZM70.8145 27.3221C70.8032 27.3118 70.7942 27.2992 70.7881 27.2851C70.7821 27.2711 70.7791 27.2559 70.7794 27.2406H70.6328C70.6325 27.2749 70.6393 27.309 70.653 27.3406C70.6666 27.3722 70.6867 27.4006 70.712 27.4241L70.8145 27.3221ZM70.7794 27.2406C70.7755 27.2135 70.7755 27.1861 70.7794 27.159L70.6387 27.1124C70.6335 27.155 70.6335 27.198 70.6387 27.2406H70.7794ZM70.7794 27.1619L73.1417 21.046L73.0039 20.9936L70.6416 27.1095L70.7794 27.1619ZM73.1417 21.046C73.1574 20.9966 73.1893 20.954 73.2324 20.9249C73.2755 20.8959 73.3272 20.8821 73.3791 20.8858V20.7402C73.2967 20.7372 73.2155 20.7607 73.1475 20.8072C73.0804 20.8532 73.03 20.9196 73.0039 20.9965L73.1417 21.046ZM73.3791 20.8858H74.0268V20.7402H73.3791V20.8858ZM74.0268 20.8858C74.0788 20.8821 74.1304 20.8959 74.1735 20.9249C74.2166 20.954 74.2485 20.9966 74.2642 21.046L74.402 20.9965C74.3748 20.9202 74.3247 20.8541 74.2584 20.8072C74.1904 20.7607 74.1092 20.7372 74.0268 20.7402V20.8858ZM74.2642 21.0489L76.609 27.1649L76.7467 27.1124L74.402 20.9965L74.2642 21.0489ZM76.609 27.1649L76.6265 27.2697L76.7702 27.2435L76.7526 27.1386L76.609 27.1649ZM76.6265 27.2581C76.6258 27.2887 76.6132 27.3179 76.5914 27.3396L76.694 27.4415C76.7187 27.4177 76.7384 27.3892 76.752 27.3577C76.7656 27.3262 76.7728 27.2923 76.7731 27.2581H76.6265ZM76.5914 27.3396C76.5695 27.3613 76.5402 27.3738 76.5093 27.3746V27.5202C76.5438 27.5198 76.5779 27.5127 76.6096 27.4992C76.6412 27.4857 76.6699 27.4661 76.694 27.4415L76.5914 27.3396ZM76.5093 27.3746H76.0228V27.5202H76.5093V27.3746ZM76.0228 27.3746C75.982 27.3784 75.9412 27.367 75.9085 27.3425L75.8147 27.4561C75.8742 27.5012 75.948 27.524 76.0228 27.5202V27.3746ZM75.9114 27.3483C75.8861 27.3246 75.8661 27.2958 75.8528 27.2639L75.715 27.3076C75.7346 27.3618 75.7667 27.4107 75.8088 27.4503L75.9114 27.3483ZM75.8528 27.2581L75.3281 25.9155L75.1904 25.9679L75.7355 27.3047L75.8528 27.2581ZM75.293 25.8485H72.154V25.9941H75.293V25.8485ZM72.0983 25.8951L71.5736 27.2377L71.7085 27.293L72.2331 25.9475L72.0983 25.8951ZM71.5707 27.2435C71.5577 27.2755 71.5365 27.3037 71.5092 27.325L71.603 27.4328C71.6523 27.3955 71.69 27.345 71.7114 27.2872L71.5707 27.2435ZM71.5092 27.3221C71.4789 27.3448 71.4415 27.3562 71.4037 27.3542V27.4998C71.4755 27.5018 71.5459 27.4791 71.603 27.4357L71.5092 27.3221ZM71.4037 27.3542H70.8966V27.4998H71.3831L71.4037 27.3542ZM75.0849 25.0796L73.7982 21.7187L73.6605 21.7682L74.9471 25.132L75.0849 25.0796ZM73.6605 21.7187L72.3621 25.0825L72.4998 25.1349L73.7865 21.7712L73.6605 21.7187ZM72.4412 25.1786H74.9999V25.033H72.4265L72.4412 25.1786ZM77.6934 29.1598L77.6406 29.2123L77.6934 29.1598ZM77.6934 22.5662L77.7461 22.6187L77.6934 22.5662ZM78.4466 22.5662L78.391 22.6157L78.4466 22.5662ZM78.514 23.1487H78.4408C78.4412 23.1636 78.4462 23.178 78.4551 23.19C78.464 23.202 78.4764 23.2109 78.4906 23.2157C78.5053 23.221 78.5213 23.2213 78.5361 23.2165C78.551 23.2118 78.5639 23.2023 78.5727 23.1895L78.514 23.1487ZM81.5739 23.0439L81.5153 23.0875L81.5739 23.0439ZM82.1161 24.6544H82.0341H82.1161ZM82.1161 25.298H82.0429H82.1161ZM81.5739 26.9086L81.6296 26.9523L81.5739 26.9086ZM78.517 26.8125L78.5756 26.7688C78.5661 26.7569 78.553 26.7482 78.5383 26.744C78.5236 26.7399 78.5079 26.7404 78.4935 26.7455C78.4793 26.7502 78.4669 26.7592 78.458 26.7712C78.4491 26.7832 78.4441 26.7976 78.4437 26.8125H78.517ZM78.4613 29.1627L78.4085 29.1103L78.4613 29.1627ZM80.8617 26.3407L80.8031 26.297L80.8617 26.3407ZM81.2046 25.2427H81.1314H81.2046ZM78.8863 23.6118L78.8306 23.5681L78.8863 23.6118ZM78.517 24.9951H78.4437H78.517ZM78.8804 26.3407L78.9361 26.2941L78.8804 26.3407ZM77.8399 29.1569C77.8195 29.1576 77.7992 29.1538 77.7804 29.1458C77.7617 29.1377 77.745 29.1256 77.7315 29.1103L77.626 29.2152C77.6538 29.2434 77.6871 29.2657 77.7239 29.2807C77.7607 29.2957 77.8002 29.3032 77.8399 29.3025V29.1569ZM77.7315 29.1103C77.7188 29.0973 77.709 29.0818 77.703 29.0647C77.6969 29.0476 77.6946 29.0294 77.6963 29.0113H77.5498C77.5477 29.0865 77.575 29.1595 77.626 29.2152L77.7315 29.1103ZM77.6963 29.0113V22.7206H77.5498V29.0113H77.6963ZM77.6963 22.7206C77.6948 22.7025 77.6972 22.6844 77.7032 22.6673C77.7093 22.6503 77.7189 22.6347 77.7315 22.6216L77.626 22.5196C77.6003 22.5463 77.5803 22.5778 77.5672 22.6124C77.5541 22.6469 77.5482 22.6837 77.5498 22.7206H77.6963ZM77.7315 22.6216C77.7456 22.6073 77.7625 22.596 77.7811 22.5885C77.7998 22.581 77.8198 22.5774 77.8399 22.5779V22.4323C77.8002 22.4316 77.7607 22.4391 77.7239 22.4541C77.6871 22.4691 77.6538 22.4914 77.626 22.5196L77.7315 22.6216ZM77.8399 22.5779H78.2796V22.4323H77.8399V22.5779ZM78.2796 22.5779C78.2978 22.577 78.3159 22.5801 78.3327 22.5872C78.3494 22.5943 78.3643 22.605 78.3763 22.6187L78.4877 22.5225C78.4619 22.493 78.4299 22.4696 78.3939 22.454C78.3579 22.4384 78.3188 22.431 78.2796 22.4323V22.5779ZM78.3851 22.6245C78.3988 22.6364 78.4096 22.6512 78.4167 22.6678C78.4238 22.6845 78.4271 22.7025 78.4261 22.7206H78.5727C78.573 22.6814 78.5648 22.6427 78.5486 22.607C78.5324 22.5713 78.5086 22.5395 78.4789 22.5138L78.3851 22.6245ZM78.4261 22.7206V23.14H78.5727V22.7206H78.4261ZM78.558 23.1807C78.7313 22.9502 78.9593 22.7658 79.2216 22.6439C79.4839 22.5219 79.7724 22.4663 80.0616 22.4818V22.3362C79.7486 22.3184 79.4362 22.3787 79.1526 22.5114C78.8691 22.6442 78.6234 22.8452 78.4378 23.0963L78.558 23.1807ZM80.0616 22.4818C80.3318 22.4619 80.6029 22.5056 80.853 22.6093C81.103 22.713 81.3249 22.8739 81.5006 23.0788L81.615 22.9885C81.426 22.7659 81.1868 22.5908 80.9169 22.4775C80.647 22.3641 80.3539 22.3157 80.0616 22.3362V22.4818ZM81.5006 23.0788C81.8438 23.531 82.0291 24.0822 82.0282 24.6486H82.1748C82.1748 24.0512 81.9782 23.4703 81.615 22.9943L81.5006 23.0788ZM82.0282 24.6515C82.0282 24.7185 82.0282 24.8204 82.0282 24.966H82.1748C82.1748 24.8204 82.1748 24.7097 82.1748 24.6369L82.0282 24.6515ZM82.0341 24.9748C82.0341 25.1204 82.0341 25.2252 82.0341 25.2922H82.1806C82.1806 25.2194 82.1806 25.1087 82.1806 24.9631L82.0341 24.9748ZM82.0341 25.2951C82.0328 25.8603 81.8478 26.4099 81.5065 26.862L81.6208 26.9523C81.9819 26.4763 82.1783 25.897 82.1806 25.3009L82.0341 25.2951ZM81.5065 26.862C81.329 27.0639 81.1064 27.2217 80.8565 27.3229C80.6066 27.424 80.3364 27.4657 80.0674 27.4444V27.5959C80.3597 27.6154 80.6524 27.5666 80.9222 27.4533C81.192 27.34 81.4313 27.1654 81.6208 26.9435L81.5065 26.862ZM80.0674 27.4444C79.7827 27.4591 79.4987 27.4047 79.2398 27.2859C78.9809 27.1672 78.755 26.9877 78.5815 26.763L78.4642 26.8532C78.6517 27.0953 78.8948 27.2891 79.1733 27.4183C79.4518 27.5475 79.7574 27.6084 80.0645 27.5959L80.0674 27.4444ZM78.4496 26.8066V29.0055H78.5961V26.8125L78.4496 26.8066ZM78.4496 29.0055C78.4507 29.0235 78.4482 29.0415 78.4422 29.0586C78.4361 29.0756 78.4267 29.0912 78.4144 29.1045L78.517 29.2093C78.569 29.1542 78.5974 29.0811 78.5961 29.0055H78.4496ZM78.4115 29.1103C78.3995 29.124 78.3846 29.1347 78.3678 29.1418C78.3511 29.1488 78.3329 29.152 78.3147 29.1511V29.2967C78.3541 29.2971 78.3932 29.2889 78.4291 29.2728C78.465 29.2567 78.497 29.2331 78.5228 29.2035L78.4115 29.1103ZM78.3147 29.1511H77.8458V29.2967H78.3147V29.1511ZM79.8681 26.8212C80.0653 26.8373 80.2635 26.8048 80.445 26.7266C80.6265 26.6484 80.7857 26.5268 80.9086 26.3727L80.7884 26.2882C80.679 26.4232 80.5378 26.5291 80.3772 26.5967C80.2167 26.6643 80.0418 26.6914 79.8681 26.6756V26.8212ZM80.9086 26.3756C81.1405 26.0405 81.2652 25.6436 81.2662 25.2369H81.1196C81.1192 25.6149 81.0048 25.9841 80.7914 26.297L80.9086 26.3756ZM81.2662 25.2398C81.2662 25.1728 81.2662 25.0796 81.2662 24.9485H81.1196C81.1196 25.068 81.1196 25.1582 81.1196 25.2165L81.2662 25.2398ZM81.2662 24.9485C81.3003 24.4614 81.1782 23.9761 80.9174 23.5623C80.7939 23.4028 80.6328 23.276 80.4482 23.1932C80.2637 23.1104 80.0614 23.0741 79.8593 23.0875V23.2332C80.0386 23.2202 80.2182 23.2514 80.3824 23.324C80.5465 23.3967 80.69 23.5086 80.8002 23.6496C81.0482 24.0455 81.1622 24.5099 81.1255 24.9748L81.2662 24.9485ZM79.8593 23.0875C79.6583 23.0767 79.4576 23.1148 79.2748 23.1986C79.0919 23.2823 78.9324 23.4092 78.8101 23.5681L78.9244 23.6555C79.0359 23.5181 79.1791 23.4096 79.3419 23.3391C79.5047 23.2686 79.6822 23.2383 79.8593 23.2506V23.0875ZM78.8101 23.5681C78.5793 23.8759 78.4502 24.2473 78.4408 24.6311H78.5873C78.5949 24.2763 78.7126 23.9325 78.9244 23.6467L78.8101 23.5681ZM78.4408 24.634V24.9922H78.5873V24.6311L78.4408 24.634ZM78.4408 24.9981V25.365H78.5873V24.9951L78.4408 24.9981ZM78.4408 25.3679C78.4495 25.74 78.5825 26.0986 78.8189 26.3873L78.9332 26.2941C78.7157 26.0309 78.5939 25.7026 78.5873 25.3621L78.4408 25.3679ZM78.8189 26.3873C78.9464 26.5355 79.1066 26.6525 79.2871 26.7293C79.4675 26.8061 79.6633 26.8405 79.8593 26.8299V26.6843C79.6852 26.6944 79.511 26.6645 79.3503 26.5968C79.1897 26.5291 79.0469 26.4255 78.9332 26.2941L78.8189 26.3873ZM83.8014 27.3338L83.8337 27.2697L83.8014 27.3338ZM83.1625 26.8241L83.1039 26.8649L83.1625 26.8241ZM83.4556 25.0767L83.4995 25.1349L83.4556 25.0767ZM84.8653 24.5466V24.6195V24.5466ZM86.2868 24.3486V24.4185C86.3044 24.417 86.3209 24.409 86.3328 24.3961C86.3448 24.3831 86.3514 24.3662 86.3513 24.3486H86.2868ZM84.4843 23.2856L84.5253 23.3467L84.4843 23.2856ZM84.0857 23.6875L84.0242 23.6525L84.0857 23.6875ZM84.0124 23.8098L83.9655 23.7545L84.0124 23.8098ZM83.3354 23.7923L83.2797 23.8389L83.3354 23.7923ZM83.4878 23.1283L83.4263 23.0875L83.4878 23.1283ZM84.1238 22.6274L84.159 22.6915L84.1238 22.6274ZM86.7177 22.9186L86.6649 22.9681L86.7177 22.9186ZM87.1192 27.3804L87.169 27.4328L87.1192 27.3804ZM86.366 27.3804L86.3103 27.4299L86.366 27.3804ZM86.3073 26.8125H86.3806C86.3804 26.7972 86.3755 26.7823 86.3666 26.7698C86.3577 26.7574 86.3452 26.7479 86.3308 26.7426C86.3158 26.7381 86.2997 26.7384 86.2849 26.7437C86.2702 26.7489 86.2575 26.7587 86.2487 26.7717L86.3073 26.8125ZM85.6948 27.3047L85.6625 27.2406L85.6948 27.3047ZM85.8853 26.4047L85.8325 26.3523L85.8853 26.4047ZM86.2868 24.9748H86.3601C86.3604 24.9641 86.3582 24.9535 86.3536 24.9439C86.3491 24.9343 86.3422 24.9259 86.3337 24.9194C86.3259 24.9123 86.3166 24.907 86.3064 24.904C86.2963 24.901 86.2856 24.9003 86.2751 24.902L86.2868 24.9748ZM85.1819 25.1349V25.2077V25.1349ZM84.1619 25.4582L84.2 25.5194L84.1619 25.4582ZM84.1326 26.6028L84.0916 26.6639L84.1326 26.6028ZM84.6719 27.4503C84.3834 27.4523 84.0981 27.3907 83.8366 27.2697L83.7721 27.4008C84.0535 27.5321 84.361 27.5987 84.6719 27.5959V27.4503ZM83.8366 27.2697C83.5948 27.1595 83.3843 26.9914 83.224 26.7804L83.1068 26.8649C83.2799 27.096 83.5087 27.2803 83.7721 27.4008L83.8366 27.2697ZM83.227 26.7804C83.0848 26.5791 83.0091 26.339 83.0101 26.0931H82.8635C82.8627 26.3691 82.9476 26.6387 83.1068 26.8649L83.227 26.7804ZM83.0101 26.0931C83.0073 25.9051 83.0504 25.7192 83.1356 25.5514C83.2208 25.3835 83.3457 25.2386 83.4995 25.1291L83.4116 25.0126C83.2405 25.1364 83.1017 25.299 83.0069 25.487C82.912 25.675 82.8639 25.8828 82.8665 26.0931H83.0101ZM83.4995 25.1291C83.9045 24.8387 84.3799 24.6608 84.8771 24.6136L84.8565 24.468C84.3352 24.5208 83.837 24.7086 83.4116 25.0126L83.4995 25.1291ZM84.8771 24.6136L86.2956 24.4127L86.2751 24.27L84.8565 24.468L84.8771 24.6136ZM86.3601 24.3428V24.0661H86.2136V24.3428H86.3601ZM86.3601 24.0661C86.372 23.923 86.3519 23.7791 86.3012 23.6447C86.2506 23.5102 86.1706 23.3886 86.067 23.2885C85.8148 23.0999 85.5027 23.0079 85.1877 23.0293V23.1749C85.4688 23.1521 85.7487 23.2307 85.9761 23.3963C86.0661 23.482 86.1357 23.5867 86.1798 23.7026C86.2239 23.8184 86.2414 23.9426 86.2311 24.0661H86.3601ZM85.1701 23.0293C84.9138 23.0185 84.6603 23.0856 84.4433 23.2215L84.5253 23.3409C84.7184 23.2219 84.9432 23.164 85.1701 23.1749V23.0293ZM84.4462 23.2186C84.2702 23.3256 84.1241 23.4748 84.0212 23.6525L84.1473 23.7224C84.2402 23.5667 84.37 23.4357 84.5253 23.3409L84.4462 23.2186ZM84.0154 23.6642C84.0049 23.6979 83.9868 23.7287 83.9626 23.7545L84.0535 23.8681C84.1013 23.8263 84.136 23.7717 84.1531 23.7108L84.0154 23.6642ZM83.9567 23.7603C83.9387 23.7723 83.9168 23.7775 83.8952 23.7749V23.9205C83.9251 23.9222 83.955 23.918 83.9832 23.908C84.0114 23.898 84.0373 23.8824 84.0593 23.8622L83.9567 23.7603ZM83.8952 23.7749H83.4995V23.9205H83.9099L83.8952 23.7749ZM83.4849 23.7749C83.4462 23.7757 83.4086 23.7622 83.3794 23.737L83.2826 23.8477C83.3383 23.8965 83.4106 23.9226 83.4849 23.9205V23.7749ZM83.3882 23.7457C83.3612 23.7175 83.3464 23.6798 83.3471 23.6409H83.2064C83.2059 23.7141 83.2331 23.7848 83.2826 23.8389L83.3882 23.7457ZM83.3471 23.6438C83.3673 23.4715 83.4352 23.3081 83.5435 23.172L83.4233 23.0875C83.2987 23.2467 83.2215 23.4374 83.2006 23.638L83.3471 23.6438ZM83.5435 23.172C83.7047 22.9641 83.9151 22.7991 84.1561 22.6915L84.0886 22.5604C83.8259 22.6779 83.5971 22.8592 83.4233 23.0875L83.5435 23.172ZM84.1561 22.6915C84.4767 22.5426 84.8281 22.4708 85.1819 22.4818V22.3362C84.8045 22.3251 84.4299 22.4029 84.0886 22.5633L84.1561 22.6915ZM85.1819 22.4818C85.8824 22.4818 86.3542 22.6478 86.6473 22.9594L86.7528 22.8633C86.4216 22.5051 85.8736 22.3362 85.1672 22.3362L85.1819 22.4818ZM86.6473 22.9623C86.944 23.2776 87.105 23.6957 87.0958 24.1273H87.2423C87.2556 23.6527 87.0797 23.1921 86.7528 22.8458L86.6473 22.9623ZM87.0958 24.1273V27.2115H87.2423V24.1418L87.0958 24.1273ZM87.0958 27.1969C87.0952 27.2384 87.0783 27.2781 87.0489 27.3076L87.1514 27.4095C87.1804 27.3821 87.2034 27.3491 87.219 27.3125C87.2346 27.276 87.2426 27.2366 87.2423 27.1969H87.0958ZM87.0489 27.3076C87.0355 27.3198 87.0197 27.3291 87.0026 27.3351C86.9855 27.3412 86.9673 27.3437 86.9492 27.3425V27.4881C87.0243 27.4886 87.0967 27.4605 87.1514 27.4095L87.0489 27.3076ZM86.9492 27.3425H86.5096V27.4881H86.9492V27.3425ZM86.5096 27.3425C86.4676 27.3439 86.4267 27.3294 86.3953 27.3017L86.2986 27.4124C86.3578 27.4615 86.4325 27.4883 86.5096 27.4881V27.3425ZM86.4041 27.3105C86.3763 27.2792 86.3616 27.2386 86.363 27.1969H86.2165C86.2163 27.2735 86.2433 27.3478 86.2927 27.4066L86.4041 27.3105ZM86.363 27.1969V26.7892H86.2165V27.1969H86.363ZM86.2311 26.7484C86.078 26.9558 85.877 27.1236 85.645 27.2377L85.7124 27.3658C85.9657 27.2421 86.1842 27.058 86.3484 26.8299L86.2311 26.7484ZM85.645 27.2377C85.3363 27.381 84.9977 27.4489 84.6572 27.4357V27.5959C85.0212 27.6092 85.3831 27.5352 85.7124 27.3804L85.645 27.2377ZM84.8565 26.8707C85.0535 26.8781 85.2498 26.8446 85.433 26.7724C85.6161 26.7002 85.7822 26.5908 85.9205 26.4513L85.8149 26.3494C85.6904 26.475 85.5408 26.5733 85.3757 26.638C85.2107 26.7027 85.0338 26.7324 84.8565 26.7251V26.8707ZM85.9205 26.4513C86.2179 26.1289 86.3758 25.7031 86.3601 25.266H86.2136C86.2272 25.4673 86.2005 25.6692 86.1351 25.8602C86.0697 26.0511 85.9669 26.2273 85.8325 26.3785L85.9205 26.4513ZM86.3601 25.266V24.9748H86.2136V25.266H86.3601ZM86.2751 24.9282L85.1701 25.0883L85.1907 25.234L86.2956 25.0709L86.2751 24.9282ZM85.1701 25.0883C84.8001 25.1231 84.4421 25.2374 84.1209 25.4233L84.2 25.5427C84.504 25.37 84.8419 25.2647 85.1907 25.234L85.1701 25.0883ZM84.1209 25.4233C84.0082 25.4834 83.9138 25.5723 83.8473 25.6809C83.7809 25.7894 83.7448 25.9136 83.7428 26.0407H83.8893C83.8927 25.9383 83.9232 25.8386 83.9778 25.7517C84.0323 25.6648 84.109 25.5937 84.2 25.5456L84.1209 25.4233ZM83.7428 26.0407C83.741 26.1667 83.7716 26.2912 83.8316 26.4022C83.8916 26.5133 83.979 26.6074 84.0857 26.6756L84.1678 26.5533C84.0752 26.5003 83.999 26.4232 83.9473 26.3303C83.8957 26.2374 83.8706 26.1322 83.8747 26.0261L83.7428 26.0407ZM84.0857 26.6756C84.3206 26.8193 84.5925 26.8922 84.8683 26.8853V26.7397C84.6205 26.7468 84.3761 26.682 84.1648 26.5533L84.0857 26.6756ZM88.9481 26.9668L88.8953 27.0192L88.9481 26.9668ZM88.9481 22.9973L88.9979 23.0497L88.9481 22.9973ZM91.7061 22.6449L91.6709 22.7089L91.7061 22.6449ZM92.4095 23.2506L92.348 23.2885L92.4095 23.2506ZM92.6674 23.97H92.5942H92.6674ZM92.6117 24.1214L92.6586 24.1768L92.6117 24.1214ZM91.8468 24.1418L91.8937 24.0836L91.8468 24.1418ZM91.753 23.9875L91.6826 24.0137L91.753 23.9875ZM91.2958 23.3438L91.2547 23.405L91.2958 23.3438ZM89.6075 23.5157L89.5548 23.4662L89.6075 23.5157ZM89.6193 26.4309L89.5665 26.4805L89.6193 26.4309ZM91.3075 26.5999L91.3456 26.661L91.3075 26.5999ZM91.7647 25.9475L91.6973 25.9184L91.7647 25.9475ZM91.8585 25.796L91.9054 25.8514L91.8585 25.796ZM92.6235 25.8135L92.5854 25.8485L92.6235 25.8135ZM92.6791 25.965H92.6059H92.6791ZM92.4212 26.6872L92.3597 26.6465L92.4212 26.6872ZM91.7061 27.2784L91.6709 27.2144L91.7061 27.2784ZM90.5337 27.4503C90.2516 27.4668 89.9689 27.4269 89.7026 27.3329C89.4362 27.2388 89.1916 27.0925 88.9833 26.9027L88.8807 27.0076C89.1031 27.2095 89.3639 27.3651 89.6478 27.4652C89.9318 27.5652 90.233 27.6077 90.5337 27.5901V27.4503ZM88.9833 26.9057C88.5955 26.477 88.386 25.918 88.3971 25.3417H88.2505C88.2403 25.9551 88.4668 26.5492 88.8836 27.0018L88.9833 26.9057ZM88.3971 25.3446V24.966H88.2505V25.3446H88.3971ZM88.3971 24.9689V24.5903H88.2505V24.9718L88.3971 24.9689ZM88.3971 24.5903C88.3848 24.0173 88.5947 23.4616 88.9833 23.038L88.8807 22.9361C88.463 23.3835 88.2361 23.9744 88.2476 24.5845L88.3971 24.5903ZM88.9833 23.038C89.1906 22.8463 89.4349 22.6981 89.7013 22.6025C89.9678 22.5069 90.2509 22.4659 90.5337 22.4818V22.3362C90.2351 22.3226 89.9367 22.3688 89.6563 22.4718C89.3759 22.5749 89.1191 22.7327 88.9012 22.9361L88.9833 23.038ZM90.5337 22.4818C90.9237 22.47 91.3108 22.5519 91.6621 22.7206L91.7295 22.5895C91.357 22.4115 90.947 22.3246 90.5337 22.3362V22.4818ZM91.6621 22.7206C91.9365 22.8505 92.1705 23.0518 92.3392 23.3031L92.4623 23.2244C92.2803 22.9516 92.027 22.7331 91.7295 22.5924L91.6621 22.7206ZM92.3392 23.3031C92.4825 23.5035 92.5676 23.7393 92.5854 23.9846H92.7319C92.713 23.7125 92.6197 23.4507 92.4623 23.2273L92.3392 23.3031ZM92.5854 23.9875C92.5894 24.004 92.5885 24.0214 92.5828 24.0374C92.5771 24.0534 92.5668 24.0675 92.5531 24.0777L92.6498 24.1884C92.6805 24.1621 92.704 24.1286 92.7184 24.091C92.7327 24.0534 92.7374 24.0128 92.7319 23.9729L92.5854 23.9875ZM92.5531 24.0777C92.5218 24.1056 92.4808 24.1203 92.4388 24.1185V24.2641C92.5161 24.2654 92.5912 24.2384 92.6498 24.1884L92.5531 24.0777ZM92.4388 24.1185H91.9992V24.2641H92.4564L92.4388 24.1185ZM91.9816 24.1185C91.9476 24.122 91.9135 24.1137 91.8849 24.0952L91.794 24.2088C91.8483 24.2481 91.9145 24.2676 91.9816 24.2641V24.1185ZM91.8849 24.0952C91.8525 24.0597 91.8275 24.0181 91.8116 23.9729L91.6768 24.0282C91.7007 24.0969 91.7409 24.1589 91.794 24.2088L91.8849 24.0952ZM91.8145 23.9758C91.7309 23.7015 91.559 23.462 91.3251 23.2943L91.2459 23.4166C91.4649 23.5612 91.6273 23.7761 91.7061 24.0253L91.8145 23.9758ZM91.328 23.2972C91.0939 23.1488 90.82 23.0747 90.5425 23.0846V23.2273C90.7905 23.2176 91.0357 23.2825 91.2459 23.4137L91.328 23.2972ZM90.5425 23.0846C90.3579 23.0764 90.1736 23.1072 90.0018 23.175C89.83 23.2428 89.6747 23.346 89.546 23.4778L89.6515 23.5768C89.7658 23.4615 89.903 23.3712 90.0544 23.3115C90.2058 23.2518 90.368 23.2242 90.5308 23.2302L90.5425 23.0846ZM89.546 23.4778C89.2758 23.8052 89.1361 24.2197 89.1533 24.6427H89.2998C89.2851 24.2589 89.4099 23.8826 89.6515 23.5826L89.546 23.4778ZM89.1533 24.6427V24.9835H89.2998V24.6427H89.1533ZM89.1533 24.9864V25.3097H89.2998V24.9893L89.1533 24.9864ZM89.1533 25.3097C89.138 25.7324 89.2775 26.1464 89.546 26.4746L89.6515 26.3756C89.4091 26.0716 89.2843 25.6914 89.2998 25.3039L89.1533 25.3097ZM89.546 26.4746C89.6759 26.604 89.8318 26.7049 90.0035 26.7706C90.1751 26.8363 90.3588 26.8655 90.5425 26.8562V26.7105C90.3806 26.7181 90.2189 26.6923 90.0675 26.6346C89.9162 26.577 89.7785 26.4888 89.6632 26.3756L89.546 26.4746ZM90.5425 26.8562C90.8176 26.867 91.0898 26.7971 91.3251 26.6552L91.2459 26.5329C91.0339 26.6589 90.7894 26.7206 90.5425 26.7105V26.8562ZM91.328 26.6552C91.5604 26.4828 91.7309 26.2409 91.8145 25.965L91.6738 25.9184C91.601 26.1642 91.4511 26.3805 91.2459 26.5358L91.328 26.6552ZM91.8116 25.9708C91.827 25.9245 91.852 25.8818 91.8849 25.8456L91.794 25.732C91.7415 25.7824 91.7014 25.8442 91.6768 25.9125L91.8116 25.9708ZM91.8907 25.8426C91.9032 25.8322 91.9177 25.8245 91.9334 25.82C91.949 25.8155 91.9654 25.8143 91.9816 25.8164V25.6708C91.9465 25.6688 91.9113 25.6736 91.8781 25.6851C91.8449 25.6966 91.8144 25.7145 91.7881 25.7378L91.8907 25.8426ZM91.9816 25.8164H92.4388V25.6708H91.9992L91.9816 25.8164ZM92.4388 25.8164C92.4639 25.8082 92.4907 25.8068 92.5165 25.8124C92.5423 25.818 92.5661 25.8305 92.5854 25.8485L92.6879 25.7465C92.6601 25.7183 92.6268 25.696 92.59 25.681C92.5532 25.666 92.5137 25.6585 92.474 25.6592L92.4388 25.8164ZM92.5854 25.8485C92.5987 25.859 92.6088 25.873 92.6145 25.889C92.6202 25.905 92.6213 25.9222 92.6176 25.9388L92.7641 25.9533C92.7696 25.9134 92.7649 25.8729 92.7506 25.8352C92.7363 25.7976 92.7127 25.7641 92.6821 25.7378L92.5854 25.8485ZM92.6176 25.9417C92.5977 26.1874 92.5128 26.4235 92.3714 26.6261L92.4945 26.7047C92.6485 26.4807 92.7414 26.2208 92.7641 25.9504L92.6176 25.9417ZM92.3714 26.6261C92.2025 26.8772 91.9686 27.0784 91.6944 27.2085L91.7618 27.3367C92.0592 27.196 92.3125 26.9776 92.4945 26.7047L92.3714 26.6261ZM91.6944 27.2085C91.3432 27.3775 90.9558 27.4584 90.566 27.4444V27.5959C90.9795 27.6105 91.3902 27.5234 91.7618 27.3425L91.6944 27.2085ZM93.8896 27.3658L93.8339 27.4153L93.8896 27.3658ZM93.8896 20.7635L93.9424 20.8159L93.8896 20.7635ZM94.681 20.7635L94.6253 20.813L94.681 20.7635ZM94.7484 23.1225H94.6751C94.6753 23.1378 94.6802 23.1526 94.6891 23.1651C94.698 23.1776 94.7105 23.1871 94.7249 23.1924C94.7394 23.1967 94.7548 23.1968 94.7694 23.1927C94.7839 23.1885 94.797 23.1804 94.807 23.1691L94.7484 23.1225ZM95.3961 22.5924L95.4283 22.6594L95.3961 22.5924ZM97.7408 22.9914L97.6851 23.038L97.7408 22.9914ZM98.1893 27.36L98.1365 27.3105L98.1893 27.36ZM97.3979 27.36L97.3422 27.4095L97.3979 27.36ZM97.0081 23.5331L96.9524 23.5826L97.0081 23.5331ZM95.1001 23.5331L95.0473 23.4807L95.1001 23.5331ZM94.681 27.3483L94.6282 27.2988L94.681 27.3483ZM94.0508 27.3483C94.0098 27.3496 93.9698 27.335 93.9394 27.3076L93.8427 27.4182C93.9005 27.4678 93.9745 27.4947 94.0508 27.494V27.3483ZM93.9453 27.3163C93.9186 27.2846 93.905 27.244 93.9072 27.2027H93.7577C93.7565 27.279 93.7824 27.3533 93.831 27.4124L93.9453 27.3163ZM93.9072 27.2027V20.9237H93.7577V27.2115L93.9072 27.2027ZM93.9072 20.9149C93.9055 20.8964 93.9077 20.8778 93.9138 20.8602C93.9198 20.8426 93.9296 20.8265 93.9424 20.813L93.8369 20.7111C93.7859 20.7667 93.7586 20.8397 93.7607 20.9149H93.9072ZM93.9424 20.813C93.9565 20.7987 93.9734 20.7874 93.992 20.7799C94.0107 20.7724 94.0307 20.7688 94.0508 20.7693V20.6237C94.0111 20.6231 93.9716 20.6305 93.9348 20.6455C93.898 20.6605 93.8647 20.6828 93.8369 20.7111L93.9424 20.813ZM94.0508 20.7693H94.5286V20.6237H94.0508V20.7693ZM94.5286 20.7693C94.5467 20.7684 94.5649 20.7716 94.5816 20.7786C94.5984 20.7857 94.6133 20.7964 94.6253 20.8101L94.7366 20.714C94.7109 20.6845 94.6789 20.6611 94.6429 20.6454C94.6069 20.6298 94.5678 20.6224 94.5286 20.6237V20.7693ZM94.6341 20.8159C94.648 20.8282 94.659 20.8436 94.6661 20.8607C94.6732 20.8779 94.6763 20.8964 94.6751 20.9149H94.8216C94.8233 20.8756 94.8156 20.8364 94.7993 20.8005C94.7831 20.7646 94.7586 20.733 94.7279 20.7081L94.6341 20.8159ZM94.6751 20.9149V23.1196H94.8216V20.9237L94.6751 20.9149ZM94.807 23.1662C94.9707 22.9499 95.1836 22.7752 95.4283 22.6565L95.3639 22.5255C95.0997 22.6553 94.8691 22.8436 94.6898 23.0759L94.807 23.1662ZM95.4283 22.6536C95.7033 22.5263 96.0044 22.4645 96.3076 22.473V22.3274C95.9777 22.3161 95.65 22.384 95.3521 22.5255L95.4283 22.6536ZM96.3076 22.473C96.5632 22.4579 96.819 22.5006 97.0556 22.5979C97.2922 22.6953 97.5034 22.8448 97.6734 23.0351L97.7848 22.939C97.6019 22.7349 97.3754 22.574 97.1218 22.4682C96.8682 22.3624 96.594 22.3143 96.3193 22.3274L96.3076 22.473ZM97.6734 23.0351C98.0218 23.4548 98.1995 23.9888 98.1717 24.5321H98.3182C98.3466 23.9527 98.1564 23.3836 97.7848 22.9361L97.6734 23.0351ZM98.1717 24.5321V27.2027H98.3182V24.5408L98.1717 24.5321ZM98.1717 27.2027C98.172 27.2234 98.1681 27.2439 98.16 27.263C98.1519 27.282 98.1399 27.2992 98.1248 27.3134L98.2303 27.4153C98.2587 27.3877 98.2811 27.3546 98.2963 27.318C98.3114 27.2815 98.3188 27.2422 98.3182 27.2027H98.1717ZM98.1248 27.3134C98.1114 27.3256 98.0957 27.335 98.0785 27.341C98.0614 27.347 98.0433 27.3495 98.0251 27.3483V27.494C98.1012 27.4952 98.1748 27.467 98.2303 27.4153L98.1248 27.3134ZM98.0251 27.3483H97.5474V27.494H98.0251V27.3483ZM97.5474 27.3483C97.5054 27.3498 97.4645 27.3352 97.4331 27.3076L97.3393 27.4182C97.3971 27.4678 97.4711 27.4947 97.5474 27.494V27.3483ZM97.4419 27.3163C97.4141 27.285 97.3994 27.2444 97.4008 27.2027H97.2543C97.2541 27.2793 97.2811 27.3536 97.3305 27.4124L97.4419 27.3163ZM97.4008 27.2027V24.5816H97.2543V27.2027H97.4008ZM97.4008 24.5816C97.4265 24.1874 97.3009 23.7981 97.0491 23.4924L96.9407 23.5885C97.1671 23.8686 97.279 24.2232 97.2543 24.5816H97.4008ZM97.0491 23.4924C96.9227 23.3576 96.7677 23.2524 96.5954 23.1844C96.4231 23.1164 96.2377 23.0873 96.0526 23.0992V23.2448C96.2156 23.2345 96.3788 23.26 96.5308 23.3194C96.6827 23.3788 96.8196 23.4706 96.9319 23.5885L97.0491 23.4924ZM96.0526 23.0992C95.8629 23.0937 95.6742 23.1282 95.4988 23.2005C95.3235 23.2728 95.1656 23.3812 95.0356 23.5186L95.1411 23.6205C95.2592 23.5007 95.4015 23.4071 95.5586 23.3459C95.7157 23.2847 95.8841 23.2572 96.0526 23.2652V23.0992ZM95.0356 23.5186C94.7736 23.8174 94.64 24.2064 94.6634 24.602H94.8099C94.7871 24.2444 94.906 23.8921 95.1411 23.6205L95.0356 23.5186ZM94.6634 24.602V27.2231H94.8099V24.602H94.6634ZM94.6634 27.2231C94.6637 27.2438 94.6598 27.2643 94.6517 27.2834C94.6436 27.3024 94.6316 27.3196 94.6165 27.3338L94.722 27.4357C94.7504 27.4081 94.7728 27.3749 94.788 27.3384C94.8031 27.3018 94.8105 27.2626 94.8099 27.2231H94.6634ZM94.6165 27.3338C94.6031 27.346 94.5874 27.3554 94.5702 27.3614C94.5531 27.3674 94.535 27.3699 94.5168 27.3687V27.5143C94.5929 27.5156 94.6665 27.4874 94.722 27.4357L94.6165 27.3338ZM94.5168 27.3687H94.0508V27.5143H94.5286L94.5168 27.3687ZM100.03 26.926L99.9771 26.9785L100.03 26.926ZM99.3909 24.9573H99.3177H99.3909ZM99.3909 24.6457H99.3177H99.3909ZM100.039 23.0147L99.9859 22.9652L100.039 23.0147ZM103.233 23.0817L103.178 23.1283L103.233 23.0817ZM103.746 25.2048L103.799 25.2543L103.746 25.2048ZM100.297 25.266V25.1932C100.277 25.1932 100.259 25.2009 100.245 25.2145C100.231 25.2282 100.223 25.2467 100.223 25.266H100.297ZM100.669 26.4018L100.61 26.4484L100.669 26.4018ZM102.307 26.6581L102.345 26.7193L102.307 26.6581ZM102.726 26.2882L102.668 26.2446L102.726 26.2882ZM102.844 26.1397L102.876 26.2038L102.844 26.1397ZM103.614 26.1572L103.567 26.2125L103.614 26.1572ZM103.43 26.8037L103.374 26.7542L103.43 26.8037ZM102.679 27.3047L102.709 27.3716L102.679 27.3047ZM102.908 24.5962V24.6835C102.927 24.6835 102.946 24.6759 102.96 24.6622C102.974 24.6485 102.981 24.63 102.981 24.6107L102.908 24.5962ZM102.55 23.5186L102.495 23.5652L102.55 23.5186ZM100.642 23.5186L100.587 23.472L100.642 23.5186ZM100.3 24.6078H100.226C100.226 24.6271 100.234 24.6456 100.248 24.6593C100.261 24.6729 100.28 24.6806 100.3 24.6806V24.6078ZM101.607 27.4503C101.326 27.4627 101.047 27.4173 100.785 27.3171C100.523 27.2168 100.285 27.0639 100.086 26.8678L99.9801 26.9697C100.193 27.1792 100.447 27.3429 100.726 27.4506C101.006 27.5584 101.304 27.6078 101.604 27.5959L101.607 27.4503ZM100.086 26.8678C99.6902 26.4264 99.4703 25.8569 99.4671 25.266H99.3206C99.3268 25.8917 99.5611 26.4939 99.9801 26.961L100.086 26.8678ZM99.4642 25.266V24.9427H99.3177V25.2631L99.4642 25.266ZM99.4642 24.9485V24.634H99.3265V24.9456L99.4642 24.9485ZM99.4642 24.6369C99.4764 24.0514 99.6989 23.4895 100.091 23.0526L99.9859 22.9536C99.5694 23.4187 99.3353 24.0173 99.3265 24.6398L99.4642 24.6369ZM100.091 23.0555C100.287 22.8595 100.521 22.7065 100.78 22.6061C101.038 22.5058 101.315 22.4605 101.592 22.473V22.3274C101.295 22.316 100.999 22.366 100.722 22.4743C100.446 22.5826 100.195 22.7468 99.9859 22.9565L100.091 23.0555ZM101.592 22.473C101.888 22.4558 102.185 22.5049 102.459 22.6168C102.733 22.7287 102.979 22.9006 103.178 23.1196L103.289 23.0264C103.077 22.7907 102.815 22.6054 102.521 22.4844C102.227 22.3634 101.91 22.3097 101.592 22.3274V22.473ZM103.178 23.1196C103.574 23.6139 103.775 24.2357 103.74 24.867H103.887C103.926 24.2009 103.718 23.5436 103.301 23.0206L103.178 23.1196ZM103.74 24.867V25.0272H103.887V24.867H103.74ZM103.74 25.0272C103.741 25.0684 103.725 25.1081 103.696 25.1379L103.799 25.2398C103.827 25.2121 103.85 25.179 103.865 25.1425C103.88 25.1059 103.888 25.0667 103.887 25.0272H103.74ZM103.696 25.1379C103.668 25.1624 103.631 25.1749 103.594 25.1728V25.3184C103.632 25.3202 103.669 25.3141 103.705 25.3006C103.74 25.287 103.772 25.2663 103.799 25.2398L103.696 25.1379ZM103.594 25.1728H100.297V25.3184H103.594V25.1728ZM100.223 25.2456V25.3301H100.37V25.266L100.223 25.2456ZM100.223 25.333C100.233 25.7302 100.368 26.1144 100.61 26.4309L100.727 26.3407C100.502 26.0506 100.377 25.6963 100.37 25.3301L100.223 25.333ZM100.613 26.4309C100.729 26.5772 100.879 26.6944 101.048 26.7733C101.218 26.8522 101.405 26.8905 101.592 26.8853V26.7397C101.424 26.746 101.257 26.713 101.104 26.6432C100.951 26.5733 100.817 26.4687 100.713 26.3377L100.613 26.4309ZM101.592 26.8853C101.854 26.9028 102.115 26.8462 102.345 26.7222L102.269 26.5999C102.063 26.7152 101.828 26.7707 101.592 26.76V26.8853ZM102.348 26.7018C102.518 26.602 102.668 26.4705 102.788 26.3144L102.668 26.23C102.559 26.371 102.423 26.4897 102.269 26.5795L102.348 26.7018ZM102.785 26.3144L102.855 26.23C102.863 26.224 102.87 26.2171 102.876 26.2096L102.811 26.0785C102.784 26.0945 102.76 26.1141 102.738 26.1368L102.659 26.2329L102.785 26.3144ZM102.89 26.2009C102.929 26.1853 102.972 26.1793 103.014 26.1834V26.0378C102.945 26.0334 102.876 26.0464 102.814 26.0756L102.89 26.2009ZM103.014 26.1834H103.48V26.0378H103.014V26.1834ZM103.48 26.1834C103.514 26.1819 103.548 26.1922 103.576 26.2125L103.67 26.1018C103.616 26.0588 103.549 26.0361 103.48 26.0378V26.1834ZM103.576 26.2125C103.588 26.222 103.597 26.2341 103.602 26.2478C103.608 26.2615 103.61 26.2764 103.609 26.2912H103.755C103.757 26.2552 103.75 26.2194 103.735 26.1866C103.72 26.1537 103.698 26.1247 103.67 26.1018L103.576 26.2125ZM103.609 26.2912C103.581 26.4658 103.493 26.6255 103.359 26.7426L103.468 26.8416C103.629 26.6989 103.733 26.5036 103.761 26.2912H103.609ZM103.359 26.7455C103.16 26.9569 102.918 27.1246 102.65 27.2377L102.712 27.3687C102.999 27.2476 103.258 27.068 103.471 26.8416L103.359 26.7455ZM102.65 27.2377C102.32 27.3779 101.963 27.4464 101.604 27.4386V27.5959C101.983 27.6031 102.36 27.5307 102.709 27.3833L102.65 27.2377ZM102.981 24.5962V24.567H102.844V24.5962H102.981ZM102.981 24.567C103 24.1626 102.864 23.7663 102.6 23.4574L102.492 23.5535C102.737 23.8376 102.863 24.2047 102.844 24.5787L102.981 24.567ZM102.603 23.4603C102.48 23.3147 102.325 23.1991 102.149 23.1224C101.974 23.0457 101.783 23.0098 101.592 23.0176V23.1633C101.762 23.1557 101.932 23.1869 102.088 23.2546C102.244 23.3222 102.382 23.4245 102.492 23.5535L102.603 23.4603ZM101.592 23.0176C101.401 23.0098 101.211 23.0457 101.036 23.1224C100.861 23.1992 100.707 23.3148 100.584 23.4603L100.695 23.5535C100.805 23.4245 100.942 23.3223 101.098 23.2546C101.253 23.1869 101.422 23.1557 101.592 23.1633V23.0176ZM100.584 23.4603C100.333 23.7738 100.205 24.167 100.223 24.567H100.37C100.352 24.2014 100.468 23.8416 100.695 23.5535L100.584 23.4603ZM100.223 24.567V24.5962H100.37V24.567H100.223ZM100.297 24.669H102.908V24.5233H100.297V24.669Z" fill="#FCFCFD"/>
<path d="M68.9252 49.6745C68.8616 49.6745 68.7986 49.6615 68.7401 49.6365C68.6817 49.6114 68.629 49.5748 68.5852 49.5289C68.5387 49.4857 68.5017 49.4333 68.4765 49.3752C68.4513 49.3171 68.4384 49.2544 68.4387 49.1911C68.4341 49.1029 68.443 49.0145 68.4651 48.929L74.4705 33.3594C74.5215 33.1987 74.6257 33.0597 74.7661 32.9651C74.9066 32.8705 75.075 32.8257 75.2443 32.8381H76.8914C77.0618 32.8263 77.2311 32.8722 77.3717 32.9685C77.5123 33.0648 77.6158 33.2058 77.6652 33.3682L83.6472 48.9377L83.697 49.1998C83.6933 49.3269 83.6409 49.4477 83.5504 49.5376C83.46 49.6275 83.3384 49.6796 83.2105 49.6833H81.9766C81.83 49.692 81.6849 49.6497 81.5662 49.5639C81.4806 49.4824 81.4145 49.3829 81.3728 49.2726L80.0392 45.8564H72.0965L70.7658 49.2726C70.7197 49.3873 70.6439 49.4878 70.546 49.5639C70.4354 49.6481 70.2983 49.6904 70.1591 49.6833L68.9252 49.6745ZM79.3358 43.7799L76.0678 35.235L72.7999 43.7799H79.3358ZM86.3348 34.8273C86.1838 34.8305 86.0368 34.7787 85.9216 34.6817C85.8244 34.5682 85.7732 34.4228 85.778 34.2739V32.975C85.7739 32.8253 85.825 32.6793 85.9216 32.5644C86.0315 32.4561 86.18 32.3953 86.3348 32.3955H87.8589C88.0144 32.3955 88.1635 32.4568 88.2734 32.5661C88.3833 32.6753 88.4451 32.8234 88.4451 32.9779V34.2768C88.4466 34.3525 88.4326 34.4277 88.4039 34.4978C88.3752 34.5679 88.3323 34.6315 88.278 34.6846C88.1628 34.7816 88.0158 34.8334 87.8648 34.8302L86.3348 34.8273ZM86.5283 49.6804C86.3773 49.6836 86.2303 49.6318 86.115 49.5347C86.0179 49.4213 85.9667 49.2759 85.9714 49.127V37.7134C85.9678 37.643 85.9786 37.5726 86.0033 37.5065C86.028 37.4404 86.066 37.38 86.115 37.329C86.2249 37.2207 86.3735 37.16 86.5283 37.1601H87.7006C87.7742 37.1577 87.8473 37.1716 87.9147 37.2009C87.9822 37.2301 88.0422 37.2739 88.0905 37.329C88.1455 37.3765 88.1891 37.4358 88.2181 37.5023C88.247 37.5689 88.2605 37.641 88.2575 37.7134V49.1212C88.2591 49.1969 88.245 49.2721 88.2163 49.3422C88.1876 49.4123 88.1448 49.4758 88.0905 49.5289C88.0387 49.5781 87.9775 49.6163 87.9105 49.6413C87.8435 49.6664 87.7721 49.6777 87.7006 49.6745L86.5283 49.6804ZM92.3901 49.6804C92.2391 49.6836 92.0921 49.6318 91.9769 49.5347C91.8797 49.4213 91.8285 49.2759 91.8332 49.127V37.7396C91.8292 37.59 91.8802 37.4439 91.9769 37.329C92.0868 37.2207 92.2353 37.16 92.3901 37.1601H93.5039C93.6593 37.1601 93.8084 37.2215 93.9184 37.3307C94.0283 37.4399 94.09 37.5881 94.09 37.7426V38.7998C94.7524 37.7105 95.8828 37.1649 97.4811 37.163H98.4249C98.498 37.1606 98.5706 37.1746 98.6376 37.2038C98.7045 37.2331 98.7641 37.2768 98.8117 37.3319C98.8677 37.3789 98.9121 37.4379 98.9415 37.5046C98.971 37.5712 98.9848 37.6436 98.9817 37.7164V38.7036C98.9848 38.7764 98.971 38.8488 98.9415 38.9154C98.9121 38.982 98.8677 39.0411 98.8117 39.0881C98.7606 39.1371 98.6999 39.1753 98.6334 39.2004C98.5669 39.2254 98.4959 39.2367 98.4249 39.2337H96.9594C96.5826 39.2142 96.2057 39.2725 95.8526 39.4048C95.4995 39.5372 95.1778 39.7407 94.9078 40.0026C94.6507 40.2745 94.4517 40.5953 94.3228 40.9456C94.1938 41.296 94.1376 41.6687 94.1574 42.0412V49.1154C94.1591 49.1913 94.1449 49.2668 94.1156 49.337C94.0864 49.4072 94.0427 49.4706 93.9875 49.5231C93.8733 49.62 93.7272 49.6718 93.5771 49.6687L92.3901 49.6804ZM102.848 49.6804C102.773 49.6876 102.697 49.6782 102.626 49.653C102.555 49.6277 102.491 49.5872 102.438 49.5343C102.384 49.4814 102.344 49.4175 102.318 49.347C102.293 49.2766 102.283 49.2015 102.291 49.127V39.0852H100.239C100.164 39.0941 100.087 39.0859 100.016 39.0612C99.9442 39.0365 99.8791 38.9961 99.8255 38.9428C99.7719 38.8895 99.7311 38.8249 99.7063 38.7537C99.6815 38.6825 99.6733 38.6066 99.6822 38.5318V37.7134C99.6786 37.643 99.6895 37.5726 99.7142 37.5065C99.7389 37.4404 99.7769 37.38 99.8258 37.329C99.9358 37.2207 100.084 37.16 100.239 37.1601H102.291V35.9573C102.291 33.2391 103.679 31.88 106.456 31.88H107.827C107.973 31.887 108.11 31.9476 108.213 32.0499C108.316 32.1522 108.377 32.2888 108.384 32.4333V33.2517C108.386 33.3276 108.371 33.4031 108.342 33.4732C108.313 33.5434 108.269 33.6068 108.214 33.6594C108.163 33.7085 108.102 33.7467 108.036 33.7717C107.969 33.7968 107.898 33.8081 107.827 33.805H106.508C105.781 33.805 105.272 33.9992 104.981 34.3875C104.688 34.7574 104.545 35.3253 104.545 36.0971V37.1776H109.729V32.4217C109.726 32.3508 109.737 32.2801 109.762 32.2135C109.786 32.147 109.824 32.0861 109.873 32.0343C109.983 31.9271 110.132 31.8674 110.286 31.8683H111.4C111.473 31.8654 111.546 31.8788 111.612 31.9075C111.679 31.9363 111.739 31.9796 111.787 32.0343C111.842 32.0824 111.886 32.1421 111.916 32.2091C111.945 32.276 111.959 32.3486 111.957 32.4217V49.1212C111.958 49.1971 111.943 49.2723 111.914 49.3424C111.885 49.4125 111.842 49.476 111.787 49.5289C111.736 49.578 111.675 49.6162 111.609 49.6412C111.542 49.6663 111.471 49.6776 111.4 49.6745H110.286C110.135 49.6778 109.988 49.626 109.873 49.5289C109.776 49.4154 109.725 49.2701 109.729 49.1212V39.0852H104.545V49.1212C104.546 49.1969 104.532 49.2721 104.503 49.3422C104.475 49.4123 104.432 49.4758 104.378 49.5289C104.326 49.5782 104.265 49.6165 104.198 49.6416C104.131 49.6666 104.059 49.6778 103.988 49.6745L102.848 49.6804ZM120.709 49.9192C118.936 49.9192 117.557 49.4221 116.57 48.428C115.583 47.434 115.067 46.1108 115.02 44.4585L114.996 43.4246L115.02 42.3878C115.084 40.751 115.609 39.4356 116.594 38.4415C117.578 37.4474 118.955 36.9387 120.723 36.9154C122.482 36.9154 123.854 37.4203 124.841 38.4299C125.828 39.4395 126.353 40.7549 126.415 42.3761C126.433 42.5538 126.439 42.8975 126.439 43.4129C126.439 43.9284 126.439 44.2692 126.415 44.4468C126.351 46.0972 125.826 47.4204 124.841 48.4164C123.856 49.4124 122.484 49.9114 120.723 49.9134L120.709 49.9192ZM120.709 48.0669C121.155 48.0901 121.6 48.0161 122.014 47.85C122.429 47.684 122.801 47.43 123.106 47.1058C123.692 46.4622 124.029 45.5419 124.076 44.3362C124.094 44.176 124.1 43.8731 124.1 43.4246C124.1 42.9761 124.1 42.6703 124.076 42.5101C124.029 41.3083 123.706 40.3851 123.106 39.7404C122.801 39.4163 122.429 39.1623 122.014 38.9962C121.6 38.8302 121.155 38.7562 120.709 38.7794C120.259 38.7579 119.811 38.8325 119.393 38.9984C118.975 39.1642 118.598 39.4173 118.288 39.7404C117.701 40.3831 117.387 41.3063 117.344 42.5101L117.32 43.4246L117.344 44.3362C117.376 45.5419 117.693 46.4622 118.288 47.1058C118.601 47.4299 118.98 47.683 119.4 47.8479C119.821 48.0127 120.272 48.0855 120.723 48.0611L120.709 48.0669ZM132.467 49.6804C132.294 49.6909 132.122 49.6392 131.984 49.5347C131.85 49.4086 131.749 49.2515 131.691 49.0775L128.259 37.9057L128.209 37.6668C128.207 37.5999 128.219 37.5333 128.244 37.4712C128.27 37.409 128.307 37.3527 128.355 37.3057C128.454 37.2138 128.584 37.1619 128.719 37.1601H129.783C129.854 37.157 129.925 37.1684 129.991 37.1934C130.058 37.2184 130.118 37.2566 130.17 37.3057C130.27 37.368 130.347 37.461 130.389 37.5707L133.077 46.6428L135.964 37.6668C135.999 37.5345 136.075 37.4163 136.181 37.329C136.242 37.2717 136.315 37.2272 136.394 37.1982C136.473 37.1692 136.557 37.1562 136.641 37.1601H137.465C137.549 37.1561 137.633 37.169 137.712 37.198C137.791 37.227 137.863 37.2716 137.925 37.329C138.033 37.4154 138.11 37.5338 138.145 37.6668L141.026 46.6428L143.713 37.5707C143.744 37.4682 143.803 37.3763 143.883 37.3057C143.997 37.2084 144.143 37.1565 144.294 37.1601H145.384C145.448 37.1602 145.511 37.1731 145.569 37.1981C145.628 37.2232 145.68 37.2598 145.724 37.3057C145.772 37.3529 145.809 37.4093 145.834 37.4714C145.858 37.5335 145.87 37.6001 145.868 37.6668L145.821 37.9057L142.412 49.0717C142.353 49.2452 142.252 49.402 142.119 49.5289C141.972 49.6357 141.791 49.6872 141.609 49.6745H140.653C140.468 49.6935 140.282 49.6418 140.134 49.5299C139.985 49.4179 139.885 49.2542 139.853 49.0717L137.046 40.4569L134.235 49.0717C134.192 49.2528 134.085 49.4127 133.934 49.5231C133.783 49.6335 133.598 49.6872 133.411 49.6745L132.467 49.6804Z" fill="#FCFCFD"/>
</svg>
