<svg width="161" height="72" viewBox="0 0 161 72" fill="none" xmlns="http://www.w3.org/2000/svg">
<path d="M20.6817 51.1753H18.7869V41.3028H20.6817V51.1753ZM18.8098 41.3009L18.7869 35.1857H20.6817V41.3105L18.8098 41.3009ZM18.7869 51.1753H16.8939V45.0275H4.72271V51.1753H0.998047V35.1857H4.72271V41.3105H18.7869V51.1753ZM18.7869 35.1857H16.8939V41.3105H18.8079L18.7869 35.1857Z" fill="#FCFCFD"/>
<path d="M40.272 43.0714C41.5761 43.8804 42.2281 45.1143 42.2281 46.7731C42.2569 47.8985 41.8448 48.9905 41.0797 49.8164C40.2516 50.7223 39.1338 51.1753 37.7264 51.1753H32.2466V47.4487H37.7264C38.2649 47.4487 38.5341 47.0455 38.5341 46.2391C38.5341 45.4326 38.2649 45.0288 37.7264 45.0275H32.2466V41.3335H37.4469C37.9854 41.3335 38.2546 40.9296 38.2546 40.1219C38.2546 39.3142 37.9854 38.9103 37.4469 38.9103H32.2466V35.1857H37.4469C38.8505 35.1857 39.9683 35.6412 40.8003 36.5523C41.5512 37.3846 41.9546 38.473 41.9276 39.5936C41.9276 41.0853 41.3758 42.2445 40.272 43.0714ZM32.2466 51.1753H22.2344V41.3335H32.2466V45.0275H25.959V47.4487H32.2466V51.1753ZM32.2466 38.9122H25.959V41.4464L22.2344 41.3545V35.1857H32.2466V38.9103V38.9122Z" fill="#FCFCFD"/>
<path d="M43.9432 31.0283V29.321H46.7262V28.297C46.7262 27.9276 46.6018 27.7419 46.3549 27.7419H43.9432V26.0346H46.3549C46.6396 26.0258 46.9227 26.0814 47.1829 26.1974C47.4431 26.3134 47.6737 26.4868 47.8574 26.7045C48.2387 27.1463 48.4432 27.7135 48.4316 28.297V33.3634H46.7243V31.0302H43.9432V31.0283ZM66.6453 33.3634H60.9818C60.67 33.3698 60.3601 33.3146 60.0697 33.201C59.7794 33.0873 59.5143 32.9175 59.2898 32.7011C59.0627 32.49 58.883 32.233 58.7626 31.9473C58.6421 31.6616 58.5837 31.3536 58.5912 31.0436V28.364C58.5835 28.0539 58.6418 27.7458 58.7622 27.4601C58.8827 27.1743 59.0625 26.9174 59.2898 26.7064C59.514 26.4897 59.7791 26.3196 60.0695 26.2059C60.3599 26.0923 60.67 26.0373 60.9818 26.0442H66.6453V27.7515H60.9818C60.5262 27.7515 60.2985 27.9556 60.2985 28.364V31.0436C60.2985 31.4519 60.5262 31.6554 60.9818 31.6541H66.6453V33.3634ZM84.614 33.3634H82.8914V30.5459H78.5103V33.3634H76.803V26.0346H78.5103V28.8386H82.8876V26.0346H84.6102L84.614 33.3634ZM102.585 27.7419H96.4771V28.8386H102.181V30.5459H96.4771V31.6522H102.566V33.3595H94.7736V26.0346H102.583V27.7419H102.585ZM43.9432 26.0346V27.7419H41.5182C41.2809 27.7419 41.1622 27.9333 41.1622 28.297V29.321H43.9432V31.0283H41.1622V33.3614H39.4549V28.297C39.4433 27.7135 39.6478 27.1463 40.0291 26.7045C40.2105 26.488 40.4384 26.3153 40.696 26.1992C40.9535 26.0832 41.2339 26.027 41.5163 26.0346H43.9432ZM24.7151 30.9728V29.2655H27.2205C27.4655 29.2655 27.5899 29.0128 27.5899 28.5113C27.5899 28.0099 27.4655 27.7457 27.2205 27.7457H24.7151V26.0346H27.2205C27.5204 26.0293 27.817 26.0979 28.0841 26.2345C28.3511 26.371 28.5804 26.5712 28.7517 26.8174C29.1182 27.3049 29.3097 27.9016 29.2953 28.5113C29.3117 29.1163 29.1205 29.7086 28.7537 30.1899C28.5824 30.4361 28.353 30.6363 28.086 30.7729C27.8189 30.9094 27.5223 30.9781 27.2224 30.9728H24.7151ZM9.97721 33.3634H8.268V31.0302H5.48694V29.3229H8.268V28.297C8.268 27.9276 8.1455 27.7419 7.89859 27.7419H5.48694V26.0346H7.89859C8.18302 26.026 8.46571 26.0818 8.72554 26.1978C8.98538 26.3138 9.21566 26.487 9.39918 26.7045C9.78124 27.1459 9.98586 27.7133 9.97338 28.297L9.97721 33.3634ZM24.7151 26.0346V27.7419H21.8441V29.2731H24.7151V30.9804H21.8441V33.3614H20.1368V26.0346H24.7151ZM5.48694 31.0283H2.70588V33.3614H0.998586V28.297C0.986106 27.7133 1.19072 27.1459 1.57279 26.7045C1.75368 26.4879 1.9813 26.3151 2.23854 26.1991C2.49578 26.0831 2.77597 26.0268 3.05806 26.0346H5.48694V27.7419H3.05998C2.82455 27.7419 2.70588 27.9333 2.70588 28.297V29.321H5.48694V31.0283Z" fill="#FCFCFD"/>
<path d="M63.3153 51.1753H59.5887V46.084H53.5194V42.3574H59.5887V40.1218C59.5887 39.3141 59.3207 38.9122 58.781 38.9122H53.5194V35.1856H58.781C59.4018 35.1662 60.0189 35.2873 60.5863 35.5398C61.1537 35.7924 61.6567 36.1699 62.0578 36.6441C62.8927 37.6079 63.3407 38.847 63.3153 40.1218V51.1753ZM53.5194 46.084H47.4501V51.1753H43.7235V40.1218C43.7007 38.8457 44.1522 37.6065 44.9906 36.6441C45.3864 36.1722 45.8839 35.7959 46.4457 35.5433C47.0075 35.2908 47.6191 35.1685 48.2348 35.1856H53.529V38.9122H48.2252C47.7084 38.9122 47.4596 39.3141 47.4596 40.1218V42.3574H53.529L53.5194 46.084Z" fill="#FCFCFD"/>
<path d="M83.9852 46.239C84.0162 47.4969 83.5852 48.7226 82.7736 49.6842C82.3714 50.1627 81.8671 50.545 81.2977 50.803C80.7283 51.0611 80.1084 51.1882 79.4834 51.1752H65.7025V47.4486H79.4834C80.0002 47.4486 80.2605 47.0448 80.2605 46.239C80.2605 45.4332 80.0002 45.0274 79.4834 45.0274H69.4559C68.8306 45.0408 68.2102 44.9139 67.6405 44.6558C67.0707 44.3978 66.5661 44.0153 66.1638 43.5364C65.3327 42.5963 64.8888 41.3761 64.9216 40.1218C64.8971 38.8443 65.3511 37.6038 66.1944 36.644C66.5937 36.1736 67.0931 35.7985 67.6561 35.5461C68.2191 35.2938 68.8315 35.1706 69.4483 35.1855H83.2291V38.9102H69.4483C68.9302 38.9102 68.6712 39.3141 68.6712 40.1218C68.6712 40.9091 68.9302 41.3021 69.4483 41.3008H79.4758C80.1007 41.2878 80.7207 41.4149 81.29 41.673C81.8594 41.931 82.3637 42.3133 82.7659 42.7918C83.5767 43.7539 84.0077 44.9793 83.9775 46.237L83.9852 46.239Z" fill="#FCFCFD"/>
<path d="M89.2656 47.4506H102.555V51.1753H85.5391V35.1857H102.585V38.9122H89.2656V41.3028H101.716V45.0294H89.2656V47.4506Z" fill="#FCFCFD"/>
<path d="M159.708 56.7852C159.661 56.6463 159.635 56.5012 159.632 56.3546C159.632 56.0081 159.366 55.5526 158.971 55.2234C158.738 55.0164 158.531 54.7825 158.353 54.5267C158.039 54.0539 157.7 53.8683 156.439 53.4874C155.063 53.0682 154.64 52.7084 154.525 51.8528L154.462 51.426L154.211 51.7896C153.721 52.4997 153.398 52.6127 152.732 52.3064C152.569 52.2126 152.387 52.158 152.199 52.1471C152.012 52.1361 151.825 52.169 151.652 52.2433C151.428 52.339 151.386 52.3351 151.241 52.2031C151.095 52.071 151.068 52.0614 150.848 52.1935C150.675 52.294 150.469 52.3235 150.274 52.2758C149.853 52.2126 149.627 52.3371 149.344 52.7849C148.808 53.6328 148.427 53.2443 148.429 51.8528C148.429 50.3063 149.158 49.4316 151.256 48.4497C152.335 47.9444 152.825 47.6171 153.126 47.1979C153.358 46.8764 153.379 46.8649 153.478 47.0065C153.694 47.2994 154.435 48.8134 154.787 49.6861C155.189 50.6757 155.31 50.8594 155.463 50.7082C155.616 50.557 155.272 49.667 154.674 48.4018C153.174 45.261 150.955 43.0158 148.186 41.831C146.915 41.2894 146.289 41.1726 144.639 41.1765C143.386 41.1765 143.077 41.2052 142.229 41.3851C140.726 41.7311 139.253 42.2016 137.827 42.7919C136.047 43.4943 136.045 43.4943 134.252 42.8512C133.525 42.5909 132.654 42.3076 132.315 42.2215C131.566 42.0435 130.788 42.02 130.03 42.1526C129.367 42.3115 128.437 42.811 127.294 43.6168C125.922 44.5834 125.189 44.9662 124.201 45.2208C123.35 45.4428 122.99 45.6361 122.777 45.9864C122.696 46.0986 122.647 46.2313 122.637 46.3696C122.627 46.5079 122.656 46.6463 122.72 46.7692C122.808 46.9606 123.646 47.575 124.634 48.1626C124.821 48.2654 124.997 48.3865 125.16 48.5243C125.218 48.6162 123.888 49.2804 122.917 49.644C121.194 50.2891 119.33 50.6967 116.53 51.047C114.666 51.2805 114.346 51.3456 112.955 51.7839C112.4 51.9581 111.594 52.1667 111.167 52.2624C109.28 52.6452 107.571 52.1897 107.312 51.2154C107.273 51.0591 107.208 50.9104 107.121 50.7752C106.776 50.3809 106.648 49.4354 106.87 48.911C106.996 48.4902 107.092 48.061 107.157 47.6267C107.481 45.7127 107.808 44.6791 108.514 43.3431C109.753 41.0042 112.218 38.0337 115.213 35.2832C117.177 33.4534 119.062 32.0562 123.388 29.1641C126.068 27.3822 126.092 27.3592 126.401 26.4998C126.47 26.3084 126.801 25.0796 127.139 23.7666C128.192 19.6802 128.862 18.1394 130.12 16.9547C130.826 16.2886 131.953 15.8713 132.608 16.0359C132.991 16.1297 133 16.3135 132.742 17.3528C132.353 18.7758 132.159 20.2453 132.168 21.7205C132.168 23.2517 132.257 23.826 132.619 24.5475C133.115 25.5275 133.45 25.717 135.395 26.1151C142.27 27.5238 146.858 29.6407 150.117 32.9118C153.135 35.9397 155.597 40.6807 157.199 46.551L157.503 47.6688L158.087 48.1147C159.565 49.2612 160.405 50.4096 160.841 51.9408C161.077 52.7447 161.042 54.4559 160.769 55.4645C160.478 56.5402 160.229 56.9958 159.928 56.9958C159.878 56.9872 159.83 56.9648 159.791 56.931C159.752 56.8973 159.724 56.8534 159.708 56.8044V56.7852ZM159.835 54.5267C159.867 54.1715 159.87 53.8143 159.844 53.4587C159.773 51.9408 159.304 50.8575 158.233 49.7263C157.409 48.8593 155.917 47.8123 155.505 47.8123C155.346 47.8123 155.339 47.8391 155.379 48.1951C155.466 48.6118 155.588 49.0203 155.744 49.4163C155.902 49.8091 156.024 50.2152 156.11 50.6298C156.148 50.9513 156.129 51.0126 155.953 51.204C155.71 51.447 155.482 51.4585 155.134 51.2461C154.99 51.158 154.854 51.1025 154.835 51.1236C154.815 51.2407 154.82 51.3608 154.85 51.4757C154.956 52.1035 155.319 52.3562 156.715 52.7696C158.759 53.3744 159.18 53.652 159.503 54.6128C159.572 54.8176 159.777 54.7755 159.835 54.5458V54.5267ZM111.113 51.6557C111.651 51.5454 112.183 51.4067 112.706 51.2403C113.82 50.8881 114.673 50.7101 117.03 50.3407C119.795 49.9082 120.907 49.6785 122.14 49.2842C122.925 49.0335 123.641 48.71 123.635 48.6124C123.481 48.4665 123.309 48.3422 123.122 48.243C122.704 47.96 122.312 47.6397 121.952 47.286C121.73 47.0493 121.485 46.8346 121.221 46.6448C121.03 46.6448 120.532 46.9204 119.908 47.3759C118.126 48.6851 117.5 48.9435 114.658 49.5503C113.249 49.8507 112.744 50.0211 112.09 50.4269C111.177 50.9858 110.981 51.0776 110.382 51.2308C109.998 51.3233 109.604 51.3752 109.209 51.3858C108.397 51.3858 108.306 51.6384 109.071 51.7686C109.521 51.849 110.22 51.8069 111.113 51.6442V51.6557ZM149.847 51.4968C149.976 51.3796 150.124 51.2857 150.286 51.2193L150.62 51.0719L151.336 51.2882C152.232 51.56 153.409 51.6002 153.727 51.3705L154.184 51.0394C154.239 50.9889 154.303 50.9498 154.373 50.9245C154.443 50.8992 154.518 50.8881 154.592 50.892C154.671 50.9169 154.734 50.9245 154.734 50.9092C154.734 50.8307 153.635 48.3176 153.532 48.1588L153.409 47.9674L153.017 48.2774C152.802 48.4459 152.073 48.9186 151.396 49.3244C149.66 50.3694 149.114 50.9015 149.246 51.4298C149.285 51.581 149.346 51.6212 149.518 51.6212C149.64 51.6216 149.758 51.5758 149.847 51.493V51.4968ZM117.106 47.0142C117.263 46.9409 117.404 46.839 117.523 46.7137C117.849 46.172 116.547 46.2294 116.197 46.7711C116.105 46.9147 116.107 46.9625 116.216 47.062C116.39 47.2362 116.702 47.219 117.106 47.0142ZM119.556 45.3145C120.214 45.152 120.859 44.9396 121.485 44.6791C122.06 44.355 122.52 43.8599 122.8 43.2627C122.943 42.9897 123.123 42.7383 123.336 42.5163C123.471 42.4104 123.575 42.2712 123.639 42.1124C123.639 41.5057 121.558 41.232 120.218 41.6588C118.593 42.1775 117.041 43.8331 117.003 45.0868C116.98 45.8524 117.401 45.8926 119.556 45.3145ZM151.468 42.945C151.468 42.8034 150.952 42.1143 150.584 41.7679C149.872 41.0942 149.147 40.6807 147.746 40.1486C146.915 39.8328 146.572 39.6395 146.572 39.4864C146.605 39.4007 146.658 39.3244 146.727 39.2644C147.164 38.828 149.254 39.3658 150.73 40.2941C151.37 40.7073 151.973 41.1768 152.531 41.6971C152.954 42.0933 153.024 42.1354 153.024 41.9861C153.024 41.7526 152.642 41.0482 152.171 40.4243C150.999 38.8624 149.091 37.6451 146.957 37.0996C145.234 36.6568 143.736 36.6313 142.461 37.0231C141.282 37.3848 139.912 38.2385 138.537 39.4672C136.6 41.1899 136.028 41.6779 135.532 41.9918C135.236 42.1832 135.002 42.3746 135.016 42.411C135.164 42.5187 135.333 42.5955 135.511 42.6368L135.984 42.7881L137.132 42.2579C139.414 41.2109 141.508 40.5353 143.066 40.3439C145.445 40.0548 148.105 40.8071 150.49 42.4493C151.218 42.9488 151.461 43.0752 151.461 42.9507L151.468 42.945ZM130.401 49.5158C128.022 49.238 125.743 48.3954 123.755 47.0582C123.327 46.7615 123.204 46.6352 123.181 46.463C123.131 46.0323 123.526 45.7777 124.59 45.5519C125.526 45.3605 126.144 45.0408 127.56 44.0456C129.474 42.7057 130.24 42.3957 131.478 42.4646C132.062 42.4971 132.435 42.5967 134.363 43.2417C137.263 44.2102 140.34 45.3069 140.572 45.4543C141.102 45.7911 140.189 47.0372 138.75 47.9329C137.523 48.6608 136.175 49.1608 134.771 49.4086C133.963 49.5579 131.268 49.6249 130.397 49.5158H130.401ZM112.321 37.4441C112.286 37.1602 112.282 36.8733 112.31 36.5886C112.473 34.7535 113.298 33.0403 114.629 31.7672C115.118 31.325 115.898 30.8638 116.161 30.8638C116.423 30.8638 116.574 31.1298 116.765 31.8801C116.84 32.2093 116.958 32.5273 117.116 32.8256C117.181 32.8971 117.229 32.9821 117.257 33.0745L116.453 33.7156C115.265 34.6758 114.141 35.7129 113.089 36.8202C112.495 37.4614 112.367 37.5647 112.323 37.4461L112.321 37.4441Z" fill="#FCFCFD"/>
</svg>
