<svg width="160" height="72" viewBox="0 0 160 72" fill="none" xmlns="http://www.w3.org/2000/svg">
<g clip-path="url(#clip0_1298:23382)">
<path d="M0 29.5417H10.2149C16.3726 29.5417 20.4298 32.8359 20.4298 38.2483V38.3257C20.4298 44.2486 15.5198 47.3071 9.71336 47.3071H3.07825V56.9954H0V29.5417ZM9.82125 44.4808C14.3411 44.4808 17.3034 42.0552 17.3034 38.4423V38.3626C17.3034 34.4356 14.3812 32.4016 9.97619 32.4016H3.07825V44.4808H9.82125Z" fill="#FCFCFD"/>
<path d="M22.918 29.5417H25.9974V41.7388H41.7421V29.5417H44.8203V56.9954H41.7421V44.6367H25.9974V56.9954H22.918V29.5417Z" fill="#FCFCFD"/>
<path d="M79.7441 29.5417H99.4647V32.3646H82.8224V41.7388H97.7167V44.5616H82.8235V54.1703H99.6598V56.9954H79.7441V29.5417Z" fill="#FCFCFD"/>
<path d="M102.742 29.5417H105.626L122.814 51.5426V29.5417H125.814V56.9954H123.359L105.744 34.4829V56.9954H102.742V29.5417Z" fill="#FCFCFD"/>
<path d="M129.131 29.5417H132.21V56.9954H129.131V29.5417Z" fill="#FCFCFD"/>
<path d="M159.611 29.5417L149.556 42.9931L160.001 56.9954H156.337L147.607 45.1507L138.878 56.9954H135.33L145.775 42.9931L135.72 29.5417H139.345L147.684 40.8355L156.023 29.5417H159.611Z" fill="#FCFCFD"/>
<path d="M3.42652 17.6113H4.21272L7.60086 25.1478H6.69988L5.8276 23.1704H1.7795L0.898038 25.1478H0.0429688L3.42652 17.6113ZM5.49245 22.4012L3.80871 18.5954L2.10891 22.4012H5.49245Z" fill="#FCFCFD"/>
<path d="M9.06641 17.6646H11.8485C13.5277 17.6646 14.633 18.5632 14.633 20.0381V20.0601C14.633 21.6771 13.2947 22.5076 11.712 22.5076H9.90541V25.1479H9.06641V17.6646ZM11.7429 21.7383C12.9756 21.7383 13.7836 21.0753 13.7836 20.0924V20.0705C13.7836 19.0009 12.986 18.4453 11.7854 18.4453H9.90541V21.7383H11.7429Z" fill="#FCFCFD"/>
<path d="M18.1713 17.6113H18.9575L22.3468 25.1478H21.4436L20.5724 23.1704H16.5255L15.644 25.1478H14.7832L18.1713 17.6113ZM20.2373 22.4012L18.5547 18.5954L16.8537 22.407L20.2373 22.4012Z" fill="#FCFCFD"/>
<path d="M23.0469 21.4276V21.4068C23.0469 19.2897 24.6193 17.5364 26.808 17.5364C28.1566 17.5364 28.9635 18.018 29.7072 18.7237L29.1334 19.344C28.5067 18.7457 27.8054 18.3172 26.7966 18.3172C25.1507 18.3172 23.918 19.6651 23.918 21.3861V21.4068C23.918 23.1394 25.161 24.4965 26.7977 24.4965C27.8203 24.4988 28.486 24.1004 29.1976 23.4166L29.7497 23.9618C28.975 24.7529 28.1245 25.2773 26.7759 25.2773C24.6308 25.2773 23.0469 23.5748 23.0469 21.4276Z" fill="#FCFCFD"/>
<path d="M31.2148 17.6646H32.0538V20.9899H36.3441V17.6646H37.1843V25.1479H36.3441V21.7822H32.0538V25.1479H31.2148V17.6646Z" fill="#FCFCFD"/>
<path d="M39.2871 17.6646H44.662V18.4349H40.1261V20.9899H44.1845V21.7603H40.1261V24.3833H44.7171V25.1525H39.2871V17.6646Z" fill="#FCFCFD"/>
<path d="M69.2209 46.0447C69.2209 46.0447 71.086 40.7455 68.8536 34.148C67.2169 29.3096 65.2348 28.5762 68.7549 17.0017C68.7549 17.0017 61.9224 23.0286 64.4463 29.9287C64.9398 31.2766 64.8675 31.473 66.4548 34.0059C68.1236 36.6671 69.5377 39.8861 69.2209 46.0447Z" fill="#FCFCFD"/>
<path d="M68.7396 46.9893C68.7396 46.9893 69.923 41.3217 64.7225 33.434C62.675 30.3259 61.7797 25.0324 64.0224 20.5278C64.0224 20.5278 57.3988 29.9828 63.0606 36.3447C63.0606 36.3447 63.7492 37.0943 64.3472 37.7781C64.6502 38.1199 69.2664 44.3767 68.7396 46.9893Z" fill="#FCFCFD"/>
<path d="M68.4931 47.1222C68.4931 47.1222 68.4162 46.4454 67.9709 45.3354C67.3029 43.6687 65.4459 39.9068 62.7555 37.4709C58.9508 34.0301 59.7025 28.8926 59.7025 28.8926C58.2403 37.4721 60.5576 39.5765 62.1564 40.6564C65.6065 42.985 67.6174 44.7752 68.4931 47.1222Z" fill="#FCFCFD"/>
<path d="M75.5381 37.8555C73.7407 30.9797 69.6019 25.2058 75.4233 15C75.4233 15 64.219 18.8231 69.2381 33.1234C72.3072 41.8669 71.4716 46.83 68.5977 49.6298C67.4706 50.7259 65.3955 52.2298 62.1473 51.8336C58.8659 51.4328 56.9217 49.7315 55.5593 47.9065C53.4566 45.0871 52.7209 41.3287 55.4686 35.6402C57.0755 32.0123 58.1084 28.896 58.097 28.8995C58.2947 28.3728 58.4543 27.8324 58.5744 27.2825C59.9024 27.5354 60.3729 26.4451 60.3729 26.4451C59.8163 26.6622 59.6303 26.2072 59.6303 26.2072C60.7655 25.6539 60.4636 24.6941 60.4636 24.6941C60.0772 24.9169 59.629 25.0065 59.1873 24.9493C59.1575 24.9262 57.8456 24.8962 57.7848 24.8627C55.3137 23.0147 53.6621 23.4467 52.7037 24.1489C52.4946 24.2848 52.308 24.4527 52.1505 24.6467C51.9597 24.8565 51.7955 25.0893 51.6616 25.3397C51.6616 25.3397 49.2169 25.7348 48.4479 27.2848C48.4479 27.2848 50.0547 26.2383 51.5984 26.6703C51.766 26.9614 52.5097 27.4003 53.1376 28.9203C53.444 29.663 53.1249 31.4036 52.7473 32.1128C50.6894 35.9763 48.2539 38.6652 48.2539 42.5911C48.2496 45.9481 49.4143 49.2004 51.5456 51.7828C55.767 57 62.5192 57 62.572 57C70.48 57 76.0396 50.5492 76.0396 42.5911C76.0243 41 75.8563 39.4141 75.5381 37.8555Z" fill="#FCFCFD"/>
</g>
<defs>
<clipPath id="clip0_1298:23382">
<rect width="160" height="72" fill="white"/>
</clipPath>
</defs>
</svg>
