<svg width="24" height="24" viewBox="0 0 24 24" fill="none" xmlns="http://www.w3.org/2000/svg">
<circle cx="12" cy="12" r="11.5" stroke="#1997E8"/>
<path d="M9.64645 15.6464C9.45119 15.8417 9.45119 16.1583 9.64645 16.3536C9.84171 16.5488 10.1583 16.5488 10.3536 16.3536L9.64645 15.6464ZM14 12L14.3536 12.3536C14.5488 12.1583 14.5488 11.8417 14.3536 11.6464L14 12ZM10.3536 7.64645C10.1583 7.45118 9.84171 7.45118 9.64645 7.64645C9.45118 7.84171 9.45118 8.15829 9.64645 8.35355L10.3536 7.64645ZM10.3536 16.3536L14.3536 12.3536L13.6464 11.6464L9.64645 15.6464L10.3536 16.3536ZM14.3536 11.6464L10.3536 7.64645L9.64645 8.35355L13.6464 12.3536L14.3536 11.6464Z" fill="#1997E8"/>
</svg>
