<svg width="25" height="30" viewBox="0 0 25 30" fill="none" xmlns="http://www.w3.org/2000/svg">
<path d="M23.9746 14.6794C23.897 14.1523 23.6365 13.6623 23.2319 13.282C22.8272 12.9018 22.2999 12.6516 21.7282 12.5686C21.2836 12.5083 20.8296 12.5538 20.4096 12.7008C19.9896 12.8478 19.6177 13.0914 19.3294 13.4082C19.1905 13.5749 19.0052 13.7041 18.7929 13.7821C18.5807 13.8601 18.3496 13.8841 18.1238 13.8513C17.4316 13.7995 16.7806 13.5272 16.2835 13.0816V7.90387H10.5216C10.2248 7.47797 10.0381 6.99532 9.97582 6.49285C9.93498 6.27768 9.957 6.05638 10.0395 5.85154C10.122 5.64669 10.262 5.46561 10.4454 5.32668C10.7394 5.094 10.9755 4.80577 11.1376 4.4818C11.2997 4.15783 11.3838 3.80571 11.3846 3.44916C11.3846 3.03803 11.2719 2.63349 11.057 2.27288C10.8422 1.91227 10.532 1.60719 10.1551 1.38572C9.7781 1.16426 9.34642 1.03351 8.90001 1.00564C8.45361 0.97776 8.00676 1.05359 7.60065 1.22615C7.19454 1.3987 6.84229 1.66243 6.57628 1.99301C6.31028 2.32359 6.13917 2.71041 6.07866 3.11776C6.01815 3.52511 6.07017 3.93993 6.23002 4.32393C6.38988 4.70792 6.65242 5.04875 6.99334 5.315C7.17414 5.45631 7.31308 5.63727 7.39739 5.84115C7.4817 6.04502 7.50867 6.2652 7.47563 6.48117C7.41458 6.98571 7.22303 7.46948 6.91712 7.8922H1.15528V12.9884C1.64918 13.4315 2.29501 13.7036 2.98278 13.7581C3.21829 13.8022 3.46255 13.784 3.68723 13.7055C3.91191 13.6271 4.10777 13.4916 4.25193 13.3149C4.53824 12.9991 4.90797 12.756 5.32572 12.609C5.74348 12.462 6.19528 12.416 6.63794 12.4753C7.30105 12.5775 7.89897 12.9031 8.31486 13.3885C8.73075 13.874 8.93472 14.4845 8.88715 15.1008C8.83959 15.717 8.54382 16.2948 8.05753 16.7215C7.57123 17.1481 6.92946 17.393 6.25729 17.4082C5.87198 17.4058 5.49171 17.3263 5.14322 17.1753C4.79473 17.0243 4.48627 16.8053 4.23923 16.5336C4.09032 16.362 3.89393 16.2303 3.67065 16.1523C3.44738 16.0744 3.20543 16.053 2.97008 16.0904C2.27925 16.1432 1.63148 16.4201 1.14258 16.8717V21.968H6.79024C7.16682 22.4175 7.39977 22.9546 7.46292 23.5189C7.49717 23.7349 7.47078 23.9554 7.38639 24.1595C7.30199 24.3636 7.16238 24.5445 6.98064 24.6851C6.56497 25.0097 6.2677 25.4436 6.12901 25.9284C5.99032 26.4132 6.01688 26.9255 6.20508 27.3959C6.39328 27.8664 6.73407 28.2726 7.18142 28.5594C7.62878 28.8463 8.16115 29 8.70667 29C9.25218 29 9.78455 28.8463 10.2319 28.5594C10.6793 28.2726 11.0201 27.8664 11.2082 27.3959C11.3964 26.9255 11.423 26.4132 11.2843 25.9284C11.1456 25.4436 10.8484 25.0097 10.4327 24.6851C10.2503 24.5454 10.111 24.3641 10.0286 24.1595C9.94625 23.9549 9.9236 23.734 9.96311 23.5189C10.0208 22.9533 10.2544 22.415 10.6358 21.968H16.2708V16.8717C16.7635 16.4184 17.4161 16.1415 18.1111 16.0904C18.3349 16.0599 18.5635 16.0848 18.7733 16.1627C18.983 16.2406 19.1662 16.3687 19.304 16.5336C19.6721 16.942 20.1751 17.2289 20.7366 17.351C21.2982 17.473 21.8877 17.4235 22.4159 17.2099C22.944 16.9963 23.3819 16.6301 23.6632 16.1671C23.9445 15.7042 24.0539 15.1696 23.9746 14.6444V14.6794Z" stroke="#FCFCFD" stroke-width="1.5" stroke-miterlimit="10"/>
</svg>
