<svg width="17" height="16" viewBox="0 0 17 16" fill="none" xmlns="http://www.w3.org/2000/svg">
<path d="M12.8115 0H3.98455C2.00378 0 0.39801 1.60577 0.39801 3.58654V12.4135C0.39801 14.3942 2.00378 16 3.98455 16H8.97493V9.84615H6.85955V7.38462H8.97493C8.97493 7.38462 8.97493 5.65385 9.0134 4.92308C9.05186 4.19231 9.43647 3.11538 10.7442 2.61538C11.7565 2.22846 13.898 2.53846 13.898 2.53846V4.69231L12.2884 4.73154C11.8272 4.77462 11.4749 5.16192 11.4749 5.62462V7.38462H13.8211L13.5134 9.80769H11.4749V16H12.8115C14.7922 16 16.398 14.3942 16.398 12.4135V3.58654C16.398 1.60577 14.7922 0 12.8115 0Z" fill="#00D2A0"/>
</svg>
