<svg width="16" height="16" viewBox="0 0 16 16" fill="none" xmlns="http://www.w3.org/2000/svg">
<path d="M12.4135 0H3.58654C1.60577 0 0 1.60577 0 3.58654V12.4135C0 14.3942 1.60577 16 3.58654 16H8.57692V9.84615H6.46154V7.38462H8.57692C8.57692 7.38462 8.57692 5.65385 8.61539 4.92308C8.65385 4.19231 9.03846 3.11538 10.3462 2.61538C11.3585 2.22846 13.5 2.53846 13.5 2.53846V4.69231L11.8904 4.73154C11.4292 4.77462 11.0769 5.16192 11.0769 5.62462V7.38462H13.4231L13.1154 9.80769H11.0769V16H12.4135C14.3942 16 16 14.3942 16 12.4135V3.58654C16 1.60577 14.3942 0 12.4135 0Z" fill="#00D2A0"/>
</svg>
