<svg width="160" height="72" viewBox="0 0 160 72" fill="none" xmlns="http://www.w3.org/2000/svg">
<g clip-path="url(#clip0_1298:23402)">
<path d="M53.9941 25.7876H76.4289V31.1051H60.1864V40.4714H75.5027V45.593H60.1864V59.9769H53.9941V25.7876Z" fill="white"/>
<path d="M81.9297 23.4691H87.7935V59.9769H81.9297V23.4691Z" fill="white"/>
<path d="M94.2559 28.9251C94.253 28.4699 94.3449 28.0191 94.5265 27.6004C94.7081 27.1817 94.9752 26.8042 95.3113 26.4913C95.6614 26.148 96.0792 25.8789 96.539 25.7003C96.9989 25.5218 97.4911 25.4377 97.9852 25.4532C98.9885 25.4255 99.9637 25.781 100.706 26.4452C101.075 26.7485 101.371 27.128 101.574 27.5566C101.776 27.9852 101.881 28.4524 101.879 28.9251C101.882 29.3997 101.779 29.8693 101.576 30.3001C101.373 30.7308 101.076 31.1121 100.706 31.4166C99.9637 32.0808 98.9885 32.4363 97.9852 32.4086C97.4911 32.4241 96.9989 32.34 96.539 32.1615C96.0792 31.983 95.6614 31.7139 95.3113 31.3706C94.9755 31.0551 94.7086 30.6753 94.5271 30.2549C94.3456 29.8344 94.2534 29.3819 94.2559 28.9251ZM95.0885 36.8035H100.952V59.9769H95.0885V36.8035Z" fill="white"/>
<path d="M108.152 36.7803H113.746V40.4945H113.84C114.447 39.244 115.393 38.1824 116.573 37.4263C117.925 36.5272 119.527 36.0636 121.158 36.0998C122.52 36.0641 123.872 36.3363 125.11 36.8956C126.156 37.3912 127.077 38.1082 127.808 38.995C128.52 39.8843 129.046 40.9036 129.356 41.9941C129.683 43.1194 129.849 44.2841 129.848 45.4545V59.9422H123.985V47.1617C123.978 46.4479 123.927 45.7353 123.832 45.0277C123.747 44.3302 123.532 43.6539 123.199 43.0322C122.872 42.4401 122.406 41.9337 121.839 41.5557C121.157 41.1418 120.364 40.9407 119.563 40.979C118.708 40.9571 117.861 41.1475 117.101 41.5326C116.442 41.8833 115.867 42.3667 115.412 42.9514C114.961 43.5583 114.619 44.2373 114.403 44.9585C114.179 45.7077 114.065 46.4845 114.063 47.2654V59.9538H108.199L108.152 36.7803Z" fill="white"/>
<path d="M136.815 23.4691H142.678V46.5388H142.819L151.756 36.7919H159.32L149.105 47.2655L159.953 59.9538H152.154L142.772 48.073H142.631V59.9538H136.768L136.815 23.4691Z" fill="white"/>
<path d="M6.52006 38.0261L6.71933 38.2338C6.83703 38.2948 6.9637 38.3376 7.0947 38.3606C6.8683 37.1784 6.77002 35.9759 6.80151 34.7733C6.82147 33.3195 7.14905 31.8856 7.76325 30.5631C7.85707 30.3785 8.31423 29.6518 8.41978 29.5018C8.52533 29.3519 8.05639 31.9587 7.99775 32.9623C7.9402 34.2397 8.05061 35.5192 8.32616 36.7688L8.47848 36.665C8.39064 35.8368 8.39064 35.0017 8.47848 34.1735C8.61945 32.9888 8.911 31.8263 9.34631 30.713C9.86504 29.3528 10.5419 28.0562 11.3634 26.8489C10.1834 26.9801 9.07184 27.4606 8.17555 28.2268C7.27926 28.993 6.64075 30.0088 6.34426 31.1398C6.34426 31.1398 6.34426 30.4246 6.34426 30.2516C6.40782 29.3646 6.54891 28.4848 6.76629 27.6218C6.52508 28.0684 6.33625 28.5404 6.20339 29.029C5.94371 29.9362 5.75553 30.8617 5.64048 31.7974C5.50423 32.6675 5.43766 33.5468 5.44121 34.4272C5.414 35.2987 5.53671 36.1683 5.80454 36.9995C5.97797 37.3814 6.22047 37.7292 6.52006 38.0261Z" fill="white"/>
<path d="M9.51027 36.5147C9.91764 36.2777 10.3553 36.0954 10.8119 35.9726C11.6914 35.7304 12.6532 35.4881 13.8377 35.1997L14.2365 35.1075C15.251 34.8864 16.2497 34.6013 17.2269 34.2539C17.832 34.0269 18.4071 33.7287 18.9393 33.3657C19.7348 32.828 20.4423 32.1745 21.0383 31.4278C21.3359 31.0635 21.5553 30.6437 21.6834 30.1936L21.9179 29.4208C22.2179 29.8523 22.3786 30.3629 22.3786 30.8857C22.3786 31.4085 22.2179 31.9191 21.9179 32.3507C22.6396 32.0127 23.223 31.4432 23.5717 30.7358C23.9835 29.7768 24.3243 28.7899 24.5918 27.7828C24.9409 28.4216 25.1047 29.1425 25.0654 29.8667C25.0261 30.5909 24.7853 31.2906 24.3691 31.8892C24.6371 31.7672 24.8861 31.6079 25.1081 31.4163C30.3151 26.3409 25.835 23.4572 24.8968 22.7767C24.2706 22.3274 23.5838 21.9665 22.8562 21.704H22.7391L22.6217 21.6117L21.9531 20.8965L23.1259 21.2195L23.5952 21.3464C24.69 21.6337 25.7255 22.1059 26.6559 22.742C27.5824 23.4111 31.1008 26.3179 27.3832 30.5742C28.9308 30.041 30.3262 29.1511 31.4526 27.9789C34.9709 23.0766 30.9248 20.2044 31.1007 20.2044H31.3H31.4409C31.523 20.2044 31.6402 20.2045 31.6754 20.1238C31.6805 20.0582 31.6693 19.9924 31.6427 19.9321C31.6162 19.8718 31.5752 19.8188 31.523 19.7777C31.3718 19.6473 31.1946 19.5493 31.0028 19.4897C30.811 19.4301 30.6086 19.4103 30.4087 19.4316C26.7379 19.9968 25.4362 18.8779 25.4362 18.8779C25.4362 18.8779 30.5964 19.1317 30.7606 18.3012C30.0175 17.5537 29.1586 16.9268 28.2158 16.4441C26.7819 15.6657 25.2164 15.1499 23.5952 14.9215C22.127 14.6954 20.6294 14.7306 19.1738 15.0253C19.3732 14.7831 20.3466 13.6642 24.4747 13.9871C26.1124 14.1425 27.7047 14.6045 29.1658 15.3483C29.5411 15.5329 29.7639 15.0945 29.7756 14.8984C29.7874 14.7023 30.1859 15.6712 30.1977 15.7289C30.2607 15.5138 30.335 15.302 30.4204 15.0944C30.6335 15.4867 30.8028 15.9006 30.9249 16.3287C31.0899 16.1199 31.2702 15.9233 31.4644 15.7405C31.5772 16.1143 31.6093 16.5072 31.5583 16.8939L32.1094 16.5363C32.2613 17.1963 32.553 17.8174 32.9655 18.3589C33.2588 18.6712 33.4894 19.0351 33.6455 19.4316C34.0387 18.9477 34.337 18.3963 34.5251 17.8052C34.6766 18.4699 34.6766 19.1592 34.5251 19.8238L35.1467 19.374C35.1831 20.0714 35.0795 20.769 34.8418 21.4271C34.8351 21.4923 34.8351 21.558 34.8418 21.6232C35.1559 21.3976 35.4361 21.1297 35.6744 20.8274L35.5925 21.2195C35.463 21.8946 35.2338 22.5474 34.9122 23.1573C34.6403 23.5932 34.4385 24.068 34.3141 24.5646C34.4074 24.4743 34.5096 24.3931 34.619 24.3223C34.8097 24.1962 35.0143 24.0919 35.2289 24.011L35.7096 23.8379C36.5305 23.5496 37.3516 23.2036 38.149 22.8575C39.8378 22.1308 39.4627 21.1042 39.4627 21.1042C38.9278 21.8003 38.2427 22.3714 37.457 22.7767C37.457 22.7767 39.4859 20.9772 38.6298 18.8779L37.9498 20.4928C37.6804 21.2696 37.2843 21.9981 36.777 22.6498C36.525 22.9638 36.2095 23.2231 35.8505 23.4112C35.7767 23.4547 35.6981 23.4895 35.616 23.5149H35.5221C35.8182 22.8308 35.9507 22.0888 35.9092 21.3464C35.9092 20.7696 35.9092 20.1929 35.9092 19.6508V19.5355C35.9092 19.2702 35.9092 19.0048 35.9092 18.7279C35.8695 17.7853 35.9642 16.8419 36.1906 15.9251C36.1906 15.9251 36.1906 15.8328 36.1906 15.7866C36.1906 15.7405 36.0967 15.5905 36.0498 15.4752C36.0028 15.3598 35.9091 15.1061 35.8387 14.91C35.6826 14.4708 35.4212 14.0752 35.0766 13.7565C35.0062 13.9872 34.5134 14.91 34.5134 14.91V14.114C34.3726 13.0643 31.7575 12.13 31.6988 12.0954L31.8397 12.9145C31.6128 12.9049 31.3904 12.8473 31.1881 12.7458C30.9857 12.6443 30.8081 12.5013 30.667 12.3262C30.5889 12.2302 30.4979 12.1447 30.397 12.0723L30.5848 12.6952L30.7723 13.1336C30.5903 13.1149 30.4149 13.0566 30.2587 12.9628C30.1025 12.869 29.9694 12.7422 29.8693 12.5915L29.6348 12.1992C29.519 11.9823 29.3521 11.7959 29.148 11.6554C28.944 11.5149 28.7088 11.4245 28.462 11.3918C28.0985 11.3918 27.6879 11.2995 27.2188 11.2649C26.875 11.2583 26.5361 11.1837 26.2221 11.0457L26.0695 10.9766C26.0962 11.0366 26.1276 11.0944 26.1634 11.1496C26.1858 11.2169 26.2133 11.2824 26.2456 11.3456L26.3158 11.5071L26.4097 11.8648C25.8376 11.7972 25.2924 11.5867 24.8263 11.2534C24.62 11.1486 24.3902 11.097 24.1581 11.1034H24.0759H23.3956C22.7488 11.1017 22.1052 11.191 21.4841 11.3687H21.3667H21.7304C22.0854 11.3376 22.4425 11.3991 22.7657 11.547C23.0889 11.6948 23.367 11.9237 23.5717 12.2107C23.5717 12.2107 22.3167 12.2107 21.9414 12.2107C21.5113 12.2594 21.0847 12.3326 20.6633 12.43C19.4497 12.7654 18.3088 13.3167 17.2973 14.0564L16.4882 14.5754C16.0173 14.8723 15.6173 15.2658 15.3154 15.7289L15.245 15.8673C15.245 15.9481 15.245 15.948 15.245 15.9711C15.3566 16.0271 15.4748 16.0697 15.5968 16.098C16.5666 16.3251 17.4419 16.8397 18.1047 17.5721C18.7675 18.3044 19.1857 19.2192 19.3027 20.1929V20.4466C19.3953 21.0845 19.4347 21.7288 19.4201 22.373C19.3628 24.0384 18.6964 25.6275 17.5435 26.8485C16.8381 27.6284 15.8655 28.1252 14.8112 28.2442C15.7632 27.3289 16.3988 26.1428 16.6287 24.853C16.7532 24.2885 16.696 23.6998 16.4647 23.1688V23.2612C16.272 23.8947 15.9574 24.486 15.5381 25.003C15.2567 25.3144 14.8815 25.6719 14.4476 26.0756C12.5594 27.8405 9.39294 30.805 9.45158 35.5112C9.43042 35.8468 9.45016 36.1837 9.51027 36.5147Z" fill="white"/>
<path d="M38.5006 24.5996L37.7969 25.1994C37.397 25.5593 36.9259 25.8343 36.4131 26.0069C36.2374 26.0588 36.0505 26.0626 35.8728 26.0179C35.6951 25.9732 35.5331 25.8816 35.4044 25.7531C35.77 25.5595 36.0867 25.2875 36.3309 24.9572C35.5078 25.374 34.723 25.8603 33.9854 26.4106C33.6894 26.6186 33.418 26.8585 33.1762 27.1258C32.9225 27.3992 32.7696 27.7486 32.7422 28.1178H32.8596C33.7434 27.8779 34.5969 27.5413 35.4044 27.1142C36.6646 26.4579 37.8828 25.7259 39.0518 24.9226C39.1127 24.8784 39.1798 24.8435 39.2511 24.8188L40.0135 24.6111L39.5443 25.2456V25.3149C38.1492 26.7267 36.483 27.852 34.6422 28.6254C34.3105 28.7667 33.9696 28.8861 33.6218 28.9829C34.7011 28.7222 35.7535 28.3631 36.765 27.9102C37.6934 27.5319 38.5499 27.0013 39.298 26.3413C40.2574 25.4557 40.9786 24.3501 41.3973 23.1232C41.4028 23.0541 41.4028 22.9846 41.3973 22.9155L41.1746 22.9848C40.908 23.0471 40.6485 23.136 40.4004 23.2501C40.0803 23.4056 39.781 23.5993 39.509 23.8268L38.5006 24.5996Z" fill="white"/>
<path d="M3.16553 41.602C3.43527 42.0172 3.72842 42.4324 4.00989 42.8246V42.8939C3.77545 42.2274 3.69593 41.5178 3.77711 40.8171C3.85829 40.1164 4.09829 39.4426 4.47916 38.8451L4.77236 39.641C4.86009 39.8634 4.97853 40.0731 5.12424 40.2639C5.42999 39.6908 5.79967 39.153 6.22657 38.6605C5.8413 38.4512 5.50858 38.1595 5.25309 37.807C4.80579 37.2066 4.5085 36.5111 4.38525 35.7768C4.18154 34.7279 4.13428 33.6555 4.24467 32.5932C4.24467 32.2356 4.31486 31.878 4.36177 31.5204C2.89435 33.1403 1.75242 35.0191 0.996094 37.0572C0.996094 37.0572 0.996094 37.0572 0.996094 37.0572C1.51975 38.6567 2.24868 40.184 3.16553 41.602Z" fill="white"/>
<path d="M37.7159 17.8516C37.7095 16.4969 37.9682 15.1538 38.4781 13.8953C38.4821 13.8685 38.4821 13.8412 38.4781 13.8145C38.2815 13.9584 38.1111 14.134 37.9739 14.3336C37.5831 14.9127 37.3045 15.5579 37.1527 16.2367C36.7452 17.7757 36.5095 19.3538 36.4492 20.943C37.086 20.252 37.4949 19.3873 37.622 18.463C37.6659 18.2613 37.6973 18.0571 37.7159 17.8516Z" fill="white"/>
<path d="M44.7167 56.6664C44.0934 56.5884 43.4959 56.3738 42.9681 56.0384C42.4404 55.703 41.9958 55.2555 41.6674 54.7286C41.0693 56.182 42.3008 57.2316 43.2273 57.693C43.3478 57.7598 43.473 57.8177 43.6023 57.8661C43.7665 57.9468 43.2506 58.8696 43.6845 59.3079C43.8185 59.4336 43.9808 59.5262 44.1581 59.5783C44.3354 59.6304 44.5229 59.6406 44.705 59.6079C44.705 59.6079 45.4555 60.2883 45.8777 59.827C45.9507 59.7104 45.9941 59.5784 46.0043 59.4418C46.0145 59.3053 45.991 59.1684 45.9361 59.0427C45.7602 58.7312 45.3265 58.7888 45.2796 58.7888C44.4352 58.7888 44.5055 58.4082 44.6345 58.2351C44.7635 58.0621 44.9158 58.1314 45.0683 58.1314H45.1739H45.7251C46.4293 58.1698 47.1327 58.0432 47.7774 57.7622C48.0352 57.6115 48.2568 57.4078 48.4268 57.1649C48.5969 56.9219 48.7116 56.6456 48.7627 56.355C47.4617 56.7902 46.0706 56.8973 44.7167 56.6664Z" fill="white"/>
<path d="M49.5366 40.7714C49.4545 40.5753 49.3608 40.3677 49.2787 40.1947L49.1498 39.9294L49.009 39.6525C48.8883 39.4224 48.7864 39.1833 48.704 38.9374C48.6367 38.724 48.5972 38.5031 48.5866 38.28C48.5919 38.2032 48.5919 38.126 48.5866 38.0492C48.4515 36.9102 48.0231 35.824 47.3417 34.8934C46.6604 33.9629 45.7488 33.2187 44.6933 32.7316C44.6072 33.0437 44.4552 33.3346 44.2475 33.5852C44.1956 33.6795 44.117 33.7569 44.0213 33.8081C43.9255 33.8593 43.8167 33.882 43.708 33.8736C43.6462 33.8687 43.5867 33.8484 43.5351 33.8144C43.4836 33.7805 43.4416 33.7342 43.4134 33.6798C43.3852 33.6255 43.3716 33.5649 43.3739 33.504C43.3762 33.443 43.3944 33.3836 43.4266 33.3315C43.647 32.9809 43.7872 32.5872 43.8372 32.178C43.8406 31.7739 43.7626 31.3732 43.6075 30.999C43.4525 30.6248 43.2237 30.2845 42.9341 29.9979C42.3764 29.3932 41.6812 28.9268 40.9053 28.6367C40.79 29.4148 40.8788 30.2089 41.1632 30.9437C41.433 31.6819 42.3361 33.1353 42.0898 34.012C42.0534 34.1985 41.9783 34.3756 41.8693 34.5324C41.7604 34.6892 41.6199 34.8222 41.4564 34.9233C41.1398 35.1194 41.0106 35.0271 41.0106 35.0271C41.3234 34.5832 41.4911 34.0561 41.4911 33.5161C41.4911 32.976 41.3234 32.4488 41.0106 32.0049C40.4799 31.1488 40.2801 30.1334 40.4477 29.1443C40.4477 29.1443 40.4477 29.0636 40.4477 29.0175C40.4013 29.1606 40.3425 29.2995 40.2719 29.4327C39.7456 30.1476 39.3084 30.9222 38.97 31.7397C38.8464 32.2997 38.8421 32.8788 38.9572 33.4406C39.0722 34.0024 39.3042 34.5347 39.6386 35.004C39.3412 34.8225 39.0842 34.5839 38.8827 34.3025C38.6812 34.021 38.5394 33.7026 38.4658 33.3661C37.3865 33.9619 36.444 34.7709 35.698 35.7422C35.5362 35.9395 35.3556 36.121 35.1586 36.2843C33.9942 37.3605 32.5877 38.151 31.0539 38.5913C30.0336 38.8912 28.9782 39.1335 27.9344 39.3873H27.6647C26.1762 39.7026 24.7199 40.1505 23.3138 40.7253C21.8446 41.3364 20.495 42.1952 19.3263 43.263C17.8282 44.6711 16.8608 46.5378 16.5822 48.5574C16.3526 50.2604 16.4801 51.9917 16.9573 53.6443C16.9573 53.702 14.8112 51.718 15.9254 45.9967H15.3038C14.243 45.9582 13.1862 46.1443 12.2049 46.5423C11.2236 46.9403 10.3406 47.541 9.61575 48.3037C9.61575 48.3037 9.87379 45.8928 13.7439 45.0739L16.547 44.4511C16.8747 43.81 17.2676 43.2032 17.7197 42.64H17.3678L15.3507 42.9399L14.823 42.9977C13.6039 43.1213 12.3962 43.3372 11.2108 43.6436C10.1173 43.9301 9.10843 44.4679 8.26719 45.2124C7.42088 46.0201 6.80947 47.0355 6.49631 48.1537C6.4882 48.215 6.4882 48.2771 6.49631 48.3383C6.49631 48.4306 6.43758 48.5344 6.4024 48.6382C6.36889 48.7086 6.35172 48.7854 6.35172 48.8631C6.35172 48.9408 6.36889 49.0177 6.4024 49.0881C7.14708 51.012 8.42246 52.6936 10.085 53.9442C11.4257 54.9833 12.9315 55.7978 14.5416 56.355C14.6269 56.3748 14.7044 56.4189 14.7643 56.4818L15.4913 57.174L14.3185 56.9086L13.9317 56.8048C11.7153 56.2325 9.66389 55.1625 7.93878 53.679C5.99648 52.8751 4.35689 51.4963 3.24773 49.734L3.04846 49.3418C3.8059 50.1002 4.71691 50.6936 5.72239 51.0836C5.22377 50.3064 4.82958 49.4689 4.54963 48.592C4.52323 48.5296 4.48756 48.4713 4.44397 48.419C2.66888 46.2909 1.27669 43.8801 0.327566 41.2905L0.151766 40.7483C0.0569222 41.4634 0.0136866 42.1843 0.0226358 42.9055C0.0226358 43.1361 2.00454 48.3152 2.00454 48.3152C1.4061 47.6422 0.872334 46.9163 0.409739 46.1467C0.409739 46.1467 0.280586 45.743 0.257131 45.7199C0.561485 47.5206 1.16788 49.2591 2.05149 50.8644C3.20801 53.0138 4.81995 54.8942 6.77833 56.3786C8.73672 57.8631 10.9959 58.9171 13.4038 59.4695C14.7283 59.8118 16.0922 59.9861 17.4618 59.9885H33.7748C34.4109 59.9963 35.0465 59.95 35.6745 59.8501H35.7567C35.9494 59.8086 36.1458 59.7854 36.3431 59.7808C36.5839 59.7811 36.824 59.8082 37.0586 59.8616H37.1874C37.409 59.9233 37.6375 59.9582 37.8677 59.9654C40.612 59.9654 40.2132 58.362 40.2132 58.362C40.1089 58.1336 39.9459 57.9359 39.7402 57.7882C39.5346 57.6406 39.2935 57.5481 39.0405 57.52C38.8486 57.4735 38.6517 57.4504 38.4541 57.4509C38.0501 57.4597 37.6518 57.5458 37.2813 57.7046L36.695 57.9468L36.3313 58.1083L36.132 58.1776C36.0201 58.2233 35.9012 58.2505 35.7802 58.2582C35.3697 58.2582 35.3464 57.8546 35.3346 57.6124C35.3318 57.4677 35.3617 57.3241 35.4226 57.1923C35.4834 57.0606 35.5735 56.944 35.6862 56.851C35.884 56.6854 36.0916 56.5313 36.3078 56.3896C36.7416 56.1433 37.1366 55.8363 37.4806 55.4783C37.8606 55.0791 38.1206 54.5839 38.2313 54.048C38.2997 53.7269 38.2668 53.393 38.1374 53.0907C38.1328 53.0697 38.1229 53.0502 38.1085 53.0341C38.0942 53.0179 38.0757 53.0057 38.0552 52.9984L37.2931 52.7677C36.3971 52.5649 35.5815 52.1076 34.9475 51.4527C34.5786 51.0439 34.2706 50.5857 34.0328 50.0916C33.6686 49.3759 33.3779 48.6262 33.1649 47.8538C32.8114 46.5882 31.9699 45.5081 30.8194 44.8432C29.8398 44.2452 28.7311 43.8816 27.5826 43.782C27.3011 43.782 27.0079 43.782 26.703 43.782H26.2692H25.8821H25.4481C25.7538 43.5556 26.1 43.3874 26.4685 43.286C26.6363 43.2338 26.8092 43.1991 26.9844 43.1823C27.3708 43.1079 27.7635 43.0692 28.1572 43.0668C29.0889 43.063 30.0072 43.2849 30.8311 43.7128C31.8934 44.2788 32.7653 45.1365 33.3407 46.1813C33.7031 46.8241 33.9906 47.5051 34.1971 48.2114C34.1971 48.3499 34.279 48.4998 34.3259 48.6498C34.3902 48.9239 34.4724 49.1935 34.5722 49.4572C34.8456 50.1832 35.32 50.8196 35.9416 51.2945C36.5633 51.7695 37.3076 52.0639 38.0905 52.1447C38.522 52.2025 38.9569 52.2334 39.3924 52.2371C40.1521 52.2403 40.9077 52.1274 41.6322 51.9025C42.4986 51.6463 43.2669 51.1399 43.8372 50.4491C44.079 50.148 44.2582 49.8031 44.3649 49.4341L44.4353 49.1919L44.8573 49.2841L45.127 49.3534H45.3266C45.525 49.3443 45.7217 49.3133 45.913 49.261C46.0652 49.2497 46.218 49.2497 46.3702 49.261H46.4994C46.5651 49.2636 46.6292 49.2818 46.6863 49.314C46.7435 49.3461 46.7918 49.3912 46.8275 49.4456C46.8275 49.561 46.9917 49.6187 47.1911 49.6649H47.3437C47.5821 49.6598 47.8111 49.5728 47.9911 49.419C48.171 49.2652 48.2904 49.0541 48.3287 48.8227C48.3403 48.7595 48.3333 48.6944 48.3083 48.6351C48.2834 48.5758 48.2417 48.5249 48.1881 48.4883L47.9184 48.3152L47.4374 48.0269L47.754 47.7847C47.8414 47.7181 47.9485 47.6816 48.059 47.6807C48.1399 47.6621 48.2242 47.6621 48.3052 47.6807C48.3052 47.6807 47.9182 45.6161 45.1388 46.2159L44.4588 46.4812H44.3531H44.1421C44.0225 46.4799 43.9053 46.448 43.802 46.3889C43.1499 46.093 42.4215 46.0004 41.7144 46.1236C41.3393 46.124 40.9654 46.0814 40.6003 45.9967C40.5096 45.9823 40.4265 45.9375 40.3656 45.8698L40.178 45.6622C39.3413 45.7173 38.5027 45.5832 37.7268 45.27C36.8307 44.9267 36.0957 44.2693 35.6631 43.4245C35.4423 42.9878 35.3336 42.5047 35.3464 42.0172V42.1557C35.5196 42.6582 35.7815 43.1268 36.1203 43.5398C36.7448 44.2817 37.5524 44.8537 38.4658 45.2009C38.9811 45.3969 39.5157 45.54 40.0609 45.6277C41.0579 45.6855 42.0508 45.4612 42.9224 44.9816C43.4961 44.6396 44.1513 44.4526 44.8221 44.4395H44.9512C47.0857 44.4395 47.2968 43.4245 47.2968 43.4245C47.4736 43.526 47.6814 43.5628 47.8832 43.5282C48.214 43.4977 48.5224 43.3502 48.751 43.113C48.9784 42.8777 49.1153 42.5718 49.1381 42.2479L48.4343 41.625L48.2817 41.4865L48.0003 41.279L48.1881 41.0598C48.2424 40.999 48.3089 40.9501 48.3836 40.9163C48.4584 40.8825 48.5396 40.8647 48.6219 40.8638C48.7199 40.8647 48.8163 40.8883 48.9033 40.9329C49.0259 41.0004 49.14 41.0817 49.2435 41.1752L49.3491 41.2559L49.4779 41.3481C49.5515 41.165 49.5719 40.9653 49.5366 40.7714ZM46.9097 40.2062C46.8276 40.4254 46.7222 40.46 46.4876 40.4139C46.3628 40.402 46.2371 40.402 46.1123 40.4139C45.8894 40.4139 45.6548 40.4715 45.432 40.4715C44.8648 40.5115 44.3023 40.3477 43.8489 40.0102C43.5414 39.8022 43.3293 39.4833 43.2591 39.1227C43.1889 38.7621 43.266 38.3889 43.4736 38.0838C43.4773 38.1106 43.4773 38.1377 43.4736 38.1645C43.4799 38.4139 43.5484 38.6581 43.6731 38.8753C43.7979 39.0925 43.9749 39.2762 44.1888 39.4104C44.5432 39.6314 44.9444 39.7694 45.3615 39.8141C45.7184 39.8389 46.0661 39.9371 46.382 40.1024H46.4642C46.4159 39.9444 46.4159 39.7759 46.4642 39.6179C46.5168 39.4174 46.5168 39.2072 46.4642 39.0067C46.3611 39.2614 46.1807 39.4787 45.9479 39.6295C45.9095 39.6398 45.8692 39.6398 45.8308 39.6295L45.3615 39.5141C45.055 39.4192 44.7569 39.2996 44.4702 39.1566C44.2826 39.0753 44.131 38.9303 44.0428 38.7483C43.9545 38.5662 43.9356 38.3591 43.9895 38.1645C44.005 38.0965 44.0023 38.0258 43.9818 37.9591C43.9612 37.8924 43.9237 37.832 43.8724 37.7839L43.7315 37.6224C43.8351 37.5199 43.9447 37.4237 44.0599 37.334C44.1624 37.248 44.2723 37.1709 44.3883 37.1034C44.604 36.9874 44.8414 36.9158 45.0861 36.8932C45.3308 36.8706 45.5778 36.8974 45.8116 36.9719C46.0455 37.0464 46.2613 37.1671 46.4461 37.3266C46.6309 37.486 46.7807 37.6809 46.8862 37.8992C46.9897 38.1375 47.0532 38.3907 47.074 38.649C47.1616 39.1814 47.1213 39.7265 46.9566 40.2408L46.9097 40.2062Z" fill="white"/>
<path d="M3.99892 46.1813C3.99892 45.6969 3.92846 45.2239 3.90501 44.6471C3.92212 44.6025 3.92212 44.5533 3.90501 44.5087C2.75453 42.9151 1.74978 41.2244 0.902667 39.4564C0.773663 39.1796 0.65633 38.9143 0.550781 38.649C1.01814 41.4274 2.23292 44.0321 4.06907 46.1929L3.99892 46.1813Z" fill="white"/>
<path d="M43.4394 54.5672C43.9103 54.8438 44.426 55.0389 44.964 55.144C45.6188 55.3134 46.2924 55.4025 46.9694 55.4092C47.2984 55.4138 47.6264 55.3711 47.9429 55.2824C48.2412 55.1919 48.5082 55.0224 48.7151 54.7925C48.9219 54.5626 49.0606 54.2811 49.1156 53.9789C49.2281 53.4994 49.3141 53.0142 49.3736 52.5255C49.4335 52.0476 49.3957 51.5628 49.2628 51.0993C49.1299 50.6358 48.9044 50.2031 48.5994 49.8264L48.3884 49.9993C48.2616 50.0987 48.1241 50.1839 47.9781 50.2532C47.7877 50.3446 47.5799 50.3957 47.3682 50.4032C47.1636 50.3984 46.9629 50.347 46.7819 50.2532C46.4875 50.1079 46.1611 50.0365 45.8319 50.0455C45.6874 50.0349 45.5422 50.0349 45.3978 50.0455C45.3978 50.0455 45.3159 50.0454 45.2924 50.1262C44.7291 51.2083 43.7628 52.0347 42.595 52.4332C42.536 52.738 42.536 53.0511 42.595 53.356C42.644 53.604 42.7441 53.8395 42.8893 54.0478C43.0346 54.2561 43.2218 54.4329 43.4394 54.5672Z" fill="white"/>
<path d="M31.0072 30.4247C29.822 31.573 28.4456 32.5132 26.9378 33.2047C25.7326 33.7525 24.4588 34.1404 23.1498 34.3581L20.558 34.8425H20.3822L18.189 35.2463C16.1727 35.6012 14.1824 36.0867 12.2313 36.6997C10.9921 37.0749 9.80897 37.6101 8.71301 38.2916C7.90309 38.7738 7.21695 39.4328 6.70763 40.2178C6.60208 40.4023 6.49653 40.6215 6.41444 40.8061L6.25038 41.1291C6.21261 41.2171 6.16103 41.2988 6.09777 41.3713C5.60989 41.8236 5.23931 42.3843 5.01691 43.0065C4.79451 43.6286 4.72695 44.2939 4.81964 44.947C4.92516 45.8333 5.20387 46.6911 5.64052 47.4732C5.75159 46.6517 6.05929 45.8678 6.53841 45.186C7.01753 44.5042 7.65449 43.9439 8.39662 43.5514C9.29518 43.0612 10.2638 42.7073 11.2698 42.5017C12.3605 42.2594 13.4747 42.0634 14.5184 41.8789L15.1515 41.7634C16.2455 41.6019 17.327 41.3668 18.3883 41.0598C18.6346 40.9906 18.881 40.8984 19.1038 40.8176C19.397 40.7151 19.6734 40.5713 19.9247 40.3908C20.2218 40.1832 20.5267 39.9871 20.8395 39.8026C19.4791 39.8026 17.1805 39.8026 16.4768 39.8026C15.0865 39.7357 13.6972 39.9518 12.3956 40.437C10.9531 40.9792 6.83676 43.0324 6.83676 43.0324C8.53124 41.4245 10.5212 40.1484 12.7006 39.272C14.0264 38.7647 15.4144 38.4312 16.8287 38.28C17.4503 38.28 18.0952 38.1876 18.7754 38.1876C19.4556 38.1876 19.9482 38.1877 20.5815 38.2569L23.7714 38.476C23.8214 38.4882 23.8739 38.4882 23.924 38.476C24.9972 38.1798 26.0904 37.9602 27.1958 37.8186L28.2866 37.6225L28.0753 37.5533L27.8291 37.4725L27.6416 37.3918L26.926 36.9188H29.6235C30.1981 36.9188 35.9094 36.0192 38.3605 29.3174C38.5247 28.8791 38.689 28.4292 38.8298 27.9447C37.1359 29.0045 35.2539 29.7402 33.2826 30.1133C32.5328 30.2706 31.7722 30.3747 31.0072 30.4247Z" fill="white"/>
<path d="M44.4707 38.0838C44.4738 38.2286 44.5347 38.3666 44.6399 38.4679C44.7452 38.5693 44.8866 38.6259 45.0339 38.6259C45.1812 38.6259 45.3226 38.5693 45.4279 38.4679C45.5331 38.3666 45.5937 38.2286 45.5968 38.0838C45.5984 38.0107 45.5847 37.9379 45.557 37.8701C45.5293 37.8022 45.4879 37.7406 45.4353 37.6888C45.3827 37.6371 45.3202 37.5963 45.2512 37.569C45.1822 37.5418 45.1083 37.5286 45.0339 37.5302C44.8846 37.5302 44.7412 37.5885 44.6356 37.6924C44.5301 37.7962 44.4707 37.937 44.4707 38.0838Z" fill="white"/>
</g>
<defs>
<clipPath id="clip0_1298:23402">
<rect width="160" height="49" fill="white" transform="translate(0 11)"/>
</clipPath>
</defs>
</svg>
