<svg width="16" height="16" viewBox="0 0 16 16" fill="none" xmlns="http://www.w3.org/2000/svg">
<g clip-path="url(#clip0_1192:27351)">
<path d="M12.41 1.52588e-05H3.58997C2.63784 1.52588e-05 1.72477 0.378273 1.05151 1.05153C0.378258 1.72478 0 2.63785 0 3.58998V12.4201C-1.83737e-06 12.891 0.0929007 13.3574 0.273438 13.7924C0.453974 14.2274 0.71863 14.6224 1.05212 14.955C1.38562 15.2875 1.78142 15.551 2.21692 15.7304C2.65242 15.9097 3.11899 16.0013 3.58997 16H12.41C12.881 16.0013 13.3476 15.9097 13.7831 15.7304C14.2186 15.551 14.6144 15.2875 14.9479 14.955C15.2814 14.6224 15.546 14.2274 15.7266 13.7924C15.9071 13.3574 16 12.891 16 12.4201V3.58998C16 2.63785 15.6217 1.72478 14.9485 1.05153C14.2752 0.378273 13.3622 1.52588e-05 12.41 1.52588e-05ZM12 12.64H9.58997V9.11H6.37V12.64H4V3.36H6.41003V7.06996H9.58997V3.36H12V12.64Z" fill="#FCFCFD"/>
</g>
<defs>
<clipPath id="clip0_1192:27351">
<rect width="16" height="16" fill="white"/>
</clipPath>
</defs>
</svg>
