<svg width="17" height="16" viewBox="0 0 17 16" fill="none" xmlns="http://www.w3.org/2000/svg">
<g clip-path="url(#clip0_1125:12002)">
<path d="M13.012 0H4.19196C3.23983 0 2.32676 0.378258 1.6535 1.05151C0.980248 1.72477 0.60199 2.63784 0.60199 3.58997V12.42C0.601988 12.891 0.69489 13.3574 0.875427 13.7924C1.05596 14.2274 1.32062 14.6224 1.65411 14.955C1.98761 15.2875 2.38341 15.551 2.81891 15.7303C3.25441 15.9097 3.72098 16.0013 4.19196 16H13.012C13.483 16.0013 13.9496 15.9097 14.3851 15.7303C14.8206 15.551 15.2164 15.2875 15.5499 14.955C15.8834 14.6224 16.148 14.2274 16.3286 13.7924C16.5091 13.3574 16.602 12.891 16.602 12.42V3.58997C16.602 2.63784 16.2237 1.72477 15.5505 1.05151C14.8772 0.378258 13.9642 0 13.012 0ZM12.602 12.64H10.192V9.10999H6.97198V12.64H4.60199V3.35999H7.01202V7.06995H10.192V3.35999H12.602V12.64Z" fill="#00D2A0"/>
</g>
<defs>
<clipPath id="clip0_1125:12002">
<rect width="16" height="16" fill="white" transform="translate(0.60199)"/>
</clipPath>
</defs>
</svg>
