<svg width="161" height="72" viewBox="0 0 161 72" fill="none" xmlns="http://www.w3.org/2000/svg">
<path fill-rule="evenodd" clip-rule="evenodd" d="M133.214 55H142.588C142.975 53.2317 143.362 51.465 143.748 49.7C146.424 49.7 149.185 49.7175 151.861 49.7175C153.106 49.7135 154.319 49.3291 155.34 48.6156C156.628 47.7535 157.532 46.425 157.865 44.9086C158.453 42.2212 159.044 39.5338 159.637 36.8464C159.975 35.3108 160.412 33.5782 159.316 32.1921C158.307 30.9182 156.968 30.8185 155.499 30.8185C144.915 30.8301 134.331 30.8301 123.747 30.8185C122.681 30.8185 121.784 31.165 120.852 31.6486C120.061 31.0688 119.097 30.776 118.118 30.8185H103.584C103.978 29.0285 104.374 27.2378 104.772 25.4462H95.3836C94.9992 27.1929 94.6124 28.938 94.2231 30.6814H85.9656C84.8304 30.6918 83.7224 31.0311 82.7749 31.6586C81.9735 31.1004 81.017 30.8099 80.0415 30.8284H52.7816C53.1958 29.0136 53.6099 27.1987 54.0241 25.3839L44.6509 25.3689L39.2461 49.6178H48.6094L51.4273 37.2079H54.5956C54.9733 37.2079 54.8988 37.4223 54.8441 37.7065C53.9545 41.6752 53.0665 45.6448 52.1803 49.6153H114.264C115.248 49.6225 116.217 49.3798 117.082 48.9098C117.932 49.4989 118.953 49.7891 119.985 49.7349L134.362 49.6128L133.214 55ZM92.665 37.2203H89.8993C89.4147 37.2203 89.2855 37.4422 89.1886 37.8785C88.844 39.4341 88.4978 40.9905 88.1499 42.5478C88.053 42.9965 88.2766 43.0688 88.6667 43.0688H91.3579C91.7936 41.1193 92.2293 39.1698 92.665 37.2203ZM108.517 37.3325H111.469C112.038 37.3325 112.005 37.6317 111.903 38.0804L110.89 42.6649C110.773 43.1984 110.44 43.1885 109.985 43.1885H106.981C106.538 43.1885 106.536 42.9392 106.613 42.5702C106.944 41.0445 107.281 39.5197 107.624 37.9957C107.749 37.4298 107.97 37.3325 108.517 37.3325ZM127.949 37.3325H130.901C131.47 37.3325 131.438 37.6317 131.336 38.0804L130.322 42.6649C130.203 43.1984 129.872 43.1885 129.417 43.1885H126.413C125.971 43.1885 125.968 42.9392 126.045 42.5702C126.377 41.0445 126.714 39.5197 127.057 37.9957C127.181 37.4298 127.402 37.33 127.949 37.33V37.3325ZM145.279 43.2358H148.042C148.527 43.2358 148.658 43.0139 148.753 42.5777C149.101 41.0221 149.447 39.4657 149.791 37.9084C149.891 37.4597 149.665 37.3874 149.275 37.3874H146.583L145.279 43.2358Z" fill="black"/>
<path fill-rule="evenodd" clip-rule="evenodd" d="M106.354 32.1696H118.13C119.967 32.1696 121.137 33.6653 120.73 35.5201L118.632 45.0207C118.225 46.863 116.396 48.3712 114.552 48.3712H102.778C100.94 48.3712 99.7692 46.8754 100.177 45.0207L102.274 35.5201C102.682 33.6753 104.51 32.1696 106.354 32.1696ZM108.489 35.9813H114.311C115.283 35.9813 115.904 36.7815 115.688 37.7562L114.577 42.7845C114.454 43.2733 114.178 43.7096 113.789 44.0288C113.4 44.348 112.919 44.5332 112.418 44.557H106.595C105.624 44.557 105.005 43.7592 105.219 42.7845L106.329 37.7562C106.452 37.267 106.728 36.8301 107.117 36.5105C107.505 36.1908 107.987 36.0052 108.489 35.9813Z" fill="#1F1917"/>
<path fill-rule="evenodd" clip-rule="evenodd" d="M125.764 32.1696H137.538C139.377 32.1696 140.547 33.6653 140.14 35.5201L138.043 45.0207C137.635 46.863 135.806 48.3712 133.96 48.3712H122.186C120.35 48.3712 119.179 46.8754 119.587 45.0207L121.684 35.5201C122.092 33.6753 123.928 32.1696 125.764 32.1696ZM127.899 35.9813H133.731C134.703 35.9813 135.322 36.7815 135.105 37.7562L133.98 42.7845C133.857 43.2733 133.581 43.7096 133.192 44.0288C132.803 44.348 132.322 44.5332 131.82 44.557H126.005C125.034 44.557 124.413 43.7592 124.629 42.7845L125.74 37.7562C125.861 37.2668 126.137 36.8297 126.526 36.51C126.915 36.1902 127.397 36.0048 127.899 35.9813Z" fill="#1F1917"/>
<path fill-rule="evenodd" clip-rule="evenodd" d="M141.841 32.1696H155.973C157.812 32.1696 158.98 33.6653 158.575 35.5201L156.478 45.0207C156.07 46.863 154.241 48.3712 152.395 48.3712H138.266L141.841 32.1696ZM145.537 35.9813H152.156C153.128 35.9813 153.747 36.7815 153.531 37.7562L152.422 42.7845C152.3 43.2733 152.024 43.7096 151.635 44.0288C151.246 44.348 150.765 44.5332 150.263 44.557H143.638" fill="#1F1917"/>
<path fill-rule="evenodd" clip-rule="evenodd" d="M98.4702 48.244H84.3383C82.4994 48.244 81.3315 46.7483 81.7365 44.891L83.8338 35.3929C84.2413 33.5506 86.0703 32.0399 87.9166 32.0399H102.046L98.4702 48.244ZM94.775 44.4298H88.1551C87.1835 44.4298 86.5648 43.6321 86.781 42.6574L87.8892 37.6291C88.0114 37.1398 88.2874 36.703 88.6763 36.3833C89.0653 36.0636 89.5464 35.8781 90.0487 35.8541H96.6735" fill="#1F1917"/>
<path fill-rule="evenodd" clip-rule="evenodd" d="M50.0757 32.1696H60.8778C62.7141 32.1696 63.8845 33.6653 63.477 35.5201L61.9438 42.4654H57.3939L58.4375 37.7562C58.6512 36.7815 58.0325 35.9813 57.0609 35.9813H50.3664C49.3948 35.9813 50.2645 36.7815 50.0508 37.7562L49.0245 42.4156H44.4746L45.9954 35.5325C46.4029 33.6878 48.2319 32.182 50.0757 32.182" fill="#1F1917"/>
<path fill-rule="evenodd" clip-rule="evenodd" d="M43.1934 48.2439L46.2971 34.2236H50.8346L47.7259 48.2439" fill="#1F1917"/>
<path fill-rule="evenodd" clip-rule="evenodd" d="M80.0343 48.244H64.9283C63.0919 48.244 61.9215 46.7482 62.3291 44.891L62.9379 42.1363L63.0547 41.6053C63.4622 39.763 65.2911 38.2523 67.135 38.2548H77.7034L77.86 37.5493C77.9091 37.3479 77.9122 37.138 77.869 36.9353C77.8258 36.7326 77.7374 36.5424 77.6104 36.3788C77.4835 36.2152 77.3213 36.0826 77.136 35.9909C76.9507 35.8991 76.7471 35.8507 76.5405 35.8491H64.3096L65.147 32.0424H80.3275C82.1291 32.0773 83.2648 33.5705 82.8647 35.3929L82.5839 36.6817L82.236 38.2498L80.4543 46.3145L80.0318 48.234L80.0343 48.244ZM68.2929 44.4298H76.3293L76.8536 42.069H68.9539C68.9151 42.0664 68.876 42.0664 68.8371 42.069C68.5026 42.0846 68.182 42.208 67.9228 42.4209C67.6636 42.6337 67.4797 42.9247 67.3984 43.2506C67.3574 43.3892 67.3495 43.5354 67.3753 43.6776C67.4012 43.8198 67.46 43.9538 67.5471 44.0689C67.6343 44.184 67.7472 44.2769 67.8768 44.34C68.0063 44.4031 68.1489 44.4347 68.2929 44.4323" fill="#1F1917"/>
<path fill-rule="evenodd" clip-rule="evenodd" d="M106.354 32.1696H118.13C119.967 32.1696 121.137 33.6653 120.73 35.5201L118.632 45.0207C118.225 46.863 116.396 48.3712 114.552 48.3712H102.778C100.94 48.3712 99.7692 46.8754 100.177 45.0207L102.274 35.5201C102.682 33.6753 104.51 32.1696 106.354 32.1696ZM108.489 35.9813H114.311C115.283 35.9813 115.904 36.7815 115.688 37.7562L114.577 42.7845C114.454 43.2733 114.178 43.7096 113.789 44.0288C113.4 44.348 112.919 44.5332 112.418 44.557H106.595C105.624 44.557 105.005 43.7592 105.219 42.7845L106.329 37.7562C106.452 37.267 106.728 36.8301 107.117 36.5105C107.505 36.1908 107.987 36.0052 108.489 35.9813Z" fill="#FDFDFD"/>
<path fill-rule="evenodd" clip-rule="evenodd" d="M125.764 32.1696H137.538C139.377 32.1696 140.547 33.6653 140.14 35.5201L138.043 45.0207C137.635 46.863 135.806 48.3712 133.96 48.3712H122.186C120.35 48.3712 119.179 46.8754 119.587 45.0207L121.684 35.5201C122.092 33.6753 123.928 32.1696 125.764 32.1696ZM127.899 35.9813H133.731C134.703 35.9813 135.322 36.7815 135.105 37.7562L133.98 42.7845C133.857 43.2733 133.581 43.7096 133.192 44.0288C132.803 44.348 132.322 44.5332 131.82 44.557H126.005C125.034 44.557 124.413 43.7592 124.629 42.7845L125.74 37.7562C125.861 37.2668 126.137 36.8297 126.526 36.51C126.915 36.1902 127.397 36.0048 127.899 35.9813Z" fill="#FDFDFD"/>
<path fill-rule="evenodd" clip-rule="evenodd" d="M141.846 32.1646L138.896 45.5018L138.268 48.3612L137.072 53.7908H141.597L142.803 48.3612H152.399C154.236 48.3612 156.07 46.8654 156.477 45.0132L158.582 35.5225C158.987 33.6803 157.817 32.1646 155.98 32.1646H141.846ZM145.536 35.9837H152.158C153.132 35.9837 153.749 36.784 153.535 37.7587L152.424 42.7845C152.302 43.2738 152.026 43.7106 151.637 44.0303C151.248 44.3499 150.767 44.5355 150.265 44.5595H143.64L145.536 35.9837Z" fill="#FDFDFD"/>
<path fill-rule="evenodd" clip-rule="evenodd" d="M98.7155 26.6178L97.5128 32.0474H87.9134C86.077 32.0474 84.2432 33.5557 83.8381 35.3979L81.7334 44.9085C81.3258 46.7508 82.4962 48.2565 84.3351 48.2565H98.467L102.048 32.0524L103.243 26.6228L98.7155 26.6178ZM90.0505 35.8591H96.6729L94.7719 44.4274H88.1545C87.1829 44.4274 86.5641 43.6346 86.7803 42.6599L87.8911 37.6266C88.0139 37.1384 88.2903 36.7028 88.6792 36.3844C89.0682 36.066 89.549 35.8819 90.0505 35.8591Z" fill="#FDFDFD"/>
<path fill-rule="evenodd" clip-rule="evenodd" d="M47.962 26.6178L46.1306 34.9068H46.1529L46.0759 35.2359C46.0453 35.3301 46.0196 35.4258 45.9989 35.5226L44.4756 42.4156H44.4905L43.1934 48.2565H47.7209L49.0181 42.4156L50.0444 37.7712C50.0444 37.7712 50.0444 37.7563 50.0444 37.7488L50.4395 36.0037H57.0494C58.021 36.0037 58.6448 36.804 58.4311 37.7787L57.3899 42.4854L56.1176 48.264H60.6526L61.9324 42.4854L63.4631 35.5425C63.8706 33.7002 62.7002 32.1845 60.8613 32.1845H51.2694L52.497 26.6377L47.962 26.6178Z" fill="#FDFDFD"/>
<path fill-rule="evenodd" clip-rule="evenodd" d="M80.0343 48.244H64.9283C63.0919 48.244 61.9215 46.7482 62.3291 44.891L62.9379 42.1363L63.0547 41.6053C63.4622 39.763 65.2911 38.2523 67.135 38.2548H77.7034L77.86 37.5493C77.9091 37.3479 77.9122 37.138 77.869 36.9353C77.8258 36.7326 77.7374 36.5424 77.6104 36.3788C77.4835 36.2152 77.3213 36.0826 77.136 35.9909C76.9507 35.8991 76.7471 35.8507 76.5405 35.8491H64.3096L65.147 32.0424H80.3275C82.1291 32.0773 83.2648 33.5705 82.8647 35.3929L82.5839 36.6817L82.236 38.2498L80.4543 46.3145L80.0318 48.234L80.0343 48.244ZM68.2929 44.4298H76.3293L76.8536 42.069H68.9539C68.9151 42.0664 68.876 42.0664 68.8371 42.069C68.5026 42.0846 68.182 42.208 67.9228 42.4209C67.6636 42.6337 67.4797 42.9247 67.3984 43.2506C67.3574 43.3892 67.3495 43.5354 67.3753 43.6776C67.4012 43.8198 67.46 43.9538 67.5471 44.0689C67.6343 44.184 67.7472 44.2769 67.8768 44.34C68.0063 44.4031 68.1489 44.4347 68.2929 44.4323" fill="#FDFDFD"/>
<path fill-rule="evenodd" clip-rule="evenodd" d="M5.03922 38.2971C4.85284 38.7957 4.66647 39.3118 4.48259 39.8203L3.10096 41.1915C2.60397 41.69 2.48966 41.69 2.60397 42.3955C2.76482 43.3171 3.20879 44.1652 3.87377 44.8212C4.64411 45.5965 6.26181 46.6934 7.42725 46.1748C7.31672 46.5877 7.17381 46.9912 6.99984 47.3814C6.21957 49.0991 8.12304 49.4356 9.45497 49.7971C10.5608 50.0987 13.2768 50.899 13.6794 49.4381C13.8432 48.9095 13.8915 48.3517 13.821 47.8027C14.0144 47.334 14.2648 46.8911 14.5665 46.484C14.9591 45.9006 14.9293 45.6788 14.8448 44.9583C14.8274 44.8187 14.8075 44.6666 14.7852 44.5071C16.0695 44.6993 17.3742 44.711 18.6617 44.542C18.2691 44.7713 17.8765 44.9732 17.3571 45.24C16.1271 45.8757 17.2875 47.7479 17.8168 48.5681C18.9301 50.2907 19.929 51.4748 21.8101 50.4527C22.4413 50.1087 22.491 49.7447 22.8861 49.1539C23.1023 49.0343 24.2255 48.0745 24.894 47.5335C25.1424 47.8401 25.6394 47.895 26.365 47.9473C26.7353 47.9748 28.184 47.9673 28.5692 47.9698C29.7222 47.9698 30.413 47.8551 30.5025 46.5962C30.5422 46.3805 30.5382 46.1589 30.4908 45.9448C30.4434 45.7307 30.3536 45.5283 30.2267 45.3497L30.1745 43.3728C30.1591 42.717 30.0049 42.0721 29.7222 41.4806C29.4588 40.8499 29.3097 40.3139 29.0016 39.7032C29.0438 39.4539 29.0786 39.2046 29.101 38.9553L30.2764 40.0921C31.0218 40.8125 31.6406 41.4034 32.7812 41.3385C33.9665 41.2837 35.3258 40.3414 35.6737 39.1971L36.0191 38.0503C37.8082 38.3894 39.9006 38.2996 41.4586 37.477C43.7473 36.2504 44.8208 33.7849 45.0842 31.1773C45.2979 29.0658 44.8878 25.5183 43.8839 23.5913C43.5882 23.0254 42.2563 22.3099 41.6723 22.9032C41.2325 23.3495 40.9268 24.0325 40.4572 24.4389C40.0859 24.7145 39.6732 24.9291 39.2346 25.0746C38.9329 24.2904 38.4935 23.5668 37.9374 22.9381C37.5366 22.4803 37.0589 22.0964 36.526 21.8038C35.4003 21.0958 34.5256 20.2034 33.4993 19.3558C30.3956 16.788 27.7318 16.8628 23.8652 18.4982C22.0214 19.2785 21.1317 20.3355 19.9986 21.8537C19.3152 21.8886 18.8456 22.0232 18.1225 22.6614C17.5882 23.1351 17.0937 23.6212 16.6116 24.1248C12.9786 24.7156 10.7273 25.4036 8.35911 27.5152C7.44422 28.3256 6.69191 29.3037 6.14253 30.397C5.64554 30.9604 5.12619 31.5388 4.45525 31.798C3.98311 31.98 3.99057 31.98 3.82408 31.5338C4.38816 31.11 4.37822 30.3123 4.4304 29.5893C4.78575 29.6067 4.92739 30.0056 5.15849 30.3123C5.30262 29.6741 5.38462 28.6819 4.71369 28.3329C4.82302 28.0412 4.94727 27.747 5.0591 27.4254C4.06512 27.5974 0.683101 29.8884 2.49214 31.6335C2.57328 32.0287 2.69659 32.414 2.85992 32.7828C3.2749 33.6453 4.20427 33.7799 5.01437 33.4758C4.79321 34.4979 4.74848 35.6073 4.88018 37.1678C4.91384 37.5468 4.96692 37.9237 5.03922 38.2971Z" fill="black"/>
<path d="M5.25987 38.3766L5.03622 38.9899L4.60632 38.8303C4.68336 38.6259 4.75791 38.424 4.83245 38.2196L5.25987 38.3766ZM5.03622 38.9899C4.92688 39.2915 4.81506 39.5957 4.70324 39.8998L4.26589 39.7403C4.37771 39.4386 4.48953 39.1345 4.59887 38.8303L5.03622 38.9899ZM4.70324 39.8998L4.64857 39.9821L4.48953 39.82L4.70324 39.8998ZM4.64857 39.9821L3.91799 40.71L3.59744 40.3834L4.32801 39.658L4.64857 39.9821ZM3.91799 40.71L3.27191 41.3532L2.94886 41.0291L3.59992 40.3834L3.91799 40.71ZM3.27191 41.3532L3.11039 41.5128L2.77492 41.1812L2.93147 41.0291L3.27191 41.3532ZM3.11039 41.5128C2.81716 41.7969 2.76001 41.8518 2.84201 42.3579L2.39224 42.4326C2.26799 41.6848 2.35496 41.605 2.79231 41.1862L3.11039 41.5128ZM2.84201 42.3579C2.91555 42.786 3.05558 43.1998 3.257 43.5844L2.85195 43.7963C2.62751 43.3691 2.47233 42.9088 2.39224 42.4326L2.84201 42.3579ZM3.257 43.5844C3.46361 43.9793 3.72739 44.3414 4.03976 44.6588L3.71671 44.9804C3.36752 44.632 3.07264 44.2328 2.84201 43.7963L3.257 43.5844ZM4.03976 44.6588C4.56905 45.1925 5.19818 45.6161 5.89104 45.9053L5.72952 46.3341C4.97674 46.0228 4.2927 45.5653 3.71671 44.9879L4.03976 44.6588ZM5.89104 45.9053C6.34689 46.1158 6.86649 46.1399 7.33977 45.9726L7.52365 46.3914C6.94164 46.6114 6.2964 46.5908 5.72952 46.3341L5.89104 45.9053ZM7.33977 45.9726L7.78209 45.7757L7.65287 46.2444L7.43171 46.182L7.33977 45.9726ZM7.65287 46.2444C7.59572 46.4513 7.52862 46.6657 7.45159 46.8801L7.01921 46.723C7.09376 46.5211 7.15588 46.3191 7.21055 46.1222L7.65287 46.2444ZM7.45159 46.8801C7.37953 47.0795 7.29752 47.2814 7.20309 47.4834L6.78562 47.2939C6.87011 47.1069 6.94714 46.915 7.01672 46.723L7.45159 46.8801ZM7.20309 47.4834C6.81544 48.3359 7.22049 48.7822 7.84918 49.0714L7.66033 49.4877C6.80053 49.0963 6.24887 48.478 6.78562 47.2939L7.20309 47.4834ZM7.84918 49.0714C8.28365 49.2496 8.73151 49.3929 9.18857 49.5001L9.07426 49.9414C8.59092 49.8309 8.11789 49.6791 7.66033 49.4877L7.84918 49.0714ZM9.18857 49.5001L9.50664 49.5824L9.38985 50.0261L9.07426 49.9414L9.18857 49.5001ZM9.50664 49.5824C10.2669 49.8142 11.0473 49.9728 11.8375 50.0561L11.8102 50.5148C10.9893 50.4268 10.1788 50.2598 9.38985 50.0162L9.50664 49.5824ZM11.8375 50.0561C12.6029 50.1034 13.2862 49.9738 13.4428 49.388L13.8851 49.5026C13.6515 50.3752 12.7768 50.5771 11.8102 50.5148L11.8375 50.0561ZM13.4428 49.388C13.5176 49.1298 13.5684 48.8653 13.5944 48.5977L14.0516 48.6351C14.0233 48.9289 13.9676 49.2193 13.8851 49.5026L13.4428 49.388ZM13.5944 48.5977C13.6129 48.3418 13.607 48.0847 13.577 47.8299L14.0317 47.7875C14.0649 48.0688 14.0716 48.3526 14.0516 48.6351L13.5944 48.5977ZM13.577 47.8299L13.5944 47.7152L13.8056 47.8099L13.577 47.8299ZM13.5944 47.7152C13.7675 47.2895 13.9894 46.8855 14.2554 46.5111L14.6306 46.7604C14.3845 47.1161 14.1787 47.4983 14.0168 47.8997L13.5944 47.7152ZM14.2554 46.5111L14.3548 46.3615L14.7325 46.6108C14.7325 46.6333 14.6704 46.7031 14.6306 46.7604L14.2554 46.5111ZM14.3548 46.3615C14.4946 46.1818 14.5908 45.9718 14.6356 45.7483L15.0878 45.8106C15.0353 46.1044 14.9134 46.3813 14.7325 46.6183L14.3548 46.3615ZM14.6356 45.7483C14.6519 45.4982 14.6377 45.247 14.5933 45.0004L15.0481 44.948C15.0984 45.236 15.1118 45.5292 15.0878 45.8206L14.6356 45.7483ZM14.5933 45.0004C14.5933 44.9056 14.5735 44.8309 14.5685 44.7835L15.0207 44.7262C15.0207 44.8284 15.0431 44.9032 15.0481 44.948L14.5933 45.0004ZM14.5685 44.7835C14.5685 44.7436 14.5511 44.6663 14.5362 44.5566L14.9884 44.4893C14.9884 44.5392 15.0058 44.6165 15.0207 44.7386L14.5685 44.7835ZM14.5362 44.5566L14.4914 44.25L14.7946 44.2974L14.7623 44.5242L14.5362 44.5566ZM14.7847 44.3073C15.419 44.4023 16.0592 44.4523 16.7006 44.4569V44.9156C16.0351 44.9122 15.3707 44.8605 14.7126 44.7611L14.7847 44.3073ZM16.7006 44.4569C17.336 44.4596 17.971 44.4213 18.6016 44.3422L18.6562 44.7984C18.0067 44.8796 17.3526 44.9188 16.6981 44.9156L16.7006 44.4569ZM18.6016 44.3422L18.7432 44.7685L18.6289 44.5691L18.6016 44.3422ZM18.7432 44.7685C18.3729 44.9854 17.9977 45.1749 17.533 45.4167L17.3243 45.0079C17.789 44.7586 18.1543 44.5816 18.5146 44.3697L18.7432 44.7685ZM17.533 45.4167L17.4287 45.4715L17.2199 45.0627L17.3243 45.0079L17.533 45.4167ZM17.4287 45.4715C16.9466 45.7208 16.9317 46.2444 17.1131 46.7928L16.6906 46.9025C16.457 46.1546 16.4869 45.4067 17.2348 45.0353L17.4287 45.4715ZM17.1131 46.7928C17.3279 47.3867 17.6177 47.9505 17.9753 48.4706L17.5927 48.7198C17.2153 48.1555 16.9122 47.5447 16.6906 46.9025L17.1131 46.7928ZM17.9753 48.4706C18.5171 49.3057 19.0265 50.0112 19.6129 50.3702L19.3644 50.7616C18.701 50.3552 18.1543 49.6048 17.5827 48.7198L17.9753 48.4706ZM19.6129 50.3702C20.1646 50.7117 20.8132 50.7416 21.668 50.2779L21.8867 50.6818C20.8604 51.2377 20.0677 51.1804 19.3744 50.7616L19.6129 50.3702ZM21.668 50.2779C21.9967 50.0985 22.2564 49.8143 22.406 49.4702L22.8036 49.6946C22.619 50.1047 22.3045 50.4421 21.909 50.6544L21.668 50.2779ZM22.406 49.4702C22.4781 49.3406 22.5576 49.201 22.6744 49.0265L23.0546 49.2758C22.9602 49.4154 22.8781 49.56 22.8061 49.6896L22.406 49.4702ZM22.6744 49.0265L22.7539 48.9517L22.8657 49.1536L22.6744 49.0265ZM22.7539 48.9517C22.8881 48.8769 23.4596 48.4032 24.0138 47.9545L24.307 48.3085C23.733 48.7847 23.1416 49.2733 22.9751 49.3655L22.7539 48.9517ZM24.0138 47.9545L24.7294 47.3637L25.0177 47.7227C24.7493 47.9396 24.5207 48.124 24.307 48.3085L24.0138 47.9545ZM24.7294 47.3637L24.9034 47.2216L25.05 47.3961L24.8736 47.5432L24.7294 47.3637ZM25.05 47.3961C25.1658 47.5167 25.3176 47.5963 25.4824 47.623L25.3755 48.0692C25.1136 48.0223 24.8748 47.8889 24.6971 47.6903L25.05 47.3961ZM25.4824 47.623C25.7726 47.6796 26.0666 47.7146 26.362 47.7277L26.3297 48.1889C26.0091 48.1734 25.6901 48.1334 25.3755 48.0692L25.4824 47.623ZM26.362 47.7277C26.6428 47.7476 27.5399 47.7476 28.1214 47.7476V48.2063C27.5275 48.2063 26.6105 48.2063 26.3297 48.1889L26.362 47.7277ZM28.1214 47.7476H28.5488V48.2088H28.1214V47.7501V47.7476ZM28.5488 47.7476C29.0905 47.7476 29.5179 47.7277 29.7913 47.5681L30.0174 47.967C29.6447 48.1789 29.1502 48.2163 28.5389 48.2163V47.7551L28.5488 47.7476ZM29.7913 47.5681C30.0398 47.421 30.2063 47.1294 30.2435 46.5884L30.7033 46.6208C30.6511 47.3388 30.415 47.7401 30.0174 47.967L29.7913 47.5681ZM30.2435 46.5884C30.2697 46.394 30.2697 46.1969 30.2435 46.0025L30.6908 45.9028C30.7308 46.1401 30.7367 46.3819 30.7082 46.6208L30.2435 46.5884ZM30.2435 46.0025C30.1861 45.8139 30.1025 45.6343 29.995 45.4691L30.3951 45.2447C30.523 45.4486 30.6201 45.6704 30.6834 45.9028L30.2361 46.0025H30.2435ZM29.995 45.4691L29.9652 45.3643H30.1938L29.995 45.4691ZM29.9652 45.3643C29.9652 45.0328 29.9478 44.7037 29.9404 44.3672H30.3976C30.3976 44.6962 30.415 45.0253 30.4249 45.3643L29.9652 45.3768V45.3643ZM29.9404 44.3672C29.9404 44.0381 29.923 43.7065 29.913 43.37H30.3703C30.3703 43.6991 30.3877 44.0281 30.3976 44.3672H29.9404ZM29.913 43.37C29.9087 43.0624 29.8695 42.7563 29.7962 42.4576L30.2386 42.3454C30.3217 42.6773 30.3659 43.0178 30.3703 43.36L29.913 43.37ZM29.7962 42.4576C29.7123 42.1518 29.606 41.8527 29.4782 41.5626L29.9006 41.3856C30.0382 41.6962 30.1512 42.0171 30.2386 42.3454L29.7962 42.4576ZM29.4782 41.5626C29.3788 41.3133 29.2943 41.0914 29.2098 40.8621L29.6372 40.705C29.7192 40.9219 29.8012 41.1438 29.9006 41.3856L29.4782 41.5626ZM29.6372 40.705L29.4235 40.7848L29.6372 40.705ZM29.2098 40.8646C29.0823 40.5006 28.9338 40.1443 28.765 39.7976L29.175 39.5907C29.3508 39.9527 29.5052 40.3248 29.6372 40.705L29.2098 40.8646ZM28.765 39.7976L28.7451 39.6555L28.9688 39.6954L28.765 39.7976ZM28.7451 39.6555C28.7675 39.5259 28.7849 39.4062 28.7998 39.299L29.252 39.3588C29.2346 39.4985 29.2148 39.6231 29.1949 39.7328L28.7451 39.6555ZM28.7998 39.299C28.7998 39.2018 28.8271 39.0796 28.8395 38.9301L29.2968 38.9675C29.2968 39.0771 29.2719 39.2167 29.252 39.3588L28.7998 39.299ZM28.8395 38.9301L28.8818 38.4514L29.2272 38.783L29.0682 38.95L28.8395 38.9301ZM29.2272 38.783L29.9006 39.4336L29.5825 39.7652L28.9091 39.1145L29.2272 38.783ZM29.9006 39.4336L30.3976 39.9322L30.1093 40.2563L29.6124 39.7577L29.9304 39.4262L29.9006 39.4336ZM30.3976 39.9322C30.7163 40.2687 31.0733 40.5666 31.4612 40.8197L31.2276 41.2161C30.8095 40.9443 30.4242 40.6247 30.0795 40.2638L30.3976 39.9322ZM31.4612 40.8197C31.8434 41.0495 32.2864 41.1565 32.731 41.1263L32.7533 41.585C32.2191 41.6211 31.6867 41.4923 31.2276 41.2161L31.4612 40.8197ZM32.731 41.1263C33.3367 41.0784 33.9157 40.8559 34.3984 40.4857L34.6692 40.8571C34.1138 41.2799 33.4485 41.5326 32.7533 41.585L32.731 41.1263ZM34.3984 40.4857C34.8694 40.1592 35.2252 39.6914 35.4147 39.1494L35.8545 39.2816C35.6343 39.9187 35.2196 40.4699 34.6692 40.8571L34.3984 40.4857ZM35.4147 39.1494C35.4694 38.9724 35.5216 38.7954 35.5762 38.6184L36.0136 38.7506C35.9614 38.9276 35.9067 39.1046 35.8545 39.2816L35.4147 39.1494ZM35.5762 38.6184L35.7626 38.0002L36.2024 38.1323C36.1403 38.3392 36.0757 38.5462 36.0136 38.7506L35.5762 38.6184ZM35.7626 38.0002L35.8222 37.8033L36.0235 37.8431L35.9813 38.0675L35.7626 38.0002ZM36.0235 37.8431C36.9813 38.0268 37.9603 38.0722 38.9309 37.9778L38.9756 38.434C37.9619 38.532 36.9393 38.4842 35.939 38.2919L36.0235 37.8431ZM38.9309 37.9778C39.7609 37.9045 40.5691 37.6717 41.3115 37.2922L41.5277 37.6985C40.7323 38.1088 39.8661 38.3626 38.9756 38.4464L38.9309 37.9778ZM41.3115 37.2922C42.3164 36.7523 43.146 35.9347 43.702 34.9364L44.0996 35.1657C43.502 36.2337 42.6144 37.1094 41.5401 37.6911L41.3115 37.2922ZM43.702 34.9364L43.9008 35.051L43.702 34.9364ZM43.702 34.9364C44.3398 33.7721 44.7258 32.486 44.8351 31.1621L45.2899 31.2044C45.1742 32.5939 44.7687 33.9436 44.0996 35.1657L43.702 34.9364ZM44.8351 31.1621C44.9387 29.8086 44.8786 28.4475 44.6562 27.1085L45.106 27.0362C45.3343 28.4106 45.396 29.8077 45.2899 31.197L44.8351 31.1546V31.1621ZM44.6562 27.1085C44.4989 25.9302 44.1637 24.7828 43.6623 23.7057L44.0698 23.4938C44.5946 24.6143 44.9449 25.8091 45.1085 27.0362L44.6562 27.1085ZM43.6623 23.7057C43.6169 23.6232 43.5591 23.5484 43.4908 23.4838L43.8114 23.1547C43.9104 23.2548 43.9942 23.3691 44.0598 23.4938L43.6523 23.7057H43.6623ZM43.4908 23.4838C43.2649 23.2683 42.9954 23.1041 42.7006 23.0026L42.8497 22.5664C43.2079 22.6926 43.5355 22.893 43.8114 23.1547L43.4908 23.4838ZM42.7006 23.0026C42.5805 22.9491 42.451 22.92 42.3196 22.917C42.1883 22.914 42.0576 22.9372 41.9352 22.9852L41.724 22.5764C41.9022 22.5014 42.0936 22.4628 42.2868 22.4628C42.4801 22.4628 42.6714 22.5014 42.8497 22.5764L42.7006 23.0126V23.0026ZM41.9352 22.9852C41.8918 23.0066 41.8523 23.0352 41.8184 23.07L41.4929 22.7484C41.5609 22.6797 41.6388 22.6217 41.724 22.5764L41.9352 22.9852ZM41.8184 23.07C41.6282 23.2793 41.4561 23.5044 41.304 23.7431L40.9263 23.4938C41.0925 23.2279 41.2821 22.9776 41.4929 22.7459L41.8184 23.07ZM41.2916 23.7455C41.0909 24.0672 40.8504 24.362 40.5759 24.6231L40.2778 24.2741C40.5223 24.0397 40.7361 23.7749 40.9139 23.4863L41.2916 23.7356V23.7455ZM40.5759 24.6231C40.2401 24.8857 39.8631 25.0905 39.4602 25.2288L39.3037 24.8026C39.6611 24.6811 39.9967 24.5026 40.2976 24.2741L40.5958 24.6231H40.5759ZM39.4602 25.2288L39.2912 25.2962L39.1173 24.8724L39.2887 24.8026L39.4602 25.2288ZM39.2912 25.2962L39.0726 25.3884L38.9881 25.164L39.2043 25.0843L39.2912 25.2962ZM38.9881 25.164C38.8476 24.7802 38.6669 24.4125 38.4488 24.0671L38.8365 23.8178C39.0701 24.1907 39.2649 24.5867 39.418 24.9995L38.9881 25.159V25.164ZM38.4488 24.0671C38.2334 23.7259 37.9933 23.401 37.7307 23.0949L38.0811 22.8007C38.3543 23.1226 38.6035 23.4642 38.8265 23.8228L38.4488 24.0671ZM37.7307 23.0949C37.5488 22.8746 37.342 22.6763 37.1144 22.5041L37.3927 22.1401C37.6474 22.3323 37.8784 22.554 38.0811 22.8007L37.7307 23.0949ZM37.1144 22.5041C36.9007 22.3395 36.6572 22.1875 36.3689 22.0055L36.6174 21.6166C36.9057 21.7961 37.1517 21.9531 37.3927 22.1376L37.1144 22.5016V22.5041ZM36.3689 22.0055C35.6077 21.5017 34.8889 20.9365 34.2194 20.3153L34.535 19.9787C35.187 20.5837 35.8868 21.1348 36.6274 21.6265L36.3689 22.0055ZM34.2194 20.3153C33.9312 20.066 33.6429 19.8167 33.3174 19.54L33.6106 19.1835C33.9088 19.4328 34.217 19.702 34.5201 19.9687L34.2194 20.3153ZM33.3398 19.5424C31.8289 18.296 30.4274 17.6852 28.9414 17.5905L28.9688 17.1318C30.5566 17.2315 32.0401 17.8797 33.633 19.186L33.3398 19.5424ZM28.9414 17.5905C27.4505 17.4957 25.8427 17.917 23.9417 18.7198L23.7628 18.296C25.7284 17.4658 27.3933 17.0321 28.9688 17.1318L28.9414 17.5905ZM23.9343 18.7322C23.1466 19.0517 22.4233 19.5121 21.7997 20.0909L21.4891 19.7294C22.1523 19.1161 22.9199 18.6272 23.7553 18.286L23.9343 18.7322ZM21.7997 20.0784C21.1982 20.6672 20.6525 21.3106 20.1696 22.0005L19.7943 21.7238C20.2979 21.0089 20.8651 20.3414 21.4891 19.7294L21.7997 20.0784ZM20.1696 22.0005L20.1049 22.0877H19.9981V21.8584L20.1696 22.0005ZM19.9981 22.0927C19.7077 22.098 19.4203 22.1528 19.1482 22.2548L18.9768 21.8285C19.2944 21.7064 19.6307 21.6406 19.9708 21.634L19.9981 22.0927ZM19.1482 22.2548C18.8209 22.398 18.5207 22.5971 18.2611 22.8431L17.958 22.4991C18.2562 22.218 18.601 21.991 18.9768 21.8285L19.1482 22.2548ZM18.2611 22.8431C18.0002 23.0749 17.7442 23.3118 17.4933 23.5561L17.1677 23.2195C17.4195 22.9769 17.6805 22.7351 17.9505 22.4941L18.2611 22.8431ZM17.4858 23.5561L17.3268 23.3915L17.4858 23.5561ZM17.4858 23.5561C17.2373 23.8054 16.9888 24.0422 16.7577 24.2915L16.4272 23.9674C16.6674 23.7131 16.9159 23.4638 17.1727 23.2195L17.4858 23.5561ZM16.7577 24.2915L16.6285 24.3588L16.5912 24.1344L16.7577 24.2915ZM16.6285 24.3588C14.8369 24.6455 13.3881 24.9646 12.091 25.4632L11.927 25.0344C13.2515 24.5184 14.7325 24.1993 16.5564 23.9076L16.6285 24.3588ZM12.091 25.4632C10.7711 25.977 9.55717 26.7309 8.51018 27.6869L8.20701 27.3429C9.29637 26.3486 10.5603 25.5658 11.9344 25.0344L12.091 25.4632ZM8.51018 27.6869C8.05386 28.0881 7.63773 28.5332 7.2677 29.0156L6.9049 28.7364C7.28979 28.2304 7.72344 27.7636 8.19956 27.3429L8.51018 27.6869ZM7.2677 29.0156C6.91396 29.4853 6.60292 29.9859 6.33833 30.5114L5.9308 30.302C6.2083 29.7552 6.53432 29.2345 6.9049 28.7464L7.2677 29.0156ZM6.33833 30.5114L6.30354 30.5613L6.13457 30.4067L6.33833 30.5114ZM6.30354 30.5613C6.05505 30.8479 5.78419 31.1421 5.50588 31.3939L5.19774 31.0499C5.46717 30.7982 5.72267 30.5318 5.96311 30.2521L6.30354 30.5613ZM5.50836 31.3839C5.22349 31.651 4.89258 31.8639 4.53178 32.0121L4.36777 31.5834C4.67671 31.4561 4.95908 31.2717 5.20023 31.0399L5.50836 31.3839ZM4.53178 32.0121L4.44977 31.7978L4.53178 32.0121ZM4.53178 32.0121C4.23855 32.1268 4.09442 32.1817 3.93042 32.1144L4.10933 31.6906C4.10933 31.6906 4.18885 31.6532 4.35783 31.5834L4.53178 32.0121ZM3.93042 32.1144L4.01988 31.9049L3.93042 32.1168V32.1144ZM3.93042 32.1144C3.75896 32.0421 3.71174 31.9 3.60489 31.6158L4.03976 31.4462C4.0994 31.6083 4.09939 31.6756 4.1143 31.6955L3.93042 32.1144ZM3.60489 31.6158L3.55022 31.4462L3.68689 31.3415L3.82357 31.526L3.60489 31.6158ZM3.68192 31.3515C4.10436 31.0349 4.14412 30.4042 4.17891 29.7959L4.63614 29.8233C4.59141 30.5363 4.54669 31.2742 3.95278 31.7205L3.68192 31.3515ZM4.17891 29.7959C4.17891 29.7161 4.17891 29.6364 4.19382 29.5765L4.65105 29.6089C4.65105 29.6912 4.65105 29.7585 4.63614 29.8233L4.17891 29.7959ZM4.19382 29.5765L4.20873 29.3522H4.43238V29.5815L4.19382 29.5765ZM4.44232 29.3621C4.82003 29.3821 4.99398 29.6488 5.1878 29.9355L4.80264 30.1848C4.68584 30.0003 4.57402 29.8283 4.43238 29.8233L4.45226 29.3621H4.44232ZM5.1878 29.9355C5.23999 30.0178 5.29466 30.1001 5.34932 30.1848L4.97907 30.4491C4.90949 30.3593 4.84985 30.2671 4.79021 30.1773L5.17538 29.928L5.1878 29.9355ZM5.39405 30.3643L5.28969 30.833L4.97907 30.4491L5.15798 30.307L5.39405 30.3643ZM4.94676 30.2646C5.04471 29.8811 5.06331 29.4814 5.00143 29.0904L5.44624 28.9907C5.5258 29.4471 5.50802 29.9153 5.39405 30.3643L4.94676 30.2646ZM5.00143 29.0904C4.98249 28.9761 4.93858 28.8675 4.87285 28.7722C4.80712 28.677 4.72119 28.5975 4.62123 28.5395L4.82997 28.1306C4.99068 28.2181 5.12958 28.3409 5.2363 28.4898C5.34302 28.6388 5.41479 28.81 5.44624 28.9907L5.00143 29.0904ZM4.62123 28.5395L4.42741 28.4547L4.49947 28.2628L4.71318 28.3425L4.62123 28.5395ZM4.5119 28.2553C4.5442 28.1655 4.5939 28.0384 4.64608 27.9088L5.07101 28.0758C5.03125 28.178 4.99149 28.2802 4.94179 28.4148L4.5119 28.2553ZM4.64608 27.9088C4.71318 27.7367 4.78276 27.5597 4.85482 27.3528L5.2872 27.5024C5.22259 27.6894 5.14556 27.8863 5.07101 28.0758L4.64608 27.9088ZM5.01137 27.2082L5.39405 27.1409L5.26484 27.5099L5.04865 27.4351L5.01137 27.2082ZM5.0884 27.662C4.6436 27.7367 3.66701 28.2877 2.9588 29.0256L2.63825 28.704C3.41106 27.8938 4.51438 27.288 5.01137 27.2082L5.0884 27.662ZM2.9588 29.0256C2.71061 29.274 2.50417 29.5611 2.34751 29.8757L1.93252 29.6837C2.11172 29.32 2.35025 28.9889 2.63825 28.704L2.9588 29.0256ZM2.34751 29.8757C2.21383 30.1367 2.16351 30.4326 2.20338 30.7233L1.7536 30.8006C1.69536 30.4187 1.75794 30.0281 1.93252 29.6837L2.34751 29.8757ZM2.20338 30.7233C2.26468 31.0129 2.41713 31.2751 2.63825 31.4712L2.32266 31.8027C2.03089 31.5405 1.83131 31.1908 1.7536 30.8056L2.20338 30.7233ZM2.63825 31.4712L2.70285 31.5809L2.48169 31.6357L2.63825 31.4712ZM2.70285 31.5809C2.76001 31.8302 2.81219 32.0196 2.86935 32.2016L2.43199 32.3387C2.37484 32.1493 2.32017 31.9399 2.25805 31.6906L2.70285 31.5809ZM2.87929 32.1941C2.9299 32.3648 2.99302 32.5314 3.06814 32.6927L2.65316 32.8897C2.57039 32.7136 2.49982 32.532 2.44193 32.3462L2.87929 32.1941ZM3.06814 32.6927C3.13695 32.8457 3.2368 32.9825 3.36131 33.0945C3.48582 33.2066 3.63226 33.2913 3.79126 33.3434L3.6521 33.7796C3.43365 33.7092 3.23233 33.5936 3.06113 33.4403C2.88993 33.287 2.75265 33.0994 2.65813 32.8897L3.06814 32.6927ZM3.79126 33.3434C4.16872 33.4488 4.57062 33.4234 4.93185 33.2711L5.09834 33.6899C4.63925 33.8803 4.12924 33.9085 3.6521 33.7697L3.79126 33.3434ZM4.93185 33.2711L5.32944 33.1165L5.2375 33.5328L5.01386 33.4855L4.93185 33.2711ZM5.2375 33.5204C5.12461 34.0485 5.05973 34.5859 5.04367 35.1258L4.58396 35.1084C4.60391 34.5475 4.67292 33.9894 4.79021 33.4406L5.2375 33.5204ZM5.04367 35.1258C5.02423 35.8005 5.04664 36.4757 5.11077 37.1476L4.65105 37.18C4.58663 36.4898 4.56423 35.7963 4.58396 35.1034L5.04367 35.1258ZM5.11077 37.1476C5.12568 37.3446 5.14804 37.5265 5.17041 37.6911L4.71815 37.7534C4.68833 37.5456 4.66596 37.3562 4.65105 37.185L5.11077 37.1476ZM5.17041 37.6911C5.19526 37.8755 5.22756 38.0625 5.26235 38.252L4.81506 38.3392C4.77779 38.1448 4.74548 37.9503 4.71815 37.7534L5.17041 37.6911ZM5.25987 38.2545V38.3766L5.04616 38.2969" fill="black"/>
<path fill-rule="evenodd" clip-rule="evenodd" d="M16.7186 24.4988L13.7093 24.9899L10.9535 26.2115L8.61768 27.6848L6.39366 30.3971L5.13876 31.7309L3.92362 32.1796L3.60306 31.3918L4.16466 30.5791L4.29139 29.4324L4.66662 29.4473L5.07663 29.8238L4.9673 28.6546L4.51503 28.3479V27.9042L3.44651 28.515L2.46744 29.6717L2.26367 30.6988L2.68363 31.5264L3.07377 32.9424L3.86646 33.3189L4.69892 33.279L5.48913 32.8178L4.96233 35.5002L5.48913 38.4917L4.91014 39.8703L3.00667 41.917L3.34462 43.146L4.24666 44.567L5.94636 45.7686L6.84592 45.8908L7.8399 45.9257L7.22363 48.5009L9.52221 49.4457L12.3849 49.8246L13.3639 49.1815L13.441 47.4364L14.5319 45.6215L14.6089 44.1856L17.2454 44.3751L19.6956 44.1482L17.2454 45.6215L17.6604 47.4015L19.2036 49.8197L20.7119 50.4628L21.9171 49.9642L22.4141 48.9671L24.9388 47.04L25.4358 47.4563L29.3919 47.6084L30.1845 46.9652L30.2591 45.8309L29.9957 45.3324L29.8068 42.271L28.4873 39.6235L28.7135 38.4518L29.5062 38.8682L31.7277 40.9473L32.8211 41.0221L34.0263 40.5235L35.2315 39.616L35.8254 37.6915L39.3664 37.9183L41.5134 37.0857L43.2529 35.4603L44.4954 33.1169L44.7985 30.3572L44.5227 27.1463L43.8468 24.272L43.1684 23.3645L42.2266 23.0629L40.5667 24.8778L39.0558 25.4063L37.7413 23.2199L36.4243 22.0109L35.7061 21.5572L32.8434 19.1689L30.5449 17.9224L28.2463 17.7355L25.5725 18.1892L23.2366 19.0592L21.6164 20.383L20.3342 21.9311L19.0172 22.31L16.7186 24.5013V24.4988Z" fill="#FDFDFD" stroke="#1F1917" stroke-width="0.27" stroke-miterlimit="12.5"/>
<path fill-rule="evenodd" clip-rule="evenodd" d="M7.97541 31.3219C5.39355 34.3434 5.96509 38.0055 6.68075 41.5953C6.29973 40.6281 5.91787 39.6608 5.53519 38.6935C5.39603 37.8061 5.25605 36.9186 5.11523 36.0311L5.23451 33.3088L6.32043 30.6987L7.94808 28.2805L10.4778 26.169L13.2534 25.0197L16.5087 24.5959L13.497 28.0462C11.0741 28.834 9.64778 29.3625 7.97541 31.3219Z" fill="#F7F7F7"/>
<path fill-rule="evenodd" clip-rule="evenodd" d="M20.1298 22.1154C18.5547 23.6047 17.2312 25.3408 16.211 27.2558C15.396 28.7267 14.4715 30.1452 13.6192 31.5961C13.1843 32.329 13.1446 32.9447 13.0129 33.7923L11.748 32.2791L12.3519 30.4643L14.402 26.7747L18.7432 22.4719L20.1298 22.1079" fill="#F7F7F7"/>
<path fill-rule="evenodd" clip-rule="evenodd" d="M28.994 17.7603C27.5577 18.3012 25.1697 18.4807 25.0032 20.136C24.8864 21.3102 25.0926 21.901 25.7984 23.145C24.0589 21.3351 23.6215 21.6143 20.252 22.1777L21.6982 20.1211L24.2304 18.548L27.4881 17.8226L28.994 17.7603Z" fill="#F7F7F7"/>
<path fill-rule="evenodd" clip-rule="evenodd" d="M32.9623 40.152C33.4394 40.4486 33.4295 40.6506 33.35 40.8674L34.4831 40.4212L35.2286 39.424L35.7728 38.0155L35.077 37.4895L32.023 37.8784C31.9485 38.0853 31.8714 38.2897 31.7969 38.4967C31.8168 38.7883 31.8391 39.08 31.8615 39.3717L32.1522 39.8927L32.6045 40.1196L32.9623 40.152Z" fill="#C4C4C4"/>
<path fill-rule="evenodd" clip-rule="evenodd" d="M32.6799 34.9366C31.1541 35.3779 31.1666 35.5 30.7168 37.0158C31.1951 36.1745 31.8685 35.4613 32.6799 34.9366Z" fill="#C4C4C4"/>
<path fill-rule="evenodd" clip-rule="evenodd" d="M42.8147 23.5763C42.5438 23.7034 42.2804 23.7633 42.1114 24.0126C41.7925 24.5572 41.355 25.0225 40.8317 25.3737C40.5364 25.5509 40.2199 25.69 39.8899 25.7875C39.624 25.8698 39.4625 25.7875 39.2363 25.9595L39.6414 26.0294H40.5459L41.6467 25.3488L42.2854 24.6657C42.4643 24.3051 42.6424 23.9419 42.8196 23.5763" fill="#C4C4C4"/>
<path fill-rule="evenodd" clip-rule="evenodd" d="M18.5288 26.9719C17.9324 28.6197 17.4031 30.0307 16.4961 31.5215C17.5423 30.4245 18.3997 29.1609 19.0332 27.7821C19.2817 27.2286 19.3414 26.5805 20.062 26.8223C20.0943 27.3732 20.2111 27.9267 20.2434 28.4776C20.6335 25.673 21.7344 24.5014 24.2889 23.4144L22.1195 23.6637L20.0819 24.1174L19.0879 25.5783C18.904 26.0445 18.7201 26.5082 18.5387 26.9744" fill="#C4C4C4"/>
<path fill-rule="evenodd" clip-rule="evenodd" d="M23.4801 26.907C24.0317 29.5096 24.8244 32.0075 25.1698 34.6501C25.3935 36.3677 25.4183 37.1929 24.5561 38.6762C23.729 38.61 22.8975 38.7275 22.1208 39.0202C18.4953 40.2118 16.4054 41.9644 13.9727 38.4344L16.311 39.5387L17.9784 39.2097L20.9156 37.4895L23.2142 37.0358C23.4627 35.9954 23.7112 34.9567 23.9597 33.9196C23.7791 32.5435 23.596 31.1691 23.4105 29.7963C23.3881 29.1481 23.3682 28.4975 23.3459 27.8493C23.3881 27.5352 23.4329 27.2211 23.4751 26.907" fill="#C4C4C4"/>
<path fill-rule="evenodd" clip-rule="evenodd" d="M29.7246 43.0088C29.4214 45.1228 30.4279 46.2497 30.0104 46.843C29.8936 47.0075 29.7321 47.2967 29.5531 47.3765C28.917 47.6582 28.0398 47.3241 27.9777 47.4886H25.8854L25.043 47.1322L26.3376 45.6065L27.6 42.8468L28.4076 40.0547H28.83C29.1299 41.0402 29.4314 42.0249 29.7346 43.0088" fill="#C4C4C4"/>
<path fill-rule="evenodd" clip-rule="evenodd" d="M26.19 36.8613C26.359 37.8236 26.6572 38.0505 27.107 38.9803C26.807 40.5735 26.3517 42.1333 25.7477 43.6371C25.5532 44.1315 25.2558 44.5785 24.8755 44.9484C24.1589 45.6701 23.3951 46.343 22.5894 46.9627C21.9955 47.4239 21.5805 47.1921 20.8499 47.0874C20.5393 47.6558 20.4523 47.9699 19.8808 48.2566C18.9986 48.7003 18.2084 47.7455 17.5176 47.1871L19.0085 49.533L20.0448 50.5077L20.9145 50.6423L22.0799 49.9293L22.6962 48.7601L23.9884 47.7854L25.5763 46.4218L26.5702 44.9933C26.8734 44.4324 27.1741 43.869 27.4773 43.3056C27.8649 42.1422 28.2534 40.9739 28.6427 39.8005L28.7396 38.4693L27.2834 37.8186C26.9256 37.4846 26.5379 37.2029 26.1751 36.8663" fill="#C4C4C4"/>
<path fill-rule="evenodd" clip-rule="evenodd" d="M14.5799 43.6246C16.2125 43.6246 17.9371 43.5349 19.433 42.8468C19.839 42.2375 20.2935 41.6623 20.7923 41.1267C20.3736 41.8634 20.1193 42.6825 20.0468 43.5274L19.5498 44.2429L15.8621 44.3401L14.6644 44.2105C14.6221 44.1656 14.5774 44.1232 14.5352 44.0808C14.5352 43.9288 14.5575 43.7767 14.5675 43.6246" fill="#C4C4C4"/>
<path fill-rule="evenodd" clip-rule="evenodd" d="M14.3551 42.4903L14.2283 41.3361C13.95 43.0213 14.0171 44.1506 13.2344 45.6613C12.6699 46.3562 11.9495 46.9072 11.1321 47.2693C11.2006 47.5894 11.2174 47.9185 11.1818 48.244C11.0377 49.3359 8.86333 48.8548 7.96875 48.8099L12.2752 49.9242L13.2468 49.5329C13.3561 48.9063 13.4638 48.2789 13.5698 47.6507L14.4768 45.963C14.5315 45.6164 14.5837 45.2699 14.6384 44.9234L14.3551 42.4903Z" fill="#C4C4C4"/>
<path fill-rule="evenodd" clip-rule="evenodd" d="M11.9262 32.9773C11.8815 33.7975 11.8293 34.139 12.1896 34.862C12.6469 35.7819 13.2085 36.6469 13.7055 37.5543L13.8695 35.737L11.9262 32.9773Z" fill="#C4C4C4"/>
<path fill-rule="evenodd" clip-rule="evenodd" d="M5.28487 39.1747L4.86492 40.0721C5.17386 41.2324 5.66724 42.3352 6.32607 43.3379C6.23979 43.7211 6.06246 44.0778 5.8092 44.3775C5.18913 44.284 4.5625 44.2415 3.93555 44.2503L6.10242 45.938L7.17095 45.7436L8.24196 44.6592L6.72117 42.2884C6.24406 41.2496 5.7653 40.2117 5.28487 39.1747Z" fill="#C4C4C4"/>
<path fill-rule="evenodd" clip-rule="evenodd" d="M42.82 23.1451C43.2598 25.1395 43.8289 26.9668 43.7767 29.0011C43.7121 31.494 43.2275 34.6501 40.9215 36.1558C38.3396 37.841 35.308 37.0433 32.4727 36.3203L35.9367 37.7488L39.1671 37.9133L41.3663 37.2627L43.0834 35.8342C43.5125 34.9251 43.9432 34.016 44.3756 33.1069C44.5412 32.0582 44.7069 31.0087 44.8726 29.9584C44.7433 28.9313 44.6133 27.9033 44.4824 26.8746C44.2439 25.8575 44.0086 24.8403 43.7767 23.8232L42.8274 23.1451" fill="#C4C4C4"/>
<path fill-rule="evenodd" clip-rule="evenodd" d="M4.29004 29.0684C3.11963 29.8337 2.65743 30.1677 2.78665 31.5862L3.13703 32.8601L3.63402 33.1992L4.2478 33.4036L5.35609 33.1393C5.54743 32.5485 5.73628 31.9577 5.92762 31.3668L4.34968 32.1446H3.98439L3.57438 31.5139L4.07137 30.781C4.16083 30.3173 4.24863 29.8536 4.33477 29.3899L4.67024 29.4922L5.08026 29.8137L5.01068 29.0808L4.73485 28.6121L4.45653 28.3778C4.3969 28.6072 4.33974 28.8365 4.2801 29.0684" fill="#C4C4C4"/>
<path fill-rule="evenodd" clip-rule="evenodd" d="M30.5898 17.89C31.6286 18.8598 32.9058 19.7024 33.7383 20.8815C34.0588 21.3402 34.4167 21.5746 33.7383 22.2227C34.2432 22.0495 34.7842 22.01 35.3088 22.1081C36.3649 22.2352 37.3514 23.7385 37.416 24.8154C37.416 24.9176 37.1228 25.1445 36.3077 25.3713C36.2903 25.4037 35.848 25.3115 35.8579 25.3414C35.9424 25.5733 36.0567 25.6082 36.2282 25.7179C36.2472 26.0447 36.3317 26.3644 36.4767 26.6577C36.9858 26.6518 37.494 26.7011 37.9925 26.8048C38.1242 27.0646 38.1695 27.3599 38.1217 27.6474L38.7057 27.5502L38.5417 26.2214L39.0561 25.3489L38.3106 23.6612L36.8867 22.2975H36.75L35.1497 21.3128L32.538 19.1689L30.5998 17.8975" fill="#C4C4C4"/>
<path fill-rule="evenodd" clip-rule="evenodd" d="M32.3467 25.8899C32.2783 26.0182 32.1949 26.1379 32.0982 26.2464C32.4952 26.5698 32.7762 27.0145 32.8983 27.5128L31.4297 28.2457L30.1872 29.4423C29.643 29.1482 29.5064 28.9213 29.243 28.3579C28.9721 28.466 28.675 28.4895 28.3906 28.4252C28.5419 28.4274 28.6896 28.3792 28.8106 28.2881C29.074 28.0114 29.3399 27.7372 29.6033 27.4629L30.9998 26.4009L31.9143 26.1018C32.0311 26.0544 32.2274 25.9373 32.3442 25.8899" fill="#C4C4C4"/>
<path fill-rule="evenodd" clip-rule="evenodd" d="M33.6929 27.3557C32.1349 28.1983 30.6414 29.0434 29.8438 30.6414C29.8438 28.6122 31.8764 27.7197 33.6929 27.3557Z" fill="#C4C4C4"/>
<path fill-rule="evenodd" clip-rule="evenodd" d="M29.5348 23.3644C28.9211 23.8144 28.4285 24.4105 28.1014 25.0989C27.7744 25.7874 27.6231 26.5466 27.6612 27.3083C27.2859 25.9621 27.4127 24.6882 28.5756 23.7558L29.1621 23.4691L29.5348 23.3619" fill="#C4C4C4"/>
<path fill-rule="evenodd" clip-rule="evenodd" d="M31.747 35.3805C31.9955 35.2508 32.4204 35.0713 32.659 34.9392C32.4105 34.9816 31.9731 35.0713 31.7271 35.1137C31.0686 35.2259 30.9816 35.383 30.8897 36.0336C30.8425 36.3378 30.7754 36.7167 30.7282 37.0308C30.8574 36.6843 31.0115 36.2829 31.1606 35.9538C31.3097 35.6248 31.4091 35.5724 31.747 35.3879V35.3805ZM19.5534 18.6778C19.9417 18.0291 20.4982 17.4984 21.1636 17.1421C20.0827 17.4039 19.8789 17.6033 19.5534 18.6653V18.6778ZM19.3844 20.3879C20.2889 18.5656 20.9723 17.895 22.8633 17C20.7238 17.5135 20.0951 17.8875 19.3844 20.3754V20.3879ZM0.0415493 29.8611C0.171409 29.1236 0.496716 28.4347 0.983345 27.8667C0.0663988 28.495 -0.0503937 28.7567 0.0415493 29.8611ZM26.3323 44.8188C25.8179 45.6514 25.2588 46.4491 25.0202 46.5887C24.6922 46.7782 22.6372 48.5133 22.2495 48.7426C21.9613 49.1266 21.7103 49.6551 21.2754 49.8844C19.9584 50.5849 19.111 49.2462 18.4003 48.1144C18.0773 47.5984 17.1802 46.1201 17.963 45.6988C18.619 45.3418 19.256 44.9507 19.8714 44.5271C19.9808 44.729 20.1721 44.9259 20.2964 45.1279L20.2144 44.4648C20.1676 44.0892 20.1617 43.7097 20.197 43.333C20.2293 42.9416 20.2591 42.5502 20.2889 42.1613C20.1771 42.5577 19.9485 42.954 19.8366 43.3529C19.7935 43.4861 19.7587 43.6218 19.7323 43.7593C18.0622 44.1059 16.3413 44.1279 14.663 43.8241C14.5561 43.1958 14.4145 42.5402 14.3126 42.079C14.2803 42.605 14.3126 44.0734 14.3002 44.8761C14.3002 45.5068 14.2704 45.7237 13.9448 46.2597C13.6285 46.7296 13.3421 47.2192 13.0875 47.7255C13.1431 48.1941 13.1076 48.669 12.9832 49.1241C12.7471 49.9692 10.3665 49.316 9.73782 49.1415C8.965 48.9296 7.36469 48.6155 7.76725 47.5809C8.142 46.5664 8.39233 45.51 8.51274 44.4348C7.09632 42.3881 5.7793 39.5811 5.5308 37.0956C5.33449 35.1636 5.45128 33.9745 5.86875 32.7953C6.52727 30.9231 7.45166 29.3052 8.93269 27.9989C10.9207 26.2388 12.7993 25.5333 15.7241 25.0871C15.0134 25.8749 14.3176 26.71 13.5597 27.605C12.8702 28.4651 12.2947 29.4111 11.8475 30.4195C11.1741 31.7881 11.189 32.3092 12.0811 33.5133C12.8515 34.5478 13.2664 35.009 13.6019 36.0286C13.334 36.6088 13.174 37.2331 13.1298 37.8709C14.0716 38.903 14.7723 39.616 15.6868 39.8304C16.5044 40.0651 17.3806 39.9758 18.1345 39.5811C19.9211 38.6761 21.5687 37.4945 23.579 37.4471C24.5084 35.1511 24.4139 33.234 23.9691 31.0153C23.6899 29.5338 23.5156 28.0343 23.4473 26.528C23.0629 28.0237 23.0053 29.585 23.2783 31.1051C23.6163 33.0147 23.8772 35.1262 22.9403 36.8064C21.1214 36.946 19.5633 38.0529 17.9232 38.908C17.2817 39.2355 16.5378 39.2981 15.8508 39.0825C15.1724 38.8955 14.7152 38.4468 13.9871 37.6017C13.9747 36.7566 14.166 36.3552 14.5536 35.6073C15.1774 34.3758 15.8657 33.2291 16.6186 32.0175C15.6967 33.1169 14.8195 34.0517 14.0914 35.186C13.8156 34.3908 13.418 33.9869 12.7595 33.0919C12.101 32.197 12.0488 31.8455 12.5284 30.8259C13.008 29.8062 13.423 28.9163 14.2455 28.0263C15.6669 26.4856 16.979 24.7705 18.5246 23.2523C19.3695 22.4296 19.7124 22.4571 20.8306 22.2875C21.8445 22.133 22.8335 21.9385 23.8647 21.6992C22.8708 21.7914 21.9016 21.8263 20.93 21.8513H20.9002C21.8544 20.6272 22.4111 19.9442 23.9641 19.2661C27.786 17.6008 30.2163 17.4213 33.2206 19.9541C33.9984 20.6098 34.6792 21.248 35.457 21.8139C35.1623 21.8364 34.873 21.9054 34.5997 22.0183C35.0233 21.969 35.4522 21.9943 35.8671 22.0931C35.9814 22.1679 36.1006 22.2427 36.2224 22.315C36.779 22.644 37.0971 22.826 37.4649 23.352C37.8574 23.8948 38.2001 24.4722 38.4887 25.0771C38.2973 25.0098 38.1358 24.95 37.9917 24.9076C37.8839 24.8586 37.769 24.8274 37.6512 24.8154C37.4193 24.7938 37.1865 24.848 36.9878 24.9699L36.9629 24.9824C36.6117 25.1517 36.2412 25.2773 35.8596 25.3563C36.0867 25.4175 36.3258 25.4175 36.5529 25.3563C36.5752 25.3463 36.5985 25.3387 36.6225 25.3339C36.5437 25.469 36.4945 25.6195 36.4783 25.7752C36.4598 25.9798 36.4994 26.1855 36.5927 26.3685C36.6183 26.4341 36.6563 26.4942 36.7045 26.5455C36.5579 26.5978 36.4088 26.6602 36.2572 26.7275C36.9352 26.6151 37.6259 26.6033 38.3073 26.6926C38.352 26.9119 38.3992 27.1438 38.4415 27.3831L38.193 27.4031H38.1731C37.8426 27.1538 37.4773 27.1837 36.9753 27.2983C35.4521 27.6474 35.8099 28.5049 35.1091 29.7913C35.8372 28.8988 35.7826 27.9665 36.9704 27.6848C37.179 27.6078 37.3992 27.5673 37.6214 27.5651C37.2841 27.7209 37.0179 27.9987 36.8759 28.3429C36.5504 29.2653 36.7517 30.0431 36.3939 30.9031C36.8362 30.1328 36.8635 29.3824 37.2586 28.5722C37.4027 28.2806 37.9296 27.8244 38.2526 27.8094H38.521C38.6027 28.2859 38.6343 28.7697 38.6154 29.2528C38.5492 30.0446 38.4247 30.8304 38.2427 31.6037C38.6427 31.0876 38.8266 29.9907 39.0006 29.2204C39.1656 28.3508 39.158 27.457 38.9782 26.5904C38.757 25.4062 39.9722 25.5932 40.6779 25.0397C41.1973 24.6309 41.5551 23.9753 42.0297 23.5116C42.5043 23.0479 43.2449 23.7285 43.4287 24.1772C44.2339 26.1292 44.5992 29.2005 44.3879 31.1699C44.1394 33.3786 43.0858 35.7893 41.1575 36.8762C38.6726 38.2623 35.7627 37.4147 33.3051 36.5846C32.8253 36.4009 32.371 36.1563 31.9533 35.8566C32.1064 36.4275 32.1116 37.0282 31.9682 37.6017C31.7023 38.5016 31.2749 39.9725 32.4925 40.2442C32.9547 40.3464 33.1659 40.3315 33.8195 39.9949C33.4401 40.0959 33.0423 40.1044 32.659 40.0198C32.5209 39.9978 32.3917 39.9373 32.2862 39.8452C32.1808 39.7531 32.1033 39.633 32.0626 39.4988C32.2571 39.6032 32.4681 39.6732 32.6863 39.7057C33.5884 39.9251 34.4481 39.4888 34.6171 38.8606C34.6787 38.4989 34.7753 38.1441 34.9054 37.8011C35.0917 37.8609 35.2856 37.9133 35.4844 37.9607L35.1489 39.0576C34.8582 40.0074 33.7275 40.7727 32.731 40.7528C31.8091 40.7378 31.2252 40.1569 30.589 39.591L29.3093 38.4543C28.179 38.1194 27.1178 37.5841 26.1758 36.8737C26.9212 37.7687 27.448 38.2623 28.5066 38.7061C28.3526 40.2816 27.8059 41.4283 27.3412 42.9441C27.059 43.6077 26.7189 44.2451 26.3248 44.8487L26.3323 44.8188ZM24.8736 47.556C24.2052 48.097 23.082 49.0518 22.8658 49.1764C22.4707 49.7672 22.421 50.1312 21.7898 50.4752C19.9087 51.4973 18.9098 50.3132 17.7965 48.5906C17.2672 47.7704 16.1067 45.8982 17.3368 45.2625C17.8561 44.9958 18.2488 44.7938 18.6414 44.5645C17.3539 44.7335 16.0492 44.7218 14.7649 44.5296C14.7872 44.6891 14.8071 44.8412 14.8245 44.9783C14.909 45.7013 14.9388 45.9231 14.5462 46.5065C14.2445 46.9136 13.9941 47.3565 13.8007 47.8252C13.8712 48.3742 13.8229 48.932 13.6591 49.4606C13.2664 50.919 10.5504 50.1212 9.43465 49.8196C8.10272 49.4581 6.20422 49.1216 6.97952 47.4039C7.15604 47.0139 7.30145 46.6104 7.41439 46.1973C6.24895 46.7159 4.63125 45.619 3.86092 44.8437C3.19594 44.1877 2.75197 43.3396 2.59111 42.418C2.47183 41.7101 2.59111 41.715 3.0881 41.214L4.46973 39.8428C4.65361 39.3442 4.83998 38.8282 5.02636 38.3221C4.95804 37.9443 4.9091 37.5632 4.87974 37.1804C4.74804 35.6198 4.79277 34.5104 5.01393 33.4883C4.20384 33.8049 3.27447 33.6578 2.85948 32.7953C2.69648 32.4273 2.57319 32.0428 2.49171 31.6485C0.682666 29.9035 4.06965 27.61 5.05866 27.438C4.94684 27.7595 4.81017 28.0537 4.71325 28.3454C5.38419 28.6944 5.30219 29.6866 5.15806 30.3248C4.90956 30.0181 4.78532 29.6193 4.42997 29.6018C4.37778 30.3248 4.38772 31.1225 3.82364 31.5463C3.99013 31.9926 3.98268 31.9926 4.45482 31.8106C5.12824 31.5613 5.63268 30.9729 6.1421 30.4095C6.69147 29.3162 7.44379 28.3381 8.35867 27.5277C10.7268 25.4037 12.9757 24.7157 16.5913 24.1348C17.0709 23.6362 17.5679 23.1376 18.1022 22.6714C18.8253 22.0308 19.2949 21.8986 19.9783 21.8637C21.1089 20.3455 22.001 19.2885 23.8449 18.5082C27.7114 16.8754 30.3753 16.7981 33.479 19.3658C34.5053 20.2134 35.38 21.1109 36.5057 21.8139C37.0386 22.1064 37.5163 22.4903 37.9171 22.9482C38.4732 23.5769 38.9125 24.3005 39.2143 25.0846C39.6529 24.9392 40.0656 24.7246 40.4369 24.4489C40.9115 24.0426 41.2122 23.3595 41.652 22.9133C42.236 22.3199 43.5679 23.0354 43.8636 23.6013C44.8576 25.5284 45.2775 29.0858 45.0638 31.1873C44.8004 33.795 43.7269 36.2605 41.4383 37.487C39.8802 38.3221 37.7879 38.3994 35.9988 38.0604L35.6533 39.2071C35.3055 40.3539 33.9462 41.2937 32.7609 41.3486C31.6203 41.4034 31.004 40.8126 30.256 40.1021L29.0807 38.9653C29.0583 39.2146 29.0235 39.4639 28.9813 39.7132C29.2894 40.324 29.4385 40.86 29.7019 41.4907C29.9846 42.0821 30.1388 42.7271 30.1542 43.3828L30.2063 45.3597C30.3333 45.5383 30.4231 45.7407 30.4705 45.9548C30.5179 46.169 30.5219 46.3905 30.4822 46.6062C30.3927 47.8527 29.7019 47.9848 28.5489 47.9798C28.1637 47.9798 26.715 47.9798 26.3447 47.9574C25.6117 47.9 25.1395 47.8377 24.8736 47.5336V47.556ZM28.7601 40.6705C28.529 41.5031 28.2159 42.2859 27.9326 43.1859C27.6617 44.036 26.2826 46.5065 25.47 47.1073C25.6266 47.2244 25.9173 47.2718 26.4342 47.3167C26.802 47.3466 28.2432 47.3541 28.606 47.3591C29.4037 47.374 29.7069 47.3142 29.7864 46.4018C29.8165 46.2418 29.8128 46.0773 29.7755 45.9188C29.7383 45.7604 29.6683 45.6115 29.5702 45.4819L29.5105 43.3903C29.4975 42.8147 29.3592 42.2489 29.1055 41.7325C28.9724 41.3846 28.8571 41.0302 28.7601 40.6705ZM4.46227 29.2478C4.54592 29.244 4.62919 29.2614 4.70434 29.2984C4.7795 29.3354 4.84411 29.3909 4.89217 29.4597C4.86483 29.1282 4.8052 28.8814 4.57161 28.7467C4.5567 28.8016 4.53931 28.8539 4.52688 28.9088C4.49703 29.02 4.47544 29.1334 4.46227 29.2478ZM5.58795 31.6435C5.45874 31.9801 5.33946 32.3241 5.22764 32.6806C5.20776 32.7379 5.19036 32.7978 5.17297 32.8576C4.49209 33.1468 3.59503 33.3313 3.2521 32.6083C3.09157 32.2433 2.96431 31.8645 2.87191 31.4765C1.74871 30.3123 3.42605 28.7717 4.34051 28.2207C4.22399 28.4567 4.12675 28.7019 4.04977 28.9537C3.77146 29.9159 4.17402 30.776 3.30429 31.474C3.7143 32.3017 3.69442 32.6332 4.64616 32.2493C4.99431 32.1067 5.3135 31.9014 5.58795 31.6435ZM5.32455 39.4888C5.86342 41.2745 6.66226 42.9706 7.69519 44.5221V44.547C7.65074 44.797 7.55605 45.0354 7.41688 45.2475C6.71861 46.1824 4.94684 44.8113 4.43494 44.2853C3.9064 43.7763 3.54863 43.1151 3.41114 42.3931C3.34653 41.9269 3.41114 41.917 3.7317 41.5879L5.04127 40.2567C5.13321 40.0024 5.23012 39.7456 5.32455 39.4888ZM38.3098 25.112C38.4152 25.2113 38.4997 25.3309 38.5582 25.4635C38.588 25.4349 38.6195 25.4083 38.6527 25.3838C38.6129 25.2915 38.5707 25.1993 38.5284 25.1095L38.3098 25.112ZM29.7839 28.3329C29.6953 28.1485 29.6487 27.9468 29.6472 27.7421C29.323 28.0164 28.9605 28.2414 28.5712 28.4102C29.0931 27.944 29.8013 26.8446 30.3107 26.4956C30.8922 26.1017 31.6824 26.179 32.3608 25.8624C32.1069 26.0764 31.8283 26.2589 31.5308 26.4059C31.7751 26.4966 31.9896 26.6534 32.1506 26.8589C32.3115 27.0643 32.4127 27.3105 32.4428 27.5701C32.8551 27.4299 33.2872 27.3575 33.7225 27.3557C32.2536 27.7916 30.9407 28.6423 29.9404 29.8062C30.05 29.5076 30.2032 29.227 30.3952 28.9736C30.1265 28.8328 29.911 28.6078 29.7814 28.3329H29.7839ZM23.5119 23.4268C22.8092 23.7045 22.0896 23.9368 21.3574 24.1223C20.694 24.9974 20.2889 25.4511 20.1348 26.6153C19.9559 25.461 19.9187 25.2467 20.4306 24.3841C20.2512 24.4794 20.0842 24.5966 19.9336 24.7331C19.2179 25.3464 18.286 27.7595 17.9133 28.6221C18.1618 27.585 18.8899 24.9899 19.6528 24.232C20.1497 23.7334 20.269 23.7334 20.9748 23.6786C21.8163 23.5988 22.6579 23.5116 23.4995 23.4168L23.5119 23.4268ZM39.0975 25.9447C39.7038 26.002 40.0492 26.0943 40.5885 25.825C41.5676 25.3279 42.3543 24.5185 42.8249 23.524C42.5292 24.6932 41.9353 25.6879 40.7028 26.1292C40.0989 26.3436 39.7088 26.1292 39.0925 25.9447H39.0975ZM27.4729 26.0569C27.7015 25.0447 28.1066 24.0625 29.677 23.3146C27.5947 23.8332 27.2045 24.7157 27.4729 26.0569ZM0.49878 31.5189C0.675211 29.4896 1.07032 28.6146 2.50413 27.0889C0.705031 28.3628 0.26768 28.9412 0.49878 31.5189Z" fill="black"/>
<path fill-rule="evenodd" clip-rule="evenodd" d="M30.0537 28.6595C30.0013 28.5209 30.003 28.3675 30.0585 28.2302C30.114 28.0928 30.2191 27.9814 30.3528 27.9184C30.4866 27.8554 30.6391 27.8454 30.7799 27.8904C30.9207 27.9353 31.0394 28.0319 31.1123 28.1609C31.1245 28.1886 31.1353 28.2169 31.1446 28.2457C30.863 28.4537 30.6121 28.7004 30.3991 28.9786C30.2495 28.9208 30.1271 28.8086 30.0562 28.6645" fill="#F7F7F7"/>
<path fill-rule="evenodd" clip-rule="evenodd" d="M36.571 26.1316C36.5754 26.0745 36.5911 26.0187 36.6171 25.9677C36.6432 25.9167 36.6792 25.8714 36.7229 25.8345C36.7666 25.7976 36.8173 25.7698 36.8718 25.7528C36.9264 25.7357 36.9838 25.7298 37.0407 25.7352C37.155 25.7478 37.2599 25.8046 37.3332 25.8935C37.4065 25.9824 37.4424 26.0964 37.4333 26.2114C37.428 26.2614 37.4146 26.3103 37.3935 26.356C37.1654 26.3972 36.9416 26.4597 36.7251 26.543C36.621 26.4298 36.5649 26.2805 36.5685 26.1266" fill="#F7F7F7"/>
</svg>
