<svg width="160" height="72" viewBox="0 0 160 72" fill="none" xmlns="http://www.w3.org/2000/svg">
<path d="M55.8487 44.3093H67.776C67.776 44.3093 69.4607 44.3093 69.0756 46.5008C68.6904 48.6924 66.4416 58.0621 66.4416 58.0621C66.4416 58.0621 65.9844 60.8171 63.8375 60.8171C62.2248 60.8171 51.9102 60.9899 51.9102 60.9899L55.8487 44.3093ZM58.2689 56.5067H60.7538C61.211 56.5067 61.3203 55.6952 61.3203 55.6952C61.3203 55.6952 62.5801 49.9672 62.6845 49.1833C62.7889 48.3993 61.9813 48.6172 61.9813 48.6172H59.9487L58.2689 56.5067Z" fill="black"/>
<path d="M39.387 43.9838H45.8873L44.3939 50.3229H47.7808L49.0431 44.134L55.8491 44.3119L51.9206 61H45.4649L46.9384 54.7059L43.4398 54.6709L41.8147 61H35.7715L39.387 43.9838Z" fill="black"/>
<path d="M41.5073 44.7148L37.7129 60.4988L41.2836 60.5013L42.9336 53.8566L49.2551 53.9643L47.7467 60.5765L51.3249 60.5414L54.9131 44.8175H51.1609L49.7471 50.9588L43.5399 51.064L45.0308 44.7148H41.5073Z" fill="#FCFCFD" stroke="#1F1917" stroke-width="0.27" stroke-miterlimit="12.5"/>
<path d="M65.2871 61H71.6011L72.9678 54.7385H78.6507L79.3961 50.4256H73.845L74.2972 48.9428C74.2972 48.9428 74.1556 48.4119 75.7011 48.4845C77.2467 48.5571 81.558 48.4845 81.558 48.4845L82.4401 44.3093H71.6359C71.6359 44.3093 69.9462 44.3093 68.9995 46.5008L65.2871 61Z" fill="black"/>
<path d="M94.3678 48.5897H87.0002C86.8595 48.5857 86.7193 48.6101 86.5881 48.6614C86.4568 48.7128 86.3371 48.7901 86.2359 48.8889C86.1347 48.9876 86.0541 49.1057 85.9989 49.2362C85.9437 49.3668 85.9149 49.5072 85.9143 49.6491C85.8448 50.7461 85.7031 50.7411 86.8611 50.691C88.019 50.6409 91.14 50.691 91.14 50.691C91.14 50.691 93.2819 50.4907 93.1403 52.1938C92.9987 53.8969 92.1886 58.2774 92.1886 58.2774C92.1886 58.2774 91.6196 60.2811 90.1361 60.5767C88.6526 60.8722 77.2148 60.9999 77.2148 60.9999L78.251 56.5443L85.9541 56.4391C86.0658 56.4484 86.1782 56.4343 86.2841 56.3977C86.3901 56.361 86.4874 56.3026 86.5699 56.2261C86.6523 56.1496 86.7181 56.0566 86.7631 55.9532C86.8081 55.8498 86.8313 55.738 86.8312 55.6251C86.9008 54.741 86.4809 54.7334 84.9726 54.7084C82.6567 54.6733 81.8143 54.6708 81.8143 54.6708C81.8143 54.6708 79.0561 54.9538 79.3593 52.8325C79.6624 50.7111 80.06 48.9428 80.06 48.9428C80.06 48.9428 80.7632 45.4364 81.1832 44.983C81.6031 44.5297 82.1771 43.9036 84.078 43.9036C85.9789 43.9036 95.2847 44.0313 95.2847 44.0313L94.3678 48.5897Z" fill="black"/>
<path d="M72.513 44.7148C70.9699 44.9653 70.3388 48.1662 70.3388 48.1662L67.4961 60.3636H71.2855L72.687 53.7514H78.2506L78.8618 51.0715H73.1467L73.6039 49.1279C74.1008 47.783 74.9358 47.7479 74.9358 47.7479H81.1802L81.8983 44.7224L72.513 44.7148Z" fill="#FCFCFD" stroke="#1F1917" stroke-width="0.27" stroke-miterlimit="12.5"/>
<path d="M94.4822 44.585L93.7715 47.5905H87.2811C87.129 47.5466 86.9696 47.5349 86.8128 47.5563C86.656 47.5777 86.5054 47.6317 86.3704 47.7148C86.2354 47.7979 86.119 47.9083 86.0285 48.0391C85.938 48.1699 85.8755 48.3182 85.8448 48.4746C85.655 49.1965 85.5368 49.9357 85.492 50.6812C85.492 50.6812 85.6336 51.0193 87.2463 51.0193H91.9824C92.0831 51.0218 92.1822 51.0453 92.2734 51.0885C92.3645 51.1317 92.4458 51.1936 92.5119 51.2701C92.5781 51.3467 92.6277 51.4363 92.6576 51.5333C92.6875 51.6302 92.6971 51.7324 92.6856 51.8333C92.6856 52.6448 91.5898 58.1624 91.5898 58.1624C91.5898 58.1624 90.8593 60.141 89.8082 60.141C88.7571 60.141 79.752 60.3539 79.752 60.3539L80.3707 57.3835L87.1817 57.4185C87.1817 57.4185 88.0862 57.4937 88.4241 56.7523C88.6725 56.1271 88.8395 55.4721 88.9211 54.8037C88.9211 54.8037 89.2814 53.9196 87.8551 53.9196C86.4288 53.9196 83.5538 53.9897 83.5538 53.9897C83.5538 53.9897 81.2031 54.1676 81.3895 52.7875C81.5609 51.5352 82.7064 46.4935 82.7064 46.4935C82.7064 46.4935 83.0966 44.4898 84.9577 44.4898C86.5803 44.4873 94.4822 44.585 94.4822 44.585Z" fill="#FCFCFD" stroke="#1F1917" stroke-width="0.27" stroke-miterlimit="12.5"/>
<path d="M66.8422 44.7152C69.4737 44.6951 68.9643 45.6193 68.8425 46.5034C68.6512 47.8659 66.5316 56.7548 66.0346 58.4629C65.5377 60.171 64.176 60.3639 64.176 60.3639H53.3594L56.7959 44.7152C56.7959 44.7152 64.1983 44.7352 66.8422 44.7152ZM59.5094 47.7057L57.4271 57.3333H61.8476C61.8476 57.3333 62.9211 57.5462 63.2963 55.7429C63.6715 53.9396 64.7872 49.1308 64.7872 49.1308C64.7872 49.1308 65.2842 47.7858 63.9101 47.7157C62.536 47.6455 59.497 47.7057 59.497 47.7057H59.5094Z" fill="#FCFCFD" stroke="#1F1917" stroke-width="0.27" stroke-miterlimit="12.5"/>
<path fill-rule="evenodd" clip-rule="evenodd" d="M133.189 50.1901H142.565C142.951 48.4168 143.337 46.6427 143.725 44.8678C146.399 44.8678 149.162 44.8828 151.836 44.8828C153.08 44.878 154.293 44.4919 155.314 43.7758C156.606 42.912 157.516 41.577 157.852 40.0514C158.438 37.3515 159.028 34.6515 159.621 31.9516C159.959 30.4087 160.398 28.668 159.3 27.2755C158.294 25.9956 156.954 25.8955 155.483 25.8955C144.901 25.9071 134.318 25.9071 123.734 25.8955C122.666 25.8955 121.771 26.2436 120.837 26.7295C120.046 26.1466 119.082 25.8524 118.104 25.8955H103.57C103.967 24.0972 104.364 22.298 104.76 20.4981H95.3723C94.9846 22.2529 94.5978 24.0062 94.2118 25.7577H85.9547C84.8187 25.7681 83.7099 26.1091 82.7616 26.7395C81.9602 26.1787 81.0037 25.8869 80.0283 25.9055H52.7694C53.1868 24.0821 53.601 22.2588 54.0118 20.4354L44.6389 20.4204L39.2344 44.7826H48.6048L51.4226 32.3147H54.5908C54.9685 32.3147 54.8939 32.5301 54.8393 32.8157C53.9464 36.8047 53.0551 40.792 52.1656 44.7776H114.25C115.236 44.7874 116.208 44.5444 117.075 44.0713C117.925 44.663 118.946 44.9545 119.977 44.9003L134.357 44.7776C133.973 46.5809 133.584 48.3851 133.189 50.1901ZM92.6513 32.3273H89.8882C89.4036 32.3273 89.2719 32.5502 89.175 32.9885L88.1389 37.6796C88.0395 38.1304 88.2656 38.2031 88.6557 38.2031H91.3443C91.7817 36.2445 92.2173 34.2859 92.6513 32.3273ZM108.505 32.44H111.457C112.023 32.44 111.993 32.7405 111.892 33.1914C111.56 34.7242 111.222 36.2561 110.875 37.7873C110.758 38.3233 110.428 38.3133 109.971 38.3133H106.967C106.527 38.3133 106.522 38.0628 106.601 37.6921C106.933 36.1593 107.269 34.6273 107.61 33.0962C107.734 32.5377 107.958 32.44 108.505 32.44ZM127.936 32.44H130.886C131.455 32.44 131.425 32.7405 131.321 33.1914L130.307 37.7973C130.19 38.3333 129.86 38.3233 129.402 38.3233H126.398C125.958 38.3233 125.953 38.0728 126.033 37.7021C126.364 36.1693 126.701 34.6373 127.042 33.1062C127.166 32.5377 127.39 32.4375 127.936 32.4375V32.44ZM145.263 38.3709H148.026C148.511 38.3709 148.643 38.1479 148.74 37.7096L149.776 33.0185C149.875 32.5677 149.649 32.4951 149.259 32.4951H146.57C146.136 34.4537 145.701 36.4123 145.263 38.3709Z" fill="black"/>
<path fill-rule="evenodd" clip-rule="evenodd" d="M106.352 27.2531H118.126C119.964 27.2531 121.132 28.7558 120.727 30.6192L118.628 40.1642C118.222 42.0151 116.391 43.5304 114.547 43.5304H102.764C100.928 43.5304 99.7575 42.0277 100.165 40.1642L102.262 30.6192C102.67 28.7658 104.499 27.2531 106.342 27.2531H106.352ZM108.487 31.0851H114.304C115.278 31.0851 115.897 31.8866 115.68 32.8659L114.572 37.9176C114.449 38.4091 114.173 38.8477 113.784 39.1684C113.394 39.4892 112.913 39.675 112.41 39.6984H106.583C105.609 39.6984 104.991 38.8969 105.207 37.9176L106.318 32.8659C106.439 32.3744 106.715 31.9356 107.104 31.6148C107.493 31.294 107.975 31.1082 108.477 31.0851" fill="#1F1917"/>
<path fill-rule="evenodd" clip-rule="evenodd" d="M125.749 27.2531H137.524C139.361 27.2531 140.531 28.7558 140.124 30.6192L138.026 40.1642C137.619 42.0151 135.79 43.5304 133.946 43.5304H122.173C120.334 43.5304 119.164 42.0277 119.571 40.1642L121.668 30.6192C122.076 28.7658 123.912 27.2531 125.749 27.2531ZM127.883 31.0851H133.705C134.677 31.0851 135.298 31.8866 135.082 32.8659L133.971 37.9176C133.848 38.4087 133.572 38.847 133.183 39.1677C132.794 39.4884 132.314 39.6745 131.812 39.6984H125.982C125.011 39.6984 124.392 38.8969 124.606 37.9176L125.734 32.8659C125.856 32.3747 126.133 31.9364 126.521 31.6158C126.91 31.2951 127.391 31.109 127.893 31.0851" fill="#1F1917"/>
<path fill-rule="evenodd" clip-rule="evenodd" d="M141.828 27.2531H155.96C157.796 27.2531 158.966 28.7558 158.559 30.6192L156.462 40.1642C156.054 42.0151 154.225 43.5304 152.381 43.5304H138.25L141.828 27.2531ZM145.521 31.0851H152.14C153.112 31.0851 153.731 31.8866 153.517 32.8659L152.406 37.9176C152.284 38.4087 152.007 38.847 151.619 39.1677C151.23 39.4884 150.749 39.6745 150.247 39.6984H143.625" fill="#1F1917"/>
<path fill-rule="evenodd" clip-rule="evenodd" d="M98.4561 43.4027H84.3247C82.4884 43.4027 81.318 41.8999 81.7256 40.034L83.8228 30.4915C84.2303 28.6406 86.0591 27.1228 87.9029 27.1228H102.034L98.4561 43.4027ZM94.7611 39.5706H88.1439C87.1724 39.5706 86.5511 38.7692 86.7673 37.7899L87.8781 32.7381C88.0002 32.2465 88.2762 31.8077 88.6651 31.4865C89.054 31.1653 89.5352 30.9789 90.0374 30.9548H96.662" fill="#1F1917"/>
<path fill-rule="evenodd" clip-rule="evenodd" d="M50.0613 27.2531H60.8629C62.6992 27.2531 63.8696 28.7558 63.4646 30.6192L61.9289 37.597H57.3816L58.4203 32.8658C58.6365 31.8866 58.0178 31.0851 57.0437 31.0851H50.352C49.3804 31.0851 50.2526 31.8866 50.0364 32.8658L49.0102 37.5469H44.4629L45.9811 30.6318C46.3887 28.7783 48.2175 27.2656 50.0613 27.2656" fill="#1F1917"/>
<path fill-rule="evenodd" clip-rule="evenodd" d="M43.1797 43.4027L46.2858 29.3169H50.8231L47.7096 43.4027" fill="#1F1917"/>
<path fill-rule="evenodd" clip-rule="evenodd" d="M80.0125 43.4027H64.917C63.0782 43.4027 61.9079 41.9 62.3154 40.0341L62.9242 37.2665L63.041 36.733C63.4485 34.8821 65.2773 33.3643 67.1211 33.3668H77.6892L77.8457 32.658C77.8939 32.4567 77.8964 32.247 77.8532 32.0445C77.81 31.8421 77.7221 31.652 77.5961 31.4884C77.4701 31.3248 77.3092 31.192 77.1253 31.0996C76.9413 31.0072 76.7392 30.9578 76.5337 30.9549H64.2958L65.1382 27.1254H80.3206C82.1197 27.1604 83.2577 28.6607 82.8552 30.4915L82.5694 31.7864L82.224 33.3618L80.4424 41.4667L80.0125 43.4027ZM68.2716 39.5707H76.3175L76.8418 37.1989H68.94C68.9011 37.1963 68.8621 37.1963 68.8232 37.1989C68.4888 37.2139 68.1681 37.3377 67.9092 37.5517C67.6503 37.7657 67.4671 38.0584 67.387 38.386C67.346 38.5252 67.3381 38.6722 67.3639 38.815C67.3898 38.9578 67.4486 39.0925 67.5358 39.2081C67.6229 39.3237 67.7358 39.4171 67.8654 39.4805C67.9949 39.5439 68.1375 39.5757 68.2815 39.5732" fill="#1F1917"/>
<path fill-rule="evenodd" clip-rule="evenodd" d="M106.352 27.2531H118.126C119.964 27.2531 121.132 28.7558 120.727 30.6192L118.628 40.1642C118.222 42.0151 116.391 43.5304 114.547 43.5304H102.764C100.928 43.5304 99.7575 42.0277 100.165 40.1642L102.262 30.6192C102.67 28.7658 104.499 27.2531 106.342 27.2531H106.352ZM108.487 31.0851H114.304C115.278 31.0851 115.897 31.8866 115.68 32.8659L114.572 37.9176C114.449 38.4091 114.173 38.8477 113.784 39.1684C113.394 39.4892 112.913 39.675 112.41 39.6984H106.583C105.609 39.6984 104.991 38.8969 105.207 37.9176L106.318 32.8659C106.439 32.3744 106.715 31.9356 107.104 31.6148C107.493 31.294 107.975 31.1082 108.477 31.0851" fill="#FCFCFD"/>
<path fill-rule="evenodd" clip-rule="evenodd" d="M125.749 27.2531H137.524C139.361 27.2531 140.531 28.7558 140.124 30.6192L138.026 40.1642C137.619 42.0151 135.79 43.5304 133.946 43.5304H122.173C120.334 43.5304 119.164 42.0277 119.571 40.1642L121.668 30.6192C122.076 28.7658 123.912 27.2531 125.749 27.2531ZM127.883 31.0851H133.705C134.677 31.0851 135.298 31.8866 135.082 32.8659L133.971 37.9176C133.848 38.4087 133.572 38.847 133.183 39.1677C132.794 39.4884 132.314 39.6745 131.812 39.6984H125.982C125.011 39.6984 124.392 38.8969 124.606 37.9176L125.734 32.8659C125.856 32.3747 126.133 31.9364 126.521 31.6158C126.91 31.2951 127.391 31.109 127.893 31.0851" fill="#FCFCFD"/>
<path fill-rule="evenodd" clip-rule="evenodd" d="M141.831 27.248L138.879 40.6476L138.25 43.5204L137.055 48.9754H141.582L142.785 43.5204H152.384C154.22 43.5204 156.054 42.0177 156.459 40.1567L158.556 30.6142C158.964 28.7809 157.788 27.248 155.954 27.248H141.831ZM145.518 31.0851H152.143C153.114 31.0851 153.733 31.8891 153.517 32.8684L152.406 37.9176C152.284 38.4094 152.008 38.8485 151.619 39.1697C151.23 39.4909 150.749 39.6772 150.247 39.7009H143.625L145.518 31.0851Z" fill="#FCFCFD"/>
<path fill-rule="evenodd" clip-rule="evenodd" d="M98.7028 21.6754L97.4977 27.1304H87.9012C86.0648 27.1304 84.231 28.6457 83.8235 30.4966L81.7188 40.0516C81.3138 41.9025 82.4842 43.4153 84.3205 43.4153H98.4543L102.033 27.1354L103.23 21.6804L98.7028 21.6754ZM90.0356 30.96H96.6603L94.7569 39.5683H88.1422C87.1681 39.5683 86.5519 38.7718 86.7681 37.7925L87.8763 32.7357C87.9991 32.2452 88.2755 31.8075 88.6644 31.4877C89.0534 31.1678 89.5342 30.9828 90.0356 30.96Z" fill="#FCFCFD"/>
<path fill-rule="evenodd" clip-rule="evenodd" d="M47.9575 21.6754L46.1237 30.0032H46.1486L46.069 30.3338C46.0417 30.429 46.0144 30.5242 45.992 30.6218L44.4638 37.547H44.4787L43.1816 43.4153H47.7091L49.0061 37.547L50.0299 32.881C50.0312 32.8735 50.0312 32.8659 50.0299 32.8584L50.4275 31.1052H57.0347C58.0063 31.1052 58.6325 31.9092 58.4163 32.8885L57.3776 37.6172L56.1029 43.4228H60.6378L61.92 37.6172L63.4481 30.6419C63.8606 28.781 62.7002 27.2481 60.8639 27.2481H51.2574L52.485 21.6754H47.9575Z" fill="#FCFCFD"/>
<path fill-rule="evenodd" clip-rule="evenodd" d="M80.0125 43.4027H64.917C63.0782 43.4027 61.9079 41.9 62.3154 40.0341L62.9242 37.2665L63.041 36.733C63.4485 34.8821 65.2773 33.3643 67.1211 33.3668H77.6892L77.8457 32.658C77.8939 32.4567 77.8964 32.247 77.8532 32.0445C77.81 31.8421 77.7221 31.652 77.5961 31.4884C77.4701 31.3248 77.3092 31.192 77.1253 31.0996C76.9413 31.0072 76.7392 30.9578 76.5337 30.9549H64.2958L65.1382 27.1254H80.3206C82.1197 27.1604 83.2577 28.6607 82.8552 30.4915L82.5694 31.7864L82.224 33.3618L80.4424 41.4667L80.0125 43.4027ZM68.2716 39.5707H76.3175L76.8418 37.1989H68.94C68.9011 37.1963 68.8621 37.1963 68.8232 37.1989C68.4888 37.2139 68.1681 37.3377 67.9092 37.5517C67.6503 37.7657 67.4671 38.0584 67.387 38.386C67.346 38.5252 67.3381 38.6722 67.3639 38.815C67.3898 38.9578 67.4486 39.0925 67.5358 39.2081C67.6229 39.3237 67.7358 39.4171 67.8654 39.4805C67.9949 39.5439 68.1375 39.5757 68.2815 39.5732" fill="#FCFCFD"/>
<path fill-rule="evenodd" clip-rule="evenodd" d="M5.0289 33.4093L4.4723 34.9396L3.0932 36.3171C2.59623 36.818 2.48193 36.818 2.59623 37.5268C2.75708 38.4527 3.20104 39.3048 3.86599 39.9638C4.63878 40.7428 6.25642 41.8448 7.41934 41.3238C7.30751 41.7392 7.16207 42.1446 6.98449 42.536C6.20424 44.2617 8.10764 44.5998 9.43953 44.963C10.5453 45.2661 13.2637 46.07 13.6638 44.6023C13.8276 44.0713 13.8759 43.5109 13.8054 42.9593C13.9997 42.4889 14.25 42.0439 14.5509 41.6344C14.941 41.0483 14.9137 40.8254 14.8267 40.1016C14.8118 39.9613 14.7919 39.8085 14.7671 39.6482C16.0513 39.8413 17.356 39.8531 18.6434 39.6833C18.2533 39.9137 17.8582 40.1166 17.3414 40.3846C16.0989 41.0233 17.2693 42.9042 17.8011 43.7282C18.9143 45.4589 19.9107 46.6486 21.7918 45.6217C22.4254 45.2761 22.4726 44.9104 22.8677 44.3168C23.0864 44.1966 24.2095 43.2323 24.8755 42.6888C25.1239 42.9969 25.6209 43.052 26.349 43.1046C26.7167 43.1321 28.1679 43.1246 28.5506 43.1271C29.7035 43.1271 30.3968 43.0119 30.4863 41.7471C30.5253 41.5304 30.521 41.308 30.4736 41.0929C30.4262 40.8779 30.3368 40.6745 30.2105 40.4948L30.1583 38.5087C30.1429 37.8498 29.9888 37.2019 29.706 36.6077C29.4401 35.974 29.2935 35.4355 28.9854 34.8219C29.0277 34.5714 29.06 34.321 29.0848 34.0705L30.2602 35.2126C31.0056 35.9364 31.6243 36.53 32.7624 36.4649C33.9502 36.4098 35.3069 35.4631 35.6548 34.3134C35.7716 33.9302 35.8859 33.5445 36.0027 33.1613C37.7918 33.502 39.8815 33.4118 41.4395 32.5853C43.7306 31.353 44.8015 28.876 45.0649 26.2562C45.2786 24.1348 44.8686 20.5707 43.8647 18.6347C43.5715 18.0661 42.2397 17.3473 41.6557 17.9434C41.2159 18.3917 40.9103 19.078 40.4381 19.4862C40.0671 19.7637 39.6544 19.9793 39.2156 20.1249C38.915 19.3365 38.4756 18.6094 37.9185 17.9785C37.5182 17.5189 37.0414 17.1333 36.5096 16.8389C35.3814 16.1276 34.5068 15.2309 33.483 14.3794C30.3794 11.7996 27.7132 11.8748 23.8467 13.5178C22.003 14.3017 21.1134 15.3637 19.9828 16.889C19.297 16.924 18.8273 17.0593 18.1067 17.7005C17.5725 18.1763 17.0755 18.6647 16.5959 19.1707C12.9655 19.7642 10.7217 20.4555 8.34619 22.5769C7.43263 23.3923 6.68054 24.3747 6.1297 25.4722C5.6203 26.0383 5.11587 26.6193 4.44496 26.8798C3.97035 27.0626 3.98029 27.0626 3.81381 26.6143C4.37539 26.1885 4.36793 25.3871 4.41763 24.6607C4.77296 24.6783 4.9146 25.079 5.14818 25.3871C5.28981 24.7459 5.37181 23.7491 4.70339 23.3984C4.81024 23.1054 4.93448 22.8098 5.0463 22.4867C4.05236 22.6596 0.672948 24.9613 2.47944 26.7145C2.56245 27.1114 2.68654 27.4984 2.84968 27.8691C3.26217 28.7357 4.19151 28.871 5.00406 28.5654C4.78042 29.5923 4.73569 30.7068 4.86987 32.2747C4.90231 32.6555 4.9554 33.0343 5.0289 33.4093Z" fill="black"/>
<path d="M5.24224 33.4896L5.0186 34.1057L4.58872 33.9454L4.81236 33.3318L5.24224 33.4896ZM5.0186 34.1057C4.90678 34.4088 4.79496 34.7143 4.68563 35.0199L4.25575 34.8596C4.36508 34.5565 4.4769 34.251 4.58872 33.9454L5.0186 34.1057ZM4.68563 35.0199L4.63096 35.1025L4.46945 34.9397L4.68563 35.0199ZM4.63096 35.1025L3.90041 35.8339L3.57738 35.5058L4.30793 34.7769L4.63096 35.1025ZM3.90041 35.8339L3.24938 36.4801L2.92884 36.1545L3.57738 35.5058L3.90041 35.8339ZM3.24938 36.4801C3.15247 36.5802 3.11768 36.6128 3.08787 36.6403L2.77229 36.3072L2.92884 36.1545L3.24938 36.4801ZM3.08787 36.6403C2.79465 36.9259 2.7375 36.981 2.82199 37.4894L2.37223 37.5645C2.24798 36.8132 2.33247 36.733 2.77229 36.3122L3.08787 36.6403ZM2.82199 37.4894C2.89204 37.9194 3.0296 38.3353 3.2295 38.7217L2.82199 38.9346C2.59723 38.5058 2.44283 38.0431 2.36477 37.5645L2.82199 37.4894ZM3.2295 38.7217C3.44057 39.1202 3.71034 39.4841 4.02963 39.8012L3.70411 40.1242C3.35493 39.7742 3.06006 39.3732 2.82944 38.9346L3.2295 38.7217ZM4.02963 39.8012C4.5575 40.3379 5.18591 40.7636 5.87836 41.0534L5.71436 41.4767C4.96111 41.1649 4.27692 40.7051 3.70163 40.1242L4.02963 39.8012ZM5.87836 41.0534C6.33419 41.2649 6.85377 41.2891 7.32703 41.1211L7.5134 41.5418C6.93058 41.763 6.28454 41.7423 5.71685 41.4842L5.87836 41.0534ZM7.32703 41.1211L7.76934 40.9232L7.64013 41.3941L7.41897 41.3315L7.32703 41.1211ZM7.64013 41.3941C7.58297 41.602 7.51588 41.8174 7.43885 42.0327L7.00897 41.875C7.08103 41.6721 7.14564 41.4692 7.20031 41.2714L7.64013 41.3941ZM7.43885 42.0327C7.36679 42.2331 7.28479 42.436 7.19037 42.6389L6.7754 42.4485C6.85988 42.2607 6.93691 42.0678 7.00649 41.875L7.43885 42.0327ZM7.19037 42.6389C6.80521 43.4954 7.21025 43.9438 7.83891 44.2343L7.64758 44.6526C6.78782 44.2593 6.23618 43.6382 6.7754 42.4485L7.19037 42.6389ZM7.83891 44.2343C8.27251 44.4133 8.71954 44.5574 9.17577 44.6651L9.06146 45.1084C8.57824 44.997 8.10525 44.8445 7.64758 44.6526L7.83891 44.2343ZM9.17577 44.6651L9.49383 44.7477L9.37953 45.1936L9.06146 45.1084L9.17577 44.6651ZM9.49383 44.7477C10.2549 44.9805 11.0361 45.1399 11.8271 45.2236L11.7973 45.6845C10.9773 45.5958 10.1677 45.4281 9.37953 45.1835L9.49383 44.7477ZM11.8271 45.2236C12.5924 45.2712 13.2733 45.141 13.4298 44.5524L13.8721 44.6676C13.6386 45.5442 12.7664 45.7471 11.7973 45.6845L11.8271 45.2236ZM13.4298 44.5524C13.5053 44.2931 13.5569 44.0273 13.5839 43.7584L14.0411 43.796C14.0119 44.0912 13.9553 44.383 13.8721 44.6676L13.4298 44.5524ZM13.5839 43.7584C13.6011 43.5013 13.5953 43.2431 13.5665 42.987L14.0188 42.9444C14.0539 43.2269 14.0614 43.5121 14.0411 43.796L13.5839 43.7584ZM13.5665 42.987L13.5839 42.8718L13.7926 42.967L13.5665 42.987ZM13.5839 42.8718C13.7581 42.4451 13.9789 42.0393 14.2424 41.6621L14.6201 41.9125C14.373 42.2697 14.1663 42.6536 14.0038 43.0571L13.5839 42.8718ZM14.2424 41.6621L14.3418 41.5118L14.722 41.7623L14.6201 41.9125L14.2424 41.6621ZM14.3418 41.5118C14.4826 41.3318 14.5789 41.1206 14.6226 40.8957L15.0773 40.9583C15.0247 41.2535 14.9029 41.5317 14.722 41.7698L14.3418 41.5118ZM14.6226 40.8957C14.6387 40.6445 14.6254 40.3923 14.5828 40.1443L15.0375 40.0917C15.0879 40.381 15.1013 40.6756 15.0773 40.9683L14.6226 40.8957ZM14.5828 40.1443C14.5828 40.0491 14.5629 39.974 14.5555 39.9264L15.0077 39.8688C15.0226 39.9715 15.0326 40.0466 15.0375 40.0917L14.5828 40.1443ZM14.5555 39.9264C14.5555 39.8863 14.5381 39.8087 14.5232 39.6985L14.9754 39.6308C14.9754 39.6809 14.9928 39.7586 15.0077 39.8813L14.5555 39.9264ZM14.5232 39.6985L14.4785 39.3904L14.7841 39.438L14.7493 39.6659L14.5232 39.6985ZM14.7841 39.448C15.4184 39.5436 16.0586 39.5938 16.6999 39.5983V40.0591C16.0344 40.0558 15.3701 40.0039 14.712 39.9038L14.7841 39.448ZM16.6999 39.5983C17.3354 39.601 17.9703 39.5625 18.6008 39.4831L18.653 39.9414C18.0043 40.0229 17.3511 40.0622 16.6974 40.0591L16.6999 39.5983ZM18.6008 39.4831L18.74 39.9114L18.6257 39.711L18.6008 39.4831ZM18.74 39.9114C18.3722 40.1293 17.9945 40.3196 17.5323 40.5625L17.3236 40.1518C17.7883 39.9013 18.1511 39.7235 18.5114 39.5106L18.74 39.9114ZM17.5323 40.5625L17.428 40.6177L17.2168 40.2069L17.3236 40.1518L17.5323 40.5625ZM17.428 40.6177C16.931 40.8681 16.931 41.3941 17.1099 41.9451L16.6726 42.0828C16.439 41.3315 16.4713 40.5801 17.2168 40.2069L17.428 40.6177ZM17.1099 41.9451C17.3255 42.5419 17.6161 43.1084 17.9746 43.6307L17.5895 43.8811C17.2079 43.3148 16.9005 42.7011 16.6751 42.0553L17.1099 41.9451ZM17.9746 43.6307C18.5139 44.4697 19.0233 45.1785 19.6097 45.5392L19.3612 45.9324C18.7002 45.5242 18.1536 44.7703 17.5796 43.8811L17.9746 43.6307ZM19.6097 45.5392C20.1638 45.8823 20.8099 45.9124 21.6671 45.4465L21.8833 45.8523C20.8596 46.4108 20.0669 46.3532 19.3711 45.9324L19.6097 45.5392ZM21.6671 45.4465C21.9867 45.2719 22.2407 44.9966 22.3902 44.6626L22.7903 44.888C22.6028 45.3022 22.2837 45.6415 21.8833 45.8523L21.6671 45.4465ZM22.3902 44.6626C22.4648 44.5323 22.5443 44.3921 22.6611 44.2168L23.0388 44.4672C22.9468 44.6075 22.8648 44.7527 22.7903 44.883L22.3902 44.6626ZM22.6611 44.2168L22.7406 44.1416L22.8499 44.3445L22.6611 44.2168ZM22.7406 44.1416C22.8748 44.0665 23.4438 43.5906 24.0004 43.1398L24.2912 43.4954C23.7172 43.9738 23.1258 44.4647 22.9593 44.5574L22.7406 44.1416ZM24.0004 43.1398L24.7136 42.5462L25.0018 42.9069C24.7335 43.1248 24.5049 43.3101 24.2912 43.4954L24.0004 43.1398ZM24.7136 42.5462L24.89 42.4034L25.0341 42.5787L24.8577 42.7265L24.7136 42.5462ZM25.0341 42.5787C25.1504 42.6994 25.3019 42.7792 25.4665 42.8067L25.3621 43.255C25.0995 43.2079 24.86 43.0739 24.6813 42.8743L25.0341 42.5787ZM25.4665 42.8067C25.7568 42.8633 26.0508 42.8984 26.3461 42.9119L26.3138 43.3752C25.994 43.3596 25.6759 43.3194 25.3621 43.255L25.4665 42.8067ZM26.3461 42.9119C26.6269 42.9319 27.5264 42.9319 28.1054 42.9319V43.3927C27.514 43.3927 26.5946 43.3927 26.3138 43.3752L26.3461 42.9119ZM28.1054 42.9319H28.5353V43.3953H28.1079V42.9344L28.1054 42.9319ZM28.5353 42.9319C29.0745 42.9319 29.5044 42.9119 29.7777 42.7516L30.0014 43.1523C29.6286 43.3652 29.1341 43.4028 28.5229 43.4028V42.9394L28.5353 42.9319ZM29.7777 42.7516C30.0262 42.6038 30.1902 42.3108 30.23 41.7673L30.6872 41.7998C30.635 42.5211 30.3989 42.9244 30.0014 43.1523L29.7777 42.7516ZM30.23 41.7673C30.2577 41.5721 30.2577 41.3739 30.23 41.1787L30.6772 41.0785C30.7185 41.3167 30.7243 41.5598 30.6946 41.7998L30.23 41.7673ZM30.23 41.1787C30.1737 40.9887 30.09 40.8081 29.9815 40.6427L30.3815 40.4173C30.5104 40.6216 30.6076 40.8446 30.6698 41.0785L30.2225 41.1787H30.23ZM29.9815 40.6427L29.9541 40.5375H30.1828L29.9815 40.6427ZM29.9541 40.5375C29.9541 40.2044 29.9368 39.8738 29.9268 39.5357H30.384C30.384 39.8663 30.4014 40.1969 30.4114 40.5375L29.9541 40.55V40.5375ZM29.9268 39.5357C29.9268 39.2051 29.9094 38.8719 29.902 38.5338H30.3592C30.3592 38.8644 30.3766 39.195 30.384 39.5357H29.9268ZM29.902 38.5338C29.8969 38.2247 29.8569 37.9171 29.7827 37.6171L30.2275 37.5044C30.3094 37.8381 30.3536 38.1801 30.3592 38.5238L29.902 38.5338ZM29.7827 37.6171C29.7008 37.3096 29.5953 37.009 29.4671 36.718L29.8895 36.5402C30.026 36.8526 30.139 37.1749 30.2275 37.5044L29.7827 37.6171ZM29.4671 36.718C29.3677 36.4675 29.2808 36.2446 29.1963 36.0142L29.6261 35.8564C29.7057 36.0743 29.7877 36.2972 29.8895 36.5402L29.4671 36.718ZM29.6261 35.8564L29.4124 35.9366L29.6261 35.8564ZM29.1963 36.0167C29.0688 35.651 28.9202 35.2931 28.7515 34.9447L29.1615 34.7369C29.3381 35.1005 29.4932 35.4743 29.6261 35.8564L29.1963 36.0167ZM28.7515 34.9447L28.7316 34.802L28.9577 34.842L28.7515 34.9447ZM28.7316 34.802C28.754 34.6717 28.7738 34.5515 28.7887 34.4438L29.241 34.5039C29.2211 34.6442 29.2012 34.7694 29.1838 34.8796L28.7316 34.802ZM28.7887 34.4438C28.7887 34.3461 28.8136 34.2234 28.826 34.0731L29.2857 34.1107C29.2857 34.2209 29.2609 34.3612 29.241 34.5039L28.7887 34.4438ZM28.826 34.0731L28.8708 33.5923L29.2137 33.9254L29.0571 34.0932L28.826 34.0731ZM29.2137 33.9254L29.8871 34.5791L29.5715 34.9122L28.8981 34.2585L29.2137 33.9254ZM29.8871 34.5791L30.384 35.08L30.0685 35.4131L29.5715 34.9122L29.8871 34.5791ZM30.384 35.08C30.7033 35.4175 31.0602 35.7167 31.4475 35.9716L31.214 36.3699C30.7967 36.0967 30.4123 35.7756 30.0685 35.4131L30.384 35.08ZM31.4475 35.9716C31.8305 36.2028 32.2745 36.3103 32.7198 36.2797L32.7397 36.7405C32.2056 36.7761 31.6734 36.6468 31.214 36.3699L31.4475 35.9716ZM32.7198 36.2797C33.3242 36.2309 33.902 36.0084 34.3846 35.6385L34.658 36.0092C34.1019 36.4344 33.4357 36.6884 32.7397 36.7405L32.7198 36.2797ZM34.3846 35.6385C34.8558 35.309 35.2122 34.8385 35.4034 34.2935L35.8408 34.4263C35.623 35.067 35.2088 35.6213 34.658 36.0092L34.3846 35.6385ZM35.4034 34.2935C35.4556 34.1157 35.5103 33.9379 35.5625 33.7601L36.0023 33.8928C35.9476 34.0706 35.8954 34.2485 35.8408 34.4263L35.4034 34.2935ZM35.5625 33.7601C35.6246 33.5522 35.6892 33.3468 35.7513 33.1389L36.1887 33.2717L36.0296 33.8577L35.5625 33.7601ZM35.7513 33.1389L35.811 32.9411L36.0122 32.9811L35.97 33.2065L35.7513 33.1389ZM36.0122 32.9811C36.97 33.1657 37.949 33.2113 38.9195 33.1164L38.9642 33.5747C37.9505 33.6735 36.928 33.6254 35.9277 33.432L36.0122 32.9811ZM38.9195 33.1164C39.7494 33.0424 40.5575 32.8086 41.3 32.4276L41.5137 32.8359C40.7192 33.248 39.8538 33.503 38.9642 33.5872L38.9195 33.1164ZM41.3 32.4276C42.3072 31.8767 43.1361 31.0455 43.688 30.0332L44.0855 30.2636C43.4889 31.335 42.6032 32.2138 41.5311 32.7983L41.3 32.4276ZM43.688 30.0332L43.8867 30.1484L43.688 30.0332ZM43.688 30.0332C44.3261 28.8635 44.713 27.5715 44.8235 26.2413L45.2783 26.2838C45.1617 27.68 44.7553 29.0359 44.0855 30.2636L43.688 30.0332ZM44.8235 26.2413C44.9273 24.8814 44.8664 23.5138 44.6421 22.1688L45.0944 22.0962C45.3226 23.477 45.3844 24.8806 45.2783 26.2763L44.8235 26.2337V26.2413ZM44.6421 22.1688C44.4862 20.9847 44.1509 19.8317 43.6482 18.75L44.0532 18.5371C44.5778 19.6632 44.9289 20.8633 45.0944 22.0962L44.6421 22.1688ZM43.6482 18.75C43.601 18.6678 43.5424 18.5927 43.4743 18.5271L43.7948 18.1965C43.8939 18.2971 43.9776 18.4118 44.0433 18.5371L43.6383 18.75H43.6482ZM43.4743 18.5271C43.2488 18.3101 42.9792 18.1451 42.6841 18.0437L42.8332 17.6054C43.1919 17.731 43.5198 17.9325 43.7948 18.1965L43.4842 18.5296L43.4743 18.5271ZM42.6841 18.0437C42.5643 17.9903 42.4353 17.9612 42.3044 17.9582C42.1735 17.9552 42.0433 17.9783 41.9212 18.0262L41.71 17.6154C41.8878 17.5402 42.0787 17.5015 42.2716 17.5015C42.4644 17.5015 42.6553 17.5402 42.8332 17.6154L42.6841 18.0537V18.0437ZM41.9212 18.0262C41.8778 18.0477 41.8383 18.0765 41.8044 18.1113L41.4764 17.7882C41.5453 17.7192 41.624 17.661 41.71 17.6154L41.9212 18.0262ZM41.8044 18.1113C41.6127 18.3209 41.4397 18.5472 41.2876 18.7876L40.9099 18.5371C41.0769 18.2706 41.2664 18.0193 41.4764 17.7857L41.8044 18.1113ZM41.2876 18.7876C41.0876 19.1112 40.8471 19.4076 40.5719 19.6692L40.2762 19.3186C40.5192 19.0822 40.7321 18.8164 40.9099 18.5271L41.2876 18.7776V18.7876ZM40.5719 19.6692C40.2362 19.9331 39.8591 20.1388 39.4562 20.2778L39.2873 19.8495C39.6445 19.7269 39.98 19.5477 40.2812 19.3186L40.5769 19.6692H40.5719ZM39.4562 20.2778L39.2873 20.3454L39.1133 19.9197L39.2873 19.8495L39.4562 20.2778ZM39.2873 20.3454L39.0686 20.4381L38.9866 20.2127L39.2003 20.1326L39.2873 20.3454ZM38.9866 20.2127C38.8441 19.828 38.6635 19.4588 38.4474 19.1107L38.835 18.8602C39.0677 19.2354 39.2625 19.6331 39.4165 20.0474L38.9866 20.2077V20.2127ZM38.4474 19.1107C38.2303 18.769 37.9903 18.4427 37.7293 18.1339L38.0796 17.8383C38.3513 18.1629 38.6004 18.506 38.8251 18.8652L38.4474 19.1107ZM37.7293 18.1339C37.5468 17.9131 37.3401 17.714 37.113 17.5403L37.3888 17.1746C37.6443 17.3676 37.8761 17.5904 38.0796 17.8383L37.7293 18.1339ZM37.113 17.5403C36.8993 17.375 36.6558 17.2222 36.3676 17.0394L36.6161 16.6487C36.9018 16.829 37.1478 16.9868 37.3888 17.1721L37.113 17.5378V17.5403ZM36.3676 17.0394C35.606 16.5339 34.8871 15.9659 34.2182 15.3413L34.5163 14.9931C35.1687 15.6015 35.8693 16.1552 36.6111 16.6487L36.3676 17.0394ZM34.2182 15.3413C33.9299 15.0908 33.6392 14.8403 33.3162 14.5623L33.6069 14.2042C33.9076 14.4546 34.2132 14.7251 34.5163 14.9931L34.2182 15.3413ZM33.3162 14.5623C31.8029 13.31 30.4039 12.6964 28.9155 12.6012L28.9453 12.1404C30.5331 12.2406 32.0166 12.8918 33.6069 14.2042L33.3162 14.5623ZM28.9155 12.6012C27.4246 12.5061 25.8169 12.9293 23.9159 13.7358L23.7395 13.31C25.705 12.476 27.3699 12.0402 28.9577 12.1404L28.9155 12.6012ZM23.9209 13.7533C23.1336 14.0749 22.4104 14.5373 21.7864 15.1183L21.4783 14.7552C22.1411 14.1384 22.9088 13.6472 23.7445 13.305L23.9209 13.7533ZM21.7864 15.1058C21.1831 15.6976 20.635 16.344 20.1489 17.0369L19.7836 16.7589C20.2864 16.04 20.8537 15.3693 21.4783 14.7552L21.7864 15.1058ZM20.1489 17.0369L20.0843 17.1245H19.9774V16.8941L20.1489 17.0369ZM19.9774 17.1295C19.6871 17.1351 19.3997 17.1901 19.1276 17.2923L18.9587 16.8641C19.2762 16.7412 19.6125 16.6751 19.9526 16.6687L19.9774 17.1295ZM19.1326 17.2923C18.8056 17.4369 18.5055 17.6368 18.2455 17.8834L17.9399 17.5378C18.2377 17.2548 18.5825 17.0267 18.9587 16.8641L19.1326 17.2923ZM18.2455 17.8834C17.997 18.1163 17.7286 18.3543 17.4802 18.5997L17.1571 18.2616C17.4056 18.0112 17.6541 17.7757 17.9399 17.5328L18.2455 17.8834ZM17.4802 18.5997L17.3236 18.4344L17.4826 18.5997H17.4802ZM17.4802 18.5997C17.2317 18.8502 16.9832 19.0881 16.7521 19.3386L16.4142 19.013C16.6626 18.7625 16.9111 18.5121 17.1596 18.2616L17.4802 18.5997ZM16.7446 19.3386L16.6154 19.4062L16.5806 19.1808L16.7446 19.3386ZM16.6154 19.4062C14.8263 19.6942 13.3851 20.0098 12.0806 20.5158L11.9265 20.085C13.2509 19.5665 14.7294 19.2459 16.5533 18.9529L16.6154 19.4062ZM12.0806 20.5158C10.7597 21.0313 9.54486 21.7888 8.4974 22.7499L8.19922 22.4042C9.2887 21.4055 10.5525 20.6191 11.9265 20.085L12.0806 20.5158ZM8.4974 22.7499C8.0411 23.153 7.62498 23.6001 7.25497 24.0848L6.89218 23.8043C7.28233 23.2964 7.72002 22.8276 8.19922 22.4042L8.4974 22.7499ZM7.25497 24.0848C6.90124 24.5567 6.59021 25.0596 6.32564 25.5876L5.91812 25.3772C6.19657 24.8284 6.52252 24.3054 6.89218 23.8143L7.25497 24.0848ZM6.32564 25.5876L6.29333 25.6377L6.12188 25.4824L6.32564 25.5876ZM6.29333 25.6377C6.04485 25.9257 5.77151 26.2212 5.49321 26.4742L5.18757 26.1286C5.46002 25.872 5.71881 25.6012 5.96285 25.3171L6.29333 25.6377ZM5.49321 26.4742C5.20889 26.742 4.8789 26.9558 4.51914 27.1053L4.35514 26.6746C4.66337 26.5453 4.9455 26.3603 5.18757 26.1286L5.49321 26.4742ZM4.51914 27.1053L4.43963 26.89L4.51914 27.1053ZM4.51914 27.1053C4.22593 27.2206 4.08181 27.2757 3.92029 27.208L4.09672 26.7823C4.09672 26.7823 4.17872 26.7447 4.3452 26.6746L4.51914 27.1053ZM3.92029 27.208L4.00975 26.9977L3.92029 27.2105V27.208ZM3.92029 27.208C3.74635 27.1354 3.69914 26.9926 3.59229 26.7071L4.02714 26.5268C4.08926 26.6896 4.08678 26.7572 4.10417 26.7772L3.92029 27.208ZM3.59229 26.7071L3.53763 26.5268L3.67678 26.4216L3.81344 26.6069L3.59229 26.7071ZM3.67181 26.4416C4.09175 26.1235 4.13151 25.4899 4.16878 24.8788L4.62599 24.9063C4.58127 25.6226 4.53405 26.364 3.94266 26.8123L3.67181 26.4416ZM4.16878 24.8788C4.16878 24.7986 4.16878 24.7185 4.1812 24.6584L4.6409 24.6909C4.6409 24.7736 4.62848 24.8412 4.62599 24.9063L4.16878 24.8788ZM4.1812 24.6584L4.1986 24.4329H4.42223V24.6634L4.1812 24.6584ZM4.42969 24.443C4.80739 24.463 4.97884 24.731 5.17515 25.019L4.78999 25.2695C4.67072 25.0841 4.56139 24.9113 4.41726 24.9063L4.43963 24.443H4.42969ZM5.17515 25.019C5.22457 25.1053 5.27849 25.1889 5.33666 25.2695L4.9689 25.5249C4.901 25.4375 4.83795 25.3464 4.78005 25.2519L5.16521 25.0015L5.17515 25.019ZM5.38139 25.4498L5.27703 25.9207L4.9689 25.5249L5.14781 25.3822L5.38139 25.4498ZM4.93412 25.3496C5.02848 24.9591 5.04033 24.5529 4.9689 24.1574L5.41369 24.0573C5.4928 24.5157 5.47587 24.9858 5.364 25.4373L4.93412 25.3496ZM4.9689 24.1574C4.95091 24.0426 4.90766 23.9333 4.8423 23.8375C4.77694 23.7417 4.69115 23.6619 4.5912 23.6039L4.79993 23.1932C4.96063 23.2808 5.09942 23.4041 5.20576 23.5538C5.31211 23.7035 5.38322 23.8757 5.41369 24.0573L4.9689 24.1574ZM4.5912 23.6039L4.41726 23.5213L4.48684 23.3284L4.70302 23.4086L4.5912 23.6039ZM4.47939 23.3184L4.61357 22.9703L5.03848 23.1381C4.99872 23.2408 4.95896 23.3434 4.90927 23.4787L4.47939 23.3184ZM4.61357 22.9703C4.68066 22.7974 4.75024 22.6196 4.8223 22.4117L5.25715 22.562C5.19006 22.7499 5.11303 22.9477 5.03848 23.1381L4.61357 22.9703ZM5.00866 22.269L5.39381 22.2013L5.2646 22.572L5.04593 22.4969L5.00866 22.269ZM5.08569 22.7248C4.64339 22.7999 3.66684 23.3535 2.95617 24.0948L2.62568 23.7717C3.39847 22.9627 4.49678 22.3541 5.00866 22.269L5.08569 22.7248ZM2.95617 24.0848C2.70877 24.335 2.50243 24.6233 2.34489 24.9389L1.92992 24.746C2.1079 24.3854 2.34289 24.0563 2.62568 23.7717L2.95617 24.0848ZM2.34489 24.9389C2.21082 25.2009 2.1613 25.4986 2.20326 25.7904L1.75101 25.8681C1.69395 25.4844 1.75646 25.0923 1.92992 24.746L2.34489 24.9389ZM2.20326 25.7904C2.26355 26.0818 2.41617 26.3455 2.63811 26.5418L2.32004 26.8749C2.02829 26.6115 1.82871 26.2601 1.75101 25.8731L2.20326 25.7904ZM2.63811 26.5418L2.70023 26.652L2.47908 26.7071L2.63811 26.5418ZM2.70023 26.652C2.75987 26.9025 2.81205 27.0928 2.86671 27.2757L2.43186 27.4134C2.37223 27.2231 2.31756 27.0127 2.25792 26.7622L2.70023 26.652ZM2.86671 27.2782C2.91732 27.4496 2.98044 27.617 3.05556 27.7791L2.64308 27.9769C2.55928 27.8005 2.48868 27.618 2.43186 27.4309L2.86671 27.2782ZM3.05556 27.7791C3.12451 27.9331 3.2247 28.0708 3.34967 28.1834C3.47464 28.296 3.62162 28.3809 3.78114 28.4328L3.64199 28.8711C3.42333 28.8007 3.22182 28.6847 3.05057 28.5307C2.87932 28.3766 2.74217 28.188 2.64805 27.9769L3.05556 27.7791ZM3.78114 28.4328C4.15769 28.5394 4.559 28.5137 4.91921 28.3602L5.08569 28.7809C4.62749 28.9723 4.11827 29.0005 3.64199 28.8611L3.78114 28.4328ZM4.91921 28.3602L5.31678 28.2049L5.21739 28.6131L4.99375 28.5655L4.91921 28.3602ZM5.22733 28.6106C5.11356 29.1412 5.04786 29.681 5.03102 30.2236L4.57381 30.206C4.59255 29.6424 4.66158 29.0816 4.78005 28.5305L5.22733 28.6106ZM5.03102 30.2236C5.01158 30.9014 5.03399 31.5798 5.09812 32.2548L4.6409 32.2874C4.57648 31.5939 4.55408 30.8972 4.57381 30.201L5.03102 30.2236ZM5.09812 32.2548C5.11551 32.4527 5.13539 32.6355 5.15775 32.8008L4.70551 32.8634C4.67817 32.6555 4.65581 32.4652 4.6409 32.2924L5.09812 32.2548ZM5.15775 32.8008C5.18509 32.9861 5.2149 33.174 5.25218 33.3643L4.80242 33.452C4.76514 33.2566 4.73284 33.0613 4.70551 32.8634L5.15775 32.8008ZM5.25218 33.3643V33.4871L5.03848 33.4069" fill="black"/>
<path fill-rule="evenodd" clip-rule="evenodd" d="M16.7058 19.5463L13.6917 20.0472L10.9335 21.267L8.59775 22.7472L6.38374 25.4722L5.1264 26.8122L3.91379 27.263L3.59076 26.4715L4.15234 25.655L4.27906 24.5029L4.65676 24.5179L5.06676 24.8961L4.95495 23.7215L4.50022 23.4134L4.51513 22.9676L3.43421 23.5812L2.45766 24.7434L2.25391 25.7752L2.67136 26.6068L3.06148 28.0294L3.85415 28.4076L4.68907 28.3675L5.47925 27.9042L4.95246 30.5991L5.47925 33.6046L4.89779 34.9897L2.99688 37.0459L3.33482 38.2807L4.23434 39.7083L5.93398 40.9155L6.83598 41.0383L7.82992 41.0733L7.20623 43.6606L9.50472 44.6098L12.3673 44.9905L13.3612 44.3443L13.4358 42.5911L14.5291 40.7678L14.6036 39.3251L17.2401 39.5155L19.6901 39.2875L17.2401 40.7678L17.6426 42.5561L19.1882 44.9855L20.694 45.6317L21.9017 45.1308L22.3986 44.1289L24.9233 42.1929L25.4202 42.6112L29.3761 42.7639L30.1663 42.1177L30.2408 40.9782L29.9775 40.4772L29.7886 37.4016L28.4716 34.7417L28.6978 33.5645L29.4879 33.9828L31.7243 36.0716L32.8152 36.1468L34.0228 35.6459L35.228 34.7342L35.8293 32.7606L39.3727 32.9885L41.4972 32.192L43.2366 30.559L44.4791 28.2047L44.7798 25.4321L44.5163 22.2062L43.833 19.3184L43.1547 18.4067L42.2129 18.1037L40.5555 19.927L39.0472 20.458L37.7302 18.2615L36.4107 17.0467L35.6951 16.5909L32.8326 14.1965L30.5341 12.9442L28.2356 12.7513L25.5594 13.2072L23.2236 14.0813L21.6035 15.4112L20.3238 16.9666L19.0043 17.3473L16.7058 19.5488V19.5463Z" fill="#FCFCFD" stroke="#1F1917" stroke-width="0.27" stroke-miterlimit="12.5"/>
<path fill-rule="evenodd" clip-rule="evenodd" d="M7.96359 26.4014C5.38182 29.437 5.96328 33.1163 6.67146 36.7229L5.52594 33.8075C5.38348 32.9159 5.24267 32.0243 5.10352 31.1326C5.14327 30.221 5.18386 29.3093 5.22527 28.3976L6.30867 25.7753L7.95116 23.3534L10.4832 21.2244L13.2439 20.0698L16.4991 19.644C15.4952 20.7978 14.4905 21.9533 13.4849 23.1104C11.0647 23.9019 9.6359 24.4328 7.96359 26.4014Z" fill="#F7F7F7"/>
<path fill-rule="evenodd" clip-rule="evenodd" d="M20.1277 17.152C18.5499 18.6476 17.2239 20.3918 16.2016 22.3165C15.3841 23.7942 14.4622 25.2193 13.6099 26.677C13.1701 27.4133 13.1328 28.0294 13.0036 28.8835L11.7363 27.3632L12.3401 25.5399L14.3902 21.8331L18.7312 17.5101L20.1277 17.152Z" fill="#F7F7F7"/>
<path fill-rule="evenodd" clip-rule="evenodd" d="M28.9825 12.7764C27.5438 13.3199 25.1558 13.5002 24.9918 15.1632C24.8725 16.3429 25.0788 16.9365 25.787 18.1863C24.0476 16.368 23.6102 16.6485 20.2383 17.2145L21.6845 15.1482L24.219 13.5678L27.4742 12.839L28.9825 12.7764Z" fill="#F7F7F7"/>
<path fill-rule="evenodd" clip-rule="evenodd" d="M32.9506 35.2727C33.4301 35.5707 33.4202 35.7736 33.3382 35.9915L34.4713 35.5332L35.2043 34.5313C35.3865 34.0571 35.5688 33.5854 35.751 33.1162L35.0527 32.5878L32.0113 32.9885C31.9367 33.1964 31.8622 33.4018 31.7852 33.6096C31.8075 33.9027 31.8299 34.1957 31.8498 34.4888L32.143 35.0122L32.5952 35.2401L32.9506 35.2727Z" fill="#C4C4C4"/>
<path fill-rule="evenodd" clip-rule="evenodd" d="M32.6662 30.033C31.1429 30.4763 31.1529 30.599 30.7031 32.1218C31.1814 31.2766 31.8548 30.5601 32.6662 30.033Z" fill="#C4C4C4"/>
<path fill-rule="evenodd" clip-rule="evenodd" d="M42.8033 18.6198C42.5325 18.7475 42.2691 18.8076 42.0976 19.0581C41.7802 19.6063 41.3424 20.0741 40.8179 20.4256C40.5235 20.6036 40.2079 20.7433 39.8787 20.8413C39.6103 20.924 39.4513 20.8413 39.2227 21.0141L39.6277 21.0843H40.5198L41.6205 20.4005C41.8367 20.1726 42.0529 19.9447 42.2666 19.7143L42.8033 18.6198Z" fill="#C4C4C4"/>
<path fill-rule="evenodd" clip-rule="evenodd" d="M18.5189 22.031C17.9201 23.6865 17.3958 25.1041 16.4863 26.6019C17.5341 25.5011 18.3917 24.2312 19.0234 22.845C19.2719 22.2889 19.3315 21.6377 20.0521 21.8807C20.0869 22.4342 20.2012 22.9902 20.2335 23.5437C20.6236 20.7261 21.7244 19.5489 24.2788 18.4569L22.112 18.7074L20.072 19.1632L19.078 20.6309L18.5264 22.0335" fill="#C4C4C4"/>
<path fill-rule="evenodd" clip-rule="evenodd" d="M23.4685 21.9659C24.0177 24.5807 24.8128 27.0903 25.1558 29.7452C25.3794 31.4708 25.4042 32.2999 24.5445 33.7901C23.7191 33.7247 22.8895 33.8427 22.1143 34.1357C18.4814 35.3329 16.3991 37.0937 13.959 33.5396L16.2997 34.6492L17.9671 34.3186L20.9116 32.5904L23.2076 32.1346L23.9531 29.0038C23.7692 27.6213 23.5862 26.2404 23.4039 24.8612L23.3368 22.9051C23.3816 22.5895 23.4238 22.274 23.4685 21.9584" fill="#C4C4C4"/>
<path fill-rule="evenodd" clip-rule="evenodd" d="M29.7129 38.143C29.4073 40.2669 30.4136 41.399 29.9962 41.9951C29.8794 42.1629 29.7204 42.4509 29.5414 42.531C28.9028 42.8141 28.0282 42.4785 27.966 42.6438H25.8614L25.0215 42.2856L26.3161 40.7528L27.5809 37.9802C27.8509 37.0451 28.1209 36.1101 28.391 35.175H28.8109C29.114 36.1652 29.4164 37.1545 29.7179 38.143" fill="#C4C4C4"/>
<path fill-rule="evenodd" clip-rule="evenodd" d="M26.1785 31.9667C26.35 32.9334 26.6457 33.1614 27.0955 34.0956C26.7966 35.6965 26.3413 37.2637 25.7362 38.7742C25.5436 39.2718 25.246 39.7213 24.8641 40.0916C24.1486 40.8178 23.3848 41.4939 22.578 42.1153C21.9841 42.5787 21.5691 42.3457 20.8386 42.2405C20.5255 42.8116 20.441 43.1272 19.867 43.4152C18.9849 43.861 18.1972 42.9017 17.5039 42.3407C18.0009 43.1255 18.4978 43.9111 18.9948 44.6975L20.031 45.6768L20.9057 45.8071L22.0711 45.0908C22.2748 44.6975 22.4811 44.3068 22.6848 43.9161L23.9794 42.9368L25.5648 41.5668L26.5587 40.1317L27.4632 38.436C27.8525 37.2672 28.241 36.0934 28.6286 34.9146L28.7255 33.5771L27.2694 32.9234C26.9141 32.5878 26.5239 32.3048 26.1611 31.9667" fill="#C4C4C4"/>
<path fill-rule="evenodd" clip-rule="evenodd" d="M14.5691 38.7616C16.2041 38.7616 17.9286 38.6714 19.4245 37.9801C19.8288 37.3668 20.2835 36.7887 20.7837 36.252C20.3652 36.9922 20.1108 37.815 20.0382 38.6639L19.5413 39.3827L15.8512 39.4804L14.661 39.3501L14.5293 39.2199C14.5293 39.0671 14.5517 38.9143 14.5616 38.7616" fill="#C4C4C4"/>
<path fill-rule="evenodd" clip-rule="evenodd" d="M14.3436 37.6222L14.2169 36.4625C13.9386 38.1556 14.0057 39.2902 13.223 40.808C12.658 41.5056 11.9378 42.0591 11.1208 42.4235C11.1881 42.7453 11.2048 43.0757 11.1705 43.4028C11.0264 44.4998 8.84963 44.0164 7.95508 43.9713L12.2638 45.0909L13.2354 44.6976C13.3414 44.0682 13.4491 43.4378 13.5584 42.8067L14.4629 41.1111L14.6269 40.0666C14.5275 39.2526 14.4306 38.4361 14.3337 37.6222" fill="#C4C4C4"/>
<path fill-rule="evenodd" clip-rule="evenodd" d="M11.9286 28.0646C11.8814 28.8886 11.8292 29.2317 12.1771 29.9581C12.6343 30.8822 13.1983 31.7513 13.6953 32.663C13.75 32.0544 13.8022 31.4458 13.8568 30.8372L11.9286 28.0646Z" fill="#C4C4C4"/>
<path fill-rule="evenodd" clip-rule="evenodd" d="M5.27311 34.2909C5.13395 34.5914 4.9948 34.892 4.85316 35.1925C5.16187 36.3588 5.65615 37.4668 6.31675 38.4736C6.22965 38.8588 6.05148 39.2171 5.79741 39.518C5.17738 39.424 4.55077 39.3813 3.92383 39.3903L6.09311 41.0859L7.15911 40.8905C7.51693 40.5324 7.87227 40.1717 8.2276 39.8135L6.70935 37.4241C6.2306 36.3772 5.75185 35.3328 5.27311 34.2909Z" fill="#C4C4C4"/>
<path fill-rule="evenodd" clip-rule="evenodd" d="M42.8084 18.1864C43.2482 20.1901 43.8148 22.0259 43.7626 24.0697C43.698 26.5743 43.2134 29.7451 40.9075 31.2579C38.3257 32.951 35.2967 32.1495 32.459 31.4232L35.9204 32.8583L39.1507 33.0236L41.3523 32.3699L43.0668 30.9348L44.3614 28.1948L44.8584 25.0315L44.4782 21.9333C44.2397 20.9114 44.002 19.8895 43.7651 18.8677L42.8183 18.1864" fill="#C4C4C4"/>
<path fill-rule="evenodd" clip-rule="evenodd" d="M4.28225 24.1373C3.1094 24.9062 2.6497 25.2418 2.77891 26.6669L3.12928 27.9493L3.62625 28.2874L4.24001 28.4928L5.35074 28.2273C5.53959 27.6337 5.73092 27.0401 5.91977 26.4465L4.3394 27.2279H3.97662L3.5691 26.5943L4.06607 25.8579L4.31456 24.4603L4.6525 24.563L5.06001 24.8861C5.04013 24.6357 5.02274 24.3852 5.00286 24.1498C4.90844 23.9945 4.8165 23.8367 4.72456 23.6789L4.44625 23.4435C4.3891 23.6739 4.32947 23.9043 4.27231 24.1373" fill="#C4C4C4"/>
<path fill-rule="evenodd" clip-rule="evenodd" d="M30.5762 12.9066C31.6173 13.8809 32.8921 14.7275 33.7245 15.9121C34.0475 16.373 34.4053 16.6084 33.7245 17.2596C34.2302 17.0856 34.772 17.0459 35.2974 17.1444C36.351 17.2721 37.34 18.7824 37.4021 19.8644C37.3897 19.9671 37.1089 20.195 36.2938 20.4229C36.2789 20.4555 35.8341 20.3628 35.8466 20.3929C35.931 20.6258 36.0429 20.6609 36.2168 20.7711C36.2369 21.0993 36.3213 21.4202 36.4653 21.7153C36.9752 21.7093 37.4842 21.7589 37.9835 21.8631C38.1139 22.1245 38.1592 22.4208 38.1127 22.7096L38.6942 22.6119C38.6395 22.1661 38.5874 21.7203 38.5327 21.277C38.7041 20.9814 38.8781 20.6884 39.0495 20.3954C38.801 19.8293 38.5526 19.2633 38.3041 18.6997L36.8803 17.3297H36.7436L35.1409 16.3404C34.2712 15.6224 33.4006 14.9044 32.5293 14.1865L30.5911 12.9091" fill="#C4C4C4"/>
<path fill-rule="evenodd" clip-rule="evenodd" d="M32.3295 20.9439C32.262 21.0734 32.1785 21.1937 32.081 21.302C32.4779 21.6276 32.7595 22.074 32.8836 22.5743L31.4126 23.3107L30.1701 24.5129C29.6235 24.2174 29.4893 23.9894 29.2234 23.4234C28.9526 23.5322 28.6555 23.5557 28.3711 23.491C28.5231 23.493 28.6715 23.4446 28.7935 23.3533L29.5887 22.5192L30.9877 21.4523L31.9021 21.1517C32.0164 21.1041 32.2127 20.9864 32.3295 20.9388" fill="#C4C4C4"/>
<path fill-rule="evenodd" clip-rule="evenodd" d="M33.6805 22.4166C32.1225 23.2632 30.6316 24.1122 29.834 25.7177C29.834 23.6789 31.8641 22.7823 33.6805 22.4166Z" fill="#C4C4C4"/>
<path fill-rule="evenodd" clip-rule="evenodd" d="M29.5236 18.4067C28.9103 18.8591 28.4183 19.458 28.0917 20.1497C27.765 20.8413 27.6141 21.6039 27.6525 22.369C27.2748 21.0165 27.404 19.7366 28.5669 18.7999L29.1509 18.5119L29.5236 18.4042" fill="#C4C4C4"/>
<path fill-rule="evenodd" clip-rule="evenodd" d="M31.7343 30.4789C31.9828 30.3487 32.4077 30.1684 32.6487 30.0356C32.4002 30.0782 31.9604 30.1684 31.7144 30.2109C31.0584 30.3236 30.9814 30.4814 30.8795 31.1351C30.8298 31.4407 30.7652 31.8214 30.7155 32.137C30.8447 31.7888 30.9988 31.3856 31.1504 31.055C31.3019 30.7244 31.3988 30.6718 31.7343 30.4864V30.4789ZM19.5436 13.6981C19.9328 13.0512 20.4883 12.5225 21.1513 12.1678C20.0729 12.4183 19.879 12.6186 19.5436 13.6856V13.6981ZM19.3821 15.4037C20.2841 13.5729 20.9699 12.8992 22.8609 12C20.714 12.5285 20.0853 12.9042 19.3821 15.4037ZM0.022548 24.9337C0.153239 24.1926 0.479389 23.5005 0.966794 22.9301C0.057336 23.5612 -0.0619372 23.8242 0.022548 24.9337ZM20.2766 40.2794L20.1946 39.6132C20.1487 39.2358 20.1437 38.8545 20.1797 38.4761C20.2095 38.0829 20.2394 37.6897 20.2717 37.2989C20.1574 37.6972 19.9312 38.0954 19.8169 38.4961C19.7722 38.6539 19.7349 38.7842 19.7126 38.9044C18.0434 39.2527 16.3234 39.2748 14.6459 38.9695C14.5366 38.3383 14.3974 37.6796 14.2956 37.2163C14.2608 37.7448 14.2956 39.22 14.2807 40.0264C14.2807 40.6601 14.2508 40.878 13.9278 41.4165C13.6115 41.8886 13.3251 42.3805 13.0705 42.8892C13.124 43.3601 13.0877 43.8371 12.9637 44.2943C12.7152 45.1433 10.3471 44.4871 9.71846 44.3118C8.94567 44.0989 7.34791 43.7833 7.74797 42.7439C8.12278 41.7247 8.3731 40.6633 8.49343 39.5831C7.07457 37.5269 5.76008 34.7067 5.5116 32.2096C5.3153 30.2685 5.43457 29.0738 5.84954 27.8892C6.51051 26.0082 7.43239 24.3827 8.91585 23.0703C10.9037 21.3021 12.7798 20.5933 15.7045 20.145C15.0013 20.9389 14.3055 21.7779 13.5476 22.6771C12.8582 23.5412 12.2828 24.4917 11.8356 25.5048C11.1622 26.8798 11.1771 27.4033 12.0691 28.613C12.8394 29.6524 13.2544 30.1158 13.5899 31.1401C13.3229 31.7231 13.1637 32.3504 13.1202 32.991C14.062 34.0279 14.7602 34.7443 15.6747 34.9596C16.4931 35.1953 17.37 35.1057 18.1247 34.7092C19.9064 33.79 21.5563 32.6028 23.5666 32.5552C24.4984 30.2485 24.404 28.3225 23.9567 26.0934C23.6775 24.6049 23.5032 23.0984 23.4349 21.5851C23.0517 23.0879 22.9941 24.6563 23.2659 26.1835C23.6038 28.1021 23.8672 30.2235 22.928 31.9116C21.109 32.0518 19.551 33.1638 17.9135 34.0229C17.2711 34.3521 16.5265 34.415 15.8387 34.1982C15.1628 34.0104 14.7056 33.5596 13.975 32.7105C13.975 31.8615 14.1564 31.4582 14.5441 30.7068C15.1653 29.4696 15.8536 28.3175 16.609 27.1002C15.6846 28.2047 14.8099 29.144 14.0819 30.2836C13.8036 29.4846 13.406 29.0788 12.7475 28.1797C12.089 27.2806 12.0368 26.9274 12.5189 25.903C13.001 24.8786 13.411 23.9845 14.2334 23.0904C15.6573 21.5425 16.9668 19.8194 18.5149 18.2941C19.3572 17.4675 19.7001 17.4951 20.8208 17.3248C21.8321 17.1695 22.8087 16.9741 23.8523 16.7337C22.8584 16.8264 21.8893 16.8614 20.9177 16.8865H20.8879C21.8446 15.6567 22.3987 14.9705 23.9517 14.2892C27.7759 12.6161 30.2061 12.4358 33.2078 14.9805C33.9881 15.6392 34.6664 16.2804 35.4566 16.8489C35.1611 16.8715 34.871 16.9408 34.5969 17.0543C35.0204 17.0047 35.4493 17.0301 35.8641 17.1294C35.9809 17.2046 36.1002 17.2797 36.222 17.3523C36.7786 17.6829 37.0941 17.8658 37.4644 18.3942C37.8561 18.9396 38.198 19.5197 38.4857 20.1274C38.2943 20.0598 38.1353 19.9997 37.9887 19.9571C37.88 19.9082 37.7642 19.8769 37.6458 19.8644C37.4138 19.8428 37.1811 19.8972 36.9823 20.0197L36.96 20.0322C36.6081 20.2027 36.2367 20.3289 35.8542 20.4079C36.0813 20.4693 36.3204 20.4693 36.5475 20.4079C36.5699 20.3982 36.5932 20.3906 36.6171 20.3854C36.526 20.5423 36.4758 20.7199 36.471 20.9016C36.4663 21.0833 36.5071 21.2632 36.5897 21.4248C36.6172 21.4904 36.6559 21.5506 36.704 21.6026C36.5574 21.6552 36.4083 21.7178 36.2543 21.7855C36.9322 21.6726 37.6229 21.6608 38.3043 21.7504C38.3515 21.9708 38.3962 22.2037 38.4409 22.4442L38.1924 22.4642H38.1701C37.8421 22.2137 37.4743 22.2438 36.9749 22.359C35.4517 22.7097 35.8095 23.5712 35.1087 24.8636C35.8368 23.967 35.7821 23.0302 36.9674 22.7472C37.176 22.6701 37.3962 22.6294 37.6184 22.627C37.2822 22.7849 37.0164 23.0635 36.873 23.4084C36.5475 24.3351 36.7487 25.1166 36.3934 25.9807C36.8357 25.2067 36.8631 24.4529 37.2581 23.6389C37.3998 23.3458 37.9266 22.8875 38.2521 22.8725H38.518C38.6017 23.351 38.6341 23.8371 38.6149 24.3226C38.5468 25.118 38.4214 25.9074 38.2397 26.6845C38.6397 26.166 38.8236 25.064 39 24.2901C39.1642 23.4162 39.1558 22.5183 38.9752 21.6477C38.7565 20.458 39.9691 20.6459 40.6773 20.0899C41.1942 19.6791 41.552 19.0204 42.0266 18.5545C42.5012 18.0887 43.2417 18.7724 43.428 19.2233C44.2307 21.1844 44.5984 24.27 44.3847 26.2487C44.1362 28.4677 43.0851 30.8897 41.1544 31.9817C38.6695 33.3742 35.7623 32.5227 33.3022 31.6886C32.8227 31.5036 32.3685 31.2579 31.9505 30.9573C32.1045 31.5307 32.1105 32.1342 31.9679 32.7105C31.702 33.6147 31.2746 35.0924 32.4897 35.3654C32.9544 35.4681 33.1631 35.4531 33.8166 35.1149C33.4382 35.2163 33.0411 35.2249 32.6587 35.14C32.5206 35.1179 32.3914 35.0571 32.2859 34.9645C32.1805 34.872 32.103 34.7514 32.0623 34.6165C32.2566 34.7219 32.4677 34.7922 32.686 34.8244C33.588 35.0448 34.4478 34.6065 34.6143 33.9753C34.6769 33.6119 34.7743 33.2554 34.905 32.9109C35.0913 32.971 35.2827 33.0236 35.4815 33.0712L35.146 34.1732C34.8553 35.1275 33.7272 35.8964 32.7282 35.8763C31.8064 35.8613 31.2224 35.2777 30.5863 34.7092C30.149 34.316 29.7265 33.9378 29.3066 33.5671C28.1772 33.2307 27.1168 32.6928 26.1757 31.9792C26.9211 32.8783 27.4479 33.3742 28.504 33.8201C28.3499 35.403 27.8057 36.5551 27.3411 38.0779C27.1299 38.7616 25.47 41.5017 25.0103 41.7696C24.6823 41.96 22.6273 43.7032 22.2421 43.9336C21.9539 44.3193 21.7004 44.8503 21.2681 45.0807C19.9486 45.7845 19.1013 44.4395 18.3931 43.3025C18.0676 42.784 17.1706 41.2988 17.9533 40.8755C18.6099 40.518 19.247 40.125 19.8617 39.6983C19.9735 39.9012 20.1623 40.0991 20.2866 40.302L20.2766 40.2794ZM24.8612 42.6888C24.1952 43.2323 23.0721 44.1916 22.8534 44.3168C22.4583 44.9104 22.4111 45.2761 21.7775 45.6217C19.8964 46.6486 18.9 45.4589 17.7868 43.7282C17.255 42.9042 16.0946 41.0233 17.3271 40.3846C17.8439 40.1166 18.239 39.9137 18.6292 39.6833C17.3417 39.8531 16.037 39.8413 14.7528 39.6483C14.7751 39.8085 14.7975 39.9613 14.8124 40.1016C14.8994 40.8254 14.9267 41.0483 14.5366 41.6344C14.2358 42.044 13.9854 42.4889 13.7911 42.9593C13.8616 43.5109 13.8133 44.0713 13.6495 44.6023C13.2594 46.0675 10.541 45.2661 9.42525 44.963C8.09337 44.5998 6.19493 44.2617 6.97021 42.5361C7.14779 42.1446 7.29323 41.7392 7.40506 41.3238C6.24215 41.8448 4.6245 40.7428 3.85171 39.9638C3.18676 39.3048 2.7428 38.4527 2.58195 37.5269C2.46516 36.8156 2.58195 36.8206 3.07892 36.3171L4.45802 34.9396L5.01711 33.4118C4.94838 33.0399 4.89945 32.6645 4.87051 32.2872C4.73632 30.7194 4.78105 29.6048 5.00469 28.5779C4.19214 28.896 3.26529 28.7482 2.85032 27.8817C2.68839 27.5074 2.56596 27.1171 2.48504 26.717C0.67855 24.9638 4.06541 22.6596 5.0519 22.4867C4.94008 22.8098 4.81584 23.1054 4.7065 23.3984C5.37742 23.7491 5.29542 24.7459 5.15378 25.3871C4.90529 25.079 4.77857 24.6783 4.42323 24.6607C4.37353 25.3871 4.38099 26.1885 3.81941 26.6143C3.9859 27.0626 3.97596 27.0627 4.45056 26.8798C5.12148 26.6294 5.62839 26.0383 6.1353 25.4722C6.68548 24.3743 7.43765 23.3918 8.35179 22.5769C10.7223 20.4555 12.9662 19.7643 16.5792 19.1807C17.0612 18.6798 17.5582 18.1788 18.0924 17.7105C18.8155 17.0668 19.2827 16.9341 19.9685 16.899C21.0991 15.3737 21.9887 14.3117 23.8325 13.5278C27.6989 11.8873 30.3651 11.8097 33.4687 14.3894C34.4925 15.2409 35.3672 16.1426 36.4953 16.8489C37.0271 17.1433 37.5039 17.529 37.9042 17.9885C38.4613 18.6194 38.9007 19.3466 39.2013 20.1349C39.6401 19.9893 40.0528 19.7737 40.4239 19.4963C40.8985 19.088 41.2016 18.4018 41.6414 17.9534C42.2254 17.3573 43.5573 18.0762 43.8505 18.6447C44.8444 20.5808 45.2644 24.1548 45.0507 26.2662C44.7873 28.886 43.7163 31.363 41.4253 32.5953C39.8672 33.4343 37.7775 33.512 35.9884 33.1714C35.8716 33.5546 35.7573 33.9403 35.6405 34.3235C35.2926 35.4756 33.9359 36.4198 32.7481 36.4749C31.6101 36.53 30.9913 35.9364 30.2459 35.2226L29.073 34.0705C29.0507 34.321 29.0184 34.5714 28.9761 34.8219C29.2842 35.4355 29.4308 35.974 29.6967 36.6077C29.9794 37.2019 30.1336 37.8498 30.149 38.5087L30.2011 40.4948C30.3275 40.6746 30.4169 40.8779 30.4643 41.0929C30.5116 41.308 30.516 41.5304 30.477 41.7471C30.3875 42.9994 29.6942 43.1321 28.5413 43.1271C28.1586 43.1271 26.7074 43.1271 26.3397 43.1046C25.5942 43.057 25.1146 42.9944 24.8612 42.6888ZM28.75 35.7937C28.5164 36.6302 28.2058 37.4167 27.92 38.3208C27.6517 39.1749 26.2701 41.6569 25.4576 42.2605C25.6166 42.3783 25.9073 42.4259 26.4242 42.4709C26.7894 42.501 28.2331 42.5085 28.5959 42.5135C29.3936 42.5285 29.6942 42.4684 29.7762 41.5517C29.8064 41.3909 29.8026 41.2254 29.7649 41.0661C29.7272 40.9068 29.6566 40.7574 29.5576 40.6276C29.5377 39.9263 29.5178 39.2275 29.5004 38.5262C29.4849 37.9482 29.3468 37.3803 29.0954 36.8606C28.9612 36.5116 28.8459 36.1554 28.75 35.7937ZM4.45305 24.3176C4.63196 24.2976 4.74129 24.3902 4.88045 24.5305C4.8556 24.1974 4.79348 23.9494 4.56238 23.8142C4.54499 23.8693 4.53008 23.9219 4.51517 23.977C4.4874 24.0891 4.46665 24.2029 4.45305 24.3176ZM5.5762 26.7245C5.44948 27.0627 5.32772 27.4083 5.2159 27.7664C5.19851 27.824 5.17863 27.8842 5.16123 27.9443C4.48038 28.2348 3.58583 28.4201 3.24292 27.6938C3.08152 27.3272 2.95344 26.9466 2.86026 26.5567C1.73958 25.3921 3.41686 23.8442 4.32881 23.2907C4.21362 23.5267 4.11643 23.7712 4.03808 24.0221C3.76226 24.9888 4.16481 25.8529 3.29262 26.5542C3.70262 27.3857 3.68523 27.7189 4.63693 27.3331C4.98463 27.1905 5.30309 26.9841 5.5762 26.7245ZM5.32772 34.6065C5.86565 36.4009 6.66452 38.105 7.69827 39.6633V39.6883C7.653 39.9397 7.55747 40.1791 7.41748 40.3921C6.72172 41.3313 4.94754 39.9538 4.43566 39.4253C3.90556 38.9148 3.54679 38.2503 3.40941 37.5244C3.3448 37.056 3.40941 37.046 3.73244 36.7154L5.03948 35.3779C5.12396 35.1224 5.21839 34.8645 5.31529 34.6065H5.32772ZM38.3068 20.1625C38.4078 20.2628 38.4873 20.383 38.5403 20.5156C38.5703 20.4862 38.6028 20.4594 38.6372 20.4355C38.595 20.3428 38.5552 20.2501 38.513 20.16L38.3068 20.1625ZM29.7713 23.3984C29.6835 23.213 29.6377 23.0103 29.6371 22.8048C29.3129 23.0804 28.9504 23.3065 28.5611 23.4761C29.0805 23.0077 29.7887 21.9032 30.3005 21.5525C30.8845 21.1568 31.6722 21.2345 32.3505 20.9164C32.0971 21.1319 31.8184 21.3153 31.5206 21.4624C31.8646 21.5898 32.1455 21.8478 32.3033 22.1812C32.3704 22.3232 32.4132 22.4756 32.4301 22.632C32.8432 22.4914 33.2762 22.4187 33.7122 22.4166C32.2434 22.8546 30.9305 23.7093 29.9303 24.8786C30.0388 24.5781 30.1921 24.296 30.385 24.0421C30.1156 23.9008 29.8993 23.6748 29.7688 23.3984H29.7713ZM23.502 18.4694C22.7984 18.748 22.078 18.9814 21.3451 19.1682C20.6817 20.0473 20.2766 20.5031 20.125 21.6728C19.9437 20.5131 19.9064 20.2977 20.4207 19.4311C20.241 19.5263 20.074 19.6441 19.9238 19.7818C19.2081 20.3979 18.2738 22.8224 17.9011 23.689C18.1496 22.647 18.8776 20.0398 19.6405 19.2784C20.1375 18.7774 20.2567 18.7774 20.9649 18.7223C21.8073 18.6422 22.6472 18.5545 23.4895 18.4594L23.502 18.4694ZM39.087 20.999C39.6908 21.0566 40.0387 21.1493 40.5779 20.8788C41.5576 20.3802 42.3444 19.5667 42.8143 18.5671C42.5211 19.7417 41.9272 20.741 40.6947 21.1844C40.0909 21.3998 39.7008 21.1844 39.0845 20.999H39.087ZM27.4628 21.1117C27.689 20.0949 28.094 19.108 29.6644 18.3567C27.5821 18.8776 27.1945 19.7643 27.4628 21.1117ZM0.497156 26.5993C0.676066 24.5606 1.06867 23.6814 2.50492 22.1486C0.693459 23.4285 0.24867 24.0221 0.497156 26.5993Z" fill="black"/>
<path fill-rule="evenodd" clip-rule="evenodd" d="M30.042 23.7265C29.9896 23.5872 29.9913 23.4331 30.0468 23.2951C30.1023 23.1571 30.2074 23.0452 30.3411 22.9819C30.4749 22.9186 30.6274 22.9086 30.7682 22.9537C30.909 22.9989 31.0277 23.096 31.1005 23.2255C31.1149 23.2524 31.1258 23.281 31.1328 23.3107C30.8518 23.5203 30.6009 23.7681 30.3874 24.047C30.2378 23.9889 30.1154 23.8763 30.0444 23.7315" fill="#F7F7F7"/>
<path fill-rule="evenodd" clip-rule="evenodd" d="M36.5549 21.1867C36.5595 21.1294 36.5754 21.0736 36.6016 21.0225C36.6278 20.9714 36.6638 20.9261 36.7074 20.8891C36.7511 20.852 36.8016 20.8241 36.856 20.8068C36.9104 20.7896 36.9677 20.7833 37.0245 20.7885C37.1395 20.7999 37.2454 20.8565 37.3194 20.946C37.3933 21.0356 37.4293 21.1508 37.4196 21.2669C37.4151 21.317 37.4025 21.3661 37.3823 21.4121C37.1541 21.4532 36.9303 21.5161 36.7139 21.6C36.6083 21.4871 36.5511 21.3368 36.5549 21.1817" fill="#F7F7F7"/>
</svg>
