<svg width="160" height="72" viewBox="0 0 160 72" fill="none" xmlns="http://www.w3.org/2000/svg">
<g clip-path="url(#clip0_1298:23126)">
<path fill-rule="evenodd" clip-rule="evenodd" d="M87.8633 56.532V72.0049H91.6604V64.8938L92.4441 64.9083V72.0049H96.2845V56.532H92.4441V62.2726H91.6604V56.532H87.8633Z" fill="black" stroke="#FDFDFD"/>
<path fill-rule="evenodd" clip-rule="evenodd" d="M101.012 56.532H97.3125V72.0049H101.012V56.532Z" fill="black" stroke="#FDFDFD"/>
<path fill-rule="evenodd" clip-rule="evenodd" d="M101.617 56.532L104.539 72.0049H108.951L111.873 56.532H107.943L106.974 63.1528C106.894 63.4063 106.621 63.4063 106.573 63.1528L105.606 56.532H101.617Z" fill="black" stroke="#FDFDFD"/>
<path fill-rule="evenodd" clip-rule="evenodd" d="M120.001 56.532H112.658V72.0049H120.001V67.9475L115.918 67.913V66.1735H117.863V62.1451H115.918V60.5893H120.001V56.532Z" fill="black" stroke="#FDFDFD"/>
<path fill-rule="evenodd" clip-rule="evenodd" d="M80.3517 9.60878C79.7333 7.91506 58.4607 -0.35773 58.1888 0.550505C54.2826 1.56946 52.6928 6.07292 50.0074 8.92519L44.0381 8.58581C41.4097 11.9668 40.0276 15.4216 40.9701 19.0161C44.3389 23.5821 48.25 27.467 50.6876 33.202C50.8801 35.905 62.3838 33.4852 64.8495 32.9501C61.4806 35.3619 58.5482 39.1007 59.8083 49.8663C60.9593 54.921 61.7461 60.567 71.9521 66.2852C73.2956 67.0385 76.0757 67.9067 77.7946 68.5397C79.4381 69.2939 81.3607 69.6044 86.7837 67.9452C89.9216 66.5925 93.3096 65.7789 96.3809 64.4278L92.6912 64.6011C87.6083 64.711 83.6844 65.0905 82.4741 63.6704L77.7946 55.5861L80.5217 50.2908C84.2964 50.6775 85.5493 53.7408 88.8756 54.905L92.7971 51.9997C104.187 58.724 108.717 47.7378 110.016 39.1809C109.877 35.6996 102.476 40.2729 102.928 38.645C103.102 34.9029 100.052 30.0063 98.0813 26.1913L100.362 17.3657C101.396 16.4438 95.5716 6.62572 90.8167 5.40137C86.6458 4.32706 80.3525 9.61279 80.3525 9.61279L80.3517 9.60878Z" fill="#FDFDFD"/>
<path fill-rule="evenodd" clip-rule="evenodd" d="M99.0612 28.367C99.1021 29.3153 99.0972 30.4683 99.1887 31.1872C99.1726 31.736 98.762 31.756 98.4219 31.8707L100.638 32.6827C101.078 33.4233 101.431 34.1638 101.788 34.9044C102.203 36.7264 101.894 36.7786 101.618 36.9102C100.816 36.9182 100.014 36.9198 99.2633 36.7601C99.5986 36.9375 99.6724 37.0666 99.7076 37.2929C99.7734 37.7109 99.5039 38.2822 99.0612 38.8326C99.7165 39.1968 100.912 39.5547 101.8 39.89L102.812 37.6363C102.353 34.3251 100.967 31.273 99.0612 28.3638V28.367Z" fill="#F7F7F7"/>
<path fill-rule="evenodd" clip-rule="evenodd" d="M103.201 39.4752C104.43 39.9879 106.128 39.8371 108.483 38.6239C108.833 38.3744 109.159 38.5237 108.532 38.9328C105.441 41.7033 103.963 40.3169 103.201 39.4752Z" fill="#F7F7F7"/>
<path fill-rule="evenodd" clip-rule="evenodd" d="M108.715 38.259C109.08 38.9587 108.859 39.5275 108.736 40.118C108.355 43.1227 107.419 45.4936 105.582 47.9808C99.608 57.5871 93.5754 51.5761 88.7684 47.6639L86.7792 52.6488C86.6741 53.0861 86.2345 53.4262 89.3411 54.7942L92.5054 52.5581C104.574 61.7432 113.126 39.7016 108.714 38.259H108.715Z" fill="#F7F7F7"/>
<path fill-rule="evenodd" clip-rule="evenodd" d="M90.2245 46.844C89.4103 46.9017 86.9872 47.7265 86.8789 48.2039L87.9938 46.5415L90.2245 46.844Z" fill="#F7F7F7"/>
<path fill-rule="evenodd" clip-rule="evenodd" d="M88.6426 36.6566C88.7918 36.6566 89.508 36.8492 89.431 36.8059C89.3212 36.7449 89.4182 37.8104 89.6436 38.3656L88.7701 40.2671C90.4441 38.3367 93.0902 38.4651 95.5471 38.2163L94.3792 37.4902C94.5821 36.8107 94.3423 36.2731 94.23 35.6954L88.6426 36.6566Z" fill="#F7F7F7"/>
<path fill-rule="evenodd" clip-rule="evenodd" d="M92.753 30.9313C90.9571 31.4817 89.2382 32.3819 88.084 34.3011C88.9663 31.1399 89.1444 31.2602 89.4283 31.1038C90.6595 30.5526 91.6678 30.896 92.753 30.9329V30.9313Z" fill="#F7F7F7"/>
<path fill-rule="evenodd" clip-rule="evenodd" d="M83.1651 67.978C80.9939 70.3746 76.1492 67.7967 72.1258 66.4825C61.9023 59.9796 59.905 53.8579 59.7663 47.8525C59.2401 39.2499 61.8814 34.2514 65.2205 33.068C63.01 37.3308 61.9793 44.9825 63.0043 50.6727C63.8321 53.8378 63.849 59.1773 69.1444 62.0352C71.7368 63.4954 71.035 64.6323 72.7884 65.9995C74.7134 67.4983 80.0666 68.9232 83.1643 67.978H83.1651Z" fill="#C4C4C4"/>
<path fill-rule="evenodd" clip-rule="evenodd" d="M86.4076 28.2219C82.7316 23.0068 77.5612 21.0499 71.7291 20.8365C72.8978 20.4554 74.0657 20.2572 75.2343 19.6932C75.5207 19.3923 75.4268 18.8636 75.3193 18.3292C69.7046 16.8634 66.1649 15.0517 61.6836 13.3724L73.7873 16.2745C81.9615 16.5858 81.2597 18.6012 86.4076 28.2219Z" fill="#C4C4C4"/>
<path fill-rule="evenodd" clip-rule="evenodd" d="M90.3427 25.7073C87.626 21.8281 84.9911 17.1224 81.4145 14.1257C72.7807 10.228 64.2399 7.33243 54.2305 4.69839L57.4244 0.588867C68.0459 3.0143 78.0224 7.07247 86.9586 13.7623C88.4706 17.5862 89.4788 21.4157 90.3419 25.7065L90.3427 25.7073Z" fill="#C4C4C4"/>
<path fill-rule="evenodd" clip-rule="evenodd" d="M95.8213 18.8555C95.8213 18.8555 94.2973 15.4376 93.5562 14.1322C91.8365 12.2259 90.9662 8.67639 87.4434 6.99792C88.5575 7.2988 89.3203 6.94016 91.595 9.00374L95.1796 15.7986L95.8213 18.8555Z" fill="#C4C4C4"/>
<path fill-rule="evenodd" clip-rule="evenodd" d="M97.7154 24.7736C98.0668 21.8122 98.7333 17.0624 97.9681 15.1858C95.8385 12.3279 93.6937 9.37289 91.5513 6.63053C91.196 6.29997 90.9401 5.85067 90.6602 5.50085C93.6769 6.28232 96.8251 8.38041 101.071 16.6636L97.7154 24.7736Z" fill="#C4C4C4"/>
<path fill-rule="evenodd" clip-rule="evenodd" d="M85.0327 25.1233C83.8296 24.1774 82.7604 20.8317 80.942 20.136C79.2576 19.9948 78.6384 19.4645 76.4222 19.9162C77.2243 19.515 77.9855 18.9983 78.8397 18.7223C79.418 18.5851 79.9626 18.7368 80.5129 18.813C80.6492 18.7488 80.7391 18.6686 80.7054 18.5474C78.4723 17.1706 73.8963 17.1482 70.8066 16.3611C74.392 16.4814 78.3592 16.2809 81.0535 17.1466C83.2192 19.0721 83.9242 22.6922 85.0327 25.1233Z" fill="black"/>
<path fill-rule="evenodd" clip-rule="evenodd" d="M91.604 8.98682C92.1013 9.03175 94.7779 13.2672 94.9038 13.9717C95.126 15.5129 95.6754 17.2395 95.823 18.8514C95.3819 17.3053 94.9014 15.7601 94.299 14.214C94.1234 13.7879 93.679 12.8259 92.4454 11.4644C91.8711 10.5016 91.7467 9.75063 91.6016 8.98682H91.604Z" fill="black"/>
<path fill-rule="evenodd" clip-rule="evenodd" d="M100.673 32.0579H99.5273L100.794 32.3891L100.673 32.0579Z" fill="black"/>
<path fill-rule="evenodd" clip-rule="evenodd" d="M92.8598 30.9138C91.7079 30.7718 90.5264 30.7533 89.3746 31.0069C88.9054 31.6375 88.8725 32.2786 88.668 32.8715C90.0676 31.3286 90.6235 31.2339 92.8598 30.9138Z" fill="black"/>
<path fill-rule="evenodd" clip-rule="evenodd" d="M108.566 38.8793C107.924 39.3912 107.861 39.8725 105.965 40.4494C104.584 40.7768 103.8 40.2224 103.152 39.4778C104.139 39.7602 104.296 40.5056 106.941 39.6696L108.566 38.8793Z" fill="black"/>
<path fill-rule="evenodd" clip-rule="evenodd" d="M102.822 39.1993C102.361 40.4678 101.864 41.7499 101.362 42.9382C100.169 44.3382 100.677 43.5407 98.8902 45.7158C99.4621 44.8333 100.206 43.9852 100.595 43.0682C100.868 42.4624 101.209 41.8205 101.36 41.283C100.886 41.0463 99.9161 41.0278 99.7845 41.1129C98.1956 42.05 97.9084 43.0425 96.9724 44.0077C97.6509 42.9221 98.2309 41.7379 99.0177 40.7607C99.1075 40.6339 99.6907 40.609 100.048 40.5344C99.4918 40.4389 98.4619 40.2384 98.3784 40.248C97.3421 40.4967 96.7614 41.4001 95.9922 41.9995C96.5537 41.1899 97.0694 40.3459 97.7817 39.6494C97.8523 39.5692 99.7781 39.7361 100.776 40.1349L100.795 40.532L101.362 40.7607L101.788 39.692L102.822 39.1993Z" fill="black"/>
<path fill-rule="evenodd" clip-rule="evenodd" d="M90.2504 46.8481C89.9945 46.7606 87.7358 46.4701 87.7358 46.5383C86.8679 47.1554 86.7364 47.7467 86.7556 48.2578C88.1994 46.8384 88.1449 46.8344 90.2504 46.8481Z" fill="black"/>
<path fill-rule="evenodd" clip-rule="evenodd" d="M88.5332 36.636C88.5332 36.636 90.1631 36.3953 90.131 36.5502C90.0131 37.1166 90.3307 38.495 90.366 38.3025L89.4492 39.0502C91.3686 38.0875 93.3883 38.2792 95.4377 38.1316C95.4377 38.1316 93.7124 37.655 93.8182 37.6406C94.2025 37.586 93.7156 35.8409 93.5832 35.8032C93.9113 35.6917 94.2321 35.6083 94.5634 35.5248C92.0969 34.883 90.67 35.26 88.5332 36.636Z" fill="black"/>
<path fill-rule="evenodd" clip-rule="evenodd" d="M102.641 37.8531L102.28 38.0312C102.229 36.9697 101.089 37.0475 100.128 37.0379L99.3399 36.8453C99.5805 37.0676 100.321 37.0499 100.022 37.5297C99.7698 37.6637 99.6543 38.2414 99.5099 38.726L99.084 38.7469C99.8372 39.0413 100.535 39.2997 101.364 39.6447L101.854 39.7193L103.026 39.0886L102.641 37.8531Z" fill="black"/>
<path fill-rule="evenodd" clip-rule="evenodd" d="M91.838 37.1372C91.6543 36.7746 90.731 36.8259 90.5321 37.061C90.3717 37.2512 90.5225 38.4764 90.7294 38.2694C91.0294 38.0062 91.4209 37.8955 91.8909 37.9171C91.9503 37.6909 91.9294 37.4461 91.838 37.1372Z" fill="white"/>
<path fill-rule="evenodd" clip-rule="evenodd" d="M100.687 38.9618C100.774 38.8984 100.958 38.2846 100.898 38.1009C100.777 37.6668 99.9189 37.7583 99.9189 37.7583C99.7088 37.8818 99.5259 38.5606 99.5981 38.7805C99.635 38.969 100.545 39.0292 100.683 38.9618H100.687Z" fill="white"/>
<path fill-rule="evenodd" clip-rule="evenodd" d="M63.9863 60.1465L64.5285 60.1994C67.7426 61.7784 73.0348 64.1188 80.6965 62.8608L81.8997 64.7534C78.526 66.3934 74.8965 66.0155 71.4956 66.131L63.9863 60.1465Z" fill="black"/>
<path fill-rule="evenodd" clip-rule="evenodd" d="M59.373 47.6671L60.9829 54.4283C65.2934 57.1233 72.6566 60.2107 78.7943 59.9644L77.438 56.8514C64.626 54.1299 63.5424 50.6895 59.373 47.6695V47.6671Z" fill="black"/>
<path fill-rule="evenodd" clip-rule="evenodd" d="M63.3796 33.8181C64.1664 39.0573 65.2164 43.0296 69.7715 46.3569C72.5628 48.3627 75.3341 50.3685 78.7045 52.0149C78.7045 52.0149 78.4085 53.5537 78.1615 53.5256C68.1352 52.4112 60.788 44.0919 59.8984 40.2921C60.7607 37.3772 61.9959 35.5584 63.3788 33.8181H63.3796Z" fill="black"/>
<path fill-rule="evenodd" clip-rule="evenodd" d="M68.2012 30.8497C69.5375 36.657 72.7218 42.538 75.8925 47.8735C77.0532 49.3442 77.3572 49.9972 79.1474 50.8951C81.5658 51.6613 83.2767 51.4655 85.0325 51.35C84.5512 50.4594 84.1237 49.5287 83.5718 48.6911C79.6415 45.5812 81.4567 42.749 82.501 40.9566C80.3153 40.4038 77.4181 39.2292 77.0195 37.6847C76.3778 32.6886 76.7034 31.1057 77.3451 28.5382C74.3854 29.1624 71.3855 29.781 68.2012 30.8505V30.8497Z" fill="black"/>
<path fill-rule="evenodd" clip-rule="evenodd" d="M57.3398 0.00568514C56.3669 0.642733 55.4292 1.55016 54.421 2.58356C52.7486 4.31498 51.6377 6.00308 49.9356 7.25551C49.5955 7.54916 48.6402 8.02173 47.4395 8.09154C46.878 8.11962 46.505 8.21349 45.4663 8.08271C44.5495 7.58687 43.6784 7.90941 42.829 8.92596C41.8969 10.2707 40.717 12.8124 40.2254 14.4147C39.2139 18.5017 41.7927 21.8691 44.2663 24.4638C46.4665 26.6141 47.7346 27.958 48.6378 29.9285C49.322 31.2066 49.8289 32.9613 50.3768 34.1912C50.5749 34.5812 50.5372 34.5796 51.0666 34.6967C52.216 34.9422 53.8106 34.9438 55.2303 35.0666C55.9839 35.0758 56.7374 35.0431 57.4874 34.9687C58.5887 34.7609 59.8825 34.5563 60.9669 34.1816C62.0273 33.92 62.9722 33.559 63.8224 33.226C63.7125 33.5991 62.9016 33.9578 62.5976 34.4295C59.71 38.5607 58.9224 42.237 59.4245 48.037C59.7092 50.6044 60.2988 52.7394 61.1891 55.1777C61.5966 56.2937 62.4636 58.0605 63.2938 59.2351C65.7635 62.7252 71.2884 67.2078 78.9797 68.9336C80.4177 69.1136 81.8769 69.013 83.2766 68.6375C87.0729 67.4862 94.8092 64.7639 94.8092 64.7639C94.8092 64.7639 87.9416 65.3328 84.7965 65.0214C84.0682 64.9075 83.2661 64.869 82.7592 64.3724C82.6742 64.2624 82.3646 63.6398 82.5643 63.6342C82.837 63.6262 83.6183 63.3021 84.8254 63.1945C82.2483 62.9169 82.2852 62.9202 82.0983 62.4508C81.8055 61.7215 81.3579 60.725 80.8951 59.8537C82.0277 59.9491 84.5343 60.0944 85.3869 59.2118C85.3869 59.2118 83.9038 59.3827 82.5924 59.2295C82.1504 59.1773 81.398 58.9085 81.1719 58.8283C80.5831 58.5988 80.0986 58.5274 79.9855 58.3782C79.781 57.8575 79.643 57.6826 79.396 56.9853C79.0623 56.0627 79.0351 55.0325 78.9717 54.0905C79.8291 55.148 80.9224 56.0378 82.3694 56.4927C82.3878 56.4534 84.2463 57.3007 85.5954 56.865L85.8754 56.7751C85.8754 56.8 84.981 56.8554 84.6538 56.6909C81.909 55.5235 81.4959 54.5021 81.0523 53.9951L79.8668 52.2195C80.2278 51.4974 80.4283 51.4726 80.9096 51.4661C82.3533 51.6266 82.983 51.7502 83.8621 51.5383C84.4557 52.7611 84.6169 53.9911 85.9684 54.8808C90.4738 56.2183 91.4524 54.4797 92.5457 52.9504C95.7869 55.3301 101.064 56.0643 104.729 52.9922C109.387 47.5997 110.862 39.0983 110.449 38.6129C109.868 37.6252 109.104 36.607 108.449 36.7474C106.112 37.3853 105.251 38.5711 102.935 38.3008C103.211 38.2855 103.675 38.2775 103.679 38.2518C103.857 36.2909 103.664 35.3418 103.578 35.1789C102.875 33.6288 101.953 31.9977 101.31 30.7757C101.144 30.5222 100.657 28.5958 99.8416 27.8352C99.4919 27.5367 98.6384 26.748 98.6384 26.748L98.5654 27.5857C98.5654 27.5857 98.9007 27.6362 99.0282 28.1553C99.5095 30.1226 101.97 34.7737 102.151 34.996C103.023 36.4041 102.24 38.1571 102.902 39.1416C102.967 39.2659 104.255 39.1304 105.253 39.1913C106.89 38.8335 106.819 38.1114 108.237 38.0031C109.193 37.9301 109.289 39.7249 109.28 39.8645C109.102 41.8462 108.499 44.1513 107.577 46.2558C105.659 49.9521 103.511 53.2714 100.465 53.7343C96.7487 54.3842 94.818 52.7587 92.8039 51.7245L92.0331 52.3816C89.4151 54.9892 86.3069 54.7581 85.0356 51.3506C84.4027 50.0292 83.5782 49.2188 82.8699 48.0851L79.1257 50.7834C78.8137 51.4252 78.4303 52.4313 77.965 53.5578C77.6442 54.3409 77.3699 55.6856 77.3875 56.8032C76.9063 57.6216 79.0495 60.9392 80.4034 62.9571C80.8045 63.5524 81.5488 64.5922 81.5737 64.6572C81.8424 65.3536 82.4304 65.969 82.4664 66.0436C84.9802 69.3227 79.2957 68.5677 78.1215 68.3704C75.8058 68.0013 73.5399 67.0337 71.4103 65.7395C71.2868 65.6646 71.1638 65.5884 71.0413 65.5109C68.5107 63.9174 66.1822 61.8779 64.2018 59.8609C63.0219 58.5234 61.8973 55.7827 61.0672 53.8434C59.8207 49.1675 58.0344 41.0704 62.8719 34.9342C63.1791 34.5828 63.5136 33.9995 63.7911 33.8839C65.2074 32.9226 66.7948 32.2417 68.4674 31.8781L68.2981 30.7902C67.4599 30.9803 64.6381 32.0129 63.84 32.4454C62.0249 32.9709 60.5201 33.5205 58.2077 34.0998C57.4733 34.1949 56.7298 34.1949 55.9955 34.0998C54.3319 33.8735 51.4957 34.0757 51.3152 33.9072C50.1923 32.3363 49.8803 29.5209 48.8528 28.0141L48.8399 27.9989L48.8271 27.9844C48.2279 27.1821 47.5301 26.5218 46.8419 25.8382C44.3786 23.3903 42.2699 21.0242 41.6804 18.5154C41.532 17.7748 41.1502 17.0078 41.3531 14.8166L41.3571 14.8062V14.795C41.9499 12.7482 42.914 11.0794 44.5503 9.40735C46.2532 9.43463 47.9384 9.47234 49.2506 9.72267C49.853 9.82376 51.1059 9.98743 52.3997 10.4696C55.6738 11.69 60.0004 13.6958 60.0004 13.6958C56.7591 11.9098 53.1248 9.59269 50.8316 9.12493C50.4899 9.07679 50.2805 8.92114 50.1794 8.64915C53.6285 6.62248 54.2589 4.23636 56.5273 2.09575C57.5644 1.64404 57.9711 1.41377 58.8494 1.31829C66.9963 2.60683 72.1249 5.85224 76.182 8.02414C77.8287 8.92034 79.3254 9.5975 80.754 10.4135C82.0076 10.8259 85.7896 13.6813 86.8956 15.221C88.0186 17.5959 88.8407 20.1601 89.5899 22.6353C90.1265 25.153 90.5973 26.1736 90.5973 26.1736C90.5973 26.1736 90.141 24.0683 90.2172 23.6904C90.6904 23.8669 91.8085 24.2159 92.2721 24.1621C92.2721 24.1621 90.2019 23.091 89.93 22.1451C89.0597 19.1083 88.1862 14.381 87.9504 14.1347C87.2871 13.2994 84.5198 11.1805 82.8218 10.2033C82.1801 9.83259 81.8328 9.60232 81.8055 9.43945C82.3477 8.89146 83.0175 8.16695 83.6183 7.70642C84.1934 7.26434 84.7179 6.76689 85.52 6.46843C89.0493 4.87982 91.0626 7.0798 91.5414 6.63451C91.5414 6.63451 90.7826 5.76479 91.1195 5.9076C91.4644 6.09454 92.589 6.31518 92.7125 6.42992C93.9959 7.43523 97.3583 11.1107 99.3828 14.9891C99.8696 15.9391 100.067 16.5649 99.8416 17.7082C99.6817 18.568 99.4652 19.4164 99.1935 20.2476C98.9705 20.7587 97.7096 24.2592 97.7144 24.7286C97.4617 26.6445 98.539 29.0451 98.539 29.0451C98.5494 28.3928 98.4989 28.0454 98.5582 27.5785L98.6304 26.7448C98.6083 26.643 98.5956 26.5393 98.5927 26.4351C98.6472 25.8583 98.7892 25.3737 98.8333 25.0431C99.2344 22.5358 99.9426 20.7306 100.741 18.5298C100.981 17.9746 101.289 17.6657 101.273 17.2461C101.285 16.4959 100.614 15.4882 100.13 14.5053C99.5841 13.3775 98.9679 12.2852 98.2847 11.2351C96.5345 8.71735 95.0426 6.74764 92.3106 5.51526C91.5462 5.17909 88.5408 4.85174 87.498 5.04671C86.2379 5.30907 85.1543 5.56822 84.2896 6.12102C82.926 6.99235 81.8617 8.34026 80.6088 9.13456C77.8367 7.74814 76.4988 6.71073 76.2494 6.56711C74.6018 5.68455 72.6239 4.65918 70.4959 3.68756C69.4756 2.7352 63.1398 0.459 57.3414 0.00488281L57.3398 0.00568514ZM92.7991 51.7229C91.089 50.387 89.6525 49.0118 88.7044 47.5957C88.3948 49.2613 87.271 50.4472 86.4032 51.6138C86.2299 51.8874 86.1056 52.2604 86.9566 53.4495C87.186 53.7704 88.0162 53.8202 88.576 53.7913C88.0066 53.3604 87.1395 52.9087 86.9991 52.5076C88.0017 53.1903 88.9306 53.3901 89.7696 53.277C89.9613 53.2553 90.1995 53.0523 90.384 52.7386C90.7578 51.9363 91.0505 51.7413 91.3465 51.5247L92.0283 52.38L92.7991 51.7229Z" fill="black" stroke="black" stroke-width="0.11"/>
</g>
<defs>
<clipPath id="clip0_1298:23126">
<rect width="160" height="72" fill="white"/>
</clipPath>
</defs>
</svg>
