<svg width="22" height="30" viewBox="0 0 22 30" fill="none" xmlns="http://www.w3.org/2000/svg">
<path d="M20.978 14.6794C20.9102 14.1523 20.6822 13.6623 20.3281 13.282C19.974 12.9018 19.5126 12.6516 19.0124 12.5686C18.6234 12.5083 18.2261 12.5538 17.8586 12.7008C17.4912 12.8478 17.1658 13.0914 16.9135 13.4082C16.792 13.5749 16.6298 13.7041 16.4441 13.7821C16.2584 13.8601 16.0561 13.8841 15.8586 13.8513C15.2529 13.7995 14.6833 13.5272 14.2483 13.0816V7.90387H9.20666C8.94699 7.47797 8.78358 6.99532 8.72908 6.49285C8.69336 6.27768 8.71262 6.05638 8.7848 5.85154C8.85697 5.64669 8.97947 5.46561 9.13996 5.32668C9.39724 5.094 9.60385 4.80577 9.74565 4.4818C9.88745 4.15783 9.9611 3.80571 9.96173 3.44916C9.96175 3.03803 9.86317 2.63349 9.67516 2.27288C9.48714 1.91227 9.21577 1.60719 8.88593 1.38572C8.55608 1.16426 8.17836 1.03351 7.78776 1.00564C7.39715 0.97776 7.00616 1.05359 6.65081 1.22615C6.29547 1.3987 5.98724 1.66243 5.75449 1.99301C5.52174 2.32359 5.37202 2.71041 5.31907 3.11776C5.26613 3.52511 5.31164 3.93993 5.45152 4.32393C5.59139 4.70792 5.82111 5.04875 6.11942 5.315C6.27762 5.45631 6.39919 5.63727 6.47296 5.84115C6.54673 6.04502 6.57033 6.2652 6.54142 6.48117C6.488 6.98571 6.3204 7.46948 6.05272 7.8922H1.01112V12.9884C1.44327 13.4315 2.00838 13.7036 2.61018 13.7581C2.81625 13.8022 3.02998 13.784 3.22657 13.7055C3.42317 13.6271 3.59454 13.4916 3.72069 13.3149C3.97121 12.9991 4.29472 12.756 4.66025 12.609C5.02579 12.462 5.42112 12.416 5.80845 12.4753C6.38866 12.5775 6.91184 12.9031 7.27575 13.3885C7.63965 13.874 7.81812 14.4845 7.7765 15.1008C7.73488 15.717 7.47609 16.2948 7.05058 16.7215C6.62507 17.1481 6.06352 17.393 5.47537 17.4082C5.13823 17.4058 4.80549 17.3263 4.50056 17.1753C4.19563 17.0243 3.92573 16.8053 3.70957 16.5336C3.57927 16.362 3.40743 16.2303 3.21207 16.1523C3.0167 16.0744 2.805 16.053 2.59906 16.0904C1.99458 16.1432 1.42779 16.4201 1 16.8717V21.968H5.9417C6.27121 22.4175 6.47504 22.9546 6.5303 23.5189C6.56027 23.7349 6.53718 23.9554 6.46333 24.1595C6.38949 24.3636 6.26733 24.5445 6.1083 24.6851C5.7446 25.0097 5.48448 25.4436 5.36313 25.9284C5.24178 26.4132 5.26502 26.9255 5.42969 27.3959C5.59436 27.8664 5.89255 28.2726 6.28399 28.5594C6.67543 28.8463 7.14125 29 7.61858 29C8.0959 29 8.56173 28.8463 8.95316 28.5594C9.3446 28.2726 9.64279 27.8664 9.80746 27.3959C9.97213 26.9255 9.99538 26.4132 9.87402 25.9284C9.75267 25.4436 9.49256 25.0097 9.12885 24.6851C8.96925 24.5454 8.84741 24.3641 8.77531 24.1595C8.70321 23.9549 8.68339 23.734 8.71797 23.5189C8.76847 22.9533 8.97281 22.415 9.30657 21.968H14.2372V16.8717C14.6683 16.4184 15.2393 16.1415 15.8475 16.0904C16.0433 16.0599 16.2433 16.0848 16.4269 16.1627C16.6104 16.2406 16.7707 16.3687 16.8913 16.5336C17.2133 16.942 17.6534 17.2289 18.1448 17.351C18.6362 17.473 19.152 17.4235 19.6141 17.2099C20.0763 16.9963 20.4594 16.6301 20.7055 16.1671C20.9516 15.7042 21.0474 15.1696 20.978 14.6444V14.6794Z" stroke="#FCFCFD" stroke-width="1.5" stroke-miterlimit="10"/>
</svg>
