<svg width="26" height="26" viewBox="0 0 26 26" fill="none" xmlns="http://www.w3.org/2000/svg">
<path d="M13.06 18.3152C15.9926 18.3152 18.37 15.9378 18.37 13.0052C18.37 10.0726 15.9926 7.69519 13.06 7.69519C10.1274 7.69519 7.75 10.0726 7.75 13.0052C7.75 15.9378 10.1274 18.3152 13.06 18.3152Z" stroke="#7F7F7F" stroke-miterlimit="10"/>
<path d="M13 21.4053L13.01 25.0053" stroke="#7F7F7F" stroke-miterlimit="10" stroke-linecap="round"/>
<path d="M13 1.00525L12.99 4.65525" stroke="#7F7F7F" stroke-miterlimit="10" stroke-linecap="round"/>
<path d="M4.6 13.0052L1 13.0152" stroke="#7F7F7F" stroke-miterlimit="10" stroke-linecap="round"/>
<path d="M25 13.0052L21.35 12.9952" stroke="#7F7F7F" stroke-miterlimit="10" stroke-linecap="round"/>
<path d="M7.05999 18.9452L4.51999 21.4952" stroke="#7F7F7F" stroke-miterlimit="10" stroke-linecap="round"/>
<path d="M21.48 4.51526L18.9 7.09526" stroke="#7F7F7F" stroke-miterlimit="10" stroke-linecap="round"/>
<path d="M7.06001 7.06527L4.51001 4.52527" stroke="#7F7F7F" stroke-miterlimit="10" stroke-linecap="round"/>
<path d="M21.49 21.4853L18.91 18.9053" stroke="#7F7F7F" stroke-miterlimit="10" stroke-linecap="round"/>
</svg>
