<svg width="24" height="24" viewBox="0 0 24 24" fill="none" xmlns="http://www.w3.org/2000/svg">
<circle cx="12" cy="12" r="11.25" stroke="#00D2A0" stroke-width="1.5"/>
<path d="M10.8355 14.2984C10.8355 13.5457 10.9269 12.9462 11.1097 12.5C11.2925 12.0538 11.6258 11.6156 12.1097 11.1855C12.599 10.75 12.9242 10.3978 13.0855 10.129C13.2468 9.85484 13.3274 9.5672 13.3274 9.26613C13.3274 8.35753 12.9081 7.90323 12.0694 7.90323C11.6715 7.90323 11.3516 8.02688 11.1097 8.27419C10.8731 8.51613 10.7495 8.85215 10.7387 9.28226H8.40002C8.41078 8.25538 8.74142 7.45161 9.39196 6.87097C10.0479 6.29032 10.9403 6 12.0694 6C13.2092 6 14.0936 6.27688 14.7226 6.83065C15.3516 7.37903 15.6662 8.15591 15.6662 9.16129C15.6662 9.61828 15.564 10.0511 15.3597 10.4597C15.1554 10.8629 14.7979 11.3118 14.2871 11.8065L13.6339 12.4274C13.2253 12.8199 12.9914 13.2796 12.9323 13.8065L12.9 14.2984H10.8355ZM10.6016 16.7742C10.6016 16.414 10.7226 16.1183 10.9645 15.8871C11.2119 15.6505 11.5264 15.5323 11.9081 15.5323C12.2898 15.5323 12.6016 15.6505 12.8436 15.8871C13.0909 16.1183 13.2145 16.414 13.2145 16.7742C13.2145 17.129 13.0936 17.422 12.8516 17.6532C12.6151 17.8844 12.3006 18 11.9081 18C11.5156 18 11.1984 17.8844 10.9565 17.6532C10.7199 17.422 10.6016 17.129 10.6016 16.7742Z" fill="#00D2A0"/>
</svg>
