<svg width="16" height="16" viewBox="0 0 16 16" fill="none" xmlns="http://www.w3.org/2000/svg">
<path d="M12.4022 0H3.58776C1.60899 0 0 1.61 0 3.59V12.42C0 14.39 1.60899 16 3.58776 16H12.4122C14.391 16 16 14.39 16 12.41V3.59C15.99 1.61 14.381 0 12.4022 0ZM4.72705 13.58H2.30856V5.92H4.72705V13.58ZM4.89694 3.53C4.89694 4.28 4.28732 4.89 3.53779 4.89H3.48782C2.73829 4.89 2.12867 4.28 2.12867 3.53V3.47C2.12867 2.72 2.73829 2.11 3.48782 2.11H3.54778C4.29731 2.11 4.90693 2.72 4.90693 3.47V3.53H4.89694ZM11.3029 13.58V9.58V9.35C11.2929 8.96 11.193 8.22 10.6833 7.97C10.1437 7.7 9.54404 7.83 9.03435 8.24C8.6446 8.54 8.6446 9.19 8.6446 9.19V13.57H6.22611V5.92H8.53467V6.88V6.93C8.71455 6.68 9.06433 6.24 9.49407 6.03C10.1137 5.72 11.143 5.57 12.0325 5.88C12.0625 5.89 12.1024 5.9 12.1324 5.92C12.9519 6.25 13.3517 7.03 13.4916 7.46C13.6814 8.04 13.7114 9.58 13.7114 9.58L13.7214 13.57H11.3029V13.58Z" fill="#00D2A0"/>
</svg>
