<svg width="17" height="16" viewBox="0 0 17 16" fill="none" xmlns="http://www.w3.org/2000/svg">
<path d="M13.206 0H4.38599C2.40599 0 0.79599 1.61 0.79599 3.59V12.42C0.79599 14.39 2.40599 16 4.38599 16H13.216C15.196 16 16.806 14.39 16.806 12.41V3.59C16.796 1.61 15.186 0 13.206 0ZM5.52599 13.58H3.10599V5.92H5.52599V13.58ZM5.69599 3.53C5.69599 4.28 5.08599 4.89 4.33599 4.89H4.28599C3.53599 4.89 2.92599 4.28 2.92599 3.53V3.47C2.92599 2.72 3.53599 2.11 4.28599 2.11H4.34599C5.09599 2.11 5.70599 2.72 5.70599 3.47V3.53H5.69599ZM12.106 13.58V9.58V9.35C12.096 8.96 11.996 8.22 11.486 7.97C10.946 7.7 10.346 7.83 9.83599 8.24C9.44599 8.54 9.44599 9.19 9.44599 9.19V13.57H7.02599V5.92H9.33599V6.88V6.93C9.51599 6.68 9.86599 6.24 10.296 6.03C10.916 5.72 11.946 5.57 12.836 5.88C12.866 5.89 12.906 5.9 12.936 5.92C13.756 6.25 14.156 7.03 14.296 7.46C14.486 8.04 14.516 9.58 14.516 9.58L14.526 13.57H12.106V13.58Z" fill="#00D2A0"/>
</svg>
