<svg width="16" height="16" viewBox="0 0 16 16" fill="none" xmlns="http://www.w3.org/2000/svg">
<g clip-path="url(#clip0_1192:27350)">
<path d="M12.88 5.47C12.88 4.19 11.84 3.15 10.57 3.15L7.91997 3.16L5.48997 3.15C4.21997 3.15 3.17997 4.19 3.17997 5.47L3.15997 8.11L3.17997 10.53C3.17997 11.81 4.21997 12.85 5.48997 12.85L8.02997 12.86L10.56 12.85C11.83 12.85 12.87 11.81 12.87 10.53L12.89 7.88L12.88 5.47ZM7.99997 11.08C6.29997 11.08 4.91997 9.7 4.91997 8C4.91997 6.3 6.29997 4.92 7.99997 4.92C9.69997 4.92 11.08 6.3 11.08 8C11.08 9.7 9.69997 11.08 7.99997 11.08ZM11.2 5.59C10.8 5.59 10.47 5.26 10.47 4.86C10.47 4.46 10.8 4.13 11.2 4.13C11.6 4.13 11.93 4.46 11.93 4.86C11.93 5.26 11.61 5.59 11.2 5.59Z" fill="#FCFCFD"/>
<path d="M12.41 0H3.59C1.61 0 0 1.61 0 3.59V12.42C0 14.39 1.61 16 3.59 16H12.42C14.4 16 16.01 14.39 16.01 12.41V3.59C16 1.61 14.39 0 12.41 0ZM14.01 7.88L13.99 10.53C13.99 12.42 12.45 13.96 10.57 13.96L8.04 13.97L5.5 13.96C3.61 13.96 2.08 12.42 2.08 10.53L2.05 8.11V8.1L2.07 5.47C2.07 3.58 3.61 2.04 5.5 2.04L7.92 2.05L10.57 2.04C12.46 2.04 14 3.58 14 5.47L14.01 7.88C14.01 7.87 14.01 7.88 14.01 7.88Z" fill="#FCFCFD"/>
<path d="M7.99998 9.96C9.08246 9.96 9.95998 9.08248 9.95998 8C9.95998 6.91752 9.08246 6.04 7.99998 6.04C6.9175 6.04 6.03998 6.91752 6.03998 8C6.03998 9.08248 6.9175 9.96 7.99998 9.96Z" fill="#FCFCFD"/>
</g>
<defs>
<clipPath id="clip0_1192:27350">
<rect width="16" height="16" fill="white"/>
</clipPath>
</defs>
</svg>
