<svg width="17" height="16" viewBox="0 0 17 16" fill="none" xmlns="http://www.w3.org/2000/svg">
<path d="M13.084 5.4699C13.084 4.1899 12.044 3.1499 10.774 3.1499L8.12398 3.1599L5.69398 3.1499C4.42398 3.1499 3.38398 4.1899 3.38398 5.4699L3.36398 8.1099L3.38398 10.5299C3.38398 11.8099 4.42398 12.8499 5.69398 12.8499L8.23398 12.8599L10.764 12.8499C12.034 12.8499 13.074 11.8099 13.074 10.5299L13.094 7.8799L13.084 5.4699ZM8.20398 11.0799C6.50398 11.0799 5.12398 9.6999 5.12398 7.9999C5.12398 6.2999 6.50398 4.9199 8.20398 4.9199C9.90398 4.9199 11.284 6.2999 11.284 7.9999C11.284 9.6999 9.90398 11.0799 8.20398 11.0799ZM11.404 5.5899C11.004 5.5899 10.674 5.2599 10.674 4.8599C10.674 4.4599 11.004 4.1299 11.404 4.1299C11.804 4.1299 12.134 4.4599 12.134 4.8599C12.134 5.2599 11.814 5.5899 11.404 5.5899Z" fill="#00D2A0"/>
<path d="M12.614 0H3.79398C1.81398 0 0.203979 1.61 0.203979 3.59V12.42C0.203979 14.39 1.81398 16 3.79398 16H12.624C14.604 16 16.214 14.39 16.214 12.41V3.59C16.204 1.61 14.594 0 12.614 0ZM14.214 7.88L14.194 10.53C14.194 12.42 12.654 13.96 10.774 13.96L8.24398 13.97L5.70398 13.96C3.81398 13.96 2.28398 12.42 2.28398 10.53L2.25398 8.11V8.1L2.27398 5.47C2.27398 3.58 3.81398 2.04 5.70398 2.04L8.12398 2.05L10.774 2.04C12.664 2.04 14.204 3.58 14.204 5.47L14.214 7.88C14.214 7.87 14.214 7.88 14.214 7.88Z" fill="#00D2A0"/>
<path d="M8.20399 9.96004C9.28647 9.96004 10.164 9.08252 10.164 8.00004C10.164 6.91756 9.28647 6.04004 8.20399 6.04004C7.12151 6.04004 6.24399 6.91756 6.24399 8.00004C6.24399 9.08252 7.12151 9.96004 8.20399 9.96004Z" fill="#00D2A0"/>
</svg>
