<svg width="304" height="120" viewBox="0 0 304 120" fill="none" xmlns="http://www.w3.org/2000/svg">
<path d="M32.045 19.1304H25.8497L24.6297 22.0115H22.2539L27.8313 9.55713H30.1006L35.694 21.9954H33.2862L32.045 19.1304ZM31.2885 17.3184L28.95 11.8823L26.6061 17.3184H31.2885Z" fill="#00A872"/>
<path d="M36.918 9.55722H42.3356C43.5532 9.53383 44.7592 9.79747 45.8568 10.3269C46.8472 10.8093 47.6778 11.5685 48.2486 12.5131C48.8073 13.5084 49.1008 14.6314 49.1008 15.7737C49.1008 16.916 48.8073 18.039 48.2486 19.0343C47.6809 19.9815 46.8495 20.7414 45.8568 21.2205C44.7605 21.7543 43.5539 22.0199 42.3356 21.9955H36.918V9.55722ZM42.245 20.0392C43.0768 20.0552 43.9004 19.872 44.6475 19.5046C45.3165 19.1786 45.8731 18.6592 46.2456 18.0133C46.6104 17.3207 46.8011 16.5491 46.8011 15.7657C46.8011 14.9822 46.6104 14.2107 46.2456 13.518C45.8713 12.8722 45.3154 12.3515 44.6475 12.0214C43.8992 11.6575 43.0764 11.4744 42.245 11.4868H39.2353V20.0392H42.245Z" fill="#FCFCFD"/>
<path d="M49.7708 21.7177C49.6294 21.5791 49.5185 21.4125 49.4451 21.2284C49.3717 21.0443 49.3375 20.8468 49.3447 20.6486C49.3381 20.4545 49.3711 20.261 49.4416 20.0801C49.5122 19.8992 49.6188 19.7346 49.755 19.5965C49.8911 19.4584 50.0539 19.3496 50.2334 19.2769C50.413 19.2041 50.6054 19.1689 50.799 19.1733C50.9951 19.1657 51.1907 19.1982 51.3739 19.269C51.5571 19.3397 51.724 19.4473 51.8644 19.5849C52.1469 19.86 52.309 20.2363 52.315 20.6313C52.321 21.0263 52.1704 21.4074 51.8963 21.6909C51.6222 21.9745 51.2471 22.1371 50.8535 22.1432C50.4599 22.1492 50.08 21.998 49.7975 21.723L49.7708 21.7177Z" fill="#FCFCFD"/>
<path d="M56.2636 21.3647C55.277 20.836 54.4548 20.0443 53.8877 19.0769C53.3095 18.0797 53.013 16.9432 53.0301 15.7896C53.0121 14.6345 53.3126 13.4969 53.8984 12.5023C54.4692 11.5374 55.2928 10.7479 56.2795 10.2199C57.3213 9.66237 58.487 9.37915 59.6675 9.39677C60.6225 9.38658 61.5698 9.56832 62.4536 9.93129C63.2757 10.2724 64.0058 10.8035 64.5844 11.4814L63.0982 12.8818C62.6836 12.413 62.1728 12.0398 61.6009 11.7879C61.0289 11.536 60.4093 11.4113 59.7848 11.4226C58.9916 11.4013 58.2064 11.5854 57.5048 11.9571C56.8365 12.3139 56.2824 12.8532 55.9067 13.5126C55.5327 14.2052 55.3369 14.9805 55.3369 15.7683C55.3369 16.556 55.5327 17.3313 55.9067 18.0239C56.2794 18.6857 56.8342 19.2258 57.5048 19.5794C58.2039 19.9604 58.9893 20.1537 59.7848 20.1406C60.4108 20.1513 61.0315 20.0249 61.6038 19.7701C62.1761 19.5153 62.686 19.1383 63.0982 18.6653L64.5844 20.0872C64.0057 20.7637 63.2755 21.2931 62.4536 21.632C61.5685 21.9969 60.6191 22.1787 59.6623 22.1665C58.4802 22.1906 57.3111 21.9148 56.2636 21.3647Z" fill="#73858F"/>
<path d="M77.8205 22.0115V13.7638L73.7453 20.5896H72.7171L68.6473 13.8707V22.0115H66.4473V9.55713H68.3437L73.2658 17.7994L78.1028 9.55713H79.9992V21.9954L77.8205 22.0115Z" fill="#73858F"/>
<path d="M13.2164 0C6.64815 0 0 1.77995 0 5.17416V18.8258C0 22.22 6.64815 24 13.2164 24C14.1806 24 15.1554 23.9572 16.109 23.877L17.0039 21.8833C15.7468 22.0302 14.482 22.1016 13.2164 22.0971C6.29123 22.0971 1.89643 20.1621 1.89643 18.8258V17.6766C4.34154 19.2374 8.78429 20.0499 13.2164 20.0499C14.8094 20.051 16.4006 19.9421 17.9788 19.7238L18.9163 17.6499C17.0347 17.9834 15.1272 18.148 13.2164 18.1416C6.29123 18.1416 1.89643 16.2067 1.89643 14.8757V13.7265C4.34154 15.2819 8.78429 16.0944 13.2164 16.0944C15.4688 16.113 17.7169 15.8926 19.9231 15.437L20.914 13.2347C18.4047 13.9111 15.8144 14.2367 13.2164 14.2022C6.29123 14.2022 1.89643 12.2673 1.89643 10.9363V9.77637C4.34154 11.3425 8.78429 12.155 13.2164 12.155C16.1704 12.1955 19.1136 11.7901 21.9474 10.9523L23.0767 8.4294C22.588 8.6824 22.0804 8.89686 21.5585 9.07084C21.5482 9.06717 21.5369 9.06717 21.5266 9.07084C21.427 9.10805 21.3257 9.14016 21.2229 9.16705C21.0951 9.20981 20.914 9.26859 20.6902 9.32205C19.3515 9.7004 17.9798 9.9492 16.5937 10.065C15.9385 10.1345 15.2247 10.1933 14.4629 10.204C14.0581 10.204 13.6372 10.2361 13.2057 10.2361C11.9326 10.2361 10.8032 10.1666 9.78044 10.065C8.50046 9.92838 7.23139 9.70334 5.98226 9.39154L5.51881 9.26861C4.92218 9.09756 4.6132 8.97459 4.6132 8.97459C3.71517 8.70848 2.88852 8.24259 2.19474 7.61157C2.16338 7.57778 2.13654 7.54007 2.11485 7.49934C2.05535 7.43263 2.00679 7.35683 1.97101 7.27482C1.95776 7.22516 1.9399 7.17687 1.91772 7.13052C1.8012 6.78651 1.74531 6.42475 1.75258 6.06148C1.74072 5.69556 1.8061 5.33124 1.94438 4.99244C1.99187 4.85171 2.06806 4.72245 2.16811 4.61292C2.18651 4.58089 2.20989 4.55204 2.23736 4.52741C2.85433 3.97161 3.58006 3.55107 4.36818 3.29267L6.20068 7.36036L6.35516 7.69711C6.57889 8.10335 7.09561 8.67529 8.28354 8.23163L8.57652 8.10335C10.0365 7.57763 11.5804 7.32577 13.1312 7.36036H13.243C13.9892 7.36075 14.7346 7.40717 15.475 7.49934C15.6455 7.49934 15.8106 7.55813 16.0077 7.58485C16.6528 7.68262 17.2852 7.85111 17.8935 8.0873C17.918 8.0948 17.9413 8.10559 17.9628 8.11937C18.0587 8.16214 18.1439 8.18887 18.2291 8.23163C19.3585 8.62183 19.8752 8.14609 20.1309 7.73985C20.2034 7.60869 20.2675 7.47303 20.3227 7.33364L20.4345 7.06638L20.6157 6.67616L22.1392 3.26591C22.546 3.41026 22.9399 3.58908 23.3165 3.80044C23.4109 3.86604 23.5087 3.92671 23.6094 3.98219C23.7418 4.05944 23.8666 4.14892 23.9823 4.24945C24.0676 4.31893 24.1528 4.40445 24.2221 4.47394C24.2999 4.54123 24.3664 4.62064 24.4192 4.70913C24.4704 4.78354 24.5116 4.86442 24.5417 4.94967C24.5792 5.01923 24.6027 5.0955 24.6109 5.17416H26.4861C26.4328 1.77995 19.7846 0 13.2164 0ZM12.4493 5.81559C10.8027 5.83785 9.17546 6.17529 7.65495 6.80979L5.82778 2.79022C7.99763 2.2347 10.226 1.94219 12.4653 1.91894L12.4493 5.81559ZM18.8044 6.80979C17.2756 6.17195 15.6391 5.83445 13.9835 5.81559V1.90289C16.2228 1.92536 18.4513 2.21789 20.621 2.77416L18.8044 6.80979Z" fill="#00A872"/>
<g clip-path="url(#clip0_1408:10161)">
<path d="M227.851 0.254028H211.131L202.762 15.1931L211.131 30.1321H227.851L236.221 15.1931L227.851 0.254028Z" stroke="#00D2A0" stroke-miterlimit="10" stroke-linecap="round"/>
<path d="M212.232 4.88818H226.089" stroke="#00D2A0" stroke-miterlimit="10" stroke-linecap="round"/>
<path d="M202.632 15.1931H185.903L177.543 30.1321L185.903 45.061H202.632L210.992 30.1321L202.632 15.1931Z" stroke="#00D2A0" stroke-miterlimit="10" stroke-linecap="round"/>
<path d="M187.004 19.8273H200.86" stroke="#00D2A0" stroke-miterlimit="10" stroke-linecap="round"/>
<path d="M236.221 15.1931H252.77" stroke="#00D2A0" stroke-miterlimit="10" stroke-linecap="round"/>
<path d="M177.543 30.1321H160.393" stroke="#00D2A0" stroke-miterlimit="10" stroke-linecap="round"/>
<path d="M202.853 45.061H186.123L177.764 60.0001L186.123 74.9391H202.853L211.223 60.0001L202.853 45.061Z" stroke="#00D2A0" stroke-miterlimit="10" stroke-linecap="round"/>
<path d="M187.234 49.7053H201.08" stroke="#00D2A0" stroke-miterlimit="10" stroke-linecap="round"/>
<path d="M177.632 60H160.903L152.533 74.939L160.903 89.8781H177.632L185.992 74.939L177.632 60Z" stroke="#00D2A0" stroke-miterlimit="10" stroke-linecap="round"/>
<path d="M162.006 64.6443H175.862" stroke="#00D2A0" stroke-miterlimit="10" stroke-linecap="round"/>
<path d="M211.223 60H227.772" stroke="#00D2A0" stroke-miterlimit="10" stroke-linecap="round"/>
<path d="M152.534 74.939H135.395" stroke="#00D2A0" stroke-miterlimit="10" stroke-linecap="round"/>
<path d="M277.689 30.1321H260.959L252.6 45.0609L260.959 60H277.689L286.059 45.0609L277.689 30.1321Z" stroke="#00D2A0" stroke-miterlimit="10" stroke-linecap="round"/>
<path d="M262.07 34.7662H275.916" stroke="#00D2A0" stroke-miterlimit="10" stroke-linecap="round"/>
<path d="M252.47 45.061H235.741L227.381 60.0001L235.741 74.9391H252.47L260.83 60.0001L252.47 45.061Z" stroke="#00D2A0" stroke-miterlimit="10" stroke-linecap="round"/>
<path d="M236.842 49.7053H250.698" stroke="#00D2A0" stroke-miterlimit="10" stroke-linecap="round"/>
<path d="M286.059 45.061H302.608" stroke="#00D2A0" stroke-miterlimit="10" stroke-linecap="round"/>
<path d="M252.691 104.817H235.961L227.602 89.878L235.961 74.939H252.691L261.06 89.878L252.691 104.817Z" stroke="#00D2A0" stroke-miterlimit="10" stroke-linecap="round"/>
<path d="M237.072 100.173H250.918" stroke="#00D2A0" stroke-miterlimit="10" stroke-linecap="round"/>
<path d="M227.47 119.746H210.741L202.371 104.817L210.741 89.8781H227.47L235.83 104.817L227.47 119.746Z" stroke="#00D2A0" stroke-miterlimit="10" stroke-linecap="round"/>
<path d="M211.844 115.112H225.7" stroke="#00D2A0" stroke-miterlimit="10" stroke-linecap="round"/>
<path d="M261.061 89.8781H277.61" stroke="#00D2A0" stroke-miterlimit="10" stroke-linecap="round"/>
<path d="M202.372 104.817H185.232" stroke="#00D2A0" stroke-miterlimit="10" stroke-linecap="round"/>
<path d="M250.698 16.6057C251.467 16.6057 252.09 15.9733 252.09 15.1931C252.09 14.413 251.467 13.7805 250.698 13.7805C249.93 13.7805 249.307 14.413 249.307 15.1931C249.307 15.9733 249.93 16.6057 250.698 16.6057Z" fill="#00D2A0"/>
<path d="M158.392 31.5447C159.16 31.5447 159.783 30.9122 159.783 30.1321C159.783 29.3519 159.16 28.7195 158.392 28.7195C157.623 28.7195 157 29.3519 157 30.1321C157 30.9122 157.623 31.5447 158.392 31.5447Z" fill="#00D2A0"/>
<path d="M227.831 60H211.112L202.742 74.939L211.112 89.8781H227.831L236.201 74.939L227.831 60Z" stroke="#00D2A0" stroke-miterlimit="10" stroke-linecap="round"/>
<path d="M212.213 64.6443H226.059" stroke="#00D2A0" stroke-miterlimit="10" stroke-linecap="round"/>
<path d="M133.392 76.3516C134.16 76.3516 134.783 75.7191 134.783 74.939C134.783 74.1588 134.16 73.5264 133.392 73.5264C132.623 73.5264 132 74.1588 132 74.939C132 75.7191 132.623 76.3516 133.392 76.3516Z" fill="#00D2A0"/>
<path d="M185.231 106.23C186 106.23 186.623 105.597 186.623 104.817C186.623 104.037 186 103.404 185.231 103.404C184.463 103.404 183.84 104.037 183.84 104.817C183.84 105.597 184.463 106.23 185.231 106.23Z" fill="#00D2A0"/>
<path d="M277.608 91.2907C278.377 91.2907 279 90.6582 279 89.8781C279 89.0979 278.377 88.4655 277.608 88.4655C276.84 88.4655 276.217 89.0979 276.217 89.8781C276.217 90.6582 276.84 91.2907 277.608 91.2907Z" fill="#00D2A0"/>
<path d="M302.608 46.4735C303.377 46.4735 304 45.8411 304 45.0609C304 44.2808 303.377 43.6483 302.608 43.6483C301.84 43.6483 301.217 44.2808 301.217 45.0609C301.217 45.8411 301.84 46.4735 302.608 46.4735Z" fill="#00D2A0"/>
</g>
<defs>
<clipPath id="clip0_1408:10161">
<rect width="172" height="120" fill="white" transform="translate(132)"/>
</clipPath>
</defs>
</svg>
