<svg width="304" height="120" viewBox="0 0 304 120" fill="none" xmlns="http://www.w3.org/2000/svg">
<path d="M32.045 19.1304H25.8497L24.6297 22.0115H22.2539L27.8313 9.55713H30.1006L35.694 21.9954H33.2862L32.045 19.1304ZM31.2885 17.3184L28.95 11.8823L26.6061 17.3184H31.2885Z" fill="#00A872"/>
<path d="M36.918 9.55722H42.3356C43.5532 9.53383 44.7592 9.79747 45.8568 10.3269C46.8472 10.8093 47.6778 11.5685 48.2486 12.5131C48.8073 13.5084 49.1008 14.6314 49.1008 15.7737C49.1008 16.916 48.8073 18.039 48.2486 19.0343C47.6809 19.9815 46.8495 20.7414 45.8568 21.2205C44.7605 21.7543 43.5539 22.0199 42.3356 21.9955H36.918V9.55722ZM42.245 20.0392C43.0768 20.0552 43.9004 19.872 44.6475 19.5046C45.3165 19.1786 45.8731 18.6592 46.2456 18.0133C46.6104 17.3207 46.8011 16.5491 46.8011 15.7657C46.8011 14.9822 46.6104 14.2107 46.2456 13.518C45.8713 12.8722 45.3154 12.3515 44.6475 12.0214C43.8992 11.6575 43.0764 11.4744 42.245 11.4868H39.2353V20.0392H42.245Z" fill="#FCFCFD"/>
<path d="M49.7708 21.7178C49.6294 21.5793 49.5185 21.4126 49.4451 21.2285C49.3717 21.0444 49.3375 20.8469 49.3447 20.6487C49.3381 20.4546 49.3711 20.2611 49.4416 20.0802C49.5122 19.8993 49.6188 19.7348 49.755 19.5966C49.8911 19.4585 50.0539 19.3497 50.2334 19.277C50.413 19.2042 50.6054 19.169 50.799 19.1735C50.9951 19.1658 51.1907 19.1983 51.3739 19.2691C51.5571 19.3399 51.724 19.4474 51.8644 19.5851C52.1469 19.8601 52.309 20.2365 52.315 20.6314C52.321 21.0264 52.1704 21.4075 51.8963 21.6911C51.6222 21.9746 51.2471 22.1373 50.8535 22.1433C50.4599 22.1493 50.08 21.9982 49.7975 21.7231L49.7708 21.7178Z" fill="#FCFCFD"/>
<path d="M56.2636 21.3647C55.277 20.836 54.4548 20.0443 53.8877 19.0769C53.3095 18.0797 53.013 16.9432 53.0301 15.7896C53.0121 14.6345 53.3126 13.4969 53.8984 12.5023C54.4692 11.5374 55.2928 10.7479 56.2795 10.2199C57.3213 9.66237 58.487 9.37915 59.6675 9.39677C60.6225 9.38658 61.5698 9.56832 62.4536 9.93129C63.2757 10.2724 64.0058 10.8035 64.5844 11.4814L63.0982 12.8818C62.6836 12.413 62.1728 12.0398 61.6009 11.7879C61.0289 11.536 60.4093 11.4113 59.7848 11.4226C58.9916 11.4013 58.2064 11.5854 57.5048 11.9571C56.8365 12.3139 56.2824 12.8532 55.9067 13.5126C55.5327 14.2052 55.3369 14.9805 55.3369 15.7683C55.3369 16.556 55.5327 17.3313 55.9067 18.0239C56.2794 18.6857 56.8342 19.2258 57.5048 19.5794C58.2039 19.9604 58.9893 20.1537 59.7848 20.1406C60.4108 20.1513 61.0315 20.0249 61.6038 19.7701C62.1761 19.5153 62.686 19.1383 63.0982 18.6653L64.5844 20.0872C64.0057 20.7637 63.2755 21.2931 62.4536 21.632C61.5685 21.9969 60.6191 22.1787 59.6623 22.1665C58.4802 22.1906 57.3111 21.9148 56.2636 21.3647Z" fill="#73858F"/>
<path d="M77.8205 22.0115V13.7638L73.7453 20.5896H72.7171L68.6473 13.8707V22.0115H66.4473V9.55713H68.3437L73.2658 17.7994L78.1028 9.55713H79.9992V21.9954L77.8205 22.0115Z" fill="#73858F"/>
<path d="M13.2164 0C6.64815 0 0 1.77995 0 5.17416V18.8258C0 22.22 6.64815 24 13.2164 24C14.1806 24 15.1554 23.9572 16.109 23.877L17.0039 21.8833C15.7468 22.0302 14.482 22.1016 13.2164 22.0971C6.29123 22.0971 1.89643 20.1621 1.89643 18.8258V17.6766C4.34154 19.2374 8.78429 20.0499 13.2164 20.0499C14.8094 20.051 16.4006 19.9421 17.9788 19.7238L18.9163 17.6499C17.0347 17.9834 15.1272 18.148 13.2164 18.1416C6.29123 18.1416 1.89643 16.2067 1.89643 14.8757V13.7265C4.34154 15.2819 8.78429 16.0944 13.2164 16.0944C15.4688 16.113 17.7169 15.8926 19.9231 15.437L20.914 13.2347C18.4047 13.9111 15.8144 14.2367 13.2164 14.2022C6.29123 14.2022 1.89643 12.2673 1.89643 10.9363V9.77637C4.34154 11.3425 8.78429 12.155 13.2164 12.155C16.1704 12.1955 19.1136 11.7901 21.9474 10.9523L23.0767 8.4294C22.588 8.6824 22.0804 8.89686 21.5585 9.07084C21.5482 9.06717 21.5369 9.06717 21.5266 9.07084C21.427 9.10805 21.3257 9.14016 21.2229 9.16705C21.0951 9.20981 20.914 9.26859 20.6902 9.32205C19.3515 9.7004 17.9798 9.9492 16.5937 10.065C15.9385 10.1345 15.2247 10.1933 14.4629 10.204C14.0581 10.204 13.6372 10.2361 13.2057 10.2361C11.9326 10.2361 10.8032 10.1666 9.78044 10.065C8.50046 9.92838 7.23139 9.70334 5.98226 9.39154L5.51881 9.26861C4.92218 9.09756 4.6132 8.97459 4.6132 8.97459C3.71517 8.70848 2.88852 8.24259 2.19474 7.61157C2.16338 7.57778 2.13654 7.54007 2.11485 7.49934C2.05535 7.43263 2.00679 7.35683 1.97101 7.27482C1.95776 7.22516 1.9399 7.17687 1.91772 7.13052C1.8012 6.78651 1.74531 6.42475 1.75258 6.06148C1.74072 5.69556 1.8061 5.33124 1.94438 4.99244C1.99187 4.85171 2.06806 4.72245 2.16811 4.61292C2.18651 4.58089 2.20989 4.55204 2.23736 4.52741C2.85433 3.97161 3.58006 3.55107 4.36818 3.29267L6.20068 7.36036L6.35516 7.69711C6.57889 8.10335 7.09561 8.67529 8.28354 8.23163L8.57652 8.10335C10.0365 7.57763 11.5804 7.32577 13.1312 7.36036H13.243C13.9892 7.36075 14.7346 7.40717 15.475 7.49934C15.6455 7.49934 15.8106 7.55813 16.0077 7.58485C16.6528 7.68262 17.2852 7.85111 17.8935 8.0873C17.918 8.0948 17.9413 8.10559 17.9628 8.11937C18.0587 8.16214 18.1439 8.18887 18.2291 8.23163C19.3585 8.62183 19.8752 8.14609 20.1309 7.73985C20.2034 7.60869 20.2675 7.47303 20.3227 7.33364L20.4345 7.06638L20.6157 6.67616L22.1392 3.26591C22.546 3.41026 22.9399 3.58908 23.3165 3.80044C23.4109 3.86604 23.5087 3.92671 23.6094 3.98219C23.7418 4.05944 23.8666 4.14892 23.9823 4.24945C24.0676 4.31893 24.1528 4.40445 24.2221 4.47394C24.2999 4.54123 24.3664 4.62064 24.4192 4.70913C24.4704 4.78354 24.5116 4.86442 24.5417 4.94967C24.5792 5.01923 24.6027 5.0955 24.6109 5.17416H26.4861C26.4328 1.77995 19.7846 0 13.2164 0ZM12.4493 5.81559C10.8027 5.83785 9.17546 6.17529 7.65495 6.80979L5.82778 2.79022C7.99763 2.2347 10.226 1.94219 12.4653 1.91894L12.4493 5.81559ZM18.8044 6.80979C17.2756 6.17195 15.6391 5.83445 13.9835 5.81559V1.90289C16.2228 1.92536 18.4513 2.21789 20.621 2.77416L18.8044 6.80979Z" fill="#00A872"/>
<g clip-path="url(#clip0_1408:10109)">
<path d="M256.723 0H226.241L211 26.6624L226.241 53.3377H256.723L271.978 26.6624L256.723 0Z" stroke="#00D2A0" stroke-miterlimit="10" stroke-linecap="round"/>
<path d="M210.799 26.6621H180.317L165.062 53.3375L180.317 79.9998H210.799L226.04 53.3375L210.799 26.6621Z" stroke="#00D2A0" stroke-miterlimit="10" stroke-linecap="round"/>
<path d="M207.381 32.6379H183.721" stroke="#00D2A0" stroke-miterlimit="10" stroke-linecap="round"/>
<path d="M272.025 26.6621H302.18" stroke="#00D2A0" stroke-miterlimit="10" stroke-linecap="round"/>
<path d="M165.062 53.3379H133.82" stroke="#00D2A0" stroke-miterlimit="10" stroke-linecap="round"/>
<path d="M133.82 55.1475C134.825 55.1475 135.64 54.3373 135.64 53.3379C135.64 52.3385 134.825 51.5283 133.82 51.5283C132.815 51.5283 132 52.3385 132 53.3379C132 54.3373 132.815 55.1475 133.82 55.1475Z" fill="#00D2A0"/>
<path d="M302.181 28.472C303.187 28.472 304.001 27.6618 304.001 26.6624C304.001 25.663 303.187 24.8528 302.181 24.8528C301.176 24.8528 300.361 25.663 300.361 26.6624C300.361 27.6618 301.176 28.472 302.181 28.472Z" fill="#00D2A0"/>
<path d="M255.379 31.2856C255.783 29.9276 256 28.4891 256 26.9999C256 18.7156 249.284 11.9999 241 11.9999C232.716 11.9999 226 18.7156 226 26.9999C226 35.2841 232.716 41.9999 241 41.9999C242.687 41.9999 244.308 41.7215 245.821 41.2082" stroke="#FCFCFD" stroke-miterlimit="10" stroke-linecap="round"/>
<path d="M240.604 41.9999C244.633 41.9999 247.899 35.2841 247.899 26.9999C247.899 18.7156 244.633 11.9999 240.604 11.9999C236.575 11.9999 233.309 18.7156 233.309 26.9999C233.309 35.2841 236.575 41.9999 240.604 41.9999Z" stroke="#FCFCFD" stroke-miterlimit="10" stroke-linecap="round"/>
<path d="M226 26.9995H256" stroke="#FCFCFD" stroke-miterlimit="10" stroke-linecap="round"/>
<path d="M230.385 37.8914C230.385 37.8914 232.797 34.8797 241.013 34.9675C243.356 34.9424 245.173 35.1694 246.575 35.5067" stroke="#FCFCFD" stroke-miterlimit="10" stroke-linecap="round"/>
<path d="M251.54 16.488C251.54 16.488 249.741 19.4997 241.306 19.412C232.855 19.4997 230.385 16.488 230.385 16.488" stroke="#FCFCFD" stroke-miterlimit="10" stroke-linecap="round"/>
<path d="M250.162 35.1594L257.901 42.8985" stroke="#FCFCFD" stroke-width="2"/>
<circle cx="253.6" cy="38.599" r="5.08039" transform="rotate(45 253.6 38.599)" stroke="#FCFCFD" stroke-width="2"/>
</g>
<defs>
<clipPath id="clip0_1408:10109">
<rect width="172" height="120" fill="white" transform="translate(132)"/>
</clipPath>
</defs>
</svg>
