<svg width="305" height="121" viewBox="0 0 305 121" fill="none" xmlns="http://www.w3.org/2000/svg">
<path d="M32.045 20.1304H25.8497L24.6297 23.0115H22.2539L27.8313 10.5571H30.1006L35.694 22.9954H33.2862L32.045 20.1304ZM31.2885 18.3184L28.95 12.8823L26.6061 18.3184H31.2885Z" fill="#00A872"/>
<path d="M36.918 10.5572H42.3356C43.5532 10.5338 44.7592 10.7975 45.8568 11.3269C46.8472 11.8093 47.6778 12.5685 48.2486 13.5131C48.8073 14.5084 49.1008 15.6314 49.1008 16.7737C49.1008 17.916 48.8073 19.039 48.2486 20.0343C47.6809 20.9815 46.8495 21.7414 45.8568 22.2205C44.7605 22.7543 43.5539 23.0199 42.3356 22.9955H36.918V10.5572ZM42.245 21.0392C43.0768 21.0552 43.9004 20.872 44.6475 20.5046C45.3165 20.1786 45.8731 19.6592 46.2456 19.0133C46.6104 18.3207 46.8011 17.5491 46.8011 16.7657C46.8011 15.9822 46.6104 15.2107 46.2456 14.518C45.8713 13.8722 45.3154 13.3515 44.6475 13.0214C43.8992 12.6575 43.0764 12.4744 42.245 12.4868H39.2353V21.0392H42.245Z" fill="#FCFCFD"/>
<path d="M49.7708 22.7178C49.6294 22.5793 49.5185 22.4126 49.4451 22.2285C49.3717 22.0444 49.3375 21.8469 49.3447 21.6487C49.3381 21.4546 49.3711 21.2611 49.4416 21.0802C49.5122 20.8993 49.6188 20.7348 49.755 20.5966C49.8911 20.4585 50.0539 20.3497 50.2334 20.277C50.413 20.2042 50.6054 20.169 50.799 20.1735C50.9951 20.1658 51.1907 20.1983 51.3739 20.2691C51.5571 20.3399 51.724 20.4474 51.8644 20.5851C52.1469 20.8601 52.309 21.2365 52.315 21.6314C52.321 22.0264 52.1704 22.4075 51.8963 22.6911C51.6222 22.9746 51.2471 23.1373 50.8535 23.1433C50.4599 23.1493 50.08 22.9982 49.7975 22.7231L49.7708 22.7178Z" fill="#FCFCFD"/>
<path d="M56.2636 22.3647C55.277 21.836 54.4548 21.0443 53.8877 20.0769C53.3095 19.0797 53.013 17.9432 53.0301 16.7896C53.0121 15.6345 53.3126 14.4969 53.8984 13.5023C54.4692 12.5374 55.2928 11.7479 56.2795 11.2199C57.3213 10.6624 58.487 10.3792 59.6675 10.3968C60.6225 10.3866 61.5698 10.5683 62.4536 10.9313C63.2757 11.2724 64.0058 11.8035 64.5844 12.4814L63.0982 13.8818C62.6836 13.413 62.1728 13.0398 61.6009 12.7879C61.0289 12.536 60.4093 12.4113 59.7848 12.4226C58.9916 12.4013 58.2064 12.5854 57.5048 12.9571C56.8365 13.3139 56.2824 13.8532 55.9067 14.5126C55.5327 15.2052 55.3369 15.9805 55.3369 16.7683C55.3369 17.556 55.5327 18.3313 55.9067 19.0239C56.2794 19.6857 56.8342 20.2258 57.5048 20.5794C58.2039 20.9604 58.9893 21.1537 59.7848 21.1406C60.4108 21.1513 61.0315 21.0249 61.6038 20.7701C62.1761 20.5153 62.686 20.1383 63.0982 19.6653L64.5844 21.0872C64.0057 21.7637 63.2755 22.2931 62.4536 22.632C61.5685 22.9969 60.6191 23.1787 59.6623 23.1665C58.4802 23.1906 57.3111 22.9148 56.2636 22.3647Z" fill="#73858F"/>
<path d="M77.8205 23.0115V14.7638L73.7453 21.5896H72.7171L68.6473 14.8707V23.0115H66.4473V10.5571H68.3437L73.2658 18.7994L78.1028 10.5571H79.9992V22.9954L77.8205 23.0115Z" fill="#73858F"/>
<path d="M13.2164 1C6.64815 1 0 2.77995 0 6.17416V19.8258C0 23.22 6.64815 25 13.2164 25C14.1806 25 15.1554 24.9572 16.109 24.877L17.0039 22.8833C15.7468 23.0302 14.482 23.1016 13.2164 23.0971C6.29123 23.0971 1.89643 21.1621 1.89643 19.8258V18.6766C4.34154 20.2374 8.78429 21.0499 13.2164 21.0499C14.8094 21.051 16.4006 20.9421 17.9788 20.7238L18.9163 18.6499C17.0347 18.9834 15.1272 19.148 13.2164 19.1416C6.29123 19.1416 1.89643 17.2067 1.89643 15.8757V14.7265C4.34154 16.2819 8.78429 17.0944 13.2164 17.0944C15.4688 17.113 17.7169 16.8926 19.9231 16.437L20.914 14.2347C18.4047 14.9111 15.8144 15.2367 13.2164 15.2022C6.29123 15.2022 1.89643 13.2673 1.89643 11.9363V10.7764C4.34154 12.3425 8.78429 13.155 13.2164 13.155C16.1704 13.1955 19.1136 12.7901 21.9474 11.9523L23.0767 9.4294C22.588 9.6824 22.0804 9.89686 21.5585 10.0708C21.5482 10.0672 21.5369 10.0672 21.5266 10.0708C21.427 10.1081 21.3257 10.1402 21.2229 10.167C21.0951 10.2098 20.914 10.2686 20.6902 10.322C19.3515 10.7004 17.9798 10.9492 16.5937 11.065C15.9385 11.1345 15.2247 11.1933 14.4629 11.204C14.0581 11.204 13.6372 11.2361 13.2057 11.2361C11.9326 11.2361 10.8032 11.1666 9.78044 11.065C8.50046 10.9284 7.23139 10.7033 5.98226 10.3915L5.51881 10.2686C4.92218 10.0976 4.6132 9.97459 4.6132 9.97459C3.71517 9.70848 2.88852 9.24259 2.19474 8.61157C2.16338 8.57778 2.13654 8.54007 2.11485 8.49934C2.05535 8.43263 2.00679 8.35683 1.97101 8.27482C1.95776 8.22516 1.9399 8.17687 1.91772 8.13052C1.8012 7.78651 1.74531 7.42475 1.75258 7.06148C1.74072 6.69556 1.8061 6.33124 1.94438 5.99244C1.99187 5.85171 2.06806 5.72245 2.16811 5.61292C2.18651 5.58089 2.20989 5.55204 2.23736 5.52741C2.85433 4.97161 3.58006 4.55107 4.36818 4.29267L6.20068 8.36036L6.35516 8.69711C6.57889 9.10335 7.09561 9.67529 8.28354 9.23163L8.57652 9.10335C10.0365 8.57763 11.5804 8.32577 13.1312 8.36036H13.243C13.9892 8.36075 14.7346 8.40717 15.475 8.49934C15.6455 8.49934 15.8106 8.55813 16.0077 8.58485C16.6528 8.68262 17.2852 8.85111 17.8935 9.0873C17.918 9.0948 17.9413 9.10559 17.9628 9.11937C18.0587 9.16214 18.1439 9.18887 18.2291 9.23163C19.3585 9.62183 19.8752 9.14609 20.1309 8.73985C20.2034 8.60869 20.2675 8.47303 20.3227 8.33364L20.4345 8.06638L20.6157 7.67616L22.1392 4.26591C22.546 4.41026 22.9399 4.58908 23.3165 4.80044C23.4109 4.86604 23.5087 4.92671 23.6094 4.98219C23.7418 5.05944 23.8666 5.14892 23.9823 5.24945C24.0676 5.31893 24.1528 5.40445 24.2221 5.47394C24.2999 5.54123 24.3664 5.62064 24.4192 5.70913C24.4704 5.78354 24.5116 5.86442 24.5417 5.94967C24.5792 6.01923 24.6027 6.0955 24.6109 6.17416H26.4861C26.4328 2.77995 19.7846 1 13.2164 1ZM12.4493 6.81559C10.8027 6.83785 9.17546 7.17529 7.65495 7.80979L5.82778 3.79022C7.99763 3.2347 10.226 2.94219 12.4653 2.91894L12.4493 6.81559ZM18.8044 7.80979C17.2756 7.17195 15.6391 6.83445 13.9835 6.81559V2.90289C16.2228 2.92536 18.4513 3.21789 20.621 3.77416L18.8044 7.80979Z" fill="#00A872"/>
<path d="M112.585 81.7755H106.984L105.878 84.3343H103.736L108.78 73.2708H110.828L115.887 84.3343H113.711L112.585 81.7755ZM111.894 80.1623L109.782 75.3275L107.685 80.1623H111.894Z" fill="#00A872"/>
<path d="M124.316 84.3343L122.026 81.0932C121.933 81.103 121.784 81.1078 121.592 81.1078H119.065V84.3343H116.982V73.2708H121.592C122.564 73.2708 123.408 73.4267 124.129 73.7435C124.849 74.0603 125.402 74.5136 125.787 75.1033C126.172 75.693 126.364 76.3949 126.364 77.2039C126.364 78.0373 126.157 78.7538 125.748 79.3533C125.338 79.9527 124.746 80.4011 123.981 80.6984L126.557 84.3343H124.316ZM123.561 75.5809C123.092 75.2008 122.401 75.0107 121.498 75.0107H119.065V79.4215H121.498C122.406 79.4215 123.092 79.2314 123.561 78.8464C124.03 78.4613 124.267 77.9155 124.267 77.2088C124.267 76.5021 124.03 75.9611 123.561 75.5809Z" fill="#00A872"/>
<path d="M136.126 82.6138V84.3343H127.727V73.2708H135.904V74.9912H129.804V77.8667H135.213V79.558H129.804V82.609H136.126V82.6138Z" fill="#00A872"/>
<path d="M147.443 73.2708V84.3343H145.73L139.551 76.8432V84.3343H137.488V73.2708H139.201L145.38 80.7618V73.2708H147.443Z" fill="#00A872"/>
<path d="M157.078 81.7755H151.476L150.37 84.3343H148.229L153.272 73.2708H155.321L160.379 84.3343H158.203L157.078 81.7755ZM156.392 80.1623L154.279 75.3275L152.182 80.1623H156.392Z" fill="#00A872"/>
<path d="M161.479 73.2708H166.374C167.569 73.2708 168.63 73.4998 169.558 73.958C170.485 74.4161 171.206 75.0643 171.719 75.9026C172.233 76.7409 172.489 77.7059 172.489 78.8025C172.489 79.8991 172.233 80.8641 171.719 81.7024C171.206 82.5407 170.485 83.1889 169.558 83.6471C168.63 84.1052 167.569 84.3343 166.374 84.3343H161.479V73.2708ZM166.281 82.5992C167.1 82.5992 167.825 82.4432 168.452 82.1313C169.074 81.8194 169.558 81.3759 169.893 80.8056C170.229 80.2305 170.397 79.5628 170.397 78.8074C170.397 78.0471 170.229 77.3842 169.893 76.8091C169.558 76.234 169.079 75.7905 168.452 75.4835C167.83 75.1715 167.105 75.0156 166.281 75.0156H163.561V82.6041H166.281V82.5992Z" fill="white"/>
<path d="M180.845 81.7755H175.244L174.138 84.3343H171.996L177.04 73.2708H179.088L184.147 84.3343H181.97L180.845 81.7755ZM180.159 80.1623L178.047 75.3275L175.949 80.1623H180.159Z" fill="white"/>
<path d="M185.998 75.0107H182.287V73.2708H191.797V75.0107H188.086V84.3343H186.003V75.0107H185.998Z" fill="white"/>
<path d="M198.789 81.7755H193.188L192.082 84.3343H189.936L194.979 73.2708H197.028L202.086 84.3343H199.91L198.789 81.7755ZM198.099 80.1623L195.986 75.3275L193.889 80.1623H198.099Z" fill="white"/>
<path d="M95.8052 65C89.9421 65 84 66.5645 84 69.5473V81.5514C84 84.5342 89.9421 86.0987 95.8052 86.0987C96.664 86.0987 97.5375 86.0597 98.3864 85.9866L99.1859 84.2369C98.1643 84.3587 97.0292 84.4221 95.8052 84.4221C89.641 84.4221 85.6977 82.7211 85.6977 81.5514V80.5426C87.8791 81.9121 91.8521 82.6237 95.8052 82.6237C97.2513 82.6237 98.7023 82.5262 100.059 82.341L100.894 80.5182C99.4475 80.7765 97.7349 80.952 95.8003 80.952C89.6361 80.952 85.6928 79.251 85.6928 78.0813V77.0724C87.8742 78.442 91.8471 79.1535 95.8003 79.1535C97.883 79.1535 99.9706 78.9586 101.792 78.5638L102.68 76.6289C100.958 77.1212 98.6134 77.4769 95.8052 77.4769C89.641 77.4769 85.6977 75.776 85.6977 74.6063V73.5828C87.8791 74.9621 91.8521 75.6785 95.8052 75.6785C98.6134 75.6785 101.422 75.3227 103.603 74.6209L104.615 72.4033C104.24 72.5983 103.791 72.7835 103.253 72.9687C103.253 72.9687 103.238 72.9687 103.228 72.9833C103.179 72.9979 103.09 73.032 102.952 73.071C102.838 73.11 102.675 73.1587 102.488 73.2075C101.777 73.4171 100.543 73.6997 98.8306 73.8606C98.2433 73.9239 97.6066 73.9727 96.9206 73.9824C96.5603 73.997 96.1853 74.0068 95.7954 74.0068C94.6603 74.0068 93.6485 73.9434 92.7355 73.8606C91.2746 73.6997 90.1296 73.4658 89.34 73.2708C89.2018 73.2319 89.0636 73.1977 88.9304 73.1587C88.3924 73.0125 88.121 72.9004 88.121 72.9004C87.0747 72.53 86.3344 72.1109 85.9642 71.7064V71.6771H85.9593C85.9346 71.6527 85.91 71.6284 85.8853 71.5796C85.8359 71.5163 85.7866 71.4578 85.7619 71.3847C85.7471 71.3457 85.7372 71.3116 85.7125 71.2628C85.6385 71.0533 85.5645 70.7462 85.5645 70.3271C85.5645 69.8933 85.6385 69.5765 85.7372 69.3669C85.8014 69.2061 85.8754 69.094 85.9346 69.0355C85.9494 69.0111 85.9741 68.9868 85.9988 68.9624C86.3492 68.592 86.9859 68.2216 87.8841 67.8755L89.5177 71.448C89.5325 71.4724 89.6559 71.7453 89.6559 71.7453C89.8533 72.1011 90.3172 72.608 91.3783 72.2376C91.4671 72.1986 91.551 72.1645 91.6398 72.1255C92.4739 71.7795 93.8607 71.487 95.7065 71.4724H95.8052C96.5406 71.4724 97.2266 71.5211 97.804 71.5943C97.9521 71.6089 98.1051 71.643 98.2531 71.6674C98.954 71.7795 99.5117 71.9403 99.9361 72.1109C99.9509 72.1109 100 72.1352 100 72.1352C100.089 72.1742 100.163 72.1986 100.237 72.2327C101.249 72.5788 101.708 72.1596 101.935 71.799C102.034 71.6381 102.083 71.4773 102.108 71.4432L102.206 71.2092L102.369 70.8632L103.731 67.8707C103.731 67.8707 104.254 68.0413 104.778 68.3386C104.866 68.4019 104.95 68.4507 105.039 68.4994C105.163 68.5725 105.276 68.6456 105.375 68.7333C105.449 68.7967 105.523 68.8698 105.587 68.9283C105.661 69.0014 105.725 69.0648 105.76 69.1379C105.809 69.211 105.849 69.2743 105.873 69.3474C105.913 69.4108 105.923 69.4839 105.937 69.5424H107.61C107.61 66.5645 101.668 65 95.8052 65ZM95.1192 70.1272C93.5202 70.1906 91.9261 70.4733 90.8157 71.0045L89.1919 67.4564C90.7416 67.0372 92.7602 66.7399 95.1192 66.6912V70.1272ZM100.795 70.9997C99.6844 70.4684 98.0854 70.1857 96.4912 70.1224V66.6863C98.8602 66.7351 100.874 67.0324 102.419 67.4515L100.795 70.9997Z" fill="#00A872"/>
<path d="M108.83 87.4829V92.9075H107.557V90.685H105.064V92.9075H103.791V87.4829H105.064V89.6225H107.557V87.4829H108.83Z" fill="#0074BE"/>
<path d="M113.593 91.7426H111.042L110.553 92.9026H109.25L111.698 87.478H112.951L115.409 92.9026H114.077L113.593 91.7426ZM113.193 90.7922L112.325 88.716L111.456 90.7922H113.193Z" fill="#0074BE"/>
<path d="M115.828 87.4829H118.32C118.918 87.4829 119.446 87.595 119.9 87.8192C120.359 88.0434 120.714 88.3602 120.966 88.7696C121.217 89.179 121.346 89.6517 121.346 90.1927C121.346 90.7337 121.217 91.2114 120.966 91.6159C120.714 92.0253 120.359 92.3421 119.9 92.5663C119.441 92.7905 118.918 92.9026 118.32 92.9026H115.828V87.4829ZM118.261 91.8742C118.809 91.8742 119.248 91.7231 119.574 91.4209C119.9 91.1188 120.063 90.7094 120.063 90.1927C120.063 89.6761 119.9 89.2667 119.574 88.9645C119.248 88.6624 118.809 88.5113 118.261 88.5113H117.101V91.8742H118.261Z" fill="#0074BE"/>
<path d="M123.267 92.6346C122.808 92.3909 122.452 92.0595 122.191 91.6306C121.934 91.2066 121.801 90.7241 121.801 90.1928C121.801 89.6616 121.929 89.1839 122.191 88.755C122.447 88.331 122.808 87.9947 123.267 87.751C123.726 87.5073 124.239 87.3855 124.806 87.3855C125.374 87.3855 125.887 87.5073 126.346 87.751C126.8 87.9947 127.161 88.3261 127.422 88.755C127.684 89.1791 127.812 89.6616 127.812 90.1928C127.812 90.7241 127.679 91.2017 127.422 91.6306C127.161 92.0546 126.8 92.3909 126.346 92.6346C125.892 92.8783 125.379 93.0001 124.806 93.0001C124.239 93.0001 123.726 92.8783 123.267 92.6346ZM125.69 91.7086C125.951 91.5624 126.159 91.3577 126.307 91.0945C126.455 90.8313 126.529 90.534 126.529 90.1977C126.529 89.8614 126.455 89.5641 126.307 89.3009C126.159 89.0377 125.951 88.833 125.69 88.6868C125.428 88.5406 125.137 88.4675 124.811 88.4675C124.486 88.4675 124.194 88.5406 123.933 88.6868C123.671 88.833 123.464 89.0377 123.316 89.3009C123.168 89.5641 123.094 89.8614 123.094 90.1977C123.094 90.534 123.168 90.8313 123.316 91.0945C123.464 91.3577 123.671 91.5624 123.933 91.7086C124.194 91.8548 124.486 91.9279 124.811 91.9279C125.132 91.9279 125.428 91.8548 125.69 91.7086Z" fill="#0074BE"/>
<path d="M129.731 92.6346C129.272 92.3909 128.917 92.0595 128.656 91.6306C128.399 91.2066 128.266 90.7241 128.266 90.1928C128.266 89.6616 128.394 89.1839 128.656 88.755C128.912 88.331 129.272 87.9947 129.731 87.751C130.19 87.5073 130.704 87.3855 131.271 87.3855C131.839 87.3855 132.352 87.5073 132.811 87.751C133.265 87.9947 133.625 88.3261 133.887 88.755C134.148 89.1791 134.277 89.6616 134.277 90.1928C134.277 90.7241 134.144 91.2017 133.887 91.6306C133.625 92.0546 133.265 92.3909 132.811 92.6346C132.357 92.8783 131.844 93.0001 131.271 93.0001C130.704 93.0001 130.19 92.8783 129.731 92.6346ZM132.155 91.7086C132.416 91.5624 132.623 91.3577 132.772 91.0945C132.92 90.8313 132.994 90.534 132.994 90.1977C132.994 89.8614 132.92 89.5641 132.772 89.3009C132.623 89.0377 132.416 88.833 132.155 88.6868C131.893 88.5406 131.602 88.4675 131.276 88.4675C130.95 88.4675 130.659 88.5406 130.398 88.6868C130.136 88.833 129.929 89.0377 129.781 89.3009C129.633 89.5641 129.559 89.8614 129.559 90.1977C129.559 90.534 129.633 90.8313 129.781 91.0945C129.929 91.3577 130.136 91.5624 130.398 91.7086C130.659 91.8548 130.95 91.9279 131.276 91.9279C131.597 91.9279 131.893 91.8548 132.155 91.7086Z" fill="#0074BE"/>
<path d="M138.723 87.7217C139.084 87.8826 139.355 88.1068 139.552 88.4041C139.745 88.6965 139.844 89.0474 139.844 89.4519C139.844 89.8516 139.745 90.1976 139.552 90.4949C139.36 90.7922 139.084 91.0213 138.723 91.1773C138.363 91.3332 137.944 91.4112 137.455 91.4112H136.349V92.9075H135.076V87.4829H137.455C137.944 87.4829 138.363 87.5609 138.723 87.7217ZM138.255 90.144C138.452 89.9832 138.551 89.7492 138.551 89.4519C138.551 89.1449 138.452 88.9158 138.255 88.7501C138.057 88.5893 137.766 88.5064 137.386 88.5064H136.349V90.3877H137.386C137.766 90.3877 138.057 90.3048 138.255 90.144Z" fill="#0074BE"/>
<path d="M303.639 30.65C303.639 31.1415 303.241 31.54 302.749 31.54C302.258 31.54 301.859 31.1415 301.859 30.65C301.859 30.1585 302.258 29.76 302.749 29.76C303.241 29.76 303.639 30.1585 303.639 30.65Z" fill="#00A872" stroke="#00D2A0"/>
<path d="M235.36 89.44H252.07L260.42 74.74L252.07 60.04H235.36L227.01 74.74L235.36 89.44Z" stroke="#00D2A0" stroke-miterlimit="10" stroke-linecap="round"/>
<path d="M250.971 84.8701H237.131" stroke="#00D2A0" stroke-miterlimit="10" stroke-linecap="round"/>
<path d="M260.559 74.7398H277.269L285.619 60.0398L277.269 45.3398H260.559L252.199 60.0398L260.559 74.7398Z" stroke="#00D2A0" stroke-miterlimit="10" stroke-linecap="round"/>
<path d="M276.16 70.1799H262.33" stroke="#00D2A0" stroke-miterlimit="10" stroke-linecap="round"/>
<path d="M227.01 74.74H210.48" stroke="#00D2A0" stroke-miterlimit="10" stroke-linecap="round"/>
<path d="M285.619 30.6499H302.749" stroke="#00D2A0" stroke-miterlimit="10" stroke-linecap="round"/>
<path d="M180 68.5L184 60H201.5" stroke="#00D2A0" stroke-miterlimit="10" stroke-linecap="round"/>
<path d="M260.33 45.34H277.04L285.4 30.65L277.04 15.95H260.33L251.98 30.65L260.33 45.34Z" stroke="#00D2A0" stroke-miterlimit="10" stroke-linecap="round"/>
<path d="M275.94 40.78H262.1" stroke="#00D2A0" stroke-miterlimit="10" stroke-linecap="round"/>
<path d="M210.26 45.34H226.97L235.32 30.65L226.97 15.95H210.26L201.9 30.65L210.26 45.34Z" stroke="#00D2A0" stroke-miterlimit="10" stroke-linecap="round"/>
<path d="M225.86 40.78H212.02" stroke="#00D2A0" stroke-miterlimit="10" stroke-linecap="round"/>
<path d="M235.379 30.65H252.089L260.449 15.95L252.089 1.25H235.379L227.029 15.95L235.379 30.65Z" stroke="#00D2A0" stroke-miterlimit="10" stroke-linecap="round"/>
<path d="M250.99 26.0801H237.15" stroke="#00D2A0" stroke-miterlimit="10" stroke-linecap="round"/>
<path d="M210.26 74.7398H226.97L235.32 60.0398L226.97 45.3398H210.26L201.9 60.0398L210.26 74.7398Z" stroke="#00D2A0" stroke-miterlimit="10" stroke-linecap="round"/>
<path d="M225.86 70.1799H212.02" stroke="#00D2A0" stroke-miterlimit="10" stroke-linecap="round"/>
<path d="M180 69C180.552 69 181 68.5523 181 68C181 67.4477 180.552 67 180 67C179.448 67 179 67.4477 179 68C179 68.5523 179.448 69 180 69Z" fill="#00D2A0"/>
</svg>
