<svg width="304" height="122" viewBox="0 0 304 122" fill="none" xmlns="http://www.w3.org/2000/svg">
<path d="M32.045 20.1304H25.8497L24.6297 23.0115H22.2539L27.8313 10.5571H30.1006L35.694 22.9954H33.2862L32.045 20.1304ZM31.2885 18.3184L28.95 12.8823L26.6061 18.3184H31.2885Z" fill="#00A872"/>
<path d="M36.918 10.5573H42.3356C43.5532 10.534 44.7592 10.7976 45.8568 11.3271C46.8472 11.8094 47.6778 12.5686 48.2486 13.5133C48.8073 14.5085 49.1008 15.6315 49.1008 16.7738C49.1008 17.9161 48.8073 19.0391 48.2486 20.0344C47.6809 20.9816 46.8495 21.7416 45.8568 22.2206C44.7605 22.7544 43.5539 23.02 42.3356 22.9957H36.918V10.5573ZM42.245 21.0393C43.0768 21.0553 43.9004 20.8721 44.6475 20.5048C45.3165 20.1787 45.8731 19.6594 46.2456 19.0135C46.6104 18.3208 46.8011 17.5492 46.8011 16.7658C46.8011 15.9824 46.6104 15.2108 46.2456 14.5181C45.8713 13.8723 45.3154 13.3516 44.6475 13.0215C43.8992 12.6576 43.0764 12.4745 42.245 12.487H39.2353V21.0393H42.245Z" fill="#FCFCFD"/>
<path d="M49.7708 22.7178C49.6294 22.5793 49.5185 22.4126 49.4451 22.2285C49.3717 22.0444 49.3375 21.8469 49.3447 21.6487C49.3381 21.4546 49.3711 21.2611 49.4416 21.0802C49.5122 20.8993 49.6188 20.7348 49.755 20.5966C49.8911 20.4585 50.0539 20.3497 50.2334 20.277C50.413 20.2042 50.6054 20.169 50.799 20.1735C50.9951 20.1658 51.1907 20.1983 51.3739 20.2691C51.5571 20.3399 51.724 20.4474 51.8644 20.5851C52.1469 20.8601 52.309 21.2365 52.315 21.6314C52.321 22.0264 52.1704 22.4075 51.8963 22.6911C51.6222 22.9746 51.2471 23.1373 50.8535 23.1433C50.4599 23.1493 50.08 22.9982 49.7975 22.7231L49.7708 22.7178Z" fill="#FCFCFD"/>
<path d="M56.2636 22.3647C55.277 21.836 54.4548 21.0443 53.8877 20.0769C53.3095 19.0797 53.013 17.9432 53.0301 16.7896C53.0121 15.6345 53.3126 14.4969 53.8984 13.5023C54.4692 12.5374 55.2928 11.7479 56.2795 11.2199C57.3213 10.6624 58.487 10.3792 59.6675 10.3968C60.6225 10.3866 61.5698 10.5683 62.4536 10.9313C63.2757 11.2724 64.0058 11.8035 64.5844 12.4814L63.0982 13.8818C62.6836 13.413 62.1728 13.0398 61.6009 12.7879C61.0289 12.536 60.4093 12.4113 59.7848 12.4226C58.9916 12.4013 58.2064 12.5854 57.5048 12.9571C56.8365 13.3139 56.2824 13.8532 55.9067 14.5126C55.5327 15.2052 55.3369 15.9805 55.3369 16.7683C55.3369 17.556 55.5327 18.3313 55.9067 19.0239C56.2794 19.6857 56.8342 20.2258 57.5048 20.5794C58.2039 20.9604 58.9893 21.1537 59.7848 21.1406C60.4108 21.1513 61.0315 21.0249 61.6038 20.7701C62.1761 20.5153 62.686 20.1383 63.0982 19.6653L64.5844 21.0872C64.0057 21.7637 63.2755 22.2931 62.4536 22.632C61.5685 22.9969 60.6191 23.1787 59.6623 23.1665C58.4802 23.1906 57.3111 22.9148 56.2636 22.3647Z" fill="#73858F"/>
<path d="M77.8205 23.0115V14.7638L73.7453 21.5896H72.7171L68.6473 14.8707V23.0115H66.4473V10.5571H68.3437L73.2658 18.7994L78.1028 10.5571H79.9992V22.9954L77.8205 23.0115Z" fill="#73858F"/>
<path d="M13.2164 1C6.64815 1 0 2.77995 0 6.17416V19.8258C0 23.22 6.64815 25 13.2164 25C14.1806 25 15.1554 24.9572 16.109 24.877L17.0039 22.8833C15.7468 23.0302 14.482 23.1016 13.2164 23.0971C6.29123 23.0971 1.89643 21.1621 1.89643 19.8258V18.6766C4.34154 20.2374 8.78429 21.0499 13.2164 21.0499C14.8094 21.051 16.4006 20.9421 17.9788 20.7238L18.9163 18.6499C17.0347 18.9834 15.1272 19.148 13.2164 19.1416C6.29123 19.1416 1.89643 17.2067 1.89643 15.8757V14.7265C4.34154 16.2819 8.78429 17.0944 13.2164 17.0944C15.4688 17.113 17.7169 16.8926 19.9231 16.437L20.914 14.2347C18.4047 14.9111 15.8144 15.2367 13.2164 15.2022C6.29123 15.2022 1.89643 13.2673 1.89643 11.9363V10.7764C4.34154 12.3425 8.78429 13.155 13.2164 13.155C16.1704 13.1955 19.1136 12.7901 21.9474 11.9523L23.0767 9.4294C22.588 9.6824 22.0804 9.89686 21.5585 10.0708C21.5482 10.0672 21.5369 10.0672 21.5266 10.0708C21.427 10.1081 21.3257 10.1402 21.2229 10.167C21.0951 10.2098 20.914 10.2686 20.6902 10.322C19.3515 10.7004 17.9798 10.9492 16.5937 11.065C15.9385 11.1345 15.2247 11.1933 14.4629 11.204C14.0581 11.204 13.6372 11.2361 13.2057 11.2361C11.9326 11.2361 10.8032 11.1666 9.78044 11.065C8.50046 10.9284 7.23139 10.7033 5.98226 10.3915L5.51881 10.2686C4.92218 10.0976 4.6132 9.97459 4.6132 9.97459C3.71517 9.70848 2.88852 9.24259 2.19474 8.61157C2.16338 8.57778 2.13654 8.54007 2.11485 8.49934C2.05535 8.43263 2.00679 8.35683 1.97101 8.27482C1.95776 8.22516 1.9399 8.17687 1.91772 8.13052C1.8012 7.78651 1.74531 7.42475 1.75258 7.06148C1.74072 6.69556 1.8061 6.33124 1.94438 5.99244C1.99187 5.85171 2.06806 5.72245 2.16811 5.61292C2.18651 5.58089 2.20989 5.55204 2.23736 5.52741C2.85433 4.97161 3.58006 4.55107 4.36818 4.29267L6.20068 8.36036L6.35516 8.69711C6.57889 9.10335 7.09561 9.67529 8.28354 9.23163L8.57652 9.10335C10.0365 8.57763 11.5804 8.32577 13.1312 8.36036H13.243C13.9892 8.36075 14.7346 8.40717 15.475 8.49934C15.6455 8.49934 15.8106 8.55813 16.0077 8.58485C16.6528 8.68262 17.2852 8.85111 17.8935 9.0873C17.918 9.0948 17.9413 9.10559 17.9628 9.11937C18.0587 9.16214 18.1439 9.18887 18.2291 9.23163C19.3585 9.62183 19.8752 9.14609 20.1309 8.73985C20.2034 8.60869 20.2675 8.47303 20.3227 8.33364L20.4345 8.06638L20.6157 7.67616L22.1392 4.26591C22.546 4.41026 22.9399 4.58908 23.3165 4.80044C23.4109 4.86604 23.5087 4.92671 23.6094 4.98219C23.7418 5.05944 23.8666 5.14892 23.9823 5.24945C24.0676 5.31893 24.1528 5.40445 24.2221 5.47394C24.2999 5.54123 24.3664 5.62064 24.4192 5.70913C24.4704 5.78354 24.5116 5.86442 24.5417 5.94967C24.5792 6.01923 24.6027 6.0955 24.6109 6.17416H26.4861C26.4328 2.77995 19.7846 1 13.2164 1ZM12.4493 6.81559C10.8027 6.83785 9.17546 7.17529 7.65495 7.80979L5.82778 3.79022C7.99763 3.2347 10.226 2.94219 12.4653 2.91894L12.4493 6.81559ZM18.8044 7.80979C17.2756 7.17195 15.6391 6.83445 13.9835 6.81559V2.90289C16.2228 2.92536 18.4513 3.21789 20.621 3.77416L18.8044 7.80979Z" fill="#00A872"/>
<path d="M227.851 1.25415H211.131L202.762 16.1932L211.131 31.1322H227.851L236.221 16.1932L227.851 1.25415Z" stroke="#00D2A0" stroke-miterlimit="10" stroke-linecap="round"/>
<path d="M212.232 5.88818H226.089" stroke="#00D2A0" stroke-miterlimit="10" stroke-linecap="round"/>
<path d="M202.632 16.1931H185.903L177.543 31.1321L185.903 46.061H202.632L210.992 31.1321L202.632 16.1931Z" stroke="#00D2A0" stroke-miterlimit="10" stroke-linecap="round"/>
<path d="M187.004 20.8271H200.86" stroke="#00D2A0" stroke-miterlimit="10" stroke-linecap="round"/>
<path d="M236.221 16.1931H252.77" stroke="#00D2A0" stroke-miterlimit="10" stroke-linecap="round"/>
<path d="M177.543 31.1321H160.393" stroke="#00D2A0" stroke-miterlimit="10" stroke-linecap="round"/>
<path d="M202.853 46.061H186.123L177.764 61.0001L186.123 75.9391H202.853L211.223 61.0001L202.853 46.061Z" stroke="#00D2A0" stroke-miterlimit="10" stroke-linecap="round"/>
<path d="M187.234 50.7053H201.08" stroke="#00D2A0" stroke-miterlimit="10" stroke-linecap="round"/>
<path d="M177.632 61H160.903L152.533 75.939L160.903 90.8781H177.632L185.992 75.939L177.632 61Z" stroke="#00D2A0" stroke-miterlimit="10" stroke-linecap="round"/>
<path d="M162.006 65.6443H175.862" stroke="#00D2A0" stroke-miterlimit="10" stroke-linecap="round"/>
<path d="M211.223 61H227.772" stroke="#00D2A0" stroke-miterlimit="10" stroke-linecap="round"/>
<path d="M152.534 75.939H135.395" stroke="#00D2A0" stroke-miterlimit="10" stroke-linecap="round"/>
<path d="M277.689 31.1321H260.959L252.6 46.0609L260.959 61H277.689L286.059 46.0609L277.689 31.1321Z" stroke="#00D2A0" stroke-miterlimit="10" stroke-linecap="round"/>
<path d="M262.07 35.7664H275.916" stroke="#00D2A0" stroke-miterlimit="10" stroke-linecap="round"/>
<path d="M252.47 46.061H235.741L227.381 61.0001L235.741 75.9391H252.47L260.83 61.0001L252.47 46.061Z" stroke="#00D2A0" stroke-miterlimit="10" stroke-linecap="round"/>
<path d="M236.842 50.7053H250.698" stroke="#00D2A0" stroke-miterlimit="10" stroke-linecap="round"/>
<path d="M286.059 46.061H302.608" stroke="#00D2A0" stroke-miterlimit="10" stroke-linecap="round"/>
<path d="M252.691 105.817H235.961L227.602 90.878L235.961 75.939H252.691L261.06 90.878L252.691 105.817Z" stroke="#00D2A0" stroke-miterlimit="10" stroke-linecap="round"/>
<path d="M237.072 101.173H250.918" stroke="#00D2A0" stroke-miterlimit="10" stroke-linecap="round"/>
<path d="M227.47 120.746H210.741L202.371 105.817L210.741 90.8779H227.47L235.83 105.817L227.47 120.746Z" stroke="#00D2A0" stroke-miterlimit="10" stroke-linecap="round"/>
<path d="M211.844 116.112H225.7" stroke="#00D2A0" stroke-miterlimit="10" stroke-linecap="round"/>
<path d="M261.061 90.8779H277.61" stroke="#00D2A0" stroke-miterlimit="10" stroke-linecap="round"/>
<path d="M202.372 105.817H185.232" stroke="#00D2A0" stroke-miterlimit="10" stroke-linecap="round"/>
<path d="M250.698 17.6057C251.467 17.6057 252.09 16.9733 252.09 16.1931C252.09 15.413 251.467 14.7805 250.698 14.7805C249.93 14.7805 249.307 15.413 249.307 16.1931C249.307 16.9733 249.93 17.6057 250.698 17.6057Z" fill="#00D2A0"/>
<path d="M158.392 32.5447C159.16 32.5447 159.783 31.9122 159.783 31.1321C159.783 30.3519 159.16 29.7195 158.392 29.7195C157.623 29.7195 157 30.3519 157 31.1321C157 31.9122 157.623 32.5447 158.392 32.5447Z" fill="#00D2A0"/>
<path d="M227.831 61H211.112L202.742 75.939L211.112 90.8781H227.831L236.201 75.939L227.831 61Z" stroke="#00D2A0" stroke-miterlimit="10" stroke-linecap="round"/>
<path d="M212.213 65.6443H226.059" stroke="#00D2A0" stroke-miterlimit="10" stroke-linecap="round"/>
<path d="M133.392 77.3516C134.16 77.3516 134.783 76.7191 134.783 75.939C134.783 75.1588 134.16 74.5264 133.392 74.5264C132.623 74.5264 132 75.1588 132 75.939C132 76.7191 132.623 77.3516 133.392 77.3516Z" fill="#00D2A0"/>
<path d="M185.231 107.23C186 107.23 186.623 106.597 186.623 105.817C186.623 105.037 186 104.405 185.231 104.405C184.463 104.405 183.84 105.037 183.84 105.817C183.84 106.597 184.463 107.23 185.231 107.23Z" fill="#00D2A0"/>
<path d="M277.608 92.2905C278.377 92.2905 279 91.6581 279 90.8779C279 90.0978 278.377 89.4653 277.608 89.4653C276.84 89.4653 276.217 90.0978 276.217 90.8779C276.217 91.6581 276.84 92.2905 277.608 92.2905Z" fill="#00D2A0"/>
<path d="M302.608 47.4736C303.377 47.4736 304 46.8412 304 46.061C304 45.2809 303.377 44.6484 302.608 44.6484C301.84 44.6484 301.217 45.2809 301.217 46.061C301.217 46.8412 301.84 47.4736 302.608 47.4736Z" fill="#00D2A0"/>
<path d="M185.838 72.319C179.329 83.5926 164.941 87.4596 153.706 80.973C142.471 74.4864 138.626 60.0926 145.135 48.819C151.644 37.5455 166.032 33.6785 177.267 40.1651C188.502 46.6517 192.347 61.0455 185.838 72.319Z" stroke="#FCFCFD" stroke-width="5"/>
<path d="M153.197 81.8486L137.747 108.609" stroke="#FCFCFD" stroke-width="2"/>
<path d="M147.617 91.521L135.518 112.478" stroke="#FCFCFD" stroke-width="6"/>
</svg>
