<svg width="24" height="25" viewBox="0 0 24 25" fill="none" xmlns="http://www.w3.org/2000/svg">
<circle cx="12" cy="12.5" r="11.5" transform="rotate(-180 12 12.5)" stroke="#7F7F7F"/>
<path d="M8.70711 10.7929C8.31658 10.4024 7.68342 10.4024 7.29289 10.7929C6.90237 11.1834 6.90237 11.8166 7.29289 12.2071L8.70711 10.7929ZM12 15.5L11.2929 16.2071C11.6834 16.5976 12.3166 16.5976 12.7071 16.2071L12 15.5ZM16.7071 12.2071C17.0976 11.8166 17.0976 11.1834 16.7071 10.7929C16.3166 10.4024 15.6834 10.4024 15.2929 10.7929L16.7071 12.2071ZM7.29289 12.2071L11.2929 16.2071L12.7071 14.7929L8.70711 10.7929L7.29289 12.2071ZM12.7071 16.2071L16.7071 12.2071L15.2929 10.7929L11.2929 14.7929L12.7071 16.2071Z" fill="#7F7F7F"/>
</svg>
