<svg width="24" height="25" viewBox="0 0 24 25" fill="none" xmlns="http://www.w3.org/2000/svg">
<path d="M15.2929 14.2071C15.6834 14.5976 16.3166 14.5976 16.7071 14.2071C17.0976 13.8166 17.0976 13.1834 16.7071 12.7929L15.2929 14.2071ZM12 9.5L12.7071 8.79289C12.3166 8.40237 11.6834 8.40237 11.2929 8.79289L12 9.5ZM7.29289 12.7929C6.90237 13.1834 6.90237 13.8166 7.29289 14.2071C7.68342 14.5976 8.31658 14.5976 8.70711 14.2071L7.29289 12.7929ZM16.7071 12.7929L12.7071 8.79289L11.2929 10.2071L15.2929 14.2071L16.7071 12.7929ZM11.2929 8.79289L7.29289 12.7929L8.70711 14.2071L12.7071 10.2071L11.2929 8.79289Z" fill="#7F7F7F"/>
</svg>
