<svg width="160" height="72" viewBox="0 0 160 72" fill="none" xmlns="http://www.w3.org/2000/svg">
<path d="M37.5133 49.7038C35.7878 48.7953 33.9279 48.1703 32.0048 47.8528C30.0276 47.51 28.0253 47.3341 26.0188 47.327C24.3786 47.3247 22.7413 47.1857 21.1241 46.9115C19.6336 46.6835 18.194 46.1978 16.8694 45.476C15.6554 44.7785 14.6347 43.7879 13.9 42.5943C13.088 41.1674 12.6951 39.5395 12.7668 37.8984C12.7522 36.3894 13.1554 34.9058 13.9315 33.6127C14.6602 32.4462 15.6545 31.4694 16.8326 30.7625C18.1155 30.0101 19.5144 29.477 20.9719 29.185C23.6761 28.6192 26.4581 28.5302 29.1928 28.922C30.2977 29.0797 31.3828 29.3547 32.4297 29.7424C33.4559 30.1295 34.4221 30.6607 35.2994 31.3199C36.1815 31.9655 36.9494 32.7547 37.571 33.6547L37.933 34.1806L40.5824 33.0763L40.021 32.277C39.3254 31.2871 38.529 30.3725 37.6445 29.5478C36.738 28.7161 35.7102 28.0281 34.5964 27.5075C33.3642 26.9446 32.0673 26.5366 30.7352 26.2928C29.1188 25.998 27.478 25.8589 25.8352 25.8774C24.016 25.8826 22.2027 26.0836 20.4263 26.4768C18.6288 26.8638 16.9052 27.5386 15.3217 28.4751C13.7703 29.4 12.4554 30.6747 11.4815 32.1981C10.4419 33.9111 9.91902 35.8889 9.9758 37.8931C9.9094 39.9559 10.391 41.9993 11.3713 43.8142C12.2628 45.3665 13.5247 46.6728 15.0437 47.6162C16.6206 48.5809 18.359 49.2508 20.1745 49.5934C22.099 49.9767 24.0566 50.1687 26.0188 50.1666C27.695 50.1726 29.3688 50.2921 31.029 50.5242C32.6503 50.7384 34.2268 51.2124 35.6981 51.9282C37.037 52.5791 38.2009 53.542 39.0924 54.7362C40.0071 56.0878 40.4583 57.701 40.3778 59.3322C40.4294 60.8743 39.9963 62.3937 39.1397 63.6758C38.2835 64.8955 37.167 65.9086 35.8712 66.6416C34.4526 67.4504 32.9159 68.0307 31.3175 68.3611C29.6718 68.7091 27.9945 68.8853 26.3126 68.887C23.589 68.8718 20.8933 68.3364 18.3698 67.3094C15.8215 66.3079 13.5199 64.7651 11.6231 62.7871L11.0985 62.2612L9 64.0965L9.59283 64.6802C11.6367 66.6868 13.9935 68.3458 16.5703 69.5916C19.6144 71.0282 22.9488 71.7391 26.3126 71.6688C28.1781 71.6556 30.0376 71.4547 31.8631 71.0693C33.784 70.6837 35.63 69.9894 37.3297 69.0132C38.9908 68.0755 40.4241 66.7807 41.5267 65.2218C42.6877 63.4832 43.2749 61.4232 43.2055 59.3322C43.2799 57.2439 42.732 55.1807 41.6316 53.4058C40.5995 51.8561 39.1962 50.5905 37.55 49.7249" fill="#FCFCFD"/>
<path d="M62.4329 69.1813C60.6329 69.2073 58.8526 68.8036 57.2391 68.0034C55.685 67.2147 54.2988 66.1306 53.1576 64.8114C51.9743 63.4379 51.0451 61.8637 50.4138 60.1629C49.7577 58.421 49.3823 56.5857 49.3016 54.7256C49.3356 51.1242 50.6129 47.6457 52.9162 44.8816C54.0897 43.499 55.5138 42.3517 57.1132 41.5003C58.7552 40.6328 60.5874 40.19 62.4434 40.212C64.2263 40.2009 65.9865 40.6135 67.5795 41.4162C69.1709 42.2147 70.5954 43.3106 71.7765 44.6449C72.9734 46.018 73.92 47.5915 74.5727 49.2935C75.2565 51.023 75.6123 52.8652 75.622 54.7256C75.5749 58.3353 74.2787 61.8167 71.9548 64.5748C70.785 65.9515 69.3597 67.0873 67.7579 67.9193C66.1068 68.7699 64.2734 69.2032 62.4172 69.1813H62.4329ZM74.0533 42.9727C72.6495 41.3373 70.9495 39.9831 69.0432 38.9815C67.0095 37.9207 64.7463 37.3788 62.4539 37.4039C60.2953 37.3968 58.163 37.8786 56.2161 38.8132C54.2998 39.7297 52.5815 41.0143 51.1587 42.5941C49.7078 44.2169 48.5583 46.0869 47.7644 48.1156C46.1326 52.2701 46.0989 56.8841 47.67 61.0621C48.4189 63.0577 49.5129 64.9054 50.9017 66.5205C52.306 68.1362 54.0114 69.4616 55.9223 70.4223C57.9419 71.4348 60.1645 71.9742 62.4224 71.9999C64.605 71.9725 66.7546 71.4625 68.7179 70.5065C70.6277 69.575 72.3411 68.2843 73.7648 66.7045C75.2069 65.1046 76.3464 63.2551 77.1276 61.2462C77.9431 59.1789 78.358 56.9748 78.35 54.7519C78.3368 52.6378 77.9587 50.5421 77.2326 48.5573C76.517 46.5191 75.4399 44.6272 74.0533 42.9727Z" fill="#FCFCFD"/>
<path d="M92.7875 68.4032C92.3205 68.5241 91.9061 68.6135 91.5598 68.6713C91.2136 68.7292 90.8044 68.7923 90.3847 68.8501C90.0043 68.9063 89.6203 68.9344 89.2357 68.9343C88.8349 68.9602 88.4339 68.8869 88.0679 68.721C87.702 68.555 87.3824 68.3014 87.1372 67.9825C86.6414 67.3802 86.3624 66.6281 86.3451 65.8475V24.9465H83.5593V65.8475C83.5368 67.3218 84.0474 68.7545 84.9968 69.8808C85.5133 70.4808 86.1602 70.954 86.8879 71.2639C87.6155 71.5739 88.4044 71.7124 89.1938 71.6687C89.7461 71.6677 90.2979 71.6343 90.8463 71.5688L92.2523 71.3848C92.6773 71.3164 93.1704 71.2217 93.7213 71.0955L94.6656 70.8747L93.4222 68.2454L92.7875 68.4032Z" fill="#FCFCFD"/>
<path d="M104.817 40.2329C103.327 41.2922 102.032 42.6016 100.987 44.1032V37.9087H98.1855V71.3583H100.971V50.5344C101.339 49.2059 101.868 47.9273 102.545 46.7272C103.852 44.4005 105.912 42.5901 108.384 41.5949C109.723 41.0635 111.142 40.7613 112.581 40.701L113.321 40.6641V37.9087H112.544C109.774 37.8482 107.054 38.6612 104.77 40.2329" fill="#FCFCFD"/>
<path d="M144.642 7.44092L121.559 32.4558L150.57 19.0413C149.724 14.692 147.669 10.6709 144.642 7.44092Z" fill="#FCFCFD"/>
<path d="M127.513 1.47032e-05C124.416 -0.00346187 121.349 0.609622 118.49 1.8037L115.395 27.965L130.871 0.241908C129.759 0.0812977 128.637 0.000461246 127.513 1.47032e-05Z" fill="#FCFCFD"/>
<path d="M150.796 20.5083L123.311 35.9001L149.101 32.8343C150.762 28.9534 151.348 24.695 150.796 20.5083Z" fill="#FCFCFD"/>
<path d="M140.681 43.0517C143.761 40.9608 146.304 38.1697 148.104 34.9062L123.893 39.7178L140.681 43.0517Z" fill="#FCFCFD"/>
<path d="M132.287 0.489258L118.83 29.7215L143.792 6.58391C140.609 3.50257 136.62 1.38924 132.287 0.489258Z" fill="#FCFCFD"/>
<path d="M129.475 47.0009C132.018 46.7908 134.509 46.1655 136.851 45.1499L123.311 43.5408L129.475 47.0009Z" fill="#FCFCFD"/>
<path d="M106.103 13.8667C105.024 16.2597 104.355 18.8179 104.125 21.4337L107.797 27.9649L106.103 13.8667Z" fill="#FCFCFD"/>
<path d="M116.453 2.77124C113.148 4.54819 110.312 7.08789 108.18 10.1805L111.584 27.3444L116.453 2.77124Z" fill="#FCFCFD"/>
</svg>
