<svg width="160" height="72" viewBox="0 0 160 72" fill="none" xmlns="http://www.w3.org/2000/svg">
<g clip-path="url(#clip0_1298:23256)">
<path fill-rule="evenodd" clip-rule="evenodd" d="M137.25 36.3108C137.13 36.0566 137.076 35.9273 137.01 35.8025C135.282 32.503 133.549 29.208 131.813 25.9174C131.723 25.7959 131.683 25.6453 131.698 25.4953C131.714 25.3452 131.785 25.2064 131.897 25.1059C134.648 21.8808 137.389 18.6511 140.122 15.417C140.238 15.2935 140.315 15.1384 140.344 14.9712C139.544 15.1807 138.739 15.3858 137.939 15.5999C134.619 16.4916 131.297 17.3834 127.971 18.2751C127.914 18.3007 127.853 18.3141 127.791 18.3143C127.728 18.3145 127.667 18.3016 127.61 18.2764C127.553 18.2511 127.502 18.2142 127.46 18.1679C127.418 18.1216 127.386 18.067 127.367 18.0076C125.482 14.8478 123.588 11.6895 121.685 8.53273C121.585 8.35391 121.445 8.20115 121.276 8.08685C121.119 8.93104 120.971 9.77375 120.831 10.615C120.301 13.5875 119.773 16.56 119.249 19.5325C119.191 19.8535 119.115 20.1701 119.084 20.4956C119.053 20.8211 118.902 20.9147 118.639 21.0039C114.724 22.2404 110.809 23.4814 106.894 24.7269C106.699 24.7822 106.521 24.8831 106.373 25.0212L115.999 28.8691C115.879 28.9672 115.803 29.0386 115.719 29.0965C113.713 30.394 111.717 31.687 109.712 32.9935C109.615 33.0697 109.497 33.1158 109.374 33.1261C109.251 33.1364 109.127 33.1104 109.019 33.0514C106.627 31.968 104.226 30.9112 101.834 29.8367C100.754 29.3872 99.7959 28.6873 99.0377 27.7946C97.335 25.7034 97.6728 23.3358 99.9269 21.8778C100.684 21.4073 101.499 21.0357 102.35 20.772C106.187 19.5191 110.037 18.3108 113.909 17.098C114.051 17.0703 114.18 16.997 114.276 16.8891C114.372 16.7813 114.431 16.6448 114.443 16.5005C114.954 13.5221 115.487 10.5481 116.021 7.58301C116.31 5.99123 116.465 4.35933 117.23 2.90578C117.523 2.33761 117.885 1.80753 118.306 1.32737C119.835 -0.375871 121.965 -0.456129 123.583 1.18023C124.121 1.73356 124.594 2.34694 124.993 3.00833C126.771 5.92138 128.529 8.84632 130.265 11.7832C130.293 11.8564 130.336 11.9231 130.391 11.9792C130.446 12.0352 130.511 12.0795 130.584 12.1091C130.656 12.1388 130.734 12.1532 130.812 12.1516C130.891 12.15 130.968 12.1324 131.039 12.0997C135.331 10.9464 139.628 9.80347 143.932 8.67095C144.799 8.42156 145.71 8.36976 146.599 8.51935C148.582 8.88943 149.445 10.4009 148.778 12.3227C148.449 13.1738 147.967 13.9568 147.355 14.6323C144.356 18.1696 141.356 21.7039 138.357 25.2352C138.244 25.3365 138.173 25.4761 138.158 25.6269C138.142 25.7777 138.183 25.9289 138.272 26.0512C140.051 29.4443 141.829 32.8463 143.634 36.2394C144.092 37.029 144.353 37.9177 144.394 38.83C144.403 39.8508 144.037 40.8392 143.368 41.6082C142.699 42.3773 141.772 42.8736 140.762 43.0034C139.62 43.1225 138.466 42.9792 137.388 42.5843C134.693 41.746 131.998 40.9226 129.301 40.1141C129.193 40.1 129.094 40.0468 129.023 39.9647C128.952 39.8825 128.913 39.7771 128.914 39.6682C128.603 37.7643 128.265 35.8649 127.936 33.961C127.931 33.8868 127.931 33.8123 127.936 33.7381L137.25 36.3108Z" fill="#FCFCFD"/>
<path fill-rule="evenodd" clip-rule="evenodd" d="M131.998 64.0356C129.575 64.0356 127.147 64.0356 124.72 64.0356C124.583 64.0473 124.447 64.019 124.326 63.9541C124.205 63.8891 124.106 63.7904 124.04 63.6699C121.162 59.2825 118.279 54.8981 115.393 50.5166C115.304 50.3784 115.206 50.2446 115.041 50.0083C114.419 54.7435 113.814 59.3717 113.205 64.0088H106.848C106.923 63.389 106.99 62.7871 107.066 62.1896L108.933 47.9216C109.526 43.3826 110.118 38.8421 110.711 34.3001C110.733 34.1517 110.811 34.0175 110.929 33.9256C113.116 32.4928 115.308 31.0705 117.504 29.6585C117.565 29.6308 117.63 29.6113 117.696 29.6006C117.033 34.6791 116.362 39.7175 115.713 44.7604L115.793 44.8139L126.192 33.2478C126.294 33.8364 126.383 34.3402 126.467 34.8441C126.712 36.2887 126.952 37.7333 127.214 39.1735C127.243 39.295 127.237 39.422 127.199 39.5407C127.161 39.6594 127.091 39.7653 126.996 39.8468C124.773 42.1832 122.55 44.524 120.327 46.8693L120.03 47.1993C120.101 47.3108 120.159 47.4222 120.23 47.5248C124.077 52.9228 127.915 58.312 131.744 63.6922C131.822 63.7849 131.907 63.8714 131.998 63.9508V64.0356Z" fill="#FCFCFD"/>
<path fill-rule="evenodd" clip-rule="evenodd" d="M39.8557 62.2653C39.6689 63.6832 39.4866 65.0208 39.3133 66.354C39.0821 68.1375 38.8524 69.921 38.6242 71.7045C38.6019 71.9096 38.5352 72.0032 38.3129 72.0032C36.5702 72.0032 34.8229 72.0032 33.0757 72.0032C33.0166 71.992 32.9586 71.9756 32.9023 71.9541C33.009 71.1159 33.1113 70.2732 33.2224 69.435C33.6048 66.4862 33.9916 63.539 34.3828 60.5932C34.8274 57.2269 35.1831 53.8427 35.7566 50.4942C36.7702 44.5685 41.7807 39.4632 47.6626 38.188C51.077 37.4523 54.3313 37.7912 57.3145 39.7173C58.7349 40.5987 59.9317 41.7989 60.8105 43.2235C61.6892 44.648 62.226 46.2578 62.3783 47.9259C62.9252 52.8796 61.1068 56.9906 57.5991 60.4104C55.3597 62.6297 52.4746 64.0772 49.3609 64.5437C46.0843 65.0386 43.0033 64.4902 40.2424 62.5551C40.1402 62.4392 40.0335 62.3767 39.8557 62.2653ZM56.661 50.026C56.5723 49.3823 56.4431 48.745 56.2742 48.1176C55.2116 44.8226 51.8283 43.0168 48.3517 43.8328C46.5126 44.2247 44.8461 45.195 43.5947 46.6023C42.3434 48.0097 41.5724 49.7807 41.3939 51.6579C41.2262 53.0861 41.5458 54.5292 42.3007 55.7519C43.0556 56.9745 44.2012 57.9047 45.5508 58.3906C46.6451 58.7914 47.8174 58.9311 48.9749 58.7988C50.1324 58.6664 51.2433 58.2657 52.2196 57.6282C54.9627 55.9695 56.4609 53.5038 56.661 50.026Z" fill="#FCFCFD"/>
<path fill-rule="evenodd" clip-rule="evenodd" d="M37.0171 34.1037L31.2731 38.393C30.9663 37.907 30.6951 37.4255 30.3839 36.9796C29.5614 35.8248 28.5389 34.9643 27.054 34.8617C26.4715 34.8056 25.884 34.8882 25.3393 35.1028C24.7947 35.3174 24.3083 35.658 23.9196 36.0968C23.5475 36.4791 23.3272 36.9845 23.3002 37.5181C23.2732 38.0517 23.4413 38.5768 23.7729 38.995C24.5465 40.0116 25.3957 40.9747 26.2582 41.9155C27.6942 43.476 29.1924 44.9742 30.6151 46.5437C31.9133 47.966 32.9447 49.5667 33.2826 51.5152C33.6376 53.773 33.2241 56.085 32.1089 58.0785C30.0861 61.8461 26.8984 64.0353 22.6926 64.7175C20.8535 65.0397 18.9655 64.9391 17.1708 64.4233C16.0357 64.091 14.9866 63.5143 14.0966 62.7334C13.2066 61.9525 12.4973 60.9863 12.0181 59.9021C11.6358 59.1129 11.3468 58.2791 11 57.4364L17.2242 54.0923C17.2953 54.2662 17.3442 54.4089 17.4154 54.5382C17.729 55.267 18.0899 55.9745 18.4957 56.6561C19.0506 57.5686 19.9287 58.2373 20.9542 58.5283C21.9797 58.8193 23.077 58.7112 24.0264 58.2256C24.5805 57.9733 25.0931 57.638 25.5468 57.2313C26.204 56.7118 26.6349 55.9572 26.7493 55.1259C26.8637 54.2946 26.6526 53.4511 26.1604 52.7725C25.5484 51.9012 24.8722 51.077 24.1375 50.3068C22.4392 48.4163 20.6697 46.5838 19.0114 44.6576C17.8444 43.3589 17.0838 41.7448 16.8241 40.016C16.5429 38.1378 16.942 36.2206 17.9489 34.612C20.4519 30.5456 24.093 28.4366 28.9035 28.6105C31.6466 28.7086 33.8339 29.9972 35.5278 32.133C36.0302 32.7616 36.5014 33.4215 37.0171 34.1037Z" fill="#FCFCFD"/>
<path fill-rule="evenodd" clip-rule="evenodd" d="M83.5118 55.9159C83.1917 58.3593 82.8894 60.6868 82.5782 63.0098C82.57 63.0763 82.5469 63.1401 82.5107 63.1965C82.4746 63.2528 82.4262 63.3003 82.3692 63.3353C77.6344 65.5335 71.3924 65.2303 67.5023 60.7983C66.5033 59.6628 65.7384 58.3404 65.2516 56.907C64.7648 55.4737 64.5657 53.9579 64.6658 52.447C64.9681 45.1703 70.9834 38.8211 78.1812 37.9293C82.3825 37.4121 86.0682 38.5491 88.918 41.8263C90.818 43.9755 91.7901 46.793 91.621 49.6603C91.5321 51.5999 91.2298 53.535 90.9897 55.4567C90.6474 58.1988 90.2739 60.932 89.9138 63.6652C89.9138 63.7633 89.8827 63.8614 89.8605 63.9818H84.1876C84.2631 63.3531 84.3298 62.7378 84.4098 62.127C84.8233 58.9657 85.2723 55.8134 85.6325 52.6477C85.927 50.69 85.6426 48.6886 84.8144 46.8914C84.3937 45.9893 83.7387 45.2174 82.9182 44.6565C82.0976 44.0956 81.1418 43.7664 80.1507 43.7034C78.0109 43.5044 75.8721 44.0934 74.1336 45.3602C72.3951 46.6271 71.1757 48.4852 70.7033 50.5877C70.0853 53.4279 71.0545 56.1567 73.313 57.6593C75.5715 59.1619 77.87 59.1351 80.2708 58.181C81.5033 57.6728 82.6096 56.8996 83.5118 55.9159Z" fill="#FCFCFD"/>
<path fill-rule="evenodd" clip-rule="evenodd" d="M107.373 38.4823C107.115 40.4531 106.857 42.3971 106.599 44.3768C105.399 44.3768 104.225 44.3768 103.043 44.3768C102.577 44.3765 102.124 44.5226 101.746 44.7946C101.368 45.0666 101.084 45.4507 100.935 45.8927C100.836 46.2472 100.767 46.6097 100.731 46.9762C100.138 51.5004 99.5453 56.026 98.9525 60.5531C98.8058 61.6946 98.6591 62.836 98.5079 63.9953H92.6172C92.7283 63.1035 92.835 62.2831 92.9417 61.4404C93.33 58.5125 93.7153 55.5801 94.0977 52.6433C94.4355 50.1063 94.7334 47.5648 95.1291 45.0367C95.6581 41.648 99.0192 38.6383 102.429 38.4912C104.056 38.4243 105.688 38.4823 107.373 38.4823Z" fill="#FCFCFD"/>
<path d="M134.638 61.4181V64.0087H134.145V61.4181H133.211V61.0168H135.572V61.4181H134.638ZM138.968 64.0087V61.5118L137.99 64.0087H137.679L136.701 61.5118V64.0087H136.207V61.0168H136.968L137.857 63.2908L138.746 61.0168H139.497V64.0087H138.968Z" fill="#FCFCFD"/>
<path d="M46.6101 31.3393H44.1738L43.4002 32.8821H41.6797L45.4809 25.748H47.1392L48.4374 32.8821H46.8369L46.6101 31.3393ZM44.9163 29.9036H46.379L46.0322 27.6742L44.9163 29.9036Z" fill="#FCFCFD"/>
<path d="M53.2168 25.748H55.502C56.6935 25.748 57.5293 26.4615 57.5293 27.6876C57.5424 28.0349 57.4828 28.3811 57.3543 28.7039C57.2258 29.0267 57.0313 29.3189 56.7833 29.5617C56.5354 29.8045 56.2394 29.9925 55.9146 30.1136C55.5898 30.2347 55.2433 30.2862 54.8974 30.2648H53.9148L53.4702 32.8731H51.9453L53.2168 25.748ZM55.3153 27.1838H54.4483L54.1549 28.829H55.0218C55.1521 28.8378 55.2828 28.8177 55.4044 28.7701C55.5261 28.7225 55.6358 28.6486 55.7257 28.5537C55.8157 28.4588 55.8838 28.3452 55.925 28.2209C55.9662 28.0966 55.9797 27.9648 55.9644 27.8347C55.9747 27.7461 55.9652 27.6563 55.9364 27.5719C55.9077 27.4875 55.8605 27.4106 55.7982 27.3469C55.7359 27.2832 55.6603 27.2343 55.5767 27.2037C55.4931 27.1732 55.4038 27.1618 55.3153 27.1704V27.1838Z" fill="#FCFCFD"/>
<path d="M64.2469 31.3393H61.815L61.0414 32.8821H59.3164L63.1176 25.748H64.7804L66.0741 32.8821H64.478L64.2469 31.3393ZM62.5574 29.9036H64.0201L63.6733 27.6742L62.5574 29.9036Z" fill="#FCFCFD"/>
<path d="M73.8693 32.6055C73.3656 32.8433 72.8167 32.9695 72.2599 32.9755C70.3838 32.9755 69.2012 31.5577 69.2012 29.7875C69.215 28.6866 69.6576 27.6347 70.4343 26.8566C71.211 26.0785 72.2603 25.6358 73.358 25.6231C73.8788 25.6164 74.3927 25.7421 74.8518 25.9887L74.6429 27.6964C74.4577 27.5021 74.2336 27.3492 73.9854 27.2478C73.7371 27.1463 73.4703 27.0986 73.2024 27.1078C72.5481 27.1353 71.9294 27.4139 71.4742 27.8862C71.0191 28.3584 70.7624 28.9881 70.7572 29.6449C70.7572 30.6793 71.4063 31.4863 72.4289 31.4863C73.0244 31.4836 73.6019 31.2811 74.0694 30.9111L73.8693 32.6055Z" fill="#FCFCFD"/>
<path d="M82.9346 29.9883H79.8225L79.3379 32.8821H77.8574L79.1112 25.748H80.5916L80.0937 28.566H83.1836L83.6859 25.748H85.1664L83.9171 32.8821H82.4322L82.9346 29.9883Z" fill="#FCFCFD"/>
<path d="M88.3711 32.8821L89.6248 25.748H93.5594L93.3104 27.1838H90.8563L90.6074 28.566H92.8481L92.5991 30.0017H90.3406L90.0916 31.4374H92.5458L92.2923 32.8731L88.3711 32.8821Z" fill="#FCFCFD"/>
</g>
<defs>
<clipPath id="clip0_1298:23256">
<rect width="160" height="72" fill="white"/>
</clipPath>
</defs>
</svg>
