<svg width="160" height="72" viewBox="0 0 160 72" fill="none" xmlns="http://www.w3.org/2000/svg">
<g clip-path="url(#clip0_1298:23247)">
<path fill-rule="evenodd" clip-rule="evenodd" d="M79.3687 17.4907C71.3767 17.4907 64.8979 23.9656 64.8979 31.9528C64.8979 39.94 71.3767 46.4148 79.3687 46.4148C87.3607 46.4148 93.8395 39.94 93.8395 31.9528C93.8395 23.9656 87.3607 17.4907 79.3687 17.4907ZM63.4062 31.9528C63.4062 23.1423 70.5529 16 79.3687 16C88.1845 16 95.3312 23.1423 95.3312 31.9528C95.3312 40.7633 88.1845 47.9056 79.3687 47.9056C70.5529 47.9056 63.4062 40.7633 63.4062 31.9528Z" fill="#FCFCFD"/>
<path fill-rule="evenodd" clip-rule="evenodd" d="M111.914 17.4907C103.922 17.4907 97.4428 23.9656 97.4428 31.9528C97.4428 39.94 103.922 46.4148 111.914 46.4148C119.906 46.4148 126.384 39.94 126.384 31.9528C126.384 23.9656 119.906 17.4907 111.914 17.4907ZM95.9512 31.9528C95.9512 23.1423 103.098 16 111.914 16C120.729 16 127.876 23.1423 127.876 31.9528C127.876 40.7633 120.729 47.9056 111.914 47.9056C103.098 47.9056 95.9512 40.7633 95.9512 31.9528Z" fill="#FCFCFD"/>
<path fill-rule="evenodd" clip-rule="evenodd" d="M48.6036 16.0875C48.6041 16.0875 48.6045 16.0876 48.512 16.8272L48.6045 16.0876L48.8271 16.1154L63.0647 28.3112V56.9999H47.7662V47.1076C47.3157 47.0751 46.6814 47.011 45.9238 46.8848C44.3956 46.6303 42.3466 46.1198 40.2885 45.0914C38.2276 44.0616 36.1439 42.5051 34.5772 40.1564C33.0073 37.803 31.9863 34.6987 31.9863 30.6257C31.9863 26.5543 33.007 23.5598 34.5946 21.3782C36.1795 19.2004 38.286 17.892 40.3602 17.1147C42.4299 16.3391 44.4865 16.0844 46.0154 16.0208C46.7822 15.9889 47.4225 16.0048 47.8739 16.029C48.0997 16.0411 48.2786 16.0553 48.4029 16.0666C48.465 16.0723 48.5135 16.0773 48.5475 16.081C48.5644 16.0829 48.5777 16.0844 48.5873 16.0855L48.5988 16.0869L48.6024 16.0873L48.6036 16.0875ZM48.5127 45.6507H49.2578V55.5092H61.5731V28.9969L48.2047 17.5457C48.1015 17.5369 47.9632 17.5266 47.794 17.5176C47.3824 17.4955 46.7899 17.4806 46.0774 17.5102C44.6476 17.5697 42.7591 17.8078 40.8839 18.5105C39.0132 19.2116 37.1747 20.3672 35.8009 22.255C34.4298 24.1391 33.478 26.8121 33.478 30.6257C33.478 34.4379 34.4294 37.2474 35.8183 39.3295C37.2103 41.4162 39.0716 42.8166 40.9556 43.7581C42.8425 44.701 44.7385 45.1761 46.169 45.4144C46.8825 45.5332 47.4754 45.5924 47.8871 45.6218C48.0928 45.6364 48.2528 45.6437 48.3596 45.6472C48.413 45.649 48.453 45.6499 48.4787 45.6503C48.4916 45.6505 48.5009 45.6506 48.5065 45.6506L48.512 45.6507H48.5127Z" fill="#FCFCFD"/>
<path fill-rule="evenodd" clip-rule="evenodd" d="M143.78 17.5457L130.412 28.9969V55.5092H142.727V45.6507H143.472L143.473 45.6507L143.478 45.6506C143.484 45.6506 143.493 45.6505 143.506 45.6503C143.532 45.6499 143.572 45.649 143.625 45.6472C143.732 45.6437 143.892 45.6364 144.098 45.6217C144.509 45.5924 145.103 45.5332 145.816 45.4144C147.247 45.1761 149.143 44.7009 151.031 43.758C152.915 42.8166 154.777 41.4161 156.169 39.3294C157.558 37.2474 158.51 34.4379 158.51 30.6257C158.51 26.8121 157.558 24.1392 156.187 22.2551C154.813 20.3673 152.974 19.2116 151.102 18.5105C149.227 17.8078 147.338 17.5697 145.908 17.5102C145.195 17.4806 144.603 17.4955 144.191 17.5176C144.022 17.5266 143.883 17.5369 143.78 17.5457ZM144.218 47.1076V56.9999H128.92V28.3112L143.158 16.1154L143.38 16.0876L143.473 16.8272C143.38 16.0876 143.381 16.0875 143.381 16.0875L143.382 16.0873L143.386 16.0869L143.397 16.0855C143.407 16.0844 143.42 16.0829 143.437 16.081C143.471 16.0773 143.52 16.0723 143.582 16.0666C143.706 16.0553 143.885 16.0411 144.111 16.029C144.562 16.0048 145.203 15.9889 145.97 16.0208C147.499 16.0844 149.556 16.3391 151.626 17.1147C153.701 17.892 155.808 19.2003 157.393 21.3782C158.981 23.5598 160.002 26.5543 160.002 30.6257C160.002 34.6988 158.98 37.8031 157.41 40.1565C155.843 42.5051 153.759 44.0616 151.698 45.0914C149.639 46.1198 147.59 46.6303 146.061 46.8848C145.304 47.011 144.669 47.0751 144.218 47.1076Z" fill="#FCFCFD"/>
<path fill-rule="evenodd" clip-rule="evenodd" d="M7.23906 18.5838C9.83404 16.8942 12.8652 15.9963 15.9624 16L15.9615 16.7454L15.9626 16C18.7196 16.0043 21.4284 16.7218 23.8255 18.0826L23.9285 19.3084L21.4118 21.3591H27.5327L28.0991 21.6196C30.5547 24.4846 31.9132 28.1277 31.9326 31.9C31.9521 35.6724 30.6312 39.3292 28.2052 42.2194C25.7793 45.1095 22.4057 47.0454 18.6852 47.6823C14.9646 48.3192 11.1387 47.6157 7.88855 45.6972L7.79652 44.4778L9.66831 42.9524H4.74528L4.19581 42.711C2.10159 40.4306 0.717227 37.59 0.211806 34.5363C-0.293615 31.4825 0.101788 28.3477 1.34972 25.5148C2.59765 22.6819 4.64408 20.2735 7.23906 18.5838ZM15.9603 17.4907C15.9604 17.4907 15.9605 17.4907 15.9606 17.4907C18.0901 17.4941 20.188 17.9668 22.1064 18.8697L18.8455 21.5268L19.3168 22.8498H27.1843C29.2724 25.4052 30.424 28.6017 30.441 31.9077C30.4587 35.327 29.2614 38.6416 27.0625 41.2613C24.8635 43.881 21.8057 45.6357 18.4333 46.213C15.4189 46.729 12.3281 46.2743 9.60197 44.93L12.2344 42.7847L11.7631 41.4617H5.07804C3.30085 39.4371 2.12391 36.9544 1.68344 34.293C1.2253 31.5249 1.58371 28.6833 2.7149 26.1154C3.84609 23.5475 5.70109 21.3645 8.05332 19.8329C10.4055 18.3013 13.153 17.4874 15.9603 17.4907Z" fill="#FCFCFD"/>
</g>
<defs>
<clipPath id="clip0_1298:23247">
<rect width="160" height="72" fill="white"/>
</clipPath>
</defs>
</svg>
