<svg width="160" height="72" viewBox="0 0 160 72" fill="none" xmlns="http://www.w3.org/2000/svg">
<path d="M127.347 71.7509C127.017 71.6195 126.672 71.5286 126.319 71.48C126.14 71.48 125.569 71.2755 125.028 71.0279C124.658 70.8444 124.273 70.6943 123.876 70.5794C123.725 70.5431 123.591 70.4548 123.499 70.3301C123.386 70.1919 123.012 70.0269 122.671 69.9713C121.329 69.7184 117.759 66.3835 117.008 64.6685C116.895 64.4131 116.752 64.1722 116.582 63.951C116.072 63.3518 115.039 59.2617 115.042 57.8517C115.042 56.1493 115.969 54.1473 117.54 52.4395C119.156 50.6778 119.505 50.5917 124.314 50.7406C126.409 50.8052 128.373 50.9093 128.678 50.9702C129.323 51.0976 130.295 52.0287 130.992 53.1875C131.442 53.9356 131.476 54.1239 131.433 55.699C131.373 57.9306 131.28 58.0311 129.323 57.8768L127.886 57.7656L127.796 56.1762C127.708 54.6262 127.69 54.5742 127.078 54.0683C126.512 53.5965 126.334 53.5499 125.078 53.5499C123.704 53.5499 123.698 53.5499 122.886 54.3123C121.109 55.9788 120.655 58.3145 121.682 60.4887C121.981 61.1166 122.486 61.8664 122.805 62.1535C123.637 62.8997 125.558 63.8631 126.711 64.1124L128.63 64.525C129.101 64.6332 129.587 64.6629 130.067 64.6129L131.743 64.2416C133.427 63.8666 135.708 62.8226 136.186 62.2073C136.711 61.531 137.342 60.4134 138.136 58.7522C138.495 58.0131 138.844 57.283 138.921 57.1377C139.038 56.8675 139.127 56.5862 139.187 56.2981C139.243 56.0095 139.375 55.7409 139.569 55.5196C139.711 55.403 139.826 55.0334 139.826 54.6998C139.826 54.176 139.767 54.0934 139.384 54.0934C139.14 54.0934 138.676 54.3249 138.351 54.6065C137.575 55.2792 137.077 55.5286 136.515 55.5286C135.953 55.5286 135.949 55.3348 136.335 54.2549C136.537 53.6844 136.58 53.1481 136.494 52.2816C136.388 51.1945 136.409 51.0671 136.745 50.8877C136.982 50.7622 138.556 50.6904 141.132 50.6904C144.018 50.6904 145.211 50.6312 145.365 50.4751C145.439 50.4086 145.496 50.3258 145.532 50.2334C145.568 50.1409 145.581 50.0413 145.572 49.9426C145.562 49.8439 145.529 49.7489 145.476 49.665C145.423 49.5812 145.351 49.5109 145.266 49.4598C145.087 49.3683 142.245 49.2535 138.933 49.205C135.11 49.1512 132.654 49.0418 132.196 48.9091C131.801 48.7924 131.154 48.6166 130.759 48.5198C129.354 48.17 127.424 46.4532 126.697 44.9051C126.478 44.4368 126.181 44.0529 126.039 44.0529C125.897 44.0529 125.125 44.5499 124.32 45.1562C122.322 46.6595 119.397 48.0785 117.284 48.5646L115.847 48.8947C114.92 49.1046 108.74 49.1171 108.409 48.9091C108.136 48.7297 108.159 48.6489 109.184 45.9706C109.597 44.8943 109.649 44.4978 109.647 42.4725C109.647 40.5961 109.564 39.9072 109.194 38.5779C108.046 34.4609 108.018 34.3192 108.262 33.9533C108.485 33.616 108.792 33.607 118.673 33.6357C129.009 33.6644 130.202 33.5999 130.432 33.0025C130.488 32.8554 130.391 32.5773 130.215 32.3836C129.904 32.041 129.598 32.0248 119.054 32.0248C108.454 32.0248 108.204 32.0248 107.852 31.666C107.634 31.4198 107.507 31.1064 107.493 30.778C107.459 30.2736 107.375 29.7737 107.243 29.2855C107.065 28.5138 106.937 27.7311 106.862 26.9427C106.79 26.1821 106.661 25.5075 106.575 25.4645C106.368 25.3371 106.368 22.0292 106.575 21.9018C106.661 21.848 106.789 21.2094 106.857 20.4846C106.912 19.8358 107.005 19.1907 107.135 18.5526C107.674 16.4537 107.931 15.7379 108.321 15.3235C108.76 14.8625 108.774 14.8607 111.061 14.9432C113.7 15.0383 114.14 14.9127 114.14 14.0714C114.14 13.7754 114.04 13.4991 113.916 13.4561C113.792 13.413 112.69 13.3395 111.465 13.2928C110.24 13.2462 109.158 13.126 109.061 13.0291C108.821 12.7888 109.101 12.0443 109.947 10.6827C110.77 9.35701 112.626 6.93883 113.143 6.51726C113.346 6.35402 113.919 5.8284 114.417 5.35122C116.393 3.46044 120.299 1.27726 122.584 0.789319C122.931 0.715768 123.662 0.534584 124.201 0.383896C125.028 0.198646 125.87 0.0893597 126.717 0.057405L128.244 0L128.22 0.627867C128.19 1.08224 128.116 1.53272 128.001 1.9733C127.892 2.36796 127.802 3.74388 127.8 5.02294C127.8 6.91013 127.865 7.55952 128.159 8.38292C128.323 8.81596 128.444 9.26427 128.519 9.72118C128.519 10.08 129.55 12.1717 130.153 13.0525C130.872 14.1037 132.543 15.5281 133.725 16.1021C134.869 16.66 134.961 16.6726 138.127 16.7784C141.325 16.886 141.379 16.895 142.904 17.5318C144.341 18.131 147.2 20.0433 147.2 20.3859C147.2 20.4703 147.523 20.89 147.918 21.3188C148.313 21.7475 148.637 22.2157 148.637 22.3449C148.703 22.6286 148.825 22.8964 148.996 23.1324C149.178 23.3889 149.301 23.6823 149.355 23.9917C149.355 24.1711 149.964 24.9156 150.706 25.6529C151.581 26.5211 152.216 27.3355 152.503 27.967C152.934 28.9052 152.949 29.0756 152.949 32.7424C152.949 36.9598 152.981 36.8289 151.565 38.5815C151.163 39.1288 150.846 39.7336 150.626 40.3754C150.087 41.99 149.83 45.463 149.97 48.9503C150.072 51.5102 150.15 52.1273 150.487 52.8969C150.75 53.5088 150.883 54.1685 150.877 54.8343C150.877 55.7313 150.732 56.1313 149.799 57.9575C149.21 59.1128 148.506 60.338 148.233 60.6807C147.959 61.0233 147.739 61.4467 147.739 61.6225C147.739 61.9633 149.814 63.9438 150.171 63.9438C150.426 64.0153 150.662 64.1428 150.861 64.3169C151.174 64.5627 151.899 64.7815 152.979 64.9555C154.668 65.2542 156.405 65.1089 158.02 64.534C158.982 64.1967 159.19 64.2721 158.845 64.8371C158.612 65.2228 156.319 66.9898 156.051 66.9898C155.814 67.0566 155.587 67.153 155.374 67.2769C154.001 68.0088 152.704 68.303 150.985 68.2725C149.925 68.2545 149.152 68.1541 148.919 68.0034C148.629 67.8394 148.316 67.7219 147.99 67.6554C147.356 67.5316 145.295 66.3835 144.814 65.8848C144.237 65.291 143.556 65.4686 142.137 66.5898C141.418 67.1585 140.34 67.9388 139.744 68.3245L137.643 69.7004C137.107 70.0581 136.535 70.3587 135.937 70.5974C135.626 70.688 135.328 70.815 135.047 70.9759C134.644 71.1912 134.224 71.3712 133.79 71.5141C132.369 72.0182 128.421 72.1742 127.34 71.7706L127.347 71.7509ZM149.176 40.3378C149.002 40.0316 148.795 39.7453 148.56 39.4839C148.051 38.8632 147.925 38.5367 147.828 37.5716C147.668 35.9875 147.458 35.5175 146.689 35.0242C145.52 34.2744 145.239 34.1631 144.506 34.1631C143.608 34.1631 143.558 34.4986 144.379 34.9399C145.254 35.4099 147.918 38.7071 147.918 39.3117C147.918 39.6704 148.608 40.4418 148.937 40.4418C149.068 40.4418 149.176 40.3952 149.176 40.3378Z" fill="#FCFCFD"/>
<path d="M6.27067 55.9374C6.10898 55.5159 6.33535 53.0815 6.62999 52.0303C6.78268 51.4439 6.86826 50.8421 6.88511 50.2364C6.92169 49.4199 7.01232 48.6067 7.15639 47.8021C7.30371 46.9643 7.54446 45.1112 7.69537 43.6905C7.84629 42.2697 8.03852 40.8543 8.13374 40.5511C8.22896 40.2479 8.39605 38.9097 8.50564 37.5768C8.61523 36.244 8.82184 34.886 8.96018 34.572L9.2135 33.989H14.9446C19.3176 33.989 20.7153 34.0428 20.8447 34.2133C21.0064 34.4249 20.5698 38.7626 20.3057 39.6452C20.2464 39.8389 20.1063 41.0803 19.9949 42.4186C19.8835 43.7568 19.72 44.9731 19.6356 45.1381C19.5511 45.3032 19.42 46.1445 19.3535 47.0074C19.1738 49.3054 19.3014 49.2372 15.2842 49.2372C11.8922 49.2372 11.5652 49.3036 11.5652 49.9817C11.5652 50.6992 12.1348 50.8105 15.1189 50.7154C18.9511 50.5952 18.8361 50.5001 18.5558 53.5426C18.4426 54.7768 18.3222 55.8872 18.2863 56.0092C18.2378 56.1886 16.8868 56.2334 12.3072 56.2334C6.97134 56.2334 6.37847 56.2047 6.27786 55.9374H6.27067Z" fill="#FCFCFD"/>
<path d="M30.9758 55.9885C30.7674 55.7373 30.9147 53.9306 31.2938 52.115C31.5723 50.7873 31.6531 50.7622 35.8644 50.7012C37.9071 50.6707 40.3073 50.7012 41.1984 50.773C43.1262 50.9237 43.1495 50.9524 42.8154 53.1341C42.6986 53.9019 42.5603 54.8134 42.5064 55.1578C42.4711 55.457 42.3777 55.7465 42.2315 56.01C41.9566 56.3545 31.2615 56.333 30.9758 55.9885Z" fill="#FCFCFD"/>
<path d="M44.4801 56.0101C44.2681 55.7428 44.6239 52.0954 44.9347 51.3454C44.9923 51.2105 45.0766 51.0885 45.1825 50.9868C45.2883 50.885 45.4137 50.8057 45.5509 50.7533C45.7773 50.6977 49.6597 50.6744 54.1746 50.7049C62.3132 50.7569 62.3904 50.7605 62.7749 51.1445C63.1594 51.5284 63.1594 51.5481 62.8701 52.8256C62.7157 53.4835 62.6178 54.1533 62.5773 54.8278C62.5857 55.1877 62.5247 55.5459 62.3976 55.8828C62.218 56.2183 61.9287 56.229 53.4362 56.229C46.6307 56.229 44.6221 56.1788 44.4855 56.0048L44.4801 56.0101Z" fill="#FCFCFD"/>
<path d="M66.6653 56.01C66.5593 55.7265 66.8198 52.0773 66.9833 51.5641C67.2348 50.7711 68.0109 50.6563 72.8294 50.6886C77.5293 50.7227 77.8293 50.7747 77.5383 51.5139C77.3874 51.8978 76.322 53.3349 75.3267 54.5011C74.9875 54.8959 74.6713 55.3098 74.3798 55.7409L74.069 56.2343H70.4094C67.6462 56.2343 66.7299 56.1804 66.6653 56.01Z" fill="#FCFCFD"/>
<path d="M76.8629 56.0565C76.8019 55.9596 77.5313 54.8383 78.4799 53.5663C79.7914 51.8134 80.3699 51.1855 80.8694 50.9702C81.4407 50.7262 82.5276 50.6921 88.8966 50.7244C97.4717 50.7692 97.3711 50.7531 97.1609 52.1005C97.0926 52.549 96.9812 53.5358 96.9004 54.3001C96.8195 55.0643 96.6614 55.8089 96.5411 55.9596C96.3398 56.2 95.1164 56.2341 86.6418 56.2341C80.4382 56.2341 76.9402 56.1713 76.8629 56.0547V56.0565Z" fill="#FCFCFD"/>
<path d="M32.0371 48.9684C31.8574 48.7549 31.8574 48.2687 32.0371 46.5914C32.1593 45.4308 32.3353 44.0387 32.4287 43.4952C32.5222 42.9516 32.7198 41.3425 32.8653 39.9073C33.0108 38.4722 33.1833 37.186 33.248 37.0371C33.3903 36.5072 33.4936 35.9676 33.557 35.4226L33.7475 34.0771H56.3846L56.354 34.6153C56.3019 35.5589 55.9839 36.7178 55.7306 36.8774C55.5959 36.9635 53.1705 37.0335 50.3408 37.0353C45.9571 37.0353 45.163 37.0784 44.9708 37.3116C44.8432 37.464 44.5989 38.9063 44.4174 40.5854C44.2378 42.2358 44.015 43.949 43.9234 44.3921C43.8318 44.8352 43.6988 45.9887 43.6287 46.9502C43.5209 48.4517 43.4491 48.7441 43.1203 48.9684C42.549 49.3684 32.3713 49.3666 32.0389 48.9684H32.0371Z" fill="#FCFCFD"/>
<path d="M45.3303 48.9691C45.1506 48.7466 45.1416 48.5439 45.3105 47.9841C45.4255 47.5984 45.6195 47.2162 45.7399 47.1391C45.8603 47.0619 47.1772 46.9884 48.6558 46.9776C50.1344 46.9669 51.5213 46.9059 51.7279 46.8395C52.0585 46.7354 52.1232 46.5309 52.231 45.2427C52.2975 44.4318 52.4915 43.4845 52.6604 43.1382L52.9676 42.5103L58.1777 42.46C61.0433 42.4331 63.5783 42.46 63.8101 42.5138C64.137 42.5928 64.2107 42.704 64.1334 43.0018C64.0778 43.2136 63.934 44.491 63.8172 45.8419C63.6556 47.6755 63.519 48.4075 63.2783 48.7251L62.9585 49.1485L54.2611 49.1987C46.5627 49.2436 45.5369 49.2167 45.3303 48.9691Z" fill="#FCFCFD"/>
<path d="M67.7443 49.0435C67.3221 48.7996 67.3473 48.0695 67.8 47.3357C68.215 46.6666 70.8542 43.0304 71.2692 42.5693C71.4542 42.3463 71.6172 42.106 71.7561 41.8518C72.0805 41.3578 72.4408 40.8884 72.8341 40.4471C73.2347 39.9972 73.6005 39.5174 73.9282 39.012C74.2246 38.4738 75.6422 36.5364 76.8315 35.0654L77.6921 33.998H83.9622C88.2633 33.998 90.2719 34.059 90.3545 34.1936C90.4192 34.2994 90.2736 34.6008 90.0275 34.8645C89.6954 35.2409 89.391 35.6408 89.1166 36.061C88.8615 36.4557 88.2022 37.3437 87.6542 38.0343C87.1062 38.725 86.517 39.4928 86.3481 39.7385C85.9331 40.3431 83.4735 43.6385 82.2159 45.2907C81.6518 46.0262 80.9367 46.9949 80.6277 47.4434C80.3131 47.9001 79.9711 48.3374 79.6037 48.7529L79.1401 49.2463H73.6084C70.1841 49.2463 67.9545 49.1709 67.7605 49.0579L67.7443 49.0435Z" fill="#FCFCFD"/>
<path d="M82.747 49.1192C82.3015 48.9398 82.5404 48.4015 83.5753 47.2605L84.6299 46.0979L90.9557 46.0441C95.6269 46.0028 97.3498 46.0441 97.5385 46.2001C98.1062 46.672 97.6804 48.7944 96.9617 49.0707C96.5054 49.2502 83.1692 49.2932 82.747 49.1228V49.1192Z" fill="#FCFCFD"/>
<path d="M9.45845 32.2276C9.18716 31.955 9.18716 31.7576 9.42072 30.4015C9.51773 29.8633 9.7477 28.1645 9.93454 26.6343C10.1214 25.1041 10.3406 23.5308 10.4232 23.1361L10.5741 22.4186L16.3987 22.3701C19.6326 22.345 22.2933 22.3935 22.3832 22.4814C22.5754 22.6733 22.0616 27.8631 21.6969 29.413C21.5511 30.0488 21.4651 30.6969 21.44 31.3486C21.44 31.8689 21.3501 32.2456 21.2136 32.2851C21.077 32.3245 18.4468 32.3873 15.3423 32.4142C10.8508 32.4537 9.64709 32.4142 9.45845 32.2348V32.2276Z" fill="#FCFCFD"/>
<path d="M35.2358 32.4123C34.1058 32.3531 33.662 31.971 33.9944 31.336C34.086 31.1566 34.2585 29.9726 34.3788 28.69C34.4715 27.5782 34.6275 26.4725 34.846 25.3784C34.9974 24.7498 35.0823 24.107 35.0993 23.4607C35.121 22.7645 35.2052 22.0717 35.3508 21.3906C35.4909 20.7681 35.7101 19.1805 35.8377 17.8655C35.9652 16.5506 36.1575 15.3541 36.2635 15.2088C36.4252 14.9863 37.2893 14.9486 41.7269 14.9594C44.765 14.9594 47.1365 15.0491 47.3233 15.1496C47.5301 15.2652 47.684 15.4561 47.753 15.6825C47.822 15.9088 47.8006 16.153 47.6934 16.364C47.5946 16.5434 47.4185 17.7848 47.3036 19.1069C47.1886 20.429 47.0125 21.6184 46.9137 21.7368C46.8149 21.8552 46.6604 22.9925 46.5741 24.2482C46.4879 25.504 46.3262 26.8064 46.2148 27.1364C46.0675 27.5813 46.0711 27.7876 46.2256 27.9419C46.3801 28.0962 47.7725 28.1356 51.2309 28.098C53.8683 28.0693 56.2704 28.1159 56.5668 28.202C57.0393 28.3401 57.1058 28.4334 57.0717 28.9716C57.0142 30.0282 56.6692 32.0661 56.5219 32.2132C56.3746 32.3603 37.3917 32.5235 35.2358 32.4105V32.4123Z" fill="#FCFCFD"/>
<path d="M79.871 32.4104C78.8847 32.3387 78.8631 31.9673 79.7812 30.882C80.1513 30.4443 80.7783 29.6263 81.1735 29.0558C81.5688 28.4854 82.2156 27.5974 82.6108 27.0825C83.2863 26.1856 84.1361 25.0213 87.5712 20.2747C89.8241 17.1604 91.3728 15.1818 91.6315 15.0813C91.7627 15.0311 94.1899 14.9844 97.0213 14.9772C102.839 14.9611 102.681 14.9216 102.503 16.2922C102.291 17.9336 101.77 19.0656 100.284 21.107C99.4683 22.2282 98.6131 23.3512 98.3813 23.6041C98.0544 23.9835 97.7503 24.3818 97.4705 24.7971C97.0213 25.4644 96.5093 26.164 93.888 29.6837C93.4137 30.3205 92.7023 31.1852 92.307 31.6068L91.5884 32.371L86.1088 32.4212C83.0941 32.4499 80.2842 32.4481 79.8656 32.4212L79.871 32.4104Z" fill="#FCFCFD"/>
<path d="M56.0961 22.8151C55.9164 22.4259 56.008 21.4302 56.3925 19.5251C56.468 19.1466 56.4267 18.9152 56.2632 18.8075C56.1302 18.725 54.5905 18.6551 52.8496 18.6515C50.8285 18.6515 49.5996 18.5743 49.4756 18.4524C49.2025 18.1797 49.5349 15.3668 49.8816 15.0188C50.0954 14.8053 50.2266 14.7946 50.5446 14.965C50.8006 15.0868 51.0889 15.1238 51.3674 15.0708C51.9495 14.9255 65.751 14.9022 65.9846 15.0475C66.0888 15.1121 66.4427 15.1139 66.7715 15.0475C67.6572 14.8825 67.8746 15.2269 67.6392 16.4342C67.5386 16.958 67.3985 18.1115 67.332 18.9995C67.2778 19.8062 67.1577 20.6072 66.9727 21.3944C66.8451 21.8231 66.7787 22.277 66.8272 22.4025C66.8757 22.5281 66.784 22.7613 66.6223 22.9228C66.3672 23.1793 65.7097 23.2152 61.308 23.2152H56.2829L56.0961 22.8151Z" fill="#FCFCFD"/>
<path d="M2.0538 19.4963C1.89031 19.1895 2.10949 16.9131 2.57481 14.0769C2.66285 13.5387 2.7922 12.3817 2.86047 11.5134C2.96108 10.2577 3.05091 9.89891 3.31321 9.76078C3.52162 9.64955 9.03358 9.60291 18.3849 9.63341C34.4015 9.68723 33.6757 9.63341 33.2463 10.6541C33.0897 11.1496 32.9897 11.6611 32.9481 12.179L32.8457 13.2392L23.8932 13.1979C15.9667 13.1602 14.8923 13.1979 14.506 13.4419C13.9904 13.7809 13.9239 14.5182 14.3874 14.7729C14.5671 14.8716 18.4244 14.9685 23.4549 15.0044C31.2575 15.0582 32.2348 15.0959 32.4972 15.3631C32.7127 15.5784 32.7433 15.7452 32.6157 15.991C32.5187 16.1704 32.3822 16.9597 32.3103 17.7329C32.0983 20.065 33.8428 19.8246 16.8596 19.8246C2.96108 19.8246 2.21549 19.8084 2.052 19.5017L2.0538 19.4963Z" fill="#FCFCFD"/>
<path d="M71.9869 19.5488C71.9288 19.2677 71.9288 18.9777 71.9869 18.6966C72.4594 16.0054 72.587 15.4905 72.8295 15.2483C73.0721 15.0061 74.1357 14.9702 80.7885 14.9523C85.0141 14.9415 88.5138 14.9738 88.5641 15.0258C88.6791 15.1406 88.1671 16.1633 87.9192 16.3158C87.502 16.7561 87.116 17.2249 86.7639 17.7188C86.225 18.4365 85.6141 19.1936 85.4057 19.4142L85.0248 19.8179H78.5571C72.9643 19.8179 72.0768 19.782 71.9869 19.5488Z" fill="#FCFCFD"/>
<path d="M40.9701 13.2251L36.8775 13.1749L36.6745 12.7318C36.5218 12.3963 36.5272 12.0392 36.696 11.2821C37.0895 9.52745 36.8505 9.59383 42.6482 9.59383C45.5712 9.59383 47.8278 9.66739 48.0164 9.77325C48.5033 10.0316 48.5949 10.455 48.2949 11.0291C48.1231 11.4259 48.0321 11.8528 48.0272 12.285C48.0272 12.7138 47.9338 13.0457 47.8026 13.0852C47.3427 13.2269 44.946 13.2772 40.9755 13.2269L40.9701 13.2251Z" fill="#FCFCFD"/>
<path d="M93.868 13.1569C93.6929 13.0983 93.5357 12.9957 93.4117 12.8591C93.3003 12.6796 94.4717 10.9017 95.2388 10.0853L95.7024 9.59375H99.0422C102.79 9.59375 103.174 9.69602 103.174 10.6918C103.174 11.3287 102.646 13.0421 102.4 13.2035C102.154 13.365 94.2992 13.3148 93.8608 13.1533L93.868 13.1569Z" fill="#FCFCFD"/>
<path d="M50.1131 12.8681C50.0628 12.6886 50.0843 12.0356 50.1616 11.4041C50.4005 9.4664 49.7538 9.59199 59.4213 9.59199C65.7794 9.59199 67.7916 9.64581 68.027 9.81625C68.2965 10.0136 68.318 10.2343 68.1977 11.5655L68.0593 13.0905L59.132 13.1372C50.7473 13.182 50.2029 13.1659 50.1131 12.8681Z" fill="#FCFCFD"/>
<path d="M73.0817 12.9883C73.0152 12.8825 73.0188 12.2707 73.0817 11.6176C73.1769 10.7205 73.3117 10.3366 73.6333 10.0172L74.0573 9.59204H82.9127C87.7833 9.59204 91.9514 9.64228 92.1742 9.70328C92.7455 9.85578 92.6808 10.1392 91.8598 11.0722C91.4645 11.5207 91.1411 11.9513 91.1411 12.0285C91.1411 12.1056 90.9237 12.3981 90.6578 12.6743L90.1745 13.1785H81.691C75.809 13.1785 73.1644 13.1175 73.0817 12.9847V12.9883Z" fill="#FCFCFD"/>
</svg>
