<svg width="36" height="36" viewBox="0 0 36 36" fill="none" xmlns="http://www.w3.org/2000/svg">
<g clip-path="url(#clip0_1449_18141)">
<path d="M29.3472 12.4033C29.3458 11.9383 29.3202 11.4736 29.2704 11.0113V10.9345C28.9155 8.11047 27.5418 5.51314 25.4074 3.63021C23.273 1.74727 20.5247 0.708252 17.6784 0.708252C14.8322 0.708252 12.0838 1.74727 9.9494 3.63021C7.81499 5.51314 6.44137 8.11047 6.08643 10.9345V10.9345V11.0113C6.02867 11.473 5.99979 11.938 6 12.4033C6.08947 14.2781 6.72333 16.0862 7.82402 17.6065C9.09874 19.5169 10.0883 21.6028 10.7616 23.7985L11.424 26.0257C11.6386 26.7369 12.0767 27.36 12.6732 27.8027C13.2698 28.2453 13.9931 28.484 14.736 28.4833H20.64C21.3816 28.4835 22.1035 28.2445 22.6985 27.8017C23.2934 27.359 23.7296 26.7361 23.9424 26.0257L24.6144 23.7985C25.2693 21.6059 26.2395 19.5201 27.4944 17.6065C28.6084 16.0911 29.2526 14.2818 29.3472 12.4033Z" stroke="#FCFCFD" stroke-width="1.5" stroke-miterlimit="10"/>
<path d="M15.1973 4.28174C12.7493 4.60814 9.3125 8.00013 9.3125 11.2609" stroke="#FCFCFD" stroke-width="1.5" stroke-miterlimit="10"/>
<path d="M29.2793 12.7008V12.624" stroke="#FCFCFD" stroke-width="1.5" stroke-miterlimit="10"/>
<path d="M13.4297 28.4834H21.8969V33.1394C21.8969 33.7072 21.6713 34.2517 21.2699 34.6532C20.8684 35.0546 20.3239 35.2802 19.7561 35.2802H15.5705C15.0027 35.2802 14.4582 35.0546 14.0567 34.6532C13.6552 34.2517 13.4297 33.7072 13.4297 33.1394V28.4834V28.4834Z" stroke="#FCFCFD" stroke-width="1.5" stroke-miterlimit="10"/>
<path d="M11.4629 31.6689H23.9429" stroke="#FCFCFD" stroke-width="1.5" stroke-miterlimit="10"/>
</g>
<defs>
<clipPath id="clip0_1449_18141">
<rect width="36" height="36" fill="white"/>
</clipPath>
</defs>
</svg>
