<svg width="16" height="16" viewBox="0 0 16 16" fill="none" xmlns="http://www.w3.org/2000/svg">
<path d="M12.4135 0H3.58654C1.60577 0 0 1.60577 0 3.58654V12.4135C0 14.3942 1.60577 16 3.58654 16H12.4135C14.3942 16 16 14.3942 16 12.4135V3.58654C16 1.60577 14.3942 0 12.4135 0ZM12.5481 5.95192C12.5481 5.95192 12.5865 7.75962 12.125 8.75962C11.6635 9.75962 10.3073 11.83 7.77885 12.4135C4.77885 13.1058 2.89423 11.5288 2.89423 11.5288C2.89423 11.5288 4.66346 11.8365 6.04808 10.6442C5.81731 10.6058 4.625 10.5288 4.04808 9.06731C4.04808 9.06731 4.66346 9.25962 5.00962 9.02885C5.00962 9.02885 3.31731 8.72115 3.27885 6.875C3.27885 6.875 3.81731 7.18269 4.20192 7.10577C3.66346 6.56731 2.81731 5.75962 3.58654 4.18269C3.58654 4.18269 5.54808 6.52885 8.125 6.45192C8.08654 6.02885 7.94 4.66038 9.39423 3.95192C10.8942 3.22115 11.9712 4.45192 11.9712 4.45192C11.9712 4.45192 12.9327 4.25962 13.3173 3.95192C13.2019 4.49038 12.7404 5.06731 12.4712 5.14423C12.8558 5.10577 13.3942 4.95192 13.625 4.83654C13.4327 5.375 12.5481 5.95192 12.5481 5.95192Z" fill="#00D2A0"/>
</svg>
