<svg width="14" height="12" viewBox="0 0 14 12" fill="none" xmlns="http://www.w3.org/2000/svg">
<path d="M12.8594 3.63956V11.3536H1.14062V0.646484L5.21843 0.65527L7.29671 3.63956H12.8594ZM12.8594 3.63956V2.09616H6.20273M5.31124 6.61507C5.37873 6.46571 5.4631 6.3222 5.56715 6.18749C6.26179 5.28839 7.5245 5.14489 8.39068 5.86826C8.94189 6.32806 9.19781 7.03094 9.13031 7.71038M8.88002 8.5304C8.82659 8.62705 8.76753 8.72077 8.69722 8.80862C8.00259 9.70772 6.73987 9.85122 5.87369 9.12785C5.32249 8.66512 5.06657 7.96225 5.13406 7.2828M7.87885 8.61533L8.91658 8.49819L9.02907 9.57886M6.39396 6.38663L5.35623 6.50378L5.24374 5.42311" stroke="#7F7F7F" stroke-width="0.8" stroke-miterlimit="10"/>
</svg>
