<svg width="16" height="16" viewBox="0 0 16 16" fill="none" xmlns="http://www.w3.org/2000/svg">
<g clip-path="url(#clip0_1192:27352)">
<path d="M12.41 0H3.59C1.61 0 0 1.61 0 3.59V12.42C0 14.39 1.61 16 3.59 16H12.42C14.4 16 16.01 14.39 16.01 12.41V3.59C16 1.61 14.39 0 12.41 0ZM13.58 9.07C13.57 9.63 13.52 10.2 13.38 10.75C13.24 11.29 12.9 11.66 12.35 11.81C12.18 11.85 12 11.86 11.82 11.88C11.49 11.91 11.16 11.93 10.83 11.94C10.56 11.95 10.29 11.96 10.01 11.97C9.39 11.98 8.76 11.99 8.19 12C7.51 11.99 6.88 11.99 6.25 11.98C5.7 11.97 5.15 11.94 4.6 11.91C4.31 11.89 4.02 11.86 3.73 11.83C3.46 11.8 3.23 11.66 3.03 11.48C2.77 11.24 2.64 10.93 2.57 10.58C2.47 9.98 2.42 9.38 2.41 8.78C2.41 8.16 2.4 7.54 2.42 6.91C2.43 6.36 2.48 5.81 2.61 5.27C2.7 4.87 2.93 4.55 3.29 4.33C3.45 4.23 3.63 4.17 3.83 4.16C4.23 4.13 4.63 4.09 5.02 4.07C5.32 4.05 5.63 4.04 5.93 4.03C6.76 4.01 7.59 4 8.43 4C8.83 4 9.24 4 9.64 4.01C10.26 4.03 10.88 4.06 11.5 4.09C11.74 4.1 11.98 4.13 12.22 4.16C12.54 4.2 12.81 4.35 13.03 4.58C13.26 4.81 13.37 5.1 13.43 5.42C13.54 6.03 13.59 6.64 13.59 7.26C13.59 7.86 13.6 8.46 13.58 9.07Z" fill="#FCFCFD"/>
<path d="M10.21 7.66C9.35002 7.12 8.49002 6.58 7.63002 6.04C7.41002 5.91 7.20002 5.78 6.98002 5.64C6.92002 5.6 6.84002 5.59 6.76002 5.6C6.58002 5.62 6.40002 5.76 6.40002 6.01C6.40002 6.67 6.40002 7.34 6.40002 8C6.40002 8.65 6.40002 9.31 6.40002 9.96C6.40002 9.98 6.40002 10.01 6.40002 10.03C6.41002 10.34 6.78002 10.48 6.99002 10.35C7.50002 10.03 8.01002 9.71 8.53002 9.39C9.09002 9.04 9.66002 8.68 10.22 8.33C10.28 8.29 10.33 8.24 10.36 8.18C10.45 7.99 10.39 7.77 10.21 7.66Z" fill="#FCFCFD"/>
</g>
<defs>
<clipPath id="clip0_1192:27352">
<rect width="16" height="16" fill="white"/>
</clipPath>
</defs>
</svg>
