<svg width="16" height="16" viewBox="0 0 16 16" fill="none" xmlns="http://www.w3.org/2000/svg">
<path d="M12.41 0H3.59C1.61 0 0 1.61 0 3.59V12.42C0 14.39 1.61 16 3.59 16H12.42C14.4 16 16.01 14.39 16.01 12.41V3.59C16 1.61 14.39 0 12.41 0ZM13.58 9.07C13.57 9.63 13.52 10.2 13.38 10.75C13.24 11.29 12.9 11.66 12.35 11.81C12.18 11.85 12 11.86 11.82 11.88C11.49 11.91 11.16 11.93 10.83 11.94C10.56 11.95 10.29 11.96 10.01 11.97C9.39 11.98 8.76 11.99 8.19 12C7.51 11.99 6.88 11.99 6.25 11.98C5.7 11.97 5.15 11.94 4.6 11.91C4.31 11.89 4.02 11.86 3.73 11.83C3.46 11.8 3.23 11.66 3.03 11.48C2.77 11.24 2.64 10.93 2.57 10.58C2.47 9.98 2.42 9.38 2.41 8.78C2.41 8.16 2.4 7.54 2.42 6.91C2.43 6.36 2.48 5.81 2.61 5.27C2.7 4.87 2.93 4.55 3.29 4.33C3.45 4.23 3.63 4.17 3.83 4.16C4.23 4.13 4.63 4.09 5.02 4.07C5.32 4.05 5.63 4.04 5.93 4.03C6.76 4.01 7.59 4 8.43 4C8.83 4 9.24 4 9.64 4.01C10.26 4.03 10.88 4.06 11.5 4.09C11.74 4.1 11.98 4.13 12.22 4.16C12.54 4.2 12.81 4.35 13.03 4.58C13.26 4.81 13.37 5.1 13.43 5.42C13.54 6.03 13.59 6.64 13.59 7.26C13.59 7.86 13.6 8.46 13.58 9.07Z" fill="#00D2A0"/>
<path d="M10.21 7.6598C9.34999 7.1198 8.48999 6.5798 7.62999 6.0398C7.40999 5.9098 7.19999 5.7798 6.97999 5.6398C6.91999 5.5998 6.83999 5.5898 6.75999 5.5998C6.57999 5.6198 6.39999 5.7598 6.39999 6.0098C6.39999 6.6698 6.39999 7.3398 6.39999 7.9998C6.39999 8.6498 6.39999 9.3098 6.39999 9.9598C6.39999 9.9798 6.39999 10.0098 6.39999 10.0298C6.40999 10.3398 6.77999 10.4798 6.98999 10.3498C7.49999 10.0298 8.00999 9.7098 8.52999 9.3898C9.08999 9.0398 9.65999 8.6798 10.22 8.3298C10.28 8.2898 10.33 8.2398 10.36 8.1798C10.45 7.9898 10.39 7.7698 10.21 7.6598Z" fill="#00D2A0"/>
</svg>
