<svg width="28" height="29" viewBox="0 0 28 29" fill="none" xmlns="http://www.w3.org/2000/svg">
<path fill-rule="evenodd" clip-rule="evenodd" d="M27.468 21.3976C27.8185 20.0208 27.9437 18.5939 27.9687 17.192C28.0063 16.0463 28.0016 14.9147 27.9969 13.7866C27.9953 13.4111 27.9937 13.036 27.9937 12.6609C27.9937 11.1089 27.8686 9.58181 27.5932 8.05476C27.443 7.25369 27.1676 6.52771 26.5919 5.95194C26.0411 5.37617 25.3652 5.00067 24.5641 4.90054C23.9633 4.82544 23.3625 4.75034 22.7617 4.7253C21.2097 4.6502 19.6576 4.5751 18.1055 4.52503C17.1042 4.5 16.0778 4.5 15.0764 4.5C12.9736 4.5 10.8958 4.52503 8.81806 4.5751L8.74767 4.57745C8.01863 4.60172 7.26757 4.62673 6.54001 4.67524C5.89846 4.70814 5.2461 4.76265 4.59003 4.81748C4.2477 4.84609 3.90436 4.87479 3.56102 4.90054C3.06035 4.92557 2.60974 5.07577 2.20921 5.32611C1.308 5.87684 0.73223 6.67792 0.506928 7.67926C0.181492 9.03107 0.0563254 10.4079 0.0312918 11.7848C-0.006271 12.968 -0.00156144 14.1371 0.00313394 15.3027C0.00469697 15.6908 0.00625844 16.0784 0.00625844 16.466C0.031292 17.968 0.156459 19.47 0.406794 20.9721C0.582029 21.8482 0.907465 22.6243 1.55834 23.2251C2.05901 23.6757 2.63478 24.0261 3.31068 24.1012C4.03666 24.1763 4.76263 24.2514 5.4886 24.3015L5.48876 24.3015C6.86555 24.3766 8.24234 24.4517 9.61913 24.4768C10.4233 24.4895 11.2275 24.4958 12.0483 24.5022C12.8372 24.5083 13.6414 24.5146 14.4756 24.5268C15.6987 24.5054 17.0321 24.4839 18.3655 24.4624C18.5878 24.4589 18.81 24.4553 19.0317 24.4517C19.7312 24.4267 20.4058 24.4018 21.0803 24.3768L21.0845 24.3766C21.9106 24.3516 22.7367 24.3015 23.5628 24.2264C23.6728 24.2142 23.7828 24.2035 23.8924 24.1928C24.2319 24.1597 24.5679 24.1269 24.8896 24.0512C26.2664 23.6757 27.1176 22.7494 27.468 21.3976ZM13.0735 9.60689L19.5322 13.6623C19.9828 13.9377 20.133 14.4884 19.9077 14.9641C19.8326 15.1143 19.7074 15.2394 19.5572 15.3396C18.8563 15.7776 18.1492 16.222 17.442 16.6663C16.7348 17.1106 16.0275 17.555 15.3266 17.9931C14.0248 18.7942 12.7481 19.5953 11.4714 20.3963C10.9457 20.7218 10.0195 20.3713 9.99443 19.5953V19.42V14.5135V9.53179C9.99443 8.90595 10.445 8.55548 10.8956 8.50542C11.0959 8.48038 11.2962 8.50542 11.4464 8.60555C11.9971 8.95602 12.5228 9.28146 13.0735 9.60689Z" fill="#FCFCFD"/>
</svg>
