<svg width="160" height="72" viewBox="0 0 160 72" fill="none" xmlns="http://www.w3.org/2000/svg">
<g clip-path="url(#clip0_1298:23122)">
<path d="M108.185 -0.00011265C97.0907 -0.0420262 84.8005 3.4294 78.1545 7.52459C75.6783 9.0532 73.1356 10.7667 70.588 12.5764C70.588 12.5764 47.6027 30.3033 40.4619 39.226C39.4949 40.4316 38.6296 41.7156 37.8749 43.0648C37.8232 43.1609 37.769 43.2596 37.7198 43.3582L37.5081 43.7527C37.4909 43.7872 37.4786 43.8217 37.4613 43.8537C36.3131 46.1731 35.5008 48.6445 35.0491 51.1935V51.2576L35.0122 51.5239C34.6282 54.4554 34.7857 57.5816 35.9968 60.2345C37.4515 63.4569 39.8761 65.8633 43.3812 67.8406C46.7682 69.7464 52.9638 71.3663 52.9638 71.3663L52.8628 71.4131C58.0319 72.3303 63.3783 72.0221 68.6015 71.5142C71.1615 71.2644 73.7231 70.9792 76.2863 70.6587H76.3872C76.2198 69.7982 75.9466 68.1488 76.2764 68.06C79.789 67.1256 81.8788 66.561 84.6135 65.6068C86.9123 64.84 89.1368 63.8654 91.2595 62.6951C91.7912 62.4017 92.2096 61.916 92.7659 61.6768C94.5185 60.9199 96.4729 60.7449 98.3584 60.4441C99.8673 60.2064 101.39 60.068 102.917 60.0299C103.904 59.976 104.894 60.0256 105.871 60.1778C106.623 60.2965 107.349 60.5469 108.015 60.9175C108.459 61.1781 108.841 61.5323 109.135 61.9554C109.285 62.276 109.408 62.6137 109.529 62.9416C115.074 60.8608 120.709 58.3509 124.992 54.2803C131.325 48.2571 136.359 40.3872 138.85 32.0045C140.201 27.4483 140.437 22.3299 139.153 17.7564C138.357 14.9285 137.132 13.1065 134.402 10.3328C128.812 4.66215 120.672 1.14881 112.765 0.239041C111.244 0.0752646 109.715 -0.00457365 108.185 -0.00011265ZM70.6003 12.5739C69.4655 13.3802 68.3283 14.2036 67.1985 15.0394L70.6003 12.5739ZM94.5283 17.929C98.1221 17.929 100.113 18.4714 100.113 18.4714C100.113 18.4714 94.2059 19.0237 90.9149 19.6105C88.3057 20.0691 84.1187 20.8851 80.8622 21.9921C74.5017 24.1519 68.4514 27.1697 62.4749 30.2417C57.8818 32.6012 53.4807 35.328 49.0845 38.0401C46.0815 39.8941 40.2231 43.8266 40.2231 43.8266C40.2231 43.8266 45.2224 37.3596 58.5119 29.8818C62.31 27.7442 66.1893 25.7397 70.167 23.9646C73.2759 22.5715 76.4291 21.2525 79.6881 20.2663C82.1719 19.5276 84.7021 18.956 87.262 18.5552C89.124 18.2597 91.0009 18.0671 92.884 17.9783C93.4576 17.9487 94.0065 17.9339 94.5209 17.9315L94.5283 17.929ZM48.9392 24.0928C47.7602 24.0928 46.751 25.4833 46.1331 26.5262C45.3381 27.865 44.9836 30.1579 44.8212 31.9922C47.3713 29.8078 49.9164 27.7737 51.6813 26.398C50.9995 25.2515 50.1454 24.2604 49.178 24.11C49.0962 24.102 49.0139 24.1003 48.9319 24.1051L48.9392 24.0928ZM100.308 29.9459C100.308 29.9459 89.2312 34.1643 83.7076 36.3685C77.357 38.9063 71.0351 41.5181 64.7419 44.2038C60.3457 46.0908 55.9741 48.0352 51.6272 50.0372C47.6322 51.874 39.7038 55.6955 39.7038 55.6955C39.7038 55.6955 46.4556 50.1531 58.9722 44.6723C66.2804 41.4671 71.2058 38.6713 79.0678 36.1022C82.7378 34.9015 86.3611 33.5504 90.073 32.4829C93.4527 31.509 100.308 29.9459 100.308 29.9459ZM104.158 41.228C104.158 41.228 102.602 43.0845 99.1239 45.3897C97.3861 46.5411 95.86 47.7492 94.1542 48.8069C91.9388 50.1753 89.6743 51.4499 87.3383 52.5915C84.4436 54.0067 81.4308 55.1876 78.4425 56.376C75.506 57.5397 72.5547 58.6689 69.5468 59.6354C65.8373 60.8287 62.0909 61.9308 58.2855 62.7592C55.5212 63.3608 49.9164 64.0906 49.9164 64.0906C49.9164 64.0906 56.8406 61.7434 60.2891 60.5279C63.9321 59.2459 67.3831 58.0353 71.1836 56.5831C75.122 55.1038 77.9207 54.0141 81.2757 52.6605C84.0079 51.556 86.7599 50.4859 89.4281 49.2335C91.4712 48.2768 93.4527 47.192 95.4366 46.1195C98.3682 44.5465 104.167 41.228 104.167 41.228H104.158ZM112.221 48.5111C112.221 48.5111 112.128 49.6649 109.204 52.6654C107.802 54.0161 106.265 55.219 104.618 56.2552C99.4833 59.4258 96.7412 60.2345 96.7412 60.2345C96.7412 60.2345 101.809 56.9135 104.261 55.1359C105.706 54.088 107.129 53.0007 108.5 51.8568C109.794 50.7867 112.231 48.5111 112.231 48.5111H112.221ZM33.4959 59.4899C31.7729 60.2666 29.6954 61.2306 28.3268 61.9554C25.8087 63.3139 20.8414 65.6808 21.0039 66.4525C21.25 67.6286 26.8794 65.3554 29.8086 64.771C31.6744 64.4012 33.5279 64.0117 35.3863 63.6147C34.6274 62.3028 33.9944 60.9217 33.4959 59.4899ZM102.233 61.3736C101.393 61.3804 100.554 61.4323 99.7196 61.5289C96.7535 61.8593 95.951 62.1231 93.5659 62.8973C92.7191 63.1734 92.2219 63.6172 91.5573 63.9821C90.366 64.6379 89.2435 65.4293 88.0005 65.9841C86.2134 66.7804 84.3083 67.2908 82.4425 67.8578C80.8991 68.3263 80.685 68.4175 77.7656 69.1177C77.261 69.2385 77.7361 70.0645 78.189 70.6956C85.0959 70.8362 106.004 71.1715 106.27 70.0078L107.81 63.5975L108.224 63.452C108.176 63.2469 108.101 63.0489 108.002 62.8627C107.751 62.4216 107.378 62.0615 106.929 61.8248C106.191 61.4549 105.29 61.5141 104.453 61.4574C103.683 61.4032 102.981 61.3687 102.233 61.3736ZM106.011 63.0994C106.841 63.1142 107.51 63.24 107.508 63.6517C107.508 64.5368 105.6 64.4924 104.729 64.5787C99.1116 65.1359 97.1424 65.0398 93.3468 65.057C92.6084 65.057 91.1635 64.9831 91.1635 64.9831C91.1635 64.9831 94.8114 64.1152 98.0556 63.7232C99.9411 63.4964 101.777 63.2622 103.587 63.2005C104.202 63.1808 105.184 63.0846 106.011 63.0994ZM101.711 66.6276C102.385 66.6081 103.06 66.6419 103.729 66.7287C104.256 66.8026 104.852 66.8273 105.26 67.17C105.443 67.3204 105.654 67.6483 105.58 67.8036C105.43 68.1192 104.867 68.134 103.665 68.2153C102.223 68.314 100.817 68.4298 99.3897 68.4742C95.8551 68.5802 88.7808 68.4545 88.7808 68.4545C88.7808 68.4545 90.9961 67.8677 92.1087 67.6655C94.6136 67.2043 97.1435 66.8915 99.6851 66.7287C100.357 66.6867 101.046 66.6399 101.711 66.6276Z" fill="#FCFCFD"/>
</g>
<defs>
<clipPath id="clip0_1298:23122">
<rect width="160" height="72" fill="white"/>
</clipPath>
</defs>
</svg>
